<?xml version="1.0" encoding="UTF-8" standalone="no"?><!DOCTYPE svg PUBLIC "-//W3C//DTD SVG 1.1//EN" "http://www.w3.org/Graphics/SVG/1.1/DTD/svg11.dtd"><svg width="100%" height="100%" viewBox="0 0 1276 696" version="1.1" xmlns="http://www.w3.org/2000/svg" xmlns:xlink="http://www.w3.org/1999/xlink" xml:space="preserve" xmlns:serif="http://www.serif.com/" style="fill-rule:evenodd;clip-rule:evenodd;stroke-linecap:round;stroke-linejoin:round;stroke-miterlimit:10;"><path d="M24.306,299.039c1.362,-5.691 12.396,-15.097 16.013,-19.734c38.72,-49.645 75.215,-108.178 129.916,-142.23c16.309,-10.154 68.493,-26.165 78.049,1.456c13.44,38.854 -35.264,78.896 -59.055,101.889c-62.815,60.69 -110.339,138.799 -156.789,212.137c-14.396,22.733 -19.228,47.521 -19.228,74.197c0,26.889 -2.719,35.855 22.215,44.309c8.834,2.999 18.728,7.344 28.048,8.029c39.09,2.897 85.04,-73.851 106.216,-98.087c31.934,-36.555 61.167,-75.559 93.609,-111.618c17.181,-19.088 35.541,-36.972 51.452,-57.234c44.2,-56.265 88.019,-113.113 135.788,-166.443c20.254,-22.615 112.245,-138.908 155.525,-94.458c21.541,22.127 -1.184,100.724 -10.548,123.866c-15.409,38.09 -38,66.656 -61.826,99.732c-13.844,19.222 -25.016,39.145 -41.153,56.707c-44.124,48.031 -92.022,92.057 -122.842,150.33c-9.642,18.23 -20.423,36.311 -28.007,55.541c-3.712,9.407 -22.064,78.574 -13.406,88.704c3.212,3.763 17.949,-1.22 21.472,-2.054c48.868,-11.564 88.621,-39.437 122.994,-76.291c45.144,-48.394 68.768,-107.249 98.688,-165.467c18.585,-36.162 38.986,-72.182 59.179,-107.517c32.687,-57.202 82.91,-106.572 126.534,-155.399c32.248,-36.091 147.831,-114.751 156.475,-105.534c5.69,6.069 7.182,20.442 9.16,27.834c16.752,62.555 -2.034,124.385 -45.71,172.441c-29.515,32.478 -63.551,60.776 -95.683,90.515c-69.51,64.333 -131.249,147.583 -166.314,235.649c-8.52,21.403 -36.476,114.531 -19.878,141.176c3.548,5.699 97.896,-28.456 135.969,-61.65c14.868,-12.964 23.608,-31.793 34.702,-47.764c46.764,-67.341 57.684,-148.473 94.222,-221.135c41.679,-82.887 104.029,-150.039 166.556,-218.135c30.447,-33.163 101.38,-121.599 154.279,-115.845c63.967,6.95 53.864,112.578 23.456,147.583c-22.408,25.795 -44.43,52.212 -69.723,75.291c-78.368,71.489 -167.623,135.28 -184.854,247.921c-1.875,12.256 -6.336,121.434 -3.027,123.504c14.844,9.265 69.73,-29.683 80.64,-36.658c40.177,-25.692 82.096,-48.063 123.034,-72.402c25.747,-15.31 81.323,-60.422 112.097,-61.996" style="fill:none;fill-rule:nonzero;stroke:#d6ea7a;stroke-width:26.25px;"/></svg>