<?xml version="1.0" encoding="UTF-8" standalone="no"?><!DOCTYPE svg PUBLIC "-//W3C//DTD SVG 1.1//EN" "http://www.w3.org/Graphics/SVG/1.1/DTD/svg11.dtd"><svg width="100%" height="100%" viewBox="0 0 43 41" version="1.1" xmlns="http://www.w3.org/2000/svg" xmlns:xlink="http://www.w3.org/1999/xlink" xml:space="preserve" xmlns:serif="http://www.serif.com/" style="fill-rule:evenodd;clip-rule:evenodd;stroke-linecap:round;stroke-linejoin:round;stroke-miterlimit:10;"><g><g><path d="M0.375,40.149c0.333,0.038 0.665,0.098 0.997,0.098c5.55,0.008 11.099,0.008 16.648,-0.007c0.366,-0 5.814,0.03 6.18,-0.038" style="fill:none;fill-rule:nonzero;stroke:#162100;stroke-width:0.75px;"/><path d="M37.857,21.217c0.266,0.068 0.538,0.113 0.797,0.203c0.837,0.285 2.285,-0.068 2.897,-0.699c0.233,-0.233 0.169,-0.345 0.013,-0.616c-0.484,-0.834 -0.864,-1.72 -1.327,-2.569c-0.118,-0.218 -0.259,-0.331 -0.096,-0.609c0.534,-0.916 0.523,-1.998 0.799,-2.99c0.08,-0.285 0.549,-1.375 0.11,-1.503c-0.33,-0.097 -0.613,-0.18 -0.898,0.015c-0.804,0.556 -1.59,1.135 -2.398,1.683c-0.38,0.263 -0.794,0.474 -1.193,0.707c-0.133,-0.369 -0.275,-0.729 -0.396,-1.097c-0.208,-0.631 -0.387,-1.27 -0.605,-1.894c-0.186,-0.533 -0.618,-0.631 -0.98,-0.187c-0.261,0.315 -0.444,0.706 -0.604,1.089c-0.386,0.917 -0.724,1.863 -1.112,2.78c-0.108,0.255 -0.284,0.518 -0.498,0.691c-0.378,0.3 -0.836,0.098 -1.092,-0.383c-0.836,-1.593 -1.43,-3.306 -2.478,-4.793c-1.243,-1.766 -2.831,-2.991 -4.888,-3.704c-2.318,-0.804 -4.413,-0.278 -6.261,1.052c-1.475,1.074 -2.634,2.509 -2.925,4.447c-0.096,0.654 -0.31,1.225 0.071,1.916c0.313,0.563 0.291,1.315 0.441,1.976c0.069,0.3 0.194,0.593 0.294,0.894" style="fill:none;fill-rule:nonzero;stroke:#162100;stroke-width:0.75px;"/><path d="M23.702,19.226c1.906,1.908 3.55,4.034 5.184,6.176c0.59,0.766 0.852,1.314 1.534,1.998c0.469,0.473 0.568,2.442 0.568,3.681c-0,1.698 -0.009,3.389 -0.009,5.087" style="fill:none;fill-rule:nonzero;stroke:#162100;stroke-width:0.75px;"/><path d="M12.903,34.267c1.529,0.007 2.293,-0.023 3.821,0.015c1.595,0.03 3.199,0.037 4.782,0.21c1.727,0.188 3.447,0.383 5.187,0.391c0.764,-0 1.528,0.12 2.292,0.188" style="fill:none;fill-rule:nonzero;stroke:#162100;stroke-width:0.75px;"/><path d="M37.857,20.616c-0.598,1.683 -0.704,3.411 -0.723,5.184c-0.019,1.795 -0.271,3.583 -0.363,5.387c-0.058,1.119 0.009,2.253 -0.023,3.38c-0.009,0.323 0.281,0.842 -0.386,0.902c-0.48,0.045 -0.915,-0.346 -0.999,-0.894c-0.021,-0.135 -0.119,-0.286 -0.089,-0.398c0.281,-1.105 -0.164,-2.134 -0.302,-3.193c-0.098,-0.759 -0.166,-1.525 -0.196,-2.292c-0.018,-0.481 -0.1,-0.916 -0.408,-1.299" style="fill:none;fill-rule:nonzero;stroke:#162100;stroke-width:0.75px;"/><path d="M14.044,18.738c-1.285,0.984 -2.49,2.239 -2.937,3.305c-0.529,1.255 -1.38,2.389 -1.494,3.854c-0.102,1.3 -0.383,2.54 -0.216,3.9c0.277,2.254 0.994,4.282 2.359,6.055c1.179,1.533 2.609,2.817 4.363,3.719c0.865,0.443 1.813,0.33 2.698,0.578c0.101,0.03 0.2,0.068 0.3,0.106" style="fill:none;fill-rule:nonzero;stroke:#162100;stroke-width:0.75px;"/><path d="M24.2,40.202c1.693,-0.03 3.175,-0.684 4.58,-1.555c0.209,-0.128 0.338,-0.391 0.504,-0.586" style="fill:none;fill-rule:nonzero;stroke:#162100;stroke-width:0.75px;"/><path d="M28.985,37.76c-0.332,-0.03 -0.664,-0.097 -0.997,-0.097c-4.485,-0.008 -8.971,-0 -13.457,-0c-0.233,-0 -0.465,0.067 -0.698,0.097" style="fill:none;fill-rule:nonzero;stroke:#162100;stroke-width:0.75px;"/><path d="M19.515,16.634c-0.299,1.856 -0.597,3.719 -0.897,5.582c-0.264,1.623 -0.601,3.246 -0.776,4.884c-0.141,1.314 -0.088,2.652 -0.121,3.981" style="fill:none;fill-rule:nonzero;stroke:#162100;stroke-width:0.75px;"/><path d="M10.743,6.064c-0.526,0.18 -1.017,0.345 -0.91,1.104c0.092,0.646 0.545,1.367 1.003,1.6c0.536,0.278 0.895,-0.075 1.189,-0.323c1.247,-1.082 2.292,-2.291 2.724,-3.967c0.364,-1.412 -0.456,-3.501 -2.211,-3.997c-0.877,-0.24 -1.689,-0.045 -2.494,0.301c-3.233,1.39 -5.026,3.959 -5.749,7.287c-0.263,1.203 -0.073,2.51 0.389,3.667c0.534,1.352 1.23,2.607 2.353,3.621c1.091,0.984 2.344,1.322 3.701,1.142c1.026,-0.135 2.095,-0.368 2.895,-1.165c0.301,-0.293 0.599,-0.593 0.898,-0.894" style="fill:none;fill-rule:nonzero;stroke:#162100;stroke-width:0.75px;"/><path d="M32.596,34.229c0.706,-1.412 0.889,-2.284 1,-2.742c0.27,-1.119 0.334,-2.246 0.401,-3.396c0.058,-0.969 -0.006,-1.878 -0.321,-2.795c-1.154,-3.35 -3.222,-5.98 -6.302,-7.738c-0.651,-0.375 -1.469,-0.481 -2.188,-0.804c-0.638,-0.285 -1.374,-0.338 -2.075,-0.458c-1.015,-0.188 -2.008,-0.188 -2.995,-0.045c-0.977,0.143 -1.965,0.353 -2.885,0.699c-1.14,0.435 -2.207,1.051 -3.187,1.788c-0.213,0.157 -0.395,0.518 -0.392,0.781c0.037,2.862 0.087,5.717 0.196,8.572c0.037,0.969 0.251,1.931 0.384,2.893" style="fill:none;fill-rule:nonzero;stroke:#162100;stroke-width:0.75px;"/><path d="M22.406,23.013c0.829,0.315 1.258,1.096 1.767,1.712c1.28,1.556 2.471,3.186 3.673,4.809" style="fill:none;fill-rule:nonzero;stroke:#162100;stroke-width:0.75px;"/><path d="M32.396,26.153c0.084,1.968 0.082,3.734 0.287,5.627c0.036,0.331 0.158,0.661 0.183,0.999c0.054,0.729 -0.159,1.398 -0.591,1.991c-0.363,0.496 -0.716,0.984 -1.143,1.443c-0.397,0.428 -1.147,1.555 -2.352,2.434" style="fill:none;fill-rule:nonzero;stroke:#162100;stroke-width:0.75px;"/><path d="M25.681,16.942c0.248,0.248 0.543,0.601 0.716,0.781c1.996,2.036 3.838,4.185 5.386,6.582" style="fill:none;fill-rule:nonzero;stroke:#162100;stroke-width:0.75px;"/><path d="M10.822,22.659c0.1,1.293 0.266,2.48 0.372,3.772c0.088,1.082 0.329,2.021 0.485,3.103" style="fill:none;fill-rule:nonzero;stroke:#162100;stroke-width:0.75px;"/><path d="M21.409,26.401c1.329,1.758 2.654,3.523 3.995,5.274c0.11,0.143 0.321,0.285 0.491,0.293c1.063,0.06 2.408,0.075 3.472,0.113" style="fill:none;fill-rule:nonzero;stroke:#162100;stroke-width:0.75px;"/><path d="M9.846,31.081c0.918,-0.368 1.858,-0.135 2.791,-0.097c0.399,0.015 0.797,0.082 1.196,0.097c1.761,0.068 3.524,0.106 5.283,0.211c1.597,0.09 3.191,0.24 4.785,0.398c0.498,0.045 1.021,0.113 1.994,0.278" style="fill:none;fill-rule:nonzero;stroke:#162100;stroke-width:0.75px;"/><path d="M24.2,16.732c-0.232,0.894 -0.437,1.803 -0.704,2.689c-0.373,1.232 -0.782,2.465 -1.192,3.689c-0.723,2.164 -1.458,4.32 -2.192,6.476c-0.193,0.571 -0.398,1.127 -0.597,1.698" style="fill:none;fill-rule:nonzero;stroke:#162100;stroke-width:0.75px;"/><path d="M29.535,30.345c-0.058,0.736 -0.143,2.367 -0.158,2.727c-0.068,1.6 -0.316,3.186 -0.192,4.786" style="fill:none;fill-rule:nonzero;stroke:#162100;stroke-width:0.75px;"/></g></g></svg>