<?xml version="1.0" encoding="UTF-8" standalone="no"?><!DOCTYPE svg PUBLIC "-//W3C//DTD SVG 1.1//EN" "http://www.w3.org/Graphics/SVG/1.1/DTD/svg11.dtd"><svg width="100%" height="100%" viewBox="0 0 56 30" version="1.1" xmlns="http://www.w3.org/2000/svg" xmlns:xlink="http://www.w3.org/1999/xlink" xml:space="preserve" xmlns:serif="http://www.serif.com/" style="fill-rule:evenodd;clip-rule:evenodd;stroke-linecap:round;stroke-linejoin:round;stroke-miterlimit:10;"><g><g><path d="M46.539,24.679c1.101,0.413 2.223,0.774 3.298,1.247c1.384,0.601 2.763,1.09 4.343,0.894c0.791,-0.097 1.341,0.459 1.341,1.18c-0,0.616 -0.274,0.849 -0.93,0.856c-2.546,0 -5.093,0.038 -7.639,0.023c-3.202,-0.015 -6.401,-0.083 -9.602,-0.09c-1.547,-0.008 -3.098,0.127 -4.645,0.127c-3.202,-0.007 -6.401,-0.075 -9.601,-0.097c-1.169,-0 -2.341,0.097 -3.511,0.097c-0.861,0 -1.72,-0.082 -2.581,-0.112c-0.446,-0.015 -0.899,0.067 -1.342,0.03c-1.791,-0.128 -3.593,-0.211 -5.365,-0.458c-1.828,-0.263 -3.647,-0.662 -5.263,-1.578c-1.261,-0.714 -2.218,-1.766 -3,-2.983c-0.878,-1.36 -1.413,-2.877 -1.629,-4.477c-0.154,-1.142 0.178,-2.277 0.71,-3.306c0.981,-1.908 2.689,-2.953 4.642,-3.524c1.758,-0.518 3.571,-0.841 5.363,-1.224c1.304,-0.278 2.366,-0.909 3.095,-2.059c0.773,-1.209 0.449,-2.058 -0.226,-2.96c-0.715,-0.946 -1.801,-1.382 -2.968,-1.683c-1.712,-0.443 -3.349,-0.248 -4.956,0.489c-0.337,0.15 -0.646,0.398 -0.93,0.638c-0.876,0.767 -0.892,1.345 0.121,2.126c0.418,0.323 1.077,0.346 1.634,0.481c0.079,0.015 0.203,-0.135 0.306,-0.203c-0.103,-0.097 -0.206,-0.203 -0.309,-0.3" style="fill:none;fill-rule:nonzero;stroke:#162100;stroke-width:0.75px;"/><path d="M16.496,28.608c-0.516,-0.36 -1.023,-0.736 -1.551,-1.081c-2.549,-1.668 -3.383,-4.193 -3.164,-7.1c0.131,-1.751 0.923,-3.328 2.237,-4.605c1.951,-1.886 4.305,-2.878 6.912,-3.434c1.824,-0.391 3.644,-0.556 5.476,-0.541c1.277,0.008 2.558,0.12 3.816,0.301c0.524,0.075 0.63,-0.083 0.507,-0.451c-0.263,-0.781 0.054,-1.442 0.55,-1.953c0.585,-0.609 0.5,-1.195 0.406,-1.894c-0.267,-1.93 -0.607,-3.869 -0.321,-5.852c0.025,-0.173 0.024,-0.368 0.11,-0.511c0.242,-0.406 0.277,-1.104 0.817,-1.112c0.348,-0.007 0.735,0.428 1.025,0.744c0.99,1.074 1.872,2.239 2.586,3.516c0.243,0.436 0.49,0.879 0.419,1.427c-0.039,0.301 0.046,0.444 0.406,0.519c1.25,0.255 2.469,0.646 3.725,0.871c0.837,0.15 1.718,0.165 2.576,0.113c0.248,-0.015 0.58,-0.421 0.705,-0.714c0.394,-0.916 0.694,-1.871 1.054,-2.802c0.335,-0.864 0.778,-1.66 1.313,-2.434c0.378,-0.541 0.703,-0.211 0.94,-0.083c0.274,0.143 0.533,0.473 0.617,0.781c0.416,1.51 0.846,3.021 1.072,4.591c0.27,1.87 0.448,3.756 0.597,5.642c0.04,0.518 0.069,1.029 0.103,1.54" style="fill:none;fill-rule:nonzero;stroke:#162100;stroke-width:0.75px;"/><path d="M54.798,17.211c-0.036,-0.976 -0.742,-1.502 -1.46,-1.885c-0.974,-0.511 -2.039,-0.879 -3.087,-1.247c-0.56,-0.203 -0.825,-0.023 -1.024,0.533c-0.059,0.165 -0.103,0.346 -0.103,0.518c-0.002,1.916 -0.438,3.757 -1.019,5.597c-0.449,1.42 -0.935,2.803 -1.763,4.065c-0.168,0.255 -0.299,0.466 -0.629,0.428" style="fill:none;fill-rule:nonzero;stroke:#162100;stroke-width:0.75px;"/><path d="M24.774,9.984c1.782,-0.556 5.141,0.391 5.885,0.736" style="fill:none;fill-rule:nonzero;stroke:#162100;stroke-width:0.75px;"/><path d="M49.326,12.328c1.626,-0.203 3.146,0.195 4.643,0.691c0.421,0.135 0.923,0.278 0.933,0.887" style="fill:none;fill-rule:nonzero;stroke:#162100;stroke-width:0.75px;"/><path d="M49.326,15.716c0.662,0.346 1.345,0.654 1.982,1.037c1.295,0.781 2.199,1.856 2.411,3.418" style="fill:none;fill-rule:nonzero;stroke:#162100;stroke-width:0.75px;"/><path d="M28.227,6.077c0.655,0.391 1.329,0.752 1.955,1.18c0.514,0.353 0.971,0.781 1.452,1.179" style="fill:none;fill-rule:nonzero;stroke:#162100;stroke-width:0.75px;"/><path d="M26.473,7.663c1.481,0.217 2.734,0.961 4.029,1.615c0.229,0.12 0.48,0.195 0.72,0.293" style="fill:none;fill-rule:nonzero;stroke:#162100;stroke-width:0.75px;"/></g></g></svg>