<?xml version="1.0" encoding="UTF-8" standalone="no"?>
<!DOCTYPE svg PUBLIC "-//W3C//DTD SVG 1.1//EN" "http://www.w3.org/Graphics/SVG/1.1/DTD/svg11.dtd">
<svg width="100%" height="100%" viewBox="0 0 574 792" version="1.1" xmlns="http://www.w3.org/2000/svg" xmlns:xlink="http://www.w3.org/1999/xlink" xml:space="preserve" xmlns:serif="http://www.serif.com/" style="fill-rule:evenodd;clip-rule:evenodd;stroke-linecap:round;stroke-linejoin:round;stroke-miterlimit:10;">
    <g transform="matrix(1,0,0,1,-0.333333,-0.333333)">
        <g transform="matrix(1.00171,0,0,1.05385,22.2863,-11.0876)">
            <g transform="matrix(1,0,0,0.950532,5.55112e-15,-8138.67)">
                <path d="M491.676,8798.69C490.005,8799.06 489.076,8800.15 488.446,8801.7C488.169,8802.37 487.976,8802.89 488.486,8803.47C489.065,8804.13 489.68,8803.66 490.235,8803.45C491.572,8802.96 492.651,8801.05 492.67,8799.64C492.68,8798.92 492.186,8798.93 491.835,8798.69" style="fill:none;fill-rule:nonzero;stroke:rgb(246,245,241);stroke-width:1.33px;"/>
            </g>
            <g transform="matrix(1,0,0,0.950532,5.55112e-15,-8131.04)">
                <path d="M477.537,8794.67C475.867,8795.05 474.938,8796.14 474.307,8797.69C474.031,8798.36 473.837,8798.88 474.347,8799.46C474.927,8800.12 475.541,8799.65 476.096,8799.44C477.434,8798.95 478.512,8797.04 478.532,8795.63C478.542,8794.91 478.048,8794.92 477.697,8794.67" style="fill:none;fill-rule:nonzero;stroke:rgb(246,245,241);stroke-width:1.33px;"/>
            </g>
            <g transform="matrix(1,0,0,0.950532,5.55112e-15,-8150.5)">
                <path d="M505.183,8821C505.05,8820.04 505.654,8819.38 506.15,8818.7C506.683,8817.97 507.279,8817.28 507.9,8816.63C508.373,8816.13 508.249,8815.86 507.743,8815.49C507.265,8815.14 506.931,8814.59 506.448,8814.25C504.961,8813.19 504.053,8811.55 502.488,8810.55C501.029,8809.62 500.276,8808.04 499.464,8806.58C497.498,8803.06 495.657,8799.47 493.677,8795.95C493.349,8795.37 493.205,8794.27 492.292,8794.43C491.937,8794.49 491.731,8795.5 491.483,8796.09C490.15,8799.27 488.832,8802.46 487.484,8805.63C487.375,8805.89 487.109,8806.14 486.855,8806.27C484.634,8807.4 482.378,8808.46 480.18,8809.64C479.373,8810.07 478.812,8810.15 478.083,8809.47C474.956,8806.57 471.441,8804.18 467.899,8801.82C466.982,8801.21 466.74,8801.38 466.614,8802.45C466.333,8804.85 465.938,8807.23 465.686,8809.62C465.497,8811.41 465.453,8813.23 465.354,8815.03C465.331,8815.45 465.391,8815.88 465.344,8816.3C465.176,8817.8 465.123,8817.82 463.599,8817.9C460.412,8818.05 457.225,8818.21 454.039,8818.37" style="fill:none;fill-rule:nonzero;stroke:rgb(246,245,241);stroke-width:1.33px;"/>
            </g>
            <g transform="matrix(1,0,0,0.950532,5.55112e-15,-8113.33)">
                <path d="M516.176,8785.31C514.108,8784.9 512.077,8784.39 510.112,8783.58C508.672,8782.99 507.117,8782.68 505.673,8782.1C504.878,8781.78 504.496,8782.15 504.07,8782.61C502.377,8784.44 500.939,8786.46 499.785,8788.66C499.036,8790.09 497.838,8790.76 496.435,8791.39C494.178,8792.4 491.739,8792.61 489.41,8793.27C487.066,8793.94 484.662,8794.29 482.239,8794.35C480.969,8794.38 479.653,8794.21 478.423,8793.88C475.373,8793.06 472.364,8792.09 469.332,8791.21C468.926,8791.09 468.484,8791.09 468.06,8791.04" style="fill:none;fill-rule:nonzero;stroke:rgb(246,245,241);stroke-width:1.33px;"/>
            </g>
            <g transform="matrix(-0.975623,-0.208596,-0.219452,0.927361,2835.12,-7817.14)">
                <path d="M454.458,8781.12C453.862,8782.02 454.039,8783.01 454.136,8783.99C454.303,8785.65 454.089,8787.32 454.458,8788.97C454.581,8789.52 454.812,8789.89 455.177,8790.26C457.899,8792.98 460.844,8795.47 463.299,8798.44" style="fill:none;fill-rule:nonzero;stroke:rgb(246,245,241);stroke-width:1.33px;"/>
            </g>
            <g transform="matrix(1,0,0,0.950532,5.55112e-15,-8101.8)">
                <path d="M462.802,8775.57C463.891,8776.39 464.991,8777.18 466.302,8777.65C466.762,8777.82 467.15,8778.18 467.583,8778.43C468.124,8778.74 467.942,8779.16 467.736,8779.54C467.113,8780.72 466.428,8781.86 465.838,8783.05C464.954,8784.84 464.13,8786.66 463.279,8788.46" style="fill:none;fill-rule:nonzero;stroke:rgb(246,245,241);stroke-width:1.33px;"/>
            </g>
            <g transform="matrix(1,0,0,0.950532,5.55112e-15,-8115.1)">
                <path d="M488.606,8786.98C489.187,8787.79 489.247,8788.74 488.765,8789.53C487.867,8790.99 486.97,8791.04 485.42,8789.69" style="fill:none;fill-rule:nonzero;stroke:rgb(246,245,241);stroke-width:1.33px;"/>
            </g>
            <g transform="matrix(-0.753014,0.625454,0.658005,0.715764,-4936,-6353.83)">
                <path d="M484.835,8787.49C485.137,8787.99 485.627,8788.48 485.705,8789.02C485.803,8789.72 485.831,8790.55 484.835,8790.88C483.735,8791.25 482.314,8791.1 481.838,8790.32C481.297,8789.43 480.892,8788.46 480.427,8787.52" style="fill:none;fill-rule:nonzero;stroke:rgb(246,245,241);stroke-width:1.33px;"/>
            </g>
            <g transform="matrix(1,0,0,0.950532,5.55112e-15,-8123.94)">
                <path d="M482.493,8795C481.894,8794.68 481.422,8794.07 481.378,8793.39C481.334,8792.7 481.795,8791.99 482.466,8791.86C483.136,8791.72 483.885,8792.32 483.811,8793C483.957,8792.59 484.129,8792.19 484.432,8791.88C484.736,8791.58 485.2,8791.4 485.604,8791.55C486.159,8791.74 486.375,8792.43 486.32,8793.02C486.14,8794.96 484.166,8795.92 482.493,8795Z" style="fill:none;fill-rule:nonzero;stroke:rgb(246,245,241);stroke-width:1.33px;"/>
            </g>
            <g transform="matrix(1,0,0,0.950532,5.55112e-15,-7903.21)">
                <path d="M252.815,8677.8C251.297,8674.03 248.3,8672.89 244.479,8672.97C242.574,8673 241.48,8673.6 240.821,8675.49C238.742,8681.45 240.775,8685.02 245.07,8688.7C246.755,8690.15 248.887,8691.09 251.237,8691.4C254.904,8691.88 257.336,8689.94 259.335,8687.34C262.455,8683.29 264.568,8678.81 264.227,8673.52C264.085,8671.32 264.132,8669.07 263.634,8666.95C262.916,8663.9 260.888,8663.23 258.15,8664.51C255.106,8665.93 253.202,8668.47 252.421,8671.79C252.159,8672.91 251.796,8674 251.479,8675.1" style="fill:none;fill-rule:nonzero;stroke:rgb(246,245,241);stroke-width:1.33px;"/>
            </g>
            <g transform="matrix(1,0,0,0.950532,5.55112e-15,-7845.61)">
                <path d="M278.874,8647.4C278.144,8644.91 278.509,8642 280.225,8640.04C281.946,8638.09 285.114,8637.4 287.277,8638.85C289.439,8640.3 289.858,8643.91 287.828,8645.55C289.306,8644.85 290.868,8644.22 292.497,8644.23C294.131,8644.23 295.857,8645 296.563,8646.47C297.533,8648.49 296.259,8650.93 294.538,8652.35C288.815,8657.11 280.91,8654.38 278.874,8647.4Z" style="fill:none;fill-rule:nonzero;stroke:rgb(246,245,241);stroke-width:1.33px;"/>
            </g>
            <g transform="matrix(1,0,0,0.950532,5.55112e-15,-7945.29)">
                <path d="M275.369,8701.82C273.164,8696.33 273.344,8689.67 276.795,8684.86C280.257,8680.05 287.277,8677.8 292.495,8680.61C297.712,8683.4 299.461,8691.49 295.229,8695.63C298.421,8693.74 301.817,8691.96 305.506,8691.61C309.207,8691.25 313.284,8692.61 315.21,8695.79C317.854,8700.14 315.511,8705.95 311.931,8709.56C300.029,8721.58 281.527,8717.16 275.369,8701.82Z" style="fill:none;fill-rule:nonzero;stroke:rgb(246,245,241);stroke-width:1.33px;"/>
            </g>
            <g transform="matrix(1,0,0,0.950532,5.55112e-15,-7621.59)">
                <path d="M46.427,8531.36C46.752,8530.65 47.431,8530.54 48.022,8530.66C48.823,8530.83 49.62,8531.14 50.338,8531.54C50.784,8531.78 51.093,8532.29 51.441,8532.7C53.643,8535.28 57.027,8535.79 60.013,8534.25C62.414,8533.02 64.058,8531.23 65.169,8528.82C66.091,8526.83 66.042,8524.76 65.433,8522.79C65.088,8521.67 64.151,8520.7 63.347,8519.77C60.277,8516.25 56.449,8514.34 51.692,8514.6C48.994,8514.75 46.428,8515.53 44.084,8516.81C41.836,8518.03 39.585,8519.35 37.608,8520.96C33.231,8524.53 30.06,8528.92 29.642,8534.8C29.366,8538.68 32.382,8543.35 36.123,8544.02C38.706,8544.49 41.084,8544.48 43.277,8543.04C46.468,8540.94 47.55,8537.62 46.231,8534.5C45.821,8533.53 45.484,8532.52 46.363,8531.59" style="fill:none;fill-rule:nonzero;stroke:rgb(246,245,241);stroke-width:1.33px;"/>
            </g>
            <g>
                <g transform="matrix(1,0,0,0.950532,292.496,-8058.35)">
                    <path d="M46.427,8531.36C46.752,8530.65 47.431,8530.54 48.022,8530.66C48.823,8530.83 49.62,8531.14 50.338,8531.54C50.784,8531.78 51.093,8532.29 51.441,8532.7C53.643,8535.28 57.027,8535.79 60.013,8534.25C62.414,8533.02 64.058,8531.23 65.169,8528.82C66.091,8526.83 66.042,8524.76 65.433,8522.79C65.088,8521.67 64.151,8520.7 63.347,8519.77C60.277,8516.25 56.449,8514.34 51.692,8514.6C48.994,8514.75 46.428,8515.53 44.084,8516.81C41.836,8518.03 39.585,8519.35 37.608,8520.96C33.231,8524.53 30.06,8528.92 29.642,8534.8C29.366,8538.68 32.382,8543.35 36.123,8544.02C38.706,8544.49 41.084,8544.48 43.277,8543.04C46.468,8540.94 47.55,8537.62 46.231,8534.5C45.821,8533.53 45.484,8532.52 46.363,8531.59" style="fill:none;fill-rule:nonzero;stroke:rgb(246,245,241);stroke-width:1.33px;"/>
                </g>
                <g transform="matrix(1,0,0,0.950532,292.496,-8100.61)">
                    <path d="M37.633,8553.24C38.317,8554.19 38.87,8555.28 39.709,8556.07C42.123,8558.32 45.21,8557.4 46.067,8554.22C46.844,8551.33 46.122,8548.78 43.962,8546.77C42.326,8545.24 40.14,8544.97 38.621,8546.21C37.362,8547.23 37.201,8548.71 37.088,8550.14C37.013,8551.11 37.019,8552.15 37.697,8553" style="fill:none;fill-rule:nonzero;stroke:rgb(246,245,241);stroke-width:1.33px;"/>
                </g>
                <g transform="matrix(1,0,0,0.950532,292.496,-8062.76)">
                    <path d="M26.275,8530.47C24.117,8527.74 20.841,8527.15 17.681,8528.19C15.497,8528.9 14.916,8532.43 16.786,8533.92C19.226,8535.86 22.055,8536.32 24.972,8535.19C25.681,8534.92 26.19,8533.98 26.658,8533.26C27.248,8532.35 26.574,8531.49 26.362,8530.62" style="fill:none;fill-rule:nonzero;stroke:rgb(246,245,241);stroke-width:1.33px;"/>
                </g>
                <g transform="matrix(1,0,0,0.950532,292.496,-8086.09)">
                    <path d="M24.56,8539.45C22.248,8542.55 24.15,8545.63 26.358,8547.67C27.318,8548.56 28.576,8549.32 30.088,8549.4C32.553,8549.54 33.728,8548.39 33.745,8545.87C33.755,8544.1 32.928,8542.66 31.913,8541.48C30.392,8539.71 28.417,8538.47 25.861,8538.91C25.464,8538.98 25.094,8539.21 24.712,8539.36" style="fill:none;fill-rule:nonzero;stroke:rgb(246,245,241);stroke-width:1.33px;"/>
                </g>
                <g transform="matrix(1,0,0,0.950532,292.496,-8104.35)">
                    <path d="M54.969,8548.37C53.064,8550.65 52.348,8553.26 53.027,8556.16C53.299,8557.32 53.843,8558.38 54.898,8559.12C56.101,8559.96 57.784,8560.06 58.734,8559.1C61.692,8556.1 62.132,8551.7 59.673,8548.48C58.944,8547.53 57.303,8547.16 56.184,8547.68C55.815,8547.85 55.474,8548.08 55.121,8548.28" style="fill:none;fill-rule:nonzero;stroke:rgb(246,245,241);stroke-width:1.33px;"/>
                </g>
            </g>
            <g transform="matrix(1,0,0,0.950532,5.55112e-15,-7663.85)">
                <path d="M37.633,8553.24C38.317,8554.19 38.87,8555.28 39.709,8556.07C42.123,8558.32 45.21,8557.4 46.067,8554.22C46.844,8551.33 46.122,8548.78 43.962,8546.77C42.326,8545.24 40.14,8544.97 38.621,8546.21C37.362,8547.23 37.201,8548.71 37.088,8550.14C37.013,8551.11 37.019,8552.15 37.697,8553" style="fill:none;fill-rule:nonzero;stroke:rgb(246,245,241);stroke-width:1.33px;"/>
            </g>
            <g transform="matrix(1,0,0,0.950532,5.55112e-15,-7626)">
                <path d="M26.275,8530.47C24.117,8527.74 20.841,8527.15 17.681,8528.19C15.497,8528.9 14.916,8532.43 16.786,8533.92C19.226,8535.86 22.055,8536.32 24.972,8535.19C25.681,8534.92 26.19,8533.98 26.658,8533.26C27.248,8532.35 26.574,8531.49 26.362,8530.62" style="fill:none;fill-rule:nonzero;stroke:rgb(246,245,241);stroke-width:1.33px;"/>
            </g>
            <g transform="matrix(1,0,0,0.950532,5.55112e-15,-7649.33)">
                <path d="M24.56,8539.45C22.248,8542.55 24.15,8545.63 26.358,8547.67C27.318,8548.56 28.576,8549.32 30.088,8549.4C32.553,8549.54 33.728,8548.39 33.745,8545.87C33.755,8544.1 32.928,8542.66 31.913,8541.48C30.392,8539.71 28.417,8538.47 25.861,8538.91C25.464,8538.98 25.094,8539.21 24.712,8539.36" style="fill:none;fill-rule:nonzero;stroke:rgb(246,245,241);stroke-width:1.33px;"/>
            </g>
            <g transform="matrix(1,0,0,0.950532,5.55112e-15,-7667.59)">
                <path d="M54.969,8548.37C53.064,8550.65 52.348,8553.26 53.027,8556.16C53.299,8557.32 53.843,8558.38 54.898,8559.12C56.101,8559.96 57.784,8560.06 58.734,8559.1C61.692,8556.1 62.132,8551.7 59.673,8548.48C58.944,8547.53 57.303,8547.16 56.184,8547.68C55.815,8547.85 55.474,8548.08 55.121,8548.28" style="fill:none;fill-rule:nonzero;stroke:rgb(246,245,241);stroke-width:1.33px;"/>
            </g>
            <g transform="matrix(1,0,0,1,-16.9432,1.82678)">
                <g transform="matrix(1,0,0,0.950532,5.55112e-15,-8290.18)">
                    <path d="M67.637,8883.05C67.961,8882.34 68.64,8882.23 69.232,8882.36C70.033,8882.52 70.83,8882.83 71.547,8883.23C71.994,8883.48 72.302,8883.98 72.65,8884.39C74.853,8886.97 78.237,8887.48 81.222,8885.95C83.623,8884.71 85.267,8882.92 86.379,8880.52C87.301,8878.52 87.251,8876.45 86.642,8874.48C86.298,8873.36 85.36,8872.39 84.557,8871.47C81.487,8867.94 77.658,8866.03 72.901,8866.29C70.204,8866.44 67.638,8867.22 65.294,8868.5C63.046,8869.73 60.794,8871.04 58.818,8872.65C54.441,8876.22 51.27,8880.61 50.851,8886.49C50.575,8890.37 53.592,8895.04 57.332,8895.72C59.916,8896.18 62.293,8896.17 64.486,8894.73C67.678,8892.63 68.76,8889.32 67.44,8886.19C67.031,8885.22 66.693,8884.22 67.573,8883.29" style="fill:none;fill-rule:nonzero;stroke:rgb(246,245,241);stroke-width:1.33px;"/>
                </g>
                <g transform="matrix(1,0,0,0.950532,5.55112e-15,-8332.43)">
                    <path d="M58.843,8904.92C59.527,8905.87 60.079,8906.96 60.919,8907.75C63.333,8910.01 66.42,8909.08 67.276,8905.9C68.053,8903.02 67.332,8900.47 65.172,8898.45C63.536,8896.93 61.35,8896.65 59.83,8897.89C58.571,8898.91 58.411,8900.39 58.298,8901.83C58.222,8902.79 58.229,8903.83 58.907,8904.68" style="fill:none;fill-rule:nonzero;stroke:rgb(246,245,241);stroke-width:1.33px;"/>
                </g>
                <g transform="matrix(1,0,0,0.950532,5.55112e-15,-8294.59)">
                    <path d="M47.484,8882.16C45.326,8879.44 42.051,8878.84 38.891,8879.88C36.707,8880.6 36.125,8884.12 37.996,8885.61C40.436,8887.56 43.265,8888.01 46.182,8886.88C46.891,8886.61 47.399,8885.67 47.868,8884.95C48.457,8884.04 47.784,8883.18 47.572,8882.32" style="fill:none;fill-rule:nonzero;stroke:rgb(246,245,241);stroke-width:1.33px;"/>
                </g>
                <g transform="matrix(1,0,0,0.950532,5.55112e-15,-8317.91)">
                    <path d="M45.77,8891.14C43.457,8894.24 45.359,8897.33 47.568,8899.37C48.527,8900.25 49.786,8901.01 51.298,8901.09C53.763,8901.23 54.937,8900.09 54.954,8897.56C54.965,8895.8 54.137,8894.35 53.123,8893.17C51.602,8891.4 49.627,8890.16 47.071,8890.61C46.674,8890.68 46.304,8890.9 45.922,8891.06" style="fill:none;fill-rule:nonzero;stroke:rgb(246,245,241);stroke-width:1.33px;"/>
                </g>
                <g transform="matrix(1,0,0,0.950532,5.55112e-15,-8336.17)">
                    <path d="M76.179,8900.06C74.274,8902.35 73.558,8904.95 74.237,8907.85C74.509,8909.01 75.052,8910.07 76.108,8910.81C77.311,8911.65 78.994,8911.75 79.944,8910.79C82.901,8907.79 83.341,8903.4 80.883,8900.17C80.154,8899.22 78.513,8898.85 77.393,8899.37C77.025,8899.54 76.684,8899.77 76.33,8899.98" style="fill:none;fill-rule:nonzero;stroke:rgb(246,245,241);stroke-width:1.33px;"/>
                </g>
            </g>
            <g transform="matrix(1,0,0,1,-12.3496,6.86802)">
                <g transform="matrix(1,0,0,0.950532,5.55112e-15,-8143.95)">
                    <path d="M61.638,8792.64C63.199,8791.6 64.764,8790.56 66.322,8789.51C67.792,8788.52 69.259,8787.53 70.718,8786.53C71.473,8786.01 72.243,8785.5 72.93,8784.9C73.071,8784.78 73.897,8784.2 72.837,8783.91C71.754,8783.62 70.711,8783.19 69.649,8782.82C65.476,8781.35 61.288,8779.92 57.138,8778.4C56.067,8778 55.145,8778.08 54.21,8778.59C51.828,8779.89 49.459,8781.21 47.089,8782.53C46.715,8782.74 46.381,8783.02 46.004,8783.21C43.373,8784.6 40.692,8785.9 38.112,8787.38C35.795,8788.7 33.601,8790.25 31.323,8791.64C29.964,8792.48 28.529,8793.19 27.161,8794.01C25.558,8794.97 23.992,8796 22.402,8796.98C21.403,8797.6 20.395,8798.19 19.379,8798.78C16.889,8800.22 14.368,8801.6 11.904,8803.08C9.568,8804.48 7.302,8806 4.977,8807.43C3.617,8808.26 2.184,8808.97 0.816,8809.79C-0.788,8810.75 -2.355,8811.77 -3.944,8812.76C-4.214,8812.93 -4.505,8813.08 -4.806,8813.17C-5.556,8813.39 -5.902,8813.94 -6.039,8814.65C-6.699,8818.07 -7.355,8821.5 -8.008,8824.92C-8.278,8826.34 -8.554,8827.75 -8.787,8829.17C-8.851,8829.56 -8.766,8829.98 -8.75,8830.38" style="fill:none;fill-rule:nonzero;stroke:rgb(246,245,241);stroke-width:1.33px;"/>
                </g>
                <g transform="matrix(1,0,0,0.950532,5.55112e-15,-8135.2)">
                    <path d="M41.883,8777.57C41.251,8779.69 40.561,8781.8 40.001,8783.94C39.297,8786.63 38.708,8789.36 38.054,8792.07C37.824,8793.02 37.504,8793.95 37.306,8794.91C37.085,8795.97 36.339,8796.54 35.473,8797C33.036,8798.3 30.558,8799.53 28.15,8800.88C24.621,8802.86 21.144,8804.93 17.636,8806.95C16.114,8807.83 14.576,8808.67 13.033,8809.51C10.883,8810.67 8.703,8811.78 6.569,8812.97C4.245,8814.27 1.993,8815.7 -0.353,8816.95C-3.02,8818.38 -5.759,8819.67 -8.457,8821.05C-8.648,8821.14 -8.754,8821.41 -8.9,8821.6" style="fill:none;fill-rule:nonzero;stroke:rgb(246,245,241);stroke-width:1.33px;"/>
                </g>
                <g transform="matrix(1,0,0,0.950532,5.55112e-15,-8134.07)">
                    <path d="M55.418,8768.14C56.075,8769.88 56.691,8771.63 57.397,8773.35C58.382,8775.75 59.41,8778.14 60.468,8780.51C61.201,8782.15 62.046,8783.74 62.784,8785.38C64.13,8788.38 65.421,8791.4 66.765,8794.39C67.009,8794.94 66.915,8795.2 66.385,8795.47C64.071,8796.66 61.753,8797.85 59.484,8799.13C56.651,8800.72 53.858,8802.38 51.061,8804.03C49.82,8804.76 48.63,8805.59 47.38,8806.3C45.674,8807.28 43.923,8808.18 42.211,8809.15C40.542,8810.09 38.894,8811.07 37.243,8812.05C35.775,8812.92 34.331,8813.83 32.848,8814.67C29.935,8816.33 26.987,8817.92 24.08,8819.59C20.706,8821.52 17.36,8823.5 14.002,8825.46C11.794,8826.75 9.573,8828.02 7.389,8829.35C6.586,8829.84 6.187,8829.65 5.889,8828.82C5.118,8826.67 4.314,8824.52 3.521,8822.38C3.484,8822.28 3.425,8822.19 3.386,8822.09C2.68,8820.38 1.995,8818.65 1.262,8816.95C1.033,8816.42 0.673,8815.94 0.375,8815.44" style="fill:none;fill-rule:nonzero;stroke:rgb(246,245,241);stroke-width:1.33px;"/>
                </g>
                <g transform="matrix(1,0,0,0.950532,5.55112e-15,-8153.25)">
                    <path d="M41.834,8795.35C41.875,8795.68 41.812,8796.08 41.976,8796.33C42.745,8797.51 43.235,8798.77 43.644,8800.12C44.209,8801.99 45.126,8803.75 45.84,8805.58C46.729,8807.85 47.567,8810.15 48.427,8812.44C48.446,8812.49 48.475,8812.53 48.495,8812.58C49.698,8815.59 50.891,8818.59 52.113,8821.59C52.292,8822.03 52.61,8822.41 52.864,8822.81" style="fill:none;fill-rule:nonzero;stroke:rgb(246,245,241);stroke-width:1.33px;"/>
                </g>
            </g>
            <g transform="matrix(1,0,0,0.950532,5.55112e-15,-7595.81)">
                <path d="M537.877,8504.22C539.436,8503.18 540.999,8502.14 542.555,8501.09C544.023,8500.09 545.487,8499.1 546.945,8498.09C547.699,8497.57 548.468,8497.06 549.153,8496.46C549.294,8496.34 550.119,8495.76 549.059,8495.48C547.975,8495.19 546.93,8494.75 545.868,8494.38C541.692,8492.93 537.502,8491.51 533.348,8489.99C532.276,8489.6 531.354,8489.68 530.42,8490.19C528.041,8491.5 525.675,8492.82 523.307,8494.14C522.934,8494.35 522.601,8494.63 522.224,8494.83C519.595,8496.22 516.917,8497.53 514.341,8499.01C512.026,8500.34 509.835,8501.89 507.56,8503.29C506.203,8504.13 504.77,8504.84 503.403,8505.67C501.801,8506.63 500.238,8507.66 498.65,8508.64C497.652,8509.26 496.645,8509.86 495.63,8510.45C493.144,8511.89 490.626,8513.28 488.165,8514.76C485.832,8516.17 483.568,8517.7 481.247,8519.12C479.888,8519.96 478.457,8520.68 477.09,8521.5C475.488,8522.46 473.923,8523.49 472.336,8524.48C472.066,8524.64 471.776,8524.8 471.475,8524.89C470.725,8525.11 470.38,8525.66 470.244,8526.37C469.592,8529.8 468.943,8533.22 468.297,8536.65C468.03,8538.06 467.756,8539.48 467.527,8540.9C467.463,8541.29 467.549,8541.71 467.566,8542.11" style="fill:none;fill-rule:nonzero;stroke:rgb(246,245,241);stroke-width:1.33px;"/>
            </g>
            <g transform="matrix(1,0,0,0.950532,5.55112e-15,-7587.05)">
                <path d="M518.11,8489.18C517.483,8491.3 516.797,8493.41 516.241,8495.55C515.543,8498.25 514.959,8500.98 514.31,8503.69C514.083,8504.64 513.764,8505.57 513.568,8506.53C513.35,8507.6 512.604,8508.17 511.74,8508.63C509.305,8509.94 506.83,8511.17 504.425,8512.52C500.9,8514.51 497.427,8516.59 493.923,8518.61C492.403,8519.49 490.867,8520.34 489.325,8521.18C487.177,8522.35 484.999,8523.46 482.868,8524.66C480.547,8525.96 478.298,8527.39 475.954,8528.65C473.29,8530.09 470.554,8531.39 467.859,8532.76C467.667,8532.86 467.562,8533.13 467.416,8533.31" style="fill:none;fill-rule:nonzero;stroke:rgb(246,245,241);stroke-width:1.33px;"/>
            </g>
            <g transform="matrix(1,0,0,0.950532,5.55112e-15,-7585.97)">
                <path d="M531.629,8479.78C532.289,8481.52 532.908,8483.28 533.618,8485C534.608,8487.39 535.641,8489.78 536.703,8492.14C537.44,8493.79 538.288,8495.38 539.029,8497.02C540.381,8500.01 541.679,8503.03 543.029,8506.02C543.274,8506.56 543.181,8506.82 542.65,8507.09C540.339,8508.29 538.024,8509.49 535.757,8510.76C532.928,8512.36 530.138,8514.03 527.344,8515.69C526.105,8516.42 524.916,8517.25 523.668,8517.97C521.964,8518.95 520.215,8519.85 518.504,8520.82C516.837,8521.77 515.191,8522.75 513.543,8523.73C512.076,8524.6 510.634,8525.52 509.153,8526.36C506.243,8528.03 503.299,8529.63 500.395,8531.3C497.025,8533.24 493.682,8535.23 490.329,8537.19C488.124,8538.49 485.905,8539.76 483.724,8541.09C482.922,8541.58 482.522,8541.4 482.223,8540.56C481.447,8538.41 480.639,8536.28 479.841,8534.13C479.805,8534.03 479.746,8533.94 479.706,8533.85C478.997,8532.13 478.308,8530.41 477.571,8528.71C477.341,8528.17 476.981,8527.7 476.681,8527.2" style="fill:none;fill-rule:nonzero;stroke:rgb(246,245,241);stroke-width:1.33px;"/>
            </g>
            <g transform="matrix(1,0,0,0.950532,5.55112e-15,-7831.48)">
                <path d="M459.382,8652.76C457.703,8650.79 456.021,8648.84 453.863,8647.34C450.801,8645.2 447.716,8643.19 443.858,8642.79C443.307,8642.73 442.387,8642.74 442.349,8641.82C442.309,8640.85 443.213,8641 443.787,8640.81C451.171,8638.42 456.093,8633.55 458.534,8626.2C459.417,8623.54 459.545,8620.85 459.261,8618.03C459.041,8615.83 458.145,8614.01 457.255,8612.13C456.689,8610.94 455.891,8610.65 454.803,8611.08C452.066,8612.14 449.439,8613.43 447.151,8615.31C443.327,8618.45 439.972,8622.03 437.192,8626.13C435.627,8628.44 434.053,8630.75 432.662,8633.16C431.574,8635.04 430.721,8637.07 429.853,8639.07C429.646,8639.55 429.47,8639.93 428.958,8639.9C428.487,8639.88 428.267,8639.55 428.071,8639.07C427.019,8636.45 425.287,8634.36 422.959,8632.75C420.433,8631.01 417.573,8630.28 414.57,8630.18C413.098,8630.13 411.589,8630.1 410.127,8630.54C408.824,8630.94 407.497,8631.26 406.178,8631.61C402.6,8632.56 399.491,8634.45 396.535,8636.57C393.039,8639.08 389.947,8642.04 387.294,8645.45C384.519,8649 382.169,8652.79 380.646,8657.07C380.405,8657.75 380.426,8658.32 380.701,8658.8C382.726,8662.3 385.391,8665.04 389.201,8666.76C392.885,8668.42 396.671,8668.99 400.617,8668.8C404.457,8668.63 408.108,8667.63 411.684,8666.2C416.784,8664.16 421.064,8661.04 424.758,8657.03C427.048,8654.55 428.997,8651.85 430.187,8648.67C430.341,8648.26 430.443,8647.85 430.925,8647.87C431.361,8647.89 431.718,8647.99 432.072,8648.47C434.604,8651.91 437.694,8654.75 441.36,8656.98C444.358,8658.8 447.502,8660.29 450.854,8661.3C453.556,8662.11 456.35,8662.48 459.176,8662.52C459.835,8662.53 460.498,8662.4 461.157,8662.31C462.042,8662.19 462.487,8661.58 462.412,8660.57C462.218,8657.93 461.19,8655.61 459.726,8653.45C459.61,8653.28 459.522,8653.09 459.421,8652.91" style="fill:none;fill-rule:nonzero;stroke:rgb(246,245,241);stroke-width:1.33px;"/>
            </g>
            <g transform="matrix(-0.865994,0.475317,0.500054,0.823155,-3611.69,-6914.61)">
                <ellipse cx="380.231" cy="8641.47" rx="2.791" ry="2.789" style="fill:none;stroke:rgb(246,245,241);stroke-width:1.33px;"/>
            </g>
            <g transform="matrix(-0.86591,0.475455,0.500199,0.823076,-3613.58,-6934.06)">
                <ellipse cx="382.765" cy="8652.11" rx="2.122" ry="2.121" style="fill:none;stroke:rgb(246,245,241);stroke-width:1.33px;"/>
            </g>
            <g transform="matrix(-0.865837,0.475576,0.500326,0.823006,-3637.64,-6931.32)">
                <ellipse cx="370.988" cy="8654.04" rx="1.724" ry="1.723" style="fill:none;stroke:rgb(246,245,241);stroke-width:1.33px;"/>
            </g>
            <g transform="matrix(1,0,0,0.950532,5.55112e-15,-7813.68)">
                <path d="M398.044,8627.13C396.33,8628.03 395.637,8629.5 395.401,8631.36C395.297,8632.18 395.236,8632.8 395.961,8633.28C396.787,8633.83 397.319,8633.14 397.865,8632.76C399.181,8631.83 399.799,8629.43 399.407,8627.89C399.206,8627.1 398.673,8627.26 398.217,8627.09" style="fill:none;fill-rule:nonzero;stroke:rgb(246,245,241);stroke-width:1.33px;"/>
            </g>
            <g transform="matrix(1,0,0,0.950532,5.55112e-15,-7148.32)">
                <path d="M427.766,8266.89C431.338,8268.4 433.743,8271.2 435.981,8274.21C437.706,8276.53 438.934,8279.14 439.91,8281.79C440.89,8284.46 441.618,8287.28 441.533,8290.2C441.517,8290.76 441.457,8291.05 440.857,8291.33C437.749,8292.77 434.409,8293.18 431.079,8293.59C427.444,8294.04 423.803,8293.85 420.174,8293.35C418.141,8293.07 416.271,8292.36 414.447,8291.45C413.747,8291.1 413.932,8290.6 414.123,8290.17C415.229,8287.72 416.977,8285.83 419.402,8284.66C421.551,8283.63 423.832,8283.21 426.194,8283.93C426.92,8284.15 427.62,8284.46 428.318,8284.77C428.942,8285.04 429.545,8285.5 430.107,8284.66C430.551,8284 430.492,8283.71 429.678,8282.89C428.293,8281.48 427.045,8279.99 426.436,8278.06C425.588,8275.37 425.464,8272.71 426.271,8269.97C426.589,8268.88 426.884,8267.85 427.576,8266.96" style="fill:none;fill-rule:nonzero;stroke:rgb(246,245,241);stroke-width:1.33px;"/>
            </g>
            <g transform="matrix(1,0,0,0.950532,5.55112e-15,-7098.07)">
                <path d="M471.524,8255.26C471.886,8254.38 472.26,8253.51 472.605,8252.62C473.038,8251.52 473.367,8250.36 473.886,8249.3C474.819,8247.38 475.761,8245.45 476.89,8243.64C477.662,8242.41 478.783,8241.39 479.697,8240.24C480.179,8239.63 480.7,8239.7 481.227,8240.03C482.958,8241.12 484.264,8242.62 485.349,8244.33C488.082,8248.62 489.725,8253.32 490.395,8258.35C490.639,8260.18 490.721,8262.03 490.477,8263.88C490.413,8264.37 490.326,8264.74 489.802,8264.99C485.163,8267.18 480.317,8268.43 475.15,8268.29C473.235,8268.24 472.358,8267.62 471.713,8265.88C470.691,8263.13 470.915,8260.32 471.262,8257.49C471.311,8257.11 471.352,8256.7 471.498,8256.35C471.8,8255.61 471.393,8255.34 470.822,8255.08C468.751,8254.12 466.692,8253.14 464.63,8252.16" style="fill:none;fill-rule:nonzero;stroke:rgb(246,245,241);stroke-width:1.33px;"/>
            </g>
            <g transform="matrix(-0.952555,-0.289309,-0.304366,0.905434,3418.1,-6603.86)">
                <path d="M460.326,8244.6C459.496,8247.43 459.085,8250.3 458.985,8253.25C458.843,8257.38 459.413,8261.41 460.326,8265.41C461.02,8268.47 462.153,8271.33 463.79,8273.98C464.299,8274.82 464.944,8275.56 465.527,8276.34" style="fill:none;fill-rule:nonzero;stroke:rgb(246,245,241);stroke-width:1.33px;"/>
            </g>
            <g transform="matrix(1,0,0,0.950532,5.55112e-15,-7106.91)">
                <path d="M455.065,8256.02C456.961,8257.12 458.853,8258.24 460.755,8259.33C461.953,8260.02 463.166,8260.68 464.372,8261.35" style="fill:none;fill-rule:nonzero;stroke:rgb(246,245,241);stroke-width:1.33px;"/>
            </g>
            <g transform="matrix(1,0,0,0.950532,5.55112e-15,-7113.13)">
                <path d="M456.119,8253.31C456.616,8255.89 456.143,8258.36 455.43,8260.84C454.71,8263.35 453.619,8265.68 452.094,8267.75C451.181,8269 450.107,8270.23 448.436,8270.6" style="fill:none;fill-rule:nonzero;stroke:rgb(246,245,241);stroke-width:1.33px;"/>
            </g>
            <g transform="matrix(0.863788,0.478931,0.503856,-0.821058,-4102.15,7307.33)">
                <path d="M447.205,8263.52C449.924,8263.52 452.643,8263.52 455.363,8263.52" style="fill:none;fill-rule:nonzero;stroke:rgb(246,245,241);stroke-width:1.33px;"/>
            </g>
            <g transform="matrix(-0.988144,-0.145937,-0.153532,0.939262,2156.38,-6964.27)">
                <path d="M444.701,8260.66C444.152,8262.74 444.171,8264.82 444.764,8266.88C444.894,8267.33 444.782,8267.68 444.701,8268.1C444.643,8268.41 444.928,8268.82 445.125,8269.14C445.981,8270.55 446.156,8272.44 447.949,8273.2" style="fill:none;fill-rule:nonzero;stroke:rgb(246,245,241);stroke-width:1.33px;"/>
            </g>
            <g transform="matrix(1,0,0,0.950532,5.55112e-15,-7124.36)">
                <path d="M441.609,8266.14C442.064,8266.51 442.473,8266.97 442.984,8267.23C444.423,8267.98 445.557,8269.28 447.237,8269.58" style="fill:none;fill-rule:nonzero;stroke:rgb(246,245,241);stroke-width:1.33px;"/>
            </g>
            <g transform="matrix(1,0,0,0.950532,5.55112e-15,-7091.87)">
                <path d="M484.851,8252.88C484.603,8253.18 484.412,8253.58 484.097,8253.77C483.145,8254.36 481.907,8253.95 481.425,8252.82C480.789,8251.34 480.736,8249.82 481.623,8248.37C482.068,8247.64 482.751,8247.18 483.567,8247.28C484.217,8247.36 484.769,8247.79 485.02,8248.54C485.499,8249.97 486.035,8251.56 484.851,8252.88" style="fill:none;fill-rule:nonzero;stroke:rgb(246,245,241);stroke-width:1.33px;"/>
            </g>
            <g transform="matrix(1,0,0,1,-297.663,-619.086)">
                <g transform="matrix(1,0,0,0.950532,5.55112e-15,-7275.1)">
                    <path d="M443.34,8342.3C441.971,8341.02 440.757,8339.5 439.199,8338.53C436.424,8336.8 433.71,8334.85 430.442,8334.07C429.467,8333.84 428.455,8333.73 427.453,8333.64C425.954,8333.51 425.96,8333.63 425.577,8335.15C425.17,8336.75 425.55,8338.29 425.848,8339.81C426.849,8344.91 429.217,8349.46 432.061,8353.72C434.833,8357.86 438.259,8361.46 442.435,8364.3C444.972,8366.04 447.655,8367.39 450.655,8368C451.9,8368.25 453.189,8368.14 454.506,8367.87C458.154,8367.13 461.077,8365.16 463.852,8362.86C465.423,8361.55 467.177,8360.41 468.514,8358.89C471.026,8356.05 472.087,8352.49 472.604,8348.81C473.061,8345.55 473.053,8342.27 472.506,8339C472.392,8338.33 472.226,8337.57 472.878,8336.81C475.894,8333.28 478.796,8329.65 481.739,8326.06" style="fill:none;fill-rule:nonzero;stroke:rgb(246,245,241);stroke-width:1.33px;"/>
                </g>
                <g transform="matrix(1,0,0,0.950532,5.55112e-15,-7313.42)">
                    <path d="M472.528,8377.25L472.015,8375.33C471.365,8372.91 470.835,8370.45 470.037,8368.07C468.944,8364.82 467.602,8361.67 465.778,8358.73C465.317,8357.98 464.877,8357.37 464.114,8357.4C463.243,8357.43 462.731,8358.09 462.482,8359C461.891,8361.18 461.143,8363.31 460.55,8365.49C459.732,8368.49 458.986,8371.5 458.248,8374.52C458.158,8374.89 458.308,8375.32 458.347,8375.71" style="fill:none;fill-rule:nonzero;stroke:rgb(246,245,241);stroke-width:1.33px;"/>
                </g>
                <g transform="matrix(-0.907884,0.398483,0.419221,0.862973,-2643.52,-6740.17)">
                    <path d="M442.385,8356.2C447.826,8353.74 453.266,8354.36 458.7,8356.2" style="fill:none;fill-rule:nonzero;stroke:rgb(246,245,241);stroke-width:1.33px;"/>
                </g>
                <g transform="matrix(1,0,0,0.950532,5.55112e-15,-7236.13)">
                    <path d="M437.869,8320C436.724,8321.6 435.486,8323.15 434.454,8324.83C432.739,8327.61 431.156,8330.48 429.517,8333.31" style="fill:none;fill-rule:nonzero;stroke:rgb(246,245,241);stroke-width:1.33px;"/>
                </g>
                <g transform="matrix(1,0,0,0.950532,5.55112e-15,-7288.65)">
                    <path d="M483.998,8351.81C483.857,8352.05 483.774,8352.43 483.567,8352.52C480.679,8353.73 477.773,8354.91 474.871,8356.1C474.316,8356.33 473.755,8356.54 473.197,8356.75" style="fill:none;fill-rule:nonzero;stroke:rgb(246,245,241);stroke-width:1.33px;"/>
                </g>
                <g transform="matrix(1,0,0,0.950532,5.55112e-15,-7271.21)">
                    <path d="M473.085,8343.37C475.698,8343.72 478.379,8343.63 480.868,8344.76C482.589,8345.53 484.382,8346.15 486.143,8346.85" style="fill:none;fill-rule:nonzero;stroke:rgb(246,245,241);stroke-width:1.33px;"/>
                </g>
                <g transform="matrix(1,0,0,0.950532,5.55112e-15,-7245.26)">
                    <path d="M435.323,8327C432.102,8328.94 429.486,8331.56 427.021,8334.36C426.584,8334.85 426.199,8335.39 425.791,8335.91" style="fill:none;fill-rule:nonzero;stroke:rgb(246,245,241);stroke-width:1.33px;"/>
                </g>
                <g transform="matrix(-0.997688,0.0646038,0.067966,0.948334,286.091,-7268.65)">
                    <path d="M421.255,8338.9L432.584,8338.9" style="fill:none;fill-rule:nonzero;stroke:rgb(246,245,241);stroke-width:1.33px;"/>
                </g>
                <g transform="matrix(1,0,0,0.950532,5.55112e-15,-7280.09)">
                    <path d="M463.182,8346.11C461.289,8347.09 460.524,8348.72 460.263,8350.78C460.148,8351.68 460.08,8352.36 460.881,8352.9C461.793,8353.5 462.381,8352.74 462.984,8352.32C464.438,8351.29 465.12,8348.65 464.688,8346.94C464.466,8346.06 463.877,8346.24 463.374,8346.06" style="fill:none;fill-rule:nonzero;stroke:rgb(246,245,241);stroke-width:1.33px;"/>
                </g>
                <g transform="matrix(1,0,0,0.950532,5.55112e-15,-7267.67)">
                    <path d="M444.073,8340.44C446.205,8340.34 447.679,8341.37 448.936,8343.02C449.488,8343.75 449.886,8344.3 449.46,8345.17C448.974,8346.15 448.083,8345.78 447.348,8345.72C445.578,8345.56 443.663,8343.6 443.184,8341.91C442.939,8341.04 443.538,8340.9 443.88,8340.49" style="fill:none;fill-rule:nonzero;stroke:rgb(246,245,241);stroke-width:1.33px;"/>
                </g>
            </g>
            <g>
                <g transform="matrix(1,0,0,0.950532,5.55112e-15,-7275.1)">
                    <path d="M443.34,8342.3C441.971,8341.02 440.757,8339.5 439.199,8338.53C436.424,8336.8 433.71,8334.85 430.442,8334.07C429.467,8333.84 428.455,8333.73 427.453,8333.64C425.954,8333.51 425.96,8333.63 425.577,8335.15C425.17,8336.75 425.55,8338.29 425.848,8339.81C426.849,8344.91 429.217,8349.46 432.061,8353.72C434.833,8357.86 438.259,8361.46 442.435,8364.3C444.972,8366.04 447.655,8367.39 450.655,8368C451.9,8368.25 453.189,8368.14 454.506,8367.87C458.154,8367.13 461.077,8365.16 463.852,8362.86C465.423,8361.55 467.177,8360.41 468.514,8358.89C471.026,8356.05 472.087,8352.49 472.604,8348.81C473.061,8345.55 473.053,8342.27 472.506,8339C472.392,8338.33 472.226,8337.57 472.878,8336.81C475.894,8333.28 478.796,8329.65 481.739,8326.06" style="fill:none;fill-rule:nonzero;stroke:rgb(246,245,241);stroke-width:1.33px;"/>
                </g>
                <g transform="matrix(1,0,0,0.950532,5.55112e-15,-7313.42)">
                    <path d="M472.528,8377.25L472.015,8375.33C471.365,8372.91 470.835,8370.45 470.037,8368.07C468.944,8364.82 467.602,8361.67 465.778,8358.73C465.317,8357.98 464.877,8357.37 464.114,8357.4C463.243,8357.43 462.731,8358.09 462.482,8359C461.891,8361.18 461.143,8363.31 460.55,8365.49C459.732,8368.49 458.986,8371.5 458.248,8374.52C458.158,8374.89 458.308,8375.32 458.347,8375.71" style="fill:none;fill-rule:nonzero;stroke:rgb(246,245,241);stroke-width:1.33px;"/>
                </g>
                <g transform="matrix(-0.907884,0.398483,0.419221,0.862973,-2643.52,-6740.17)">
                    <path d="M442.385,8356.2C447.826,8353.74 453.266,8354.36 458.7,8356.2" style="fill:none;fill-rule:nonzero;stroke:rgb(246,245,241);stroke-width:1.33px;"/>
                </g>
                <g transform="matrix(1,0,0,0.950532,5.55112e-15,-7236.13)">
                    <path d="M437.869,8320C436.724,8321.6 435.486,8323.15 434.454,8324.83C432.739,8327.61 431.156,8330.48 429.517,8333.31" style="fill:none;fill-rule:nonzero;stroke:rgb(246,245,241);stroke-width:1.33px;"/>
                </g>
                <g transform="matrix(1,0,0,0.950532,5.55112e-15,-7288.65)">
                    <path d="M483.998,8351.81C483.857,8352.05 483.774,8352.43 483.567,8352.52C480.679,8353.73 477.773,8354.91 474.871,8356.1C474.316,8356.33 473.755,8356.54 473.197,8356.75" style="fill:none;fill-rule:nonzero;stroke:rgb(246,245,241);stroke-width:1.33px;"/>
                </g>
                <g transform="matrix(1,0,0,0.950532,5.55112e-15,-7271.21)">
                    <path d="M473.085,8343.37C475.698,8343.72 478.379,8343.63 480.868,8344.76C482.589,8345.53 484.382,8346.15 486.143,8346.85" style="fill:none;fill-rule:nonzero;stroke:rgb(246,245,241);stroke-width:1.33px;"/>
                </g>
                <g transform="matrix(1,0,0,0.950532,5.55112e-15,-7245.26)">
                    <path d="M435.323,8327C432.102,8328.94 429.486,8331.56 427.021,8334.36C426.584,8334.85 426.199,8335.39 425.791,8335.91" style="fill:none;fill-rule:nonzero;stroke:rgb(246,245,241);stroke-width:1.33px;"/>
                </g>
                <g transform="matrix(-0.997688,0.0646038,0.067966,0.948334,286.091,-7268.65)">
                    <path d="M421.255,8338.9L432.584,8338.9" style="fill:none;fill-rule:nonzero;stroke:rgb(246,245,241);stroke-width:1.33px;"/>
                </g>
                <g transform="matrix(1,0,0,0.950532,5.55112e-15,-7280.09)">
                    <path d="M463.182,8346.11C461.289,8347.09 460.524,8348.72 460.263,8350.78C460.148,8351.68 460.08,8352.36 460.881,8352.9C461.793,8353.5 462.381,8352.74 462.984,8352.32C464.438,8351.29 465.12,8348.65 464.688,8346.94C464.466,8346.06 463.877,8346.24 463.374,8346.06" style="fill:none;fill-rule:nonzero;stroke:rgb(246,245,241);stroke-width:1.33px;"/>
                </g>
                <g transform="matrix(1,0,0,0.950532,5.55112e-15,-7267.67)">
                    <path d="M444.073,8340.44C446.205,8340.34 447.679,8341.37 448.936,8343.02C449.488,8343.75 449.886,8344.3 449.46,8345.17C448.974,8346.15 448.083,8345.78 447.348,8345.72C445.578,8345.56 443.663,8343.6 443.184,8341.91C442.939,8341.04 443.538,8340.9 443.88,8340.49" style="fill:none;fill-rule:nonzero;stroke:rgb(246,245,241);stroke-width:1.33px;"/>
                </g>
            </g>
            <g transform="matrix(1,0,0,0.950532,5.55112e-15,-7963.29)">
                <path d="M93.031,8713.87C93.659,8716.94 94.441,8719.98 94.384,8723.16C94.354,8724.82 94.475,8726.48 94.439,8728.15C94.42,8729.07 93.694,8729.69 93.144,8730.34C91.465,8732.31 89.548,8734 87.408,8735.5C83.697,8738.1 79.601,8739.43 75.141,8739.85C72.177,8740.12 69.239,8739.88 66.454,8738.9C61.258,8737.07 57.206,8733.78 54.702,8728.81C53.909,8727.24 53.457,8725.49 52.91,8723.81C52.769,8723.37 52.788,8722.85 52.868,8722.39C52.964,8721.82 52.793,8721.47 52.301,8721.25C51.78,8721.01 51.381,8721.19 51.066,8721.62C48.499,8725.13 44.74,8726.67 40.75,8727.78C37.837,8728.6 34.809,8728.83 31.826,8728.73C29.598,8728.65 27.311,8728.54 25.117,8727.87C23.194,8727.29 21.218,8726.87 19.301,8726.27C18.292,8725.96 17.395,8725.26 16.379,8724.99C15.38,8724.73 15.64,8724.16 15.899,8723.69C16.698,8722.24 17.485,8720.75 18.463,8719.42C20.946,8716.03 24.08,8713.33 27.735,8711.28C30.577,8709.68 33.611,8708.58 36.946,8708.63C38.623,8708.65 39.445,8707.25 39.105,8705.81C38.788,8704.46 38.107,8703.41 36.615,8702.98C35.054,8702.52 33.748,8701.48 32.656,8700.35C28.696,8696.26 25.844,8691.47 24.147,8686.04C23.669,8684.51 23.503,8682.87 23.297,8681.28C23.245,8680.87 23.462,8680.24 23.773,8680.02C25.586,8678.74 27.596,8678.19 29.867,8678.33C31.787,8678.45 33.608,8678.97 35.345,8679.61C37.509,8680.42 39.506,8681.64 41.406,8683C44.883,8685.5 47.84,8688.49 50.37,8691.93C52.511,8694.85 54.097,8698.02 55.208,8701.45C55.371,8701.96 55.442,8702.4 55.407,8702.93C55.375,8703.41 55.385,8704.22 55.982,8704.3C56.432,8704.36 57.178,8704 57.414,8703.6C58.971,8700.97 61.08,8698.89 63.58,8697.19C67.104,8694.79 70.93,8693.76 75.231,8694.47C80.019,8695.26 83.671,8697.84 86.703,8701.41C89.747,8705 91.721,8709.17 92.934,8713.7" style="fill:none;fill-rule:nonzero;stroke:rgb(246,245,241);stroke-width:1.33px;"/>
            </g>
            <g transform="matrix(-1,0,0,0.950532,197.447,-7979.64)">
                <ellipse cx="98.723" cy="8717.76" rx="2.679" ry="2.675" style="fill:none;stroke:rgb(246,245,241);stroke-width:1.33px;"/>
            </g>
            <g transform="matrix(-1,0,0,0.950532,211.882,-7994.16)">
                <ellipse cx="105.941" cy="8725.4" rx="2.036" ry="2.035" style="fill:none;stroke:rgb(246,245,241);stroke-width:1.33px;"/>
            </g>
            <g transform="matrix(-1,0,0,0.950532,194.14,-8007.95)">
                <ellipse cx="97.07" cy="8732.65" rx="1.654" ry="1.65" style="fill:none;stroke:rgb(246,245,241);stroke-width:1.33px;"/>
            </g>
            <g transform="matrix(1,0,0,0.950532,5.55112e-15,-7944.5)">
                <path d="M85.368,8700.99C85.185,8701.32 85.071,8701.72 84.807,8701.96C84.006,8702.68 82.764,8702.51 82.115,8701.52C81.256,8700.22 80.947,8698.79 81.539,8697.27C81.836,8696.51 82.403,8695.94 83.193,8695.9C83.822,8695.87 84.419,8696.18 84.784,8696.85C85.483,8698.12 86.262,8699.53 85.368,8700.99" style="fill:none;fill-rule:nonzero;stroke:rgb(246,245,241);stroke-width:1.33px;"/>
            </g>
            <g transform="matrix(1,0,0,0.950532,5.55112e-15,-8043.62)">
                <path d="M394.276,8744.86C392.474,8746.59 391.974,8748.67 392.314,8751.13C392.651,8753.57 393.695,8755.51 395.472,8757.17C397.071,8758.67 398.933,8759.03 400.9,8758.45C402.878,8757.87 403.581,8756.06 403.889,8754.26C404.375,8751.41 403.381,8748.85 401.737,8746.56C400.212,8744.44 397.581,8743.79 394.517,8744.62" style="fill:none;fill-rule:nonzero;stroke:rgb(246,245,241);stroke-width:1.33px;"/>
            </g>
            <g transform="matrix(1,0,0,0.950532,5.55112e-15,-8027.04)">
                <path d="M376.922,8745.26C376.841,8744.21 376.884,8743.14 376.657,8742.13C375.872,8738.63 372.592,8736.54 369.675,8735.9C367.718,8735.47 365.694,8735.69 363.898,8736.81C362.337,8737.8 361.776,8739.34 361.877,8741.03C362.221,8746.82 369.022,8749.91 373.296,8748.6C374.891,8748.11 376.132,8747 376.801,8745.38" style="fill:none;fill-rule:nonzero;stroke:rgb(246,245,241);stroke-width:1.33px;"/>
            </g>
            <g transform="matrix(1,0,0,0.950532,5.55112e-15,-8050.36)">
                <path d="M376.795,8749.17C375.902,8750.7 375.225,8752.27 375.46,8754.12C375.955,8758.02 379.006,8761.36 382.712,8762.04C385.89,8762.63 388.842,8759.88 388.715,8756.53C388.575,8752.87 386.723,8750.23 383.549,8748.45C381.616,8747.36 379.745,8747.28 377.875,8748.57C377.582,8748.77 377.236,8748.89 376.915,8749.05" style="fill:none;fill-rule:nonzero;stroke:rgb(246,245,241);stroke-width:1.33px;"/>
            </g>
            <g transform="matrix(1,0,0,0.950532,5.55112e-15,-7997.09)">
                <path d="M362.337,8723.51C361.554,8725.38 361.592,8727.08 362.635,8728.97C363.676,8730.86 365.32,8731.75 367.06,8732.51C369.211,8733.45 371.53,8733.49 373.79,8732.79C377.374,8731.67 379.125,8727.68 377.107,8724.64C375.641,8722.43 373.408,8720.86 370.65,8720.54C369.311,8720.38 367.923,8720.68 366.556,8720.73C364.65,8720.8 363.65,8722.24 362.457,8723.39" style="fill:none;fill-rule:nonzero;stroke:rgb(246,245,241);stroke-width:1.33px;"/>
            </g>
            <g transform="matrix(1,0,0,0.950532,5.55112e-15,-7995.99)">
                <path d="M381.382,8711.99C379.868,8714.62 380.106,8717.33 381.04,8720.06C381.246,8720.66 381.566,8721.29 382.006,8721.74C383.949,8723.72 384.335,8726.16 384.138,8728.74C383.999,8730.56 383.593,8732.32 382.996,8734.06C382.009,8736.96 382.836,8739.56 385.025,8741.63C387.056,8743.54 389.485,8744.06 392.117,8742.96C394.275,8742.06 395.597,8740.39 396.22,8738.15C396.376,8737.59 396.548,8737.03 396.699,8736.47C397.399,8733.84 399.265,8732.03 401.205,8730.37C401.924,8729.76 403.158,8729.71 404.177,8729.5C404.716,8729.38 405.298,8729.47 405.86,8729.48C409.504,8729.56 411.916,8726.98 412.539,8723.68C412.913,8721.69 412.738,8719.59 411.667,8717.65C409.995,8714.63 407.679,8712.53 404.164,8712.15C402.699,8711.99 401.171,8712.04 399.711,8712.27C396.53,8712.75 393.735,8711.71 391.034,8710.29C388.661,8709.04 386.25,8708.65 383.812,8709.86C382.928,8710.3 382.265,8711.18 381.502,8711.87" style="fill:none;fill-rule:nonzero;stroke:rgb(246,245,241);stroke-width:1.33px;"/>
            </g>
            <g transform="matrix(-1,0,0,0.950532,935.461,-8287.56)">
                <path d="M435.065,8885.15L487.767,8885.15C488.513,8884.96 489.071,8884.76 489.579,8884.15C492.496,8880.59 496.287,8877.96 499.582,8874.8C499.806,8874.59 500.123,8874.47 500.396,8874.31" style="fill:none;fill-rule:nonzero;stroke:rgb(246,245,241);stroke-width:1.33px;"/>
            </g>
            <g transform="matrix(1,0,0,0.950532,5.55112e-15,-8330.26)">
                <path d="M461.165,8882.88C462.137,8882.37 462.797,8883.24 463.431,8883.59C465.275,8884.6 466.944,8885.9 468.394,8887.46C468.77,8887.86 469.022,8888.16 468.75,8888.79C468.569,8889.2 468.716,8889.75 468.716,8890.25L468.716,8915.46C468.716,8917.48 468.704,8919.5 468.737,8921.52C468.74,8921.69 469.044,8921.85 469.208,8922.01" style="fill:none;fill-rule:nonzero;stroke:rgb(246,245,241);stroke-width:1.33px;"/>
            </g>
            <g transform="matrix(-0.999909,0.0128544,0.0135234,0.950445,808.813,-8329.99)">
                <path d="M464.536,8883.02C464.376,8883.35 464.073,8883.69 464.078,8884.01C464.212,8891.82 464.381,8899.61 464.536,8907.42C464.58,8909.66 464.64,8911.9 464.6,8914.13C464.59,8914.75 464.835,8915.16 465.14,8915.6" style="fill:none;fill-rule:nonzero;stroke:rgb(246,245,241);stroke-width:1.33px;"/>
            </g>
            <g transform="matrix(1,0,0,0.950532,5.55112e-15,-8324.34)">
                <path d="M460.508,8886.63C460.508,8887.24 460.499,8887.84 460.509,8888.44C460.561,8891.27 460.631,8894.11 460.67,8896.95C460.735,8901.81 460.782,8906.67 460.836,8911.52" style="fill:none;fill-rule:nonzero;stroke:rgb(246,245,241);stroke-width:1.33px;"/>
            </g>
            <g transform="matrix(1,0,0,0.950532,5.55112e-15,-8329.94)">
                <path d="M469.044,8887.94C470.865,8889.26 472.024,8891.04 472.656,8893.18C472.705,8893.35 472.714,8893.57 472.827,8893.66C474.522,8895.08 474.69,8897.19 475.248,8899.08C475.999,8901.63 476.161,8904.3 475.908,8906.93C475.626,8909.88 474.981,8912.77 473.628,8915.44C473.496,8915.7 473.203,8915.89 472.983,8916.1" style="fill:none;fill-rule:nonzero;stroke:rgb(246,245,241);stroke-width:1.33px;"/>
            </g>
            <g transform="matrix(1,0,0,0.950532,5.55112e-15,-8313.43)">
                <path d="M472.655,8876.47C472.6,8877.01 472.495,8877.56 472.499,8878.1C472.542,8884.49 472.597,8890.87 472.662,8897.26C472.665,8897.64 472.806,8898.02 472.81,8898.41C472.819,8899.23 472.717,8899.92 472.232,8900.74C470.915,8902.96 469.088,8904.72 467.362,8906.56C466.496,8907.48 465.191,8907.98 464.128,8908.73C463.532,8909.16 463.025,8909.7 462.478,8910.2" style="fill:none;fill-rule:nonzero;stroke:rgb(246,245,241);stroke-width:1.33px;"/>
            </g>
            <g transform="matrix(1,0,0,0.950532,5.55112e-15,-8300.83)">
                <path d="M445.899,8877.62C451.425,8883.25 456.955,8888.86 462.471,8894.5C462.85,8894.88 463.135,8895.36 463.463,8895.8" style="fill:none;fill-rule:nonzero;stroke:rgb(246,245,241);stroke-width:1.33px;"/>
            </g>
            <g transform="matrix(1,0,0,0.950532,5.55112e-15,-8316.08)">
                <path d="M445.078,8885.97C444.203,8886.84 443.282,8887.67 442.461,8888.6C440.192,8891.14 437.961,8893.71 435.723,8896.29C433.638,8898.68 431.563,8901.09 429.484,8903.49" style="fill:none;fill-rule:nonzero;stroke:rgb(246,245,241);stroke-width:1.33px;"/>
            </g>
            <g transform="matrix(1,0,0,0.950532,5.55112e-15,-8324.86)">
                <path d="M465.104,8881.78C463.746,8880.14 461.957,8878.93 460.77,8877.08C459.99,8875.85 458.298,8875.57 456.89,8875.26C454.252,8874.69 451.531,8874.31 448.861,8874.64C446.347,8874.95 443.815,8875.29 441.435,8876.48C439.689,8877.35 437.972,8878.16 436.351,8879.29C432.316,8882.1 429.388,8885.67 427.625,8890.28C427.123,8891.59 426.656,8892.79 426.637,8894.23C426.626,8894.96 426.137,8895.69 425.985,8896.51C425.413,8899.58 425.82,8902.54 426.516,8905.53C428.343,8913.35 433.176,8918.76 440.18,8922.34C442.868,8923.71 445.645,8924.39 447.694,8924.39" style="fill:none;fill-rule:nonzero;stroke:rgb(246,245,241);stroke-width:1.33px;"/>
            </g>
            <g transform="matrix(1,0,0,0.950532,5.55112e-15,-8295.07)">
                <path d="M441.959,8875.49C442.507,8875.93 443.1,8876.32 443.594,8876.81C447.546,8880.73 451.48,8884.66 455.42,8888.59C456.514,8889.68 457.608,8890.78 458.703,8891.87" style="fill:none;fill-rule:nonzero;stroke:rgb(246,245,241);stroke-width:1.33px;"/>
            </g>
            <g transform="matrix(1,0,0,0.950532,5.55112e-15,-8346.89)">
                <path d="M436.542,8902.67C439.005,8905.23 441.488,8907.78 443.923,8910.37C446.359,8912.96 448.751,8915.6 451.142,8918.23C451.379,8918.5 451.48,8918.88 451.644,8919.21" style="fill:none;fill-rule:nonzero;stroke:rgb(246,245,241);stroke-width:1.33px;"/>
            </g>
            <g transform="matrix(1,0,0,0.950532,5.55112e-15,-8325.27)">
                <path d="M441.795,8891.54C441.521,8892.55 440.857,8893.28 440.157,8894C437.578,8896.67 435.014,8899.35 432.438,8902.02C430.638,8903.89 428.827,8905.74 427.022,8907.59" style="fill:none;fill-rule:nonzero;stroke:rgb(246,245,241);stroke-width:1.33px;"/>
            </g>
            <g transform="matrix(0,0.950532,1,0,-8442.75,-299.694)">
                <path d="M448.794,8899.32L464.344,8899.32" style="fill:none;fill-rule:nonzero;stroke:rgb(246,245,241);stroke-width:1.33px;"/>
            </g>
            <g transform="matrix(0,0.950532,1,0,-8445.59,-292.969)">
                <path d="M449.049,8897.2L454.169,8897.2" style="fill:none;fill-rule:nonzero;stroke:rgb(246,245,241);stroke-width:1.33px;"/>
            </g>
            <g transform="matrix(1,0,0,0.950532,5.55112e-15,-8353.28)">
                <path d="M441.303,8906.77C443.218,8908.84 445.115,8910.93 447.053,8912.99C449.441,8915.52 451.869,8918.01 454.264,8920.53C454.638,8920.92 454.928,8921.4 455.255,8921.83" style="fill:none;fill-rule:nonzero;stroke:rgb(246,245,241);stroke-width:1.33px;"/>
            </g>
            <g transform="matrix(1,0,0,0.950532,5.55112e-15,-8290.72)">
                <path d="M438.512,8874.35C442.233,8877.85 445.956,8881.34 449.673,8884.83C450.94,8886.03 452.191,8887.23 453.45,8888.43" style="fill:none;fill-rule:nonzero;stroke:rgb(246,245,241);stroke-width:1.33px;"/>
            </g>
            <g transform="matrix(1,0,0,0.950532,5.55112e-15,-8333.51)">
                <path d="M438.184,8897.43C434.846,8901.09 431.518,8904.75 428.163,8908.39C427.509,8909.1 426.748,8909.71 426.037,8910.37" style="fill:none;fill-rule:nonzero;stroke:rgb(246,245,241);stroke-width:1.33px;"/>
            </g>
            <g transform="matrix(0.68431,0.69312,0.729192,-0.650458,-6359.4,5603.92)">
                <path d="M443.791,8917.09C449.629,8916.69 455.466,8917.16 461.303,8917.09" style="fill:none;fill-rule:nonzero;stroke:rgb(246,245,241);stroke-width:1.33px;"/>
            </g>
            <g transform="matrix(1,0,0,0.950532,5.55112e-15,-8362.15)">
                <path d="M453.121,8914.3C454.599,8915.99 456.037,8917.72 457.565,8919.36C458.932,8920.83 460.399,8922.21 461.821,8923.63" style="fill:none;fill-rule:nonzero;stroke:rgb(246,245,241);stroke-width:1.33px;"/>
            </g>
            <g transform="matrix(1,0,0,0.950532,5.55112e-15,-8343.32)">
                <path d="M435.065,8904.64C433.643,8906.22 432.268,8907.85 430.783,8909.37C429.461,8910.73 428.645,8912.57 426.858,8913.48" style="fill:none;fill-rule:nonzero;stroke:rgb(246,245,241);stroke-width:1.33px;"/>
            </g>
            <g>
                <g transform="matrix(0.998289,0,0,0.948905,1.25236,3.53975e-14)">
                    <path d="M452.676,34.426C452.676,31.775 454.828,29.622 457.48,29.622C460.131,29.622 462.283,31.775 462.283,34.426C463.609,32.13 466.549,31.342 468.845,32.668C471.141,33.993 471.929,36.934 470.603,39.23C472.899,37.904 475.84,38.692 477.165,40.988C478.491,43.284 477.703,46.224 475.407,47.55C478.058,47.55 480.211,49.702 480.211,52.353C480.211,55.005 478.058,57.157 475.407,57.157C477.703,58.483 478.491,61.423 477.165,63.719C475.84,66.015 472.899,66.803 470.603,65.477C471.929,67.773 471.141,70.713 468.845,72.039C466.549,73.365 463.609,72.577 462.283,70.281C462.283,72.932 460.131,75.084 457.48,75.084C454.828,75.084 452.676,72.932 452.676,70.281C451.35,72.577 448.41,73.365 446.114,72.039C443.818,70.713 443.03,67.773 444.356,65.477C442.06,66.803 439.12,66.015 437.794,63.719C436.468,61.423 437.256,58.483 439.552,57.157C436.901,57.157 434.749,55.005 434.749,52.353C434.749,49.702 436.901,47.55 439.552,47.55C437.256,46.224 436.468,43.284 437.794,40.988C439.12,38.692 442.06,37.904 444.356,39.23C443.03,36.934 443.818,33.993 446.114,32.668C448.41,31.342 451.35,32.13 452.676,34.426Z" style="fill:none;stroke:rgb(246,245,241);stroke-width:1.33px;stroke-miterlimit:1.5;"/>
                </g>
                <g transform="matrix(0.691091,0,0,0.656904,23.9879,372.853)">
                    <path d="M452.676,34.426C452.676,31.775 454.828,29.622 457.48,29.622C460.131,29.622 462.283,31.775 462.283,34.426C463.609,32.13 466.549,31.342 468.845,32.668C471.141,33.993 471.929,36.934 470.603,39.23C472.899,37.904 475.84,38.692 477.165,40.988C478.491,43.284 477.703,46.224 475.407,47.55C478.058,47.55 480.211,49.702 480.211,52.353C480.211,55.005 478.058,57.157 475.407,57.157C477.703,58.483 478.491,61.423 477.165,63.719C475.84,66.015 472.899,66.803 470.603,65.477C471.929,67.773 471.141,70.713 468.845,72.039C466.549,73.365 463.609,72.577 462.283,70.281C462.283,72.932 460.131,75.084 457.48,75.084C454.828,75.084 452.676,72.932 452.676,70.281C451.35,72.577 448.41,73.365 446.114,72.039C443.818,70.713 443.03,67.773 444.356,65.477C442.06,66.803 439.12,66.015 437.794,63.719C436.468,61.423 437.256,58.483 439.552,57.157C436.901,57.157 434.749,55.005 434.749,52.353C434.749,49.702 436.901,47.55 439.552,47.55C437.256,46.224 436.468,43.284 437.794,40.988C439.12,38.692 442.06,37.904 444.356,39.23C443.03,36.934 443.818,33.993 446.114,32.668C448.41,31.342 451.35,32.13 452.676,34.426Z" style="fill:none;stroke:rgb(246,245,241);stroke-width:1.93px;stroke-miterlimit:1.5;"/>
                </g>
                <g transform="matrix(0.998289,0,0,0.948905,28.898,260.481)">
                    <path d="M452.676,34.426C452.676,31.775 454.828,29.622 457.48,29.622C460.131,29.622 462.283,31.775 462.283,34.426C463.609,32.13 466.549,31.342 468.845,32.668C471.141,33.993 471.929,36.934 470.603,39.23C472.899,37.904 475.84,38.692 477.165,40.988C478.491,43.284 477.703,46.224 475.407,47.55C478.058,47.55 480.211,49.702 480.211,52.353C480.211,55.005 478.058,57.157 475.407,57.157C477.703,58.483 478.491,61.423 477.165,63.719C475.84,66.015 472.899,66.803 470.603,65.477C471.929,67.773 471.141,70.713 468.845,72.039C466.549,73.365 463.609,72.577 462.283,70.281C462.283,72.932 460.131,75.084 457.48,75.084C454.828,75.084 452.676,72.932 452.676,70.281C451.35,72.577 448.41,73.365 446.114,72.039C443.818,70.713 443.03,67.773 444.356,65.477C442.06,66.803 439.12,66.015 437.794,63.719C436.468,61.423 437.256,58.483 439.552,57.157C436.901,57.157 434.749,55.005 434.749,52.353C434.749,49.702 436.901,47.55 439.552,47.55C437.256,46.224 436.468,43.284 437.794,40.988C439.12,38.692 442.06,37.904 444.356,39.23C443.03,36.934 443.818,33.993 446.114,32.668C448.41,31.342 451.35,32.13 452.676,34.426Z" style="fill:none;stroke:rgb(246,245,241);stroke-width:1.33px;stroke-miterlimit:1.5;"/>
                </g>
                <g transform="matrix(0.998289,0,0,0.948905,-15.6952,526.685)">
                    <path d="M452.676,34.426C452.676,31.775 454.828,29.622 457.48,29.622C460.131,29.622 462.283,31.775 462.283,34.426C463.609,32.13 466.549,31.342 468.845,32.668C471.141,33.993 471.929,36.934 470.603,39.23C472.899,37.904 475.84,38.692 477.165,40.988C478.491,43.284 477.703,46.224 475.407,47.55C478.058,47.55 480.211,49.702 480.211,52.353C480.211,55.005 478.058,57.157 475.407,57.157C477.703,58.483 478.491,61.423 477.165,63.719C475.84,66.015 472.899,66.803 470.603,65.477C471.929,67.773 471.141,70.713 468.845,72.039C466.549,73.365 463.609,72.577 462.283,70.281C462.283,72.932 460.131,75.084 457.48,75.084C454.828,75.084 452.676,72.932 452.676,70.281C451.35,72.577 448.41,73.365 446.114,72.039C443.818,70.713 443.03,67.773 444.356,65.477C442.06,66.803 439.12,66.015 437.794,63.719C436.468,61.423 437.256,58.483 439.552,57.157C436.901,57.157 434.749,55.005 434.749,52.353C434.749,49.702 436.901,47.55 439.552,47.55C437.256,46.224 436.468,43.284 437.794,40.988C439.12,38.692 442.06,37.904 444.356,39.23C443.03,36.934 443.818,33.993 446.114,32.668C448.41,31.342 451.35,32.13 452.676,34.426Z" style="fill:none;stroke:rgb(246,245,241);stroke-width:1.33px;stroke-miterlimit:1.5;"/>
                </g>
                <g transform="matrix(1.29319,0,0,1.22921,-582.2,593.191)">
                    <path d="M452.676,34.426C452.676,31.775 454.828,29.622 457.48,29.622C460.131,29.622 462.283,31.775 462.283,34.426C463.609,32.13 466.549,31.342 468.845,32.668C471.141,33.993 471.929,36.934 470.603,39.23C472.899,37.904 475.84,38.692 477.165,40.988C478.491,43.284 477.703,46.224 475.407,47.55C478.058,47.55 480.211,49.702 480.211,52.353C480.211,55.005 478.058,57.157 475.407,57.157C477.703,58.483 478.491,61.423 477.165,63.719C475.84,66.015 472.899,66.803 470.603,65.477C471.929,67.773 471.141,70.713 468.845,72.039C466.549,73.365 463.609,72.577 462.283,70.281C462.283,72.932 460.131,75.084 457.48,75.084C454.828,75.084 452.676,72.932 452.676,70.281C451.35,72.577 448.41,73.365 446.114,72.039C443.818,70.713 443.03,67.773 444.356,65.477C442.06,66.803 439.12,66.015 437.794,63.719C436.468,61.423 437.256,58.483 439.552,57.157C436.901,57.157 434.749,55.005 434.749,52.353C434.749,49.702 436.901,47.55 439.552,47.55C437.256,46.224 436.468,43.284 437.794,40.988C439.12,38.692 442.06,37.904 444.356,39.23C443.03,36.934 443.818,33.993 446.114,32.668C448.41,31.342 451.35,32.13 452.676,34.426Z" style="fill:none;stroke:rgb(246,245,241);stroke-width:1.03px;stroke-miterlimit:1.5;"/>
                </g>
                <g transform="matrix(1.68664,0,0,1.60321,-749.586,-27.0801)">
                    <path d="M452.676,34.426C452.676,31.775 454.828,29.622 457.48,29.622C460.131,29.622 462.283,31.775 462.283,34.426C463.609,32.13 466.549,31.342 468.845,32.668C471.141,33.993 471.929,36.934 470.603,39.23C472.899,37.904 475.84,38.692 477.165,40.988C478.491,43.284 477.703,46.224 475.407,47.55C478.058,47.55 480.211,49.702 480.211,52.353C480.211,55.005 478.058,57.157 475.407,57.157C477.703,58.483 478.491,61.423 477.165,63.719C475.84,66.015 472.899,66.803 470.603,65.477C471.929,67.773 471.141,70.713 468.845,72.039C466.549,73.365 463.609,72.577 462.283,70.281C462.283,72.932 460.131,75.084 457.48,75.084C454.828,75.084 452.676,72.932 452.676,70.281C451.35,72.577 448.41,73.365 446.114,72.039C443.818,70.713 443.03,67.773 444.356,65.477C442.06,66.803 439.12,66.015 437.794,63.719C436.468,61.423 437.256,58.483 439.552,57.157C436.901,57.157 434.749,55.005 434.749,52.353C434.749,49.702 436.901,47.55 439.552,47.55C437.256,46.224 436.468,43.284 437.794,40.988C439.12,38.692 442.06,37.904 444.356,39.23C443.03,36.934 443.818,33.993 446.114,32.668C448.41,31.342 451.35,32.13 452.676,34.426Z" style="fill:none;stroke:rgb(246,245,241);stroke-width:0.79px;stroke-miterlimit:1.5;"/>
                </g>
                <g transform="matrix(0.89847,0,0,0.854025,-360.081,343.793)">
                    <path d="M452.676,34.426C452.676,31.775 454.828,29.622 457.48,29.622C460.131,29.622 462.283,31.775 462.283,34.426C463.609,32.13 466.549,31.342 468.845,32.668C471.141,33.993 471.929,36.934 470.603,39.23C472.899,37.904 475.84,38.692 477.165,40.988C478.491,43.284 477.703,46.224 475.407,47.55C478.058,47.55 480.211,49.702 480.211,52.353C480.211,55.005 478.058,57.157 475.407,57.157C477.703,58.483 478.491,61.423 477.165,63.719C475.84,66.015 472.899,66.803 470.603,65.477C471.929,67.773 471.141,70.713 468.845,72.039C466.549,73.365 463.609,72.577 462.283,70.281C462.283,72.932 460.131,75.084 457.48,75.084C454.828,75.084 452.676,72.932 452.676,70.281C451.35,72.577 448.41,73.365 446.114,72.039C443.818,70.713 443.03,67.773 444.356,65.477C442.06,66.803 439.12,66.015 437.794,63.719C436.468,61.423 437.256,58.483 439.552,57.157C436.901,57.157 434.749,55.005 434.749,52.353C434.749,49.702 436.901,47.55 439.552,47.55C437.256,46.224 436.468,43.284 437.794,40.988C439.12,38.692 442.06,37.904 444.356,39.23C443.03,36.934 443.818,33.993 446.114,32.668C448.41,31.342 451.35,32.13 452.676,34.426Z" style="fill:none;stroke:rgb(246,245,241);stroke-width:1.48px;stroke-miterlimit:1.5;"/>
                </g>
                <g transform="matrix(0.612848,0,0,0.582532,-73.7889,246.38)">
                    <path d="M452.676,34.426C452.676,31.775 454.828,29.622 457.48,29.622C460.131,29.622 462.283,31.775 462.283,34.426C463.609,32.13 466.549,31.342 468.845,32.668C471.141,33.993 471.929,36.934 470.603,39.23C472.899,37.904 475.84,38.692 477.165,40.988C478.491,43.284 477.703,46.224 475.407,47.55C478.058,47.55 480.211,49.702 480.211,52.353C480.211,55.005 478.058,57.157 475.407,57.157C477.703,58.483 478.491,61.423 477.165,63.719C475.84,66.015 472.899,66.803 470.603,65.477C471.929,67.773 471.141,70.713 468.845,72.039C466.549,73.365 463.609,72.577 462.283,70.281C462.283,72.932 460.131,75.084 457.48,75.084C454.828,75.084 452.676,72.932 452.676,70.281C451.35,72.577 448.41,73.365 446.114,72.039C443.818,70.713 443.03,67.773 444.356,65.477C442.06,66.803 439.12,66.015 437.794,63.719C436.468,61.423 437.256,58.483 439.552,57.157C436.901,57.157 434.749,55.005 434.749,52.353C434.749,49.702 436.901,47.55 439.552,47.55C437.256,46.224 436.468,43.284 437.794,40.988C439.12,38.692 442.06,37.904 444.356,39.23C443.03,36.934 443.818,33.993 446.114,32.668C448.41,31.342 451.35,32.13 452.676,34.426Z" style="fill:none;stroke:rgb(246,245,241);stroke-width:2.17px;stroke-miterlimit:1.5;"/>
                </g>
            </g>
        </g>
    </g>
</svg>
