<?xml version="1.0" encoding="UTF-8" standalone="no"?><!DOCTYPE svg PUBLIC "-//W3C//DTD SVG 1.1//EN" "http://www.w3.org/Graphics/SVG/1.1/DTD/svg11.dtd"><svg width="100%" height="100%" viewBox="0 0 375 375" version="1.1" xmlns="http://www.w3.org/2000/svg" xmlns:xlink="http://www.w3.org/1999/xlink" xml:space="preserve" xmlns:serif="http://www.serif.com/" style="fill-rule:evenodd;clip-rule:evenodd;stroke-linecap:round;stroke-linejoin:round;stroke-miterlimit:1.5;"><g><path d="M59.784,188.939l63.76,-0" style="fill:none;stroke:#9e445f;stroke-width:3.6px;"/><path d="M236.258,188.282c-1.619,0.072 -3.238,0.151 -4.855,0.251c-0.942,0.058 -2.235,0.354 -2.706,1.014c-5.11,7.179 -10.1,14.447 -15.102,21.703c-3.483,5.053 -7.132,10.006 -10.308,15.247c-1.384,2.282 -2.239,1.871 -3.693,0.417c-1.194,-1.192 -2.781,-2.178 -3.483,-3.599c-0.339,-0.686 1.317,-2.113 1.45,-3.284c0.654,-5.698 4.715,-9.379 7.607,-13.766c0.656,-0.995 0.999,-2.055 -0.961,-2.873c-2.007,-0.836 -3.735,-2.526 -5.373,-4.07c-2.359,-2.222 -3.604,-4.966 -2.733,-8.254c0.572,-2.157 -0.366,-3.001 -2.384,-2.925c-4.608,0.173 -9.214,0.393 -13.819,0.612c-4.462,0.213 -8.92,0.473 -13.381,0.661c-3.112,0.129 -6.228,0.246 -9.344,0.236c-2.354,-0.007 -4.778,0.097 -7.047,-0.424c-3.364,-0.773 -4.926,-0.025 -5.67,2.961c-1.308,5.259 -2.438,10.622 -6.28,14.82c-0.535,0.584 -0.611,1.666 -0.726,2.541c-0.749,5.672 -1.963,11.292 -2.604,16.978c-3.44,-0.816 -5.275,-3.484 -5.898,-6.475c-0.98,-4.709 -1,-9.595 -1.845,-14.338c-0.829,-4.651 -0.685,-9.266 -1.84,-13.836c-0.69,-2.731 -1.76,-3.049 -3.888,-3.082c-8.044,-0.125 -16.165,0.191 -24.102,-0.545c-5.6,-0.522 -10.003,-3.381 -10.949,-9.763c-0.894,-6.026 -0.351,-12.115 0.661,-18.152c0.432,-2.564 2.057,-5.256 3.752,-7.426c3.242,-4.146 4.471,-3.954 6.436,0.507c0.95,2.154 1.009,5.293 2.621,6.424c1.499,1.053 4.533,-0.048 6.881,-0.063c4.421,-0.028 4.673,-0.238 6.652,-4.77c0.921,-2.11 2.048,-4.159 3.256,-6.138c0.202,-0.331 0.447,-0.638 0.714,-0.932c0.385,-0.458 0.967,-0.703 1.563,-0.657c0.597,0.045 1.135,0.375 1.446,0.886c0.352,0.535 0.672,1.086 0.91,1.676c0.287,0.708 -0.107,1.737 -0.195,2.622c-0.278,2.802 -0.505,5.604 -0.849,8.403c-0.26,2.119 1.438,2.238 2.426,1.712c1.762,-0.942 3.295,-2.437 4.814,-3.822c2.321,-2.118 4.303,-4.308 6.854,-5.777c17.398,-10.023 35.744,-17.795 55.771,-21.034c9.266,-1.499 18.642,-1.873 27.799,1.385c8.431,3.001 15.138,8.293 19.663,16.022c5.852,9.995 5.639,20.326 1.396,30.699c-0.524,1.283 -1.237,2.493 -1.673,3.803c-0.417,1.248 -0.687,3.128 -0.964,4.425" style="fill:none;fill-rule:nonzero;stroke:#9e445f;stroke-width:3.56px;stroke-miterlimit:10;"/><path d="M236.258,188.232c15.895,-0.043 31.955,-1.197 47.723,1.104c6.617,0.966 13.983,2.1 19.269,5.959c15.2,11.098 16.316,35.314 -1.185,45.078c-4.558,2.544 -8.759,3.625 -15.519,3.956c-5.751,0.281 -13.872,0.695 -18.803,-2.635c-3.063,-2.069 -5.286,-5.4 -6.397,-8.665c-0.892,-2.624 -1.139,-5.474 -0.555,-8.173c2.021,-9.341 12.572,-13.876 21.668,-8.257c5.328,3.291 8.186,9.973 2.152,13.724" style="fill:none;stroke:#9e445f;stroke-width:3.56px;"/></g></svg>