<?xml version="1.0" encoding="UTF-8" standalone="no"?><!DOCTYPE svg PUBLIC "-//W3C//DTD SVG 1.1//EN" "http://www.w3.org/Graphics/SVG/1.1/DTD/svg11.dtd"><svg width="100%" height="100%" viewBox="0 0 375 375" version="1.1" xmlns="http://www.w3.org/2000/svg" xmlns:xlink="http://www.w3.org/1999/xlink" xml:space="preserve" xmlns:serif="http://www.serif.com/" style="fill-rule:evenodd;clip-rule:evenodd;stroke-linecap:round;stroke-linejoin:round;stroke-miterlimit:10;"><g><path d="M181.884,239.001c3.193,-2.26 6.432,-1.021 8.708,1.001c3.079,2.741 5.768,6.117 7.901,9.654c1.33,2.198 1.399,5.19 1.89,7.85c3.105,16.826 16.599,27.57 33.504,28.386c13.594,0.657 25.271,-2.995 36.193,-10.708c9.059,-6.392 14.056,-15.549 16.365,-25.687c1.31,-5.739 -0.325,-12.359 -1.509,-18.41c-4.519,-23.122 -16.407,-41.126 -37.835,-51.97c-12.151,-6.149 -25.317,-9.212 -38.775,-9.534c-12.909,-0.305 -26.051,-0.237 -38.742,1.818c-28.104,4.549 -52.997,15.698 -69.642,40.313c-10.984,16.241 -9.596,44.247 5.033,56.616c10.103,8.545 20.501,14.505 33.706,13.741c19.22,-1.115 32.307,-12.873 34.427,-29.849c0.654,-5.261 1.714,-10.5 7.895,-12.34" style="fill:none;fill-rule:nonzero;stroke:#9e445f;stroke-width:3.56px;"/><path d="M200.397,118.283c0.588,5.876 0.25,12.031 1.937,17.572c4.849,15.942 20.654,19.682 32.412,7.953c10.659,-10.629 13.936,-23.577 9.586,-37.816c-3.297,-10.782 -12.148,-17.493 -21.9,-15.919c-8.08,1.3 -12.505,7.348 -16.612,13.325c-2.767,4.028 -5.362,8.59 -4.542,14.004" style="fill:none;fill-rule:nonzero;stroke:#9e445f;stroke-width:3.56px;"/><path d="M107.832,164.104c-2.546,-17.347 -15.348,-28.198 -31.755,-31.635c-11.338,-2.377 -22.764,11.55 -18.352,22.768c5.752,14.632 16.944,23.765 32.525,26.185c3.792,0.585 8.38,-2.237 12.239,-4.201c4.855,-2.465 4.078,-7.911 5.343,-12.236" style="fill:none;fill-rule:nonzero;stroke:#9e445f;stroke-width:3.56px;"/><path d="M139.57,91.85c-17.897,7.684 -17.377,25.954 -12.877,40.424c1.958,6.285 5.538,12.768 11.927,16.95c10.412,6.812 18.43,4.767 24.862,-6.204c4.496,-7.683 4.526,-16.076 3.076,-23.792c-2.176,-11.566 -7.684,-21.935 -19.959,-26.441c-1.908,-0.7 -4.093,-0.644 -6.148,-0.937" style="fill:none;fill-rule:nonzero;stroke:#9e445f;stroke-width:3.56px;"/><path d="M298.248,123.57c-14.072,5.167 -23.755,14.724 -28.109,29.108c-1.743,5.762 -2.033,11.742 0.715,17.624c3.131,6.701 10.22,11.39 16.794,9.582c20.462,-5.628 33.465,-23.713 30.854,-43.974c-0.773,-6.012 -7.01,-11.754 -13.204,-12.31c-2.039,-0.182 -4.11,-0.03 -6.168,-0.03" style="fill:none;fill-rule:nonzero;stroke:#9e445f;stroke-width:3.56px;"/></g></svg>