<?xml version="1.0" encoding="UTF-8" standalone="no"?><!DOCTYPE svg PUBLIC "-//W3C//DTD SVG 1.1//EN" "http://www.w3.org/Graphics/SVG/1.1/DTD/svg11.dtd"><svg width="100%" height="100%" viewBox="0 0 375 375" version="1.1" xmlns="http://www.w3.org/2000/svg" xmlns:xlink="http://www.w3.org/1999/xlink" xml:space="preserve" xmlns:serif="http://www.serif.com/" style="fill-rule:evenodd;clip-rule:evenodd;stroke-linecap:round;stroke-linejoin:round;stroke-miterlimit:10;"><g><path d="M298.682,135.515c-13.224,-0.263 -22.872,5.639 -30.812,16.128c-7.869,10.389 -11.206,21.539 -10.781,34.411c0.382,11.585 6.016,19.881 15.534,25.085c9.568,5.228 18.96,1.1 26.85,-4.49c12.493,-8.853 18.359,-22.154 20.758,-36.86c2.233,-13.646 -5.174,-25.923 -19.748,-34.274" style="fill:none;fill-rule:nonzero;stroke:#9e445f;stroke-width:3.56px;"/><path d="M167.014,137.319c3.606,-4.211 7.783,-8.062 10.721,-12.699c10.143,-16.022 5.687,-36.105 -2.825,-49.422c-5.709,-8.934 -14.091,-15.7 -25.028,-18.196c-9.515,-2.167 -17.388,1.505 -23.347,8.219c-20.35,22.925 -6.468,59.934 14.41,71.035c7.79,4.144 16.611,4.616 25.168,1.063" style="fill:none;fill-rule:nonzero;stroke:#9e445f;stroke-width:3.56px;"/><path d="M243.67,59.713c-9.053,2.37 -17.441,5.697 -23.49,13.504c-12.758,16.464 -13.832,40.366 -2.529,56.79c9.698,14.088 31.041,14.829 43.085,1.835c13.194,-14.238 16.142,-31.041 10.928,-49.579c-3.178,-11.29 -9.878,-18.591 -21.676,-20.782c-1.851,-0.342 -3.616,-1.166 -5.417,-1.768" style="fill:none;fill-rule:nonzero;stroke:#9e445f;stroke-width:3.56px;"/><path d="M75.928,119.272c-9.921,4.062 -16.142,10.569 -19.316,21.546c-3.167,10.954 -0.362,20.456 3.303,29.805c4.534,11.565 13.071,20.379 24.155,26.205c17.578,9.239 39.08,0.841 42.899,-18.073c2.775,-13.749 0.289,-27.97 -8.827,-39.496c-4.424,-5.593 -10.731,-9.671 -16.039,-14.593c-7.398,-6.866 -16.501,-5.247 -25.275,-5.394" style="fill:none;fill-rule:nonzero;stroke:#9e445f;stroke-width:3.56px;"/><path d="M185.952,151.758c-15.504,4.171 -24.777,15.228 -31.48,28.918c-1.479,3.024 -2.632,6.57 -2.659,9.887c-0.136,14.679 -7.843,25.275 -18.245,34.198c-7.292,6.258 -15.401,11.323 -24.172,15.63c-14.516,7.129 -21.173,19.977 -20.708,35.893c0.435,14.759 7.584,25.79 21.533,31.533c11.442,4.709 22.635,3.406 33.347,-2.649c2.695,-1.525 5.43,-2.974 8.109,-4.523c12.426,-7.185 26.185,-6.983 39.655,-5.936c4.992,0.389 9.794,4.819 14.401,7.837c2.439,1.598 4.307,4.084 6.364,6.235c13.337,13.928 32.008,13.307 46.688,3.283c8.823,-6.025 16.042,-14.553 19.289,-25.813c5.061,-17.571 4.23,-34.072 -7.488,-48.655c-4.885,-6.078 -10.808,-11.589 -17.096,-16.222c-13.705,-10.096 -20.263,-24.453 -25.065,-39.864c-4.214,-13.543 -11.772,-24.029 -25.411,-28.632c-4.949,-1.668 -10.751,-0.82 -16.162,-1.12" style="fill:none;fill-rule:nonzero;stroke:#9e445f;stroke-width:3.56px;"/></g></svg>