<?xml version="1.0" encoding="UTF-8" standalone="no"?><!DOCTYPE svg PUBLIC "-//W3C//DTD SVG 1.1//EN" "http://www.w3.org/Graphics/SVG/1.1/DTD/svg11.dtd"><svg width="100%" height="100%" viewBox="0 0 375 375" version="1.1" xmlns="http://www.w3.org/2000/svg" xmlns:xlink="http://www.w3.org/1999/xlink" xml:space="preserve" xmlns:serif="http://www.serif.com/" style="fill-rule:evenodd;clip-rule:evenodd;stroke-linecap:round;stroke-linejoin:round;stroke-miterlimit:10;"><g><path d="M304.206,297.124c-1.795,-3.772 -3.601,-7.516 -6.337,-10.764c-3.88,-4.609 -7.85,-9.028 -13.696,-11.268c-0.835,-0.319 -2.274,-0.685 -1.949,-2.138c0.343,-1.527 1.692,-0.923 2.663,-0.972c12.509,-0.642 22.216,-6.18 29.093,-16.623c2.488,-3.778 3.809,-7.912 4.545,-12.427c0.574,-3.516 -0.062,-6.732 -0.665,-10.028c-0.384,-2.095 -1.506,-2.884 -3.38,-2.675c-4.713,0.523 -9.345,1.43 -13.696,3.404c-7.274,3.302 -14,7.483 -20.045,12.709c-3.403,2.941 -6.821,5.885 -9.997,9.062c-2.484,2.487 -4.659,5.291 -6.849,8.05c-0.523,0.659 -0.954,1.169 -1.742,0.918c-0.725,-0.232 -0.93,-0.836 -1.032,-1.676c-0.548,-4.516 -2.374,-8.503 -5.333,-11.974c-3.211,-3.767 -7.365,-6.099 -12.002,-7.514c-2.273,-0.694 -4.611,-1.38 -7.077,-1.292c-2.198,0.079 -4.401,0.023 -6.601,0.016c-5.974,-0.02 -11.612,1.636 -17.104,3.705c-6.496,2.446 -12.556,5.779 -18.112,9.972c-5.811,4.384 -11.057,9.308 -15.22,15.346c-0.656,0.951 -0.864,1.858 -0.634,2.714c1.695,6.299 4.702,11.691 9.924,15.958c5.05,4.126 10.714,6.592 16.94,7.959c6.06,1.331 12.17,1.292 18.342,0.56c8.8,-1.044 16.777,-4.129 24.209,-8.83c4.605,-2.913 8.771,-6.304 11.956,-10.769c0.412,-0.577 0.74,-1.168 1.482,-0.931c0.671,0.214 1.187,0.513 1.538,1.412c2.512,6.412 6.142,12.13 10.925,17.137c3.912,4.095 8.192,7.727 12.995,10.702c3.872,2.399 8.076,4.132 12.462,5.379c1.023,0.291 2.112,0.365 3.175,0.503c1.43,0.185 2.38,-0.587 2.686,-2.194c0.798,-4.188 0.165,-8.237 -1.216,-12.212c-0.11,-0.315 -0.167,-0.649 -0.248,-0.975" style="fill:none;fill-rule:nonzero;stroke:#9e445f;stroke-width:3.56px;"/><g><path d="M185.751,236.979c2.399,-0.643 4.869,0.783 5.512,3.182c0.643,2.399 -0.783,4.869 -3.182,5.512c-2.4,0.643 -4.87,-0.783 -5.512,-3.182c-0.643,-2.4 0.783,-4.87 3.182,-5.512Z" style="fill:none;stroke:#9e445f;stroke-width:3.56px;stroke-miterlimit:1.5;"/><path d="M194.423,222.491c1.824,-0.489 3.701,0.595 4.19,2.419c0.489,1.824 -0.595,3.701 -2.419,4.19c-1.824,0.489 -3.701,-0.595 -4.19,-2.419c-0.489,-1.824 0.595,-3.701 2.419,-4.19Z" style="fill:none;stroke:#9e445f;stroke-width:3.56px;stroke-miterlimit:1.5;"/><path d="M177.036,215.19c1.482,-0.397 3.006,0.484 3.403,1.965c0.397,1.481 -0.483,3.006 -1.964,3.403c-1.482,0.397 -3.007,-0.483 -3.404,-1.965c-0.396,-1.481 0.484,-3.006 1.965,-3.403Z" style="fill:none;stroke:#9e445f;stroke-width:3.56px;stroke-miterlimit:1.5;"/></g><path d="M211.476,260.737c-3.045,0.677 -4.739,2.677 -5.887,5.489c-0.504,1.234 -0.856,2.166 0.072,3.222c1.058,1.203 2.176,0.348 3.188,-0.023c2.437,-0.893 4.403,-4.372 4.437,-6.945c0.018,-1.319 -0.88,-1.291 -1.521,-1.743" style="fill:none;fill-rule:nonzero;stroke:#9e445f;stroke-width:3.56px;"/></g><g><path d="M75.55,125.845c-2.977,5.959 -6.258,11.777 -7.886,18.326c-0.852,3.424 -2.014,6.771 -2.855,10.199c-0.468,1.903 0.68,3.587 1.452,5.212c2.361,4.97 5.367,9.49 8.933,13.745c6.187,7.379 13.861,12.362 22.784,15.666c5.931,2.197 12.095,3.308 18.35,2.832c11.664,-0.885 21.794,-5.428 29.663,-14.236c2.49,-2.788 4.379,-6.124 6.428,-9.285c0.529,-0.817 0.778,-1.902 0.868,-2.89c0.112,-1.214 0.655,-1.834 1.79,-2.031c1.202,-0.208 1.918,0.394 2.328,1.453c3.338,8.612 10.209,13.83 17.782,18.311c5.533,3.272 11.617,5.42 17.793,6.852c4.615,1.069 9.37,2.092 14.24,1.927c4.268,-0.145 8.55,0.097 12.814,-0.082c2.246,-0.094 4.472,-1.04 6.702,-1.022c2.194,0.017 1.972,-1.296 1.7,-2.406c-0.839,-3.426 -1.64,-6.9 -2.913,-10.176c-3.234,-8.313 -8.177,-15.595 -14.551,-21.808c-4.956,-4.833 -10.577,-8.761 -17.445,-10.502c-3.452,-0.876 -4.369,-4.205 -2.88,-6.975c1.393,-2.593 3.365,-4.362 6.666,-4.438c3.455,-0.08 6.71,-1.506 9.571,-3.217c10.371,-6.206 18.864,-14.481 25.333,-24.695c1.819,-2.873 3.058,-6.134 4.36,-9.301c0.328,-0.796 0.23,-2.212 -0.287,-2.835c-3.014,-3.632 -6.837,-5.863 -11.577,-6.817c-4.008,-0.805 -8.028,-0.748 -11.947,-0.381c-4.882,0.456 -9.651,1.86 -14.301,3.619c-8.509,3.218 -16.219,7.72 -23.307,13.402c-5.996,4.806 -10.996,10.444 -15.163,16.876c-0.61,0.941 -0.997,1.802 -1.218,2.914c-0.2,1.01 -0.667,2.669 -1.936,2.507c-0.958,-0.123 -2.29,-1.277 -2.554,-2.222c-1.748,-6.258 -4.932,-11.688 -9.128,-16.552c-5.915,-6.855 -13.197,-11.078 -22.413,-11.991c-10.258,-1.017 -19.176,2.282 -27.362,7.942c-8.219,5.685 -14.561,13.153 -19.544,21.788" style="fill:none;fill-rule:nonzero;stroke:#9e445f;stroke-width:3.56px;"/><g><path d="M72.662,89.895c-3.034,-0.813 -6.157,0.991 -6.97,4.025c-0.813,3.033 0.99,6.157 4.024,6.97c3.034,0.813 6.157,-0.991 6.97,-4.025c0.813,-3.034 -0.99,-6.157 -4.024,-6.97Z" style="fill:none;stroke:#9e445f;stroke-width:3.56px;stroke-miterlimit:1.5;"/><path d="M61.696,71.576c-2.306,-0.618 -4.68,0.753 -5.298,3.059c-0.618,2.306 0.753,4.68 3.059,5.298c2.306,0.618 4.68,-0.753 5.298,-3.059c0.618,-2.306 -0.753,-4.68 -3.059,-5.298Z" style="fill:none;stroke:#9e445f;stroke-width:3.56px;stroke-miterlimit:1.5;"/><path d="M83.681,62.345c-1.873,-0.502 -3.801,0.611 -4.303,2.484c-0.502,1.873 0.612,3.801 2.485,4.303c1.873,0.502 3.801,-0.611 4.303,-2.484c0.502,-1.873 -0.612,-3.801 -2.485,-4.303Z" style="fill:none;stroke:#9e445f;stroke-width:3.56px;stroke-miterlimit:1.5;"/></g><path d="M87.494,144.176c0.194,0.776 0.204,1.671 0.616,2.306c1.246,1.921 3.891,2.243 5.767,0.576c2.477,-2.199 3.898,-4.962 3.519,-8.41c-0.189,-1.728 -1.045,-3.19 -2.645,-3.708c-1.273,-0.412 -2.669,-0.098 -3.785,1.067c-2.135,2.229 -4.509,4.694 -3.472,8.169" style="fill:none;fill-rule:nonzero;stroke:#9e445f;stroke-width:3.56px;"/></g></svg>