<?xml version="1.0" encoding="UTF-8" standalone="no"?><!DOCTYPE svg PUBLIC "-//W3C//DTD SVG 1.1//EN" "http://www.w3.org/Graphics/SVG/1.1/DTD/svg11.dtd"><svg width="100%" height="100%" viewBox="0 0 375 375" version="1.1" xmlns="http://www.w3.org/2000/svg" xmlns:xlink="http://www.w3.org/1999/xlink" xml:space="preserve" xmlns:serif="http://www.serif.com/" style="fill-rule:evenodd;clip-rule:evenodd;stroke-linecap:round;stroke-linejoin:round;stroke-miterlimit:10;"><g><path d="M209.067,164.978c-6.474,1.438 -10.072,5.689 -12.514,11.668c-1.07,2.623 -1.818,4.603 0.155,6.849c2.246,2.557 4.626,0.739 6.776,-0.048c5.181,-1.9 9.359,-9.295 9.432,-14.764c0.038,-2.803 -1.873,-2.744 -3.233,-3.705" style="fill:none;fill-rule:nonzero;stroke:#9e445f;stroke-width:3.56px;"/><path d="M154.3,180.546c-6.471,1.439 -10.07,5.69 -12.511,11.669c-1.071,2.623 -1.821,4.603 0.152,6.849c2.248,2.557 4.626,0.738 6.776,-0.05c5.183,-1.898 9.359,-9.293 9.434,-14.762c0.039,-2.803 -1.873,-2.744 -3.232,-3.706" style="fill:none;fill-rule:nonzero;stroke:#9e445f;stroke-width:3.56px;"/><path d="M261.384,203.182c-0.514,-3.701 1.826,-6.279 3.746,-8.907c2.067,-2.816 4.374,-5.478 6.781,-8.013c1.83,-1.925 1.35,-2.977 -0.609,-4.409c-1.853,-1.36 -3.146,-3.494 -5.017,-4.822c-5.758,-4.089 -9.277,-10.463 -15.337,-14.319c-5.651,-3.598 -8.57,-9.727 -11.714,-15.362c-7.615,-13.65 -14.746,-27.573 -22.415,-41.194c-1.273,-2.26 -1.83,-6.508 -5.367,-5.906c-1.373,0.234 -2.173,4.165 -3.133,6.454c-5.164,12.323 -10.268,24.668 -15.491,36.964c-0.423,0.991 -1.453,1.941 -2.437,2.446c-8.604,4.389 -17.342,8.52 -25.855,13.07c-3.126,1.669 -5.299,1.978 -8.122,-0.641c-12.114,-11.231 -25.728,-20.517 -39.449,-29.64c-3.551,-2.359 -4.487,-1.72 -4.978,2.451c-1.087,9.265 -2.617,18.481 -3.594,27.755c-0.732,6.952 -0.903,13.967 -1.284,20.955c-0.089,1.638 0.14,3.305 -0.041,4.928c-0.651,5.794 -0.855,5.894 -6.759,6.176c-12.345,0.591 -24.688,1.225 -37.03,1.841" style="fill:none;fill-rule:nonzero;stroke:#9e445f;stroke-width:3.56px;"/><path d="M303.968,216.437c-8.01,-1.592 -15.878,-3.569 -23.488,-6.695c-5.579,-2.291 -11.605,-3.489 -17.197,-5.753c-3.078,-1.244 -4.558,0.195 -6.208,1.98c-6.56,7.087 -12.127,14.93 -16.599,23.454c-2.9,5.531 -7.542,8.14 -12.977,10.57c-8.743,3.908 -18.188,4.706 -27.212,7.272c-9.079,2.583 -18.388,3.953 -27.776,4.183c-4.919,0.118 -10.018,-0.555 -14.78,-1.828c-11.814,-3.164 -23.471,-6.908 -35.216,-10.338c-1.573,-0.459 -3.283,-0.446 -4.926,-0.65" style="fill:none;fill-rule:nonzero;stroke:#9e445f;stroke-width:3.56px;"/><path d="M318.78,173.282c-6.584,1.232 -13.128,2.737 -19.759,3.632c-8.743,1.182 -17.485,2.233 -25.912,4.999" style="fill:none;fill-rule:nonzero;stroke:#9e445f;stroke-width:3.56px;"/><path d="M104.626,191.777c1.485,3.91 -0.016,7.479 -1.223,11.1c-2.039,6.108 -2.653,12.611 -5.453,18.544c-0.93,1.976 -2.119,3.203 -3.81,4.269c-12.596,7.941 -25.844,14.862 -37.65,24.037" style="fill:none;fill-rule:nonzero;stroke:#9e445f;stroke-width:3.56px;"/><path d="M97.221,225.685c4.219,3.189 8.481,6.26 13.557,8.076c1.784,0.639 3.287,2.037 4.964,3.008c2.094,1.214 1.389,2.818 0.591,4.316c-2.414,4.551 -5.066,8.979 -7.351,13.592c-3.426,6.919 -6.617,13.957 -9.911,20.943" style="fill:none;fill-rule:nonzero;stroke:#9e445f;stroke-width:3.56px;"/><path d="M197.175,215.703c2.249,3.148 2.48,6.824 0.616,9.863c-3.48,5.685 -6.953,5.851 -12.959,0.618" style="fill:none;fill-rule:nonzero;stroke:#9e445f;stroke-width:3.56px;"/><path d="M168.168,223.718c0.414,2.262 0.227,4.91 1.384,6.683c1.496,2.293 3.519,4.801 7.281,3.235c4.14,-1.726 7.895,-5.813 7.3,-9.289c-0.676,-3.964 -1.976,-7.822 -3.003,-11.727" style="fill:none;fill-rule:nonzero;stroke:#9e445f;stroke-width:3.56px;"/><path d="M294.092,135.676c-0.821,0.204 -1.998,0.132 -2.414,0.659c-6.967,8.783 -16.472,14.457 -25.294,21.002c-3.466,2.571 -6.235,6.081 -9.32,9.163" style="fill:none;fill-rule:nonzero;stroke:#9e445f;stroke-width:3.56px;"/><path d="M173.496,210.757c-2.321,-1.271 -4.15,-3.625 -4.321,-6.264c-0.169,-2.643 1.617,-5.414 4.216,-5.925c2.596,-0.515 5.495,1.782 5.209,4.415c0.565,-1.56 1.234,-3.137 2.408,-4.308c1.176,-1.173 2.972,-1.859 4.539,-1.308c2.149,0.754 2.986,3.423 2.774,5.687c-0.699,7.532 -8.346,11.254 -14.825,7.703Z" style="fill:none;fill-rule:nonzero;stroke:#9e445f;stroke-width:3.56px;"/></g></svg>