<?xml version="1.0" encoding="UTF-8" standalone="no"?><!DOCTYPE svg PUBLIC "-//W3C//DTD SVG 1.1//EN" "http://www.w3.org/Graphics/SVG/1.1/DTD/svg11.dtd"><svg width="100%" height="100%" viewBox="0 0 375 375" version="1.1" xmlns="http://www.w3.org/2000/svg" xmlns:xlink="http://www.w3.org/1999/xlink" xml:space="preserve" xmlns:serif="http://www.serif.com/" style="fill-rule:evenodd;clip-rule:evenodd;stroke-linecap:round;stroke-linejoin:round;stroke-miterlimit:10;"><g><path d="M325.51,264.604l-162.939,-0c-2.306,-0.594 -4.031,-1.203 -5.603,-3.117c-9.018,-10.978 -20.738,-19.114 -30.924,-28.877c-0.692,-0.665 -1.673,-1.032 -2.518,-1.538" style="fill:none;fill-rule:nonzero;stroke:#9e445f;stroke-width:3.56px;"/><path d="M204.218,118.688c3.007,-1.555 5.045,1.133 7.008,2.203c5.7,3.111 10.859,7.148 15.344,11.952c1.161,1.243 1.942,2.192 1.1,4.115c-0.558,1.275 -0.107,2.991 -0.107,4.511l0,77.959c0,6.244 -0.037,12.488 0.066,18.73c0.009,0.515 0.95,1.013 1.456,1.519" style="fill:none;fill-rule:nonzero;stroke:#9e445f;stroke-width:3.56px;"/><path d="M214.369,136.913c0.506,1.012 1.46,2.026 1.457,3.036c-0.086,24.131 -0.284,48.262 -0.436,72.391c-0.044,6.92 -0.138,13.843 0.079,20.753c0.06,1.914 -0.683,3.18 -1.608,4.56" style="fill:none;fill-rule:nonzero;stroke:#9e445f;stroke-width:3.56px;"/><path d="M202.189,149.568c-0,1.856 -0.03,3.714 0.004,5.568c0.158,8.775 0.375,17.549 0.494,26.325c0.202,15.019 0.348,30.037 0.516,45.054" style="fill:none;fill-rule:nonzero;stroke:#9e445f;stroke-width:3.56px;"/><path d="M228.579,135.394c5.631,4.091 9.212,9.586 11.165,16.199c0.153,0.512 0.18,1.199 0.531,1.49c5.239,4.369 5.76,10.912 7.483,16.765c2.325,7.874 2.823,16.116 2.043,24.26c-0.872,9.108 -2.868,18.041 -7.049,26.316c-0.409,0.808 -1.316,1.367 -1.996,2.041" style="fill:none;fill-rule:nonzero;stroke:#9e445f;stroke-width:3.56px;"/><path d="M239.743,153.619c-0.17,1.686 -0.496,3.375 -0.483,5.061c0.132,19.744 0.304,39.487 0.504,59.23c0.011,1.182 0.446,2.36 0.459,3.544c0.026,2.536 -0.287,4.679 -1.787,7.213c-4.074,6.878 -9.72,12.308 -15.056,17.982c-2.68,2.852 -6.713,4.405 -9.999,6.735c-1.843,1.305 -3.411,2.999 -5.103,4.519" style="fill:none;fill-rule:nonzero;stroke:#9e445f;stroke-width:3.56px;"/><path d="M157.022,198.167c17.084,17.381 34.18,34.751 51.234,52.162c1.173,1.195 2.052,2.68 3.068,4.03" style="fill:none;fill-rule:nonzero;stroke:#9e445f;stroke-width:3.56px;"/><path d="M154.483,174.373c-2.705,2.7 -5.552,5.277 -8.092,8.124c-7.015,7.863 -13.912,15.826 -20.83,23.773c-6.447,7.407 -12.861,14.846 -19.289,22.271" style="fill:none;fill-rule:nonzero;stroke:#9e445f;stroke-width:3.56px;"/><path d="M216.399,132.863c-4.202,-5.071 -9.73,-8.804 -13.401,-14.551c-2.41,-3.777 -7.642,-4.658 -11.995,-5.607c-8.155,-1.781 -16.569,-2.95 -24.823,-1.928c-7.773,0.961 -15.6,2.029 -22.959,5.689c-5.398,2.683 -10.708,5.19 -15.717,8.684c-12.477,8.699 -21.529,19.723 -26.981,33.973c-1.551,4.059 -2.995,7.78 -3.054,12.211c-0.032,2.272 -1.546,4.531 -2.015,7.059c-1.768,9.502 -0.512,18.65 1.643,27.883c5.648,24.192 20.588,40.912 42.244,51.97c8.31,4.243 16.894,6.358 23.23,6.358" style="fill:none;fill-rule:nonzero;stroke:#9e445f;stroke-width:3.56px;"/><path d="M144.842,210.316c1.691,1.35 3.525,2.558 5.052,4.072c12.221,12.111 24.383,24.277 36.563,36.426c3.383,3.376 6.766,6.75 10.149,10.126" style="fill:none;fill-rule:nonzero;stroke:#9e445f;stroke-width:3.56px;"/><path d="M128.094,125.776c7.612,7.931 15.292,15.797 22.818,23.809c7.53,8.02 14.926,16.166 22.32,24.309c0.732,0.81 1.044,1.998 1.552,3.012" style="fill:none;fill-rule:nonzero;stroke:#9e445f;stroke-width:3.56px;"/><path d="M144.335,161.718c-0.848,3.092 -2.902,5.366 -5.066,7.603c-7.975,8.244 -15.901,16.539 -23.866,24.792c-5.562,5.759 -11.162,11.479 -16.744,17.215" style="fill:none;fill-rule:nonzero;stroke:#9e445f;stroke-width:3.56px;"/><path d="M190.009,163.237l-0,48.092" style="fill:none;fill-rule:nonzero;stroke:#9e445f;stroke-width:3.56px;"/><path d="M174.675,185.918l0,15.824" style="fill:none;fill-rule:nonzero;stroke:#9e445f;stroke-width:3.56px;"/><path d="M142.812,117.676c5.921,6.412 11.786,12.878 17.777,19.222c7.383,7.82 14.891,15.52 22.296,23.319c1.154,1.218 2.05,2.681 3.064,4.031" style="fill:none;fill-rule:nonzero;stroke:#9e445f;stroke-width:3.56px;"/><path d="M134.184,220.947c11.503,10.8 23.014,21.59 34.505,32.403c3.917,3.685 7.786,7.42 11.677,11.132" style="fill:none;fill-rule:nonzero;stroke:#9e445f;stroke-width:3.56px;"/><path d="M133.17,153.112c-10.32,11.305 -20.61,22.639 -30.984,33.894c-2.02,2.19 -4.372,4.072 -6.57,6.098" style="fill:none;fill-rule:nonzero;stroke:#9e445f;stroke-width:3.56px;"/><path d="M159.051,112.613c11.451,14.002 24.874,26.161 37.048,39.487" style="fill:none;fill-rule:nonzero;stroke:#9e445f;stroke-width:3.56px;"/><path d="M179.351,112.107c4.567,5.232 9.013,10.576 13.738,15.66c4.226,4.547 8.761,8.807 13.158,13.195" style="fill:none;fill-rule:nonzero;stroke:#9e445f;stroke-width:3.56px;"/><path d="M123.526,143.493c-4.397,4.894 -8.647,9.932 -13.238,14.639c-4.089,4.191 -6.612,9.883 -12.136,12.698" style="fill:none;fill-rule:nonzero;stroke:#9e445f;stroke-width:3.56px;"/></g></svg>