<?xml version="1.0" encoding="UTF-8" standalone="no"?><!DOCTYPE svg PUBLIC "-//W3C//DTD SVG 1.1//EN" "http://www.w3.org/Graphics/SVG/1.1/DTD/svg11.dtd"><svg width="100%" height="100%" viewBox="0 0 375 375" version="1.1" xmlns="http://www.w3.org/2000/svg" xmlns:xlink="http://www.w3.org/1999/xlink" xml:space="preserve" xmlns:serif="http://www.serif.com/" style="fill-rule:evenodd;clip-rule:evenodd;stroke-linecap:round;stroke-linejoin:round;stroke-miterlimit:10;"><g><path d="M154.786,170.828c-3.941,-6.295 -7.033,-13.381 -12.012,-18.711c-8.861,-9.495 -17.275,-19.734 -29.005,-26.091c-3.502,-1.897 -7.266,-3.374 -11.024,-4.728c-5.615,-2.029 -5.714,-1.573 -8.742,3.845c-3.212,5.749 -3.331,12.029 -3.747,18.15c-1.403,20.589 3.003,40.485 9.536,59.734c6.368,18.758 15.816,36.059 28.904,51.274c7.954,9.248 16.851,17.208 27.729,22.625c4.517,2.25 9.574,3.154 14.904,3.471c14.758,0.877 27.994,-3.668 41,-9.641c7.367,-3.383 15.272,-5.978 21.954,-10.404c12.555,-8.318 20.283,-20.877 26.05,-34.478c5.106,-12.035 8.44,-24.602 9.704,-37.719c0.259,-2.703 0.395,-5.763 3.682,-8.024c15.195,-10.44 30.052,-21.368 45.031,-32.124" style="fill:none;fill-rule:nonzero;stroke:#9e445f;stroke-width:3.56px;"/><path d="M272.24,180.27l0,-7.87c0,-9.966 0.5,-19.964 -0.122,-29.892c-0.851,-13.587 -2.764,-27.043 -6.731,-40.212c-1.006,-3.328 -2.061,-6.135 -5.013,-6.821c-3.372,-0.782 -6.017,1.229 -7.914,4.493c-4.502,7.737 -9.562,15.151 -14.073,22.885c-6.217,10.654 -12.177,21.457 -18.109,32.272c-0.727,1.322 -0.59,3.112 -0.852,4.685" style="fill:none;fill-rule:nonzero;stroke:#9e445f;stroke-width:3.56px;"/><path d="M218.636,156.663c-22.948,-5.949 -43.819,0.117 -63.849,11.018" style="fill:none;fill-rule:nonzero;stroke:#9e445f;stroke-width:3.56px;"/><path d="M114.584,236.925c-6.045,4.985 -12.384,9.655 -18.063,15.02c-9.443,8.923 -18.461,18.29 -27.657,27.471" style="fill:none;fill-rule:nonzero;stroke:#9e445f;stroke-width:3.56px;"/><path d="M315.595,194.434c-0.787,0.788 -1.496,2.151 -2.377,2.273c-12.332,1.703 -24.686,3.241 -37.038,4.804c-2.36,0.3 -4.729,0.529 -7.092,0.791" style="fill:none;fill-rule:nonzero;stroke:#9e445f;stroke-width:3.56px;"/><path d="M263.568,221.188c9.655,4.045 20.036,6.437 28.427,13.319c5.798,4.755 12.038,8.975 18.083,13.436" style="fill:none;fill-rule:nonzero;stroke:#9e445f;stroke-width:3.56px;"/><path d="M107.488,224.335c-14.348,4.142 -27.078,11.515 -39.401,19.691c-2.185,1.447 -4.217,3.13 -6.318,4.702" style="fill:none;fill-rule:nonzero;stroke:#9e445f;stroke-width:3.56px;"/><path d="M100.394,208.597l-44.144,-8.655" style="fill:none;fill-rule:nonzero;stroke:#9e445f;stroke-width:3.56px;"/><path d="M232.367,185.69c-8.274,1.84 -12.875,7.274 -15.996,14.918c-1.369,3.354 -2.328,5.885 0.195,8.754c2.874,3.272 5.914,0.947 8.664,-0.061c6.626,-2.427 11.965,-11.881 12.061,-18.874c0.046,-3.583 -2.395,-3.511 -4.133,-4.737" style="fill:none;fill-rule:nonzero;stroke:#9e445f;stroke-width:3.56px;"/><path d="M151.471,194.434c8.274,1.84 12.875,7.275 15.996,14.919c1.369,3.354 2.328,5.885 -0.194,8.754c-2.875,3.272 -5.915,0.947 -8.664,-0.061c-6.627,-2.427 -11.965,-11.882 -12.061,-18.874c-0.047,-3.584 2.394,-3.511 4.132,-4.738" style="fill:none;fill-rule:nonzero;stroke:#9e445f;stroke-width:3.56px;"/></g></svg>