<?xml version="1.0" encoding="UTF-8" standalone="no"?><!DOCTYPE svg PUBLIC "-//W3C//DTD SVG 1.1//EN" "http://www.w3.org/Graphics/SVG/1.1/DTD/svg11.dtd"><svg width="100%" height="100%" viewBox="0 0 52 52" version="1.1" xmlns="http://www.w3.org/2000/svg" xmlns:xlink="http://www.w3.org/1999/xlink" xml:space="preserve" xmlns:serif="http://www.serif.com/" style="fill-rule:evenodd;clip-rule:evenodd;stroke-linecap:round;stroke-linejoin:round;stroke-miterlimit:10;"><path d="M20.898,7.969c-0.146,-0.469 -0.221,-0.969 -0.221,-1.469c-0,-2.719 2.217,-4.938 4.947,-4.938c2.731,0 4.948,2.219 4.948,4.938c-0,0.5 -0.075,1 -0.221,1.469c-0.001,-0 0,-0 0.002,-0l0.005,-0c0.11,-0.469 0.291,-0.938 0.539,-1.375c1.366,-2.344 4.394,-3.157 6.758,-1.813c2.365,1.375 3.176,4.406 1.811,6.781c-0.248,0.438 -0.558,0.813 -0.922,1.157c-0,-0 -0.002,-0 -0,-0l0.005,-0c0.337,-0.344 0.726,-0.657 1.156,-0.907c2.364,-1.375 5.392,-0.562 6.758,1.813c1.365,2.344 0.554,5.375 -1.811,6.75c-0.43,0.219 -0.893,0.406 -1.377,0.531c-0.002,0 -0.003,0 -0.002,0l0.004,0c0.474,-0.156 0.966,-0.218 1.462,-0.218c2.73,-0 4.947,2.218 4.947,4.937c-0,2.75 -2.217,4.969 -4.947,4.969c-0.496,-0 -0.988,-0.063 -1.462,-0.219l-0.004,-0c-0.001,-0 0,-0 0.002,-0c0.484,0.125 0.947,0.313 1.377,0.531c2.365,1.375 3.176,4.406 1.81,6.75c-1.365,2.375 -4.393,3.188 -6.757,1.813c-0.43,-0.25 -0.819,-0.563 -1.156,-0.907c0,0 -0.007,0 -0.005,0l0,0c0.364,0.344 0.674,0.719 0.922,1.157c1.365,2.343 0.554,5.375 -1.811,6.781c-2.364,1.344 -5.392,0.531 -6.758,-1.844c-0.248,-0.437 -0.429,-0.906 -0.539,-1.375l-0.005,0c-0.002,0 -0.003,0 -0.002,0c0.146,0.469 0.221,0.969 0.221,1.469c-0,2.75 -2.217,4.969 -4.948,4.969c-2.73,-0 -4.947,-2.219 -4.947,-4.969c-0,-0.5 0.075,-1 0.221,-1.469c0,0 -0.001,0 -0.002,0l-0.005,0c-0.11,0.469 -0.292,0.938 -0.539,1.375c-1.366,2.375 -4.394,3.188 -6.759,1.844c-2.364,-1.406 -3.176,-4.438 -1.811,-6.781c0.248,-0.438 0.559,-0.813 0.923,-1.157c0.001,0 -0.004,0 -0.005,0c-0.337,0.344 -0.727,0.657 -1.156,0.907c-2.364,1.375 -5.393,0.562 -6.758,-1.813c-1.365,-2.344 -0.554,-5.375 1.811,-6.75c0.429,-0.218 0.893,-0.406 1.376,-0.531l0,-0c0.002,-0 0.003,-0 0.003,-0l-0.005,-0c-0.473,0.156 -0.966,0.219 -1.461,0.219c-2.731,-0 -4.948,-2.219 -4.948,-4.969c0,-2.719 2.217,-4.937 4.948,-4.937c0.495,-0 0.988,0.062 1.461,0.218l0.005,0c0,0 -0.001,0 -0.003,0l0,0c-0.483,-0.125 -0.947,-0.312 -1.376,-0.531c-2.365,-1.375 -3.176,-4.406 -1.811,-6.75c1.365,-2.375 4.394,-3.188 6.758,-1.813c0.429,0.251 0.819,0.563 1.156,0.907c0.001,-0 0.006,-0 0.005,-0c-0.364,-0.344 -0.675,-0.719 -0.923,-1.157c-1.365,-2.375 -0.553,-5.406 1.811,-6.781c2.365,-1.343 5.393,-0.531 6.759,1.813c0.247,0.437 0.429,0.906 0.539,1.375l0.005,-0c0.001,-0 0.002,-0 0.002,-0Z" style="fill:none;fill-rule:nonzero;stroke:#cce071;stroke-width:3px;"/></svg>