<?xml version="1.0" encoding="UTF-8" standalone="no"?><!DOCTYPE svg PUBLIC "-//W3C//DTD SVG 1.1//EN" "http://www.w3.org/Graphics/SVG/1.1/DTD/svg11.dtd"><svg width="100%" height="100%" viewBox="0 0 375 375" version="1.1" xmlns="http://www.w3.org/2000/svg" xmlns:xlink="http://www.w3.org/1999/xlink" xml:space="preserve" xmlns:serif="http://www.serif.com/" style="fill-rule:evenodd;clip-rule:evenodd;stroke-linecap:round;stroke-linejoin:round;stroke-miterlimit:10;"><g><path d="M275.986,234.854c5.242,1.958 10.582,3.702 15.701,5.925c6.586,2.863 13.149,5.205 20.668,4.272c3.764,-0.466 6.382,2.192 6.382,5.602c0,2.947 -1.303,4.066 -4.424,4.072c-12.118,0.022 -24.243,0.191 -36.36,0.13c-15.237,-0.076 -30.464,-0.421 -45.701,-0.454c-7.364,-0.014 -14.748,0.628 -22.11,0.612c-15.239,-0.031 -30.467,-0.364 -45.701,-0.443c-5.561,-0.027 -11.141,0.442 -16.707,0.453c-4.099,0.01 -8.187,-0.409 -12.285,-0.528c-2.123,-0.063 -4.28,0.3 -6.384,0.145c-8.525,-0.631 -17.105,-1.01 -25.538,-2.206c-8.701,-1.236 -17.36,-3.114 -25.051,-7.478c-6.004,-3.409 -10.556,-8.433 -14.279,-14.204c-4.18,-6.487 -6.727,-13.691 -7.756,-21.324c-0.729,-5.419 0.85,-10.826 3.383,-15.746c4.67,-9.064 12.798,-14.039 22.095,-16.771c8.369,-2.457 16.994,-3.974 25.524,-5.802c6.209,-1.329 11.26,-4.339 14.733,-9.795c3.678,-5.782 2.136,-9.823 -1.081,-14.095c-3.4,-4.518 -8.571,-6.598 -14.123,-8.032c-8.145,-2.105 -15.939,-1.176 -23.591,2.331c-1.601,0.734 -3.073,1.887 -4.422,3.059c-4.171,3.628 -4.25,6.388 0.577,10.117c1.987,1.536 5.122,1.652 7.774,2.274c0.376,0.089 0.965,-0.624 1.457,-0.966c-0.492,-0.475 -0.983,-0.949 -1.473,-1.424" style="fill:none;fill-rule:nonzero;stroke:#9e445f;stroke-width:3.6px;"/><path d="M132.992,253.569c-2.455,-1.718 -4.869,-3.502 -7.378,-5.146c-12.135,-7.948 -16.107,-19.955 -15.064,-33.817c0.627,-8.316 4.395,-15.842 10.649,-21.904c9.284,-8.998 20.491,-13.689 32.899,-16.351c8.684,-1.861 17.344,-2.651 26.065,-2.575c6.077,0.052 12.173,0.562 18.159,1.443c2.497,0.366 3,-0.393 2.414,-2.148c-1.251,-3.739 0.26,-6.884 2.62,-9.319c2.78,-2.87 2.381,-5.682 1.929,-8.982c-1.267,-9.213 -2.884,-18.422 -1.526,-27.868c0.117,-0.826 0.116,-1.761 0.524,-2.443c1.152,-1.935 1.318,-5.252 3.887,-5.295c1.658,-0.027 3.501,2.066 4.878,3.56c4.714,5.109 8.912,10.635 12.311,16.733c1.159,2.081 2.332,4.19 1.994,6.789c-0.185,1.418 0.217,2.114 1.932,2.471c5.949,1.229 11.754,3.088 17.729,4.158c3.987,0.715 8.178,0.763 12.262,0.521c1.177,-0.07 2.759,-2.004 3.357,-3.402c1.871,-4.368 3.3,-8.911 5.017,-13.342c1.589,-4.096 3.699,-7.889 6.247,-11.56c1.802,-2.601 3.346,-0.999 4.471,-0.408c1.307,0.685 2.54,2.263 2.94,3.714c1.977,7.202 4.028,14.368 5.103,21.848c1.286,8.923 2.13,17.882 2.839,26.871c0.192,2.441 0.331,4.887 0.495,7.331" style="fill:none;fill-rule:nonzero;stroke:#9e445f;stroke-width:3.6px;"/><path d="M314.57,197.885c-0.171,-4.656 -3.532,-7.159 -6.947,-8.969c-4.64,-2.461 -9.704,-4.202 -14.696,-5.97c-2.666,-0.944 -3.198,1.345 -4.145,3.99c-0.282,0.782 -0.488,1.642 -0.49,2.459c-0.009,9.124 -2.087,17.891 -4.851,26.634c-2.139,6.766 -4.449,13.362 -8.391,19.375c-0.799,1.22 -1.426,2.198 -2.994,2.024" style="fill:none;fill-rule:nonzero;stroke:#9e445f;stroke-width:3.6px;"/><path d="M171.839,166.777c2.562,-1.18 5.133,-1.296 7.872,-0.785c4.548,0.845 9.191,1.258 13.736,2.119c2.203,0.419 4.271,1.442 6.401,2.192" style="fill:none;fill-rule:nonzero;stroke:#9e445f;stroke-width:3.6px;"/><path d="M289.255,177.657c6.991,-3.449 14.455,-4.008 21.952,-4.122c2.113,-0.032 4.587,-0.184 5.575,2.536" style="fill:none;fill-rule:nonzero;stroke:#9e445f;stroke-width:3.6px;"/><path d="M289.255,187.405c4.227,1.076 18.411,14.39 19.22,21.949" style="fill:none;fill-rule:nonzero;stroke:#9e445f;stroke-width:3.6px;"/><path d="M187.5,150.997c3.113,1.861 6.322,3.584 9.306,5.627c2.444,1.675 4.617,3.731 6.91,5.619" style="fill:none;fill-rule:nonzero;stroke:#9e445f;stroke-width:3.6px;"/><path d="M178.8,156.62c7.045,1.045 13.01,4.601 19.171,7.71c1.094,0.551 2.285,0.921 3.432,1.374" style="fill:none;fill-rule:nonzero;stroke:#9e445f;stroke-width:3.6px;"/></g></svg>