<?xml version="1.0" encoding="UTF-8" standalone="no"?><!DOCTYPE svg PUBLIC "-//W3C//DTD SVG 1.1//EN" "http://www.w3.org/Graphics/SVG/1.1/DTD/svg11.dtd"><svg width="100%" height="100%" viewBox="0 0 375 375" version="1.1" xmlns="http://www.w3.org/2000/svg" xmlns:xlink="http://www.w3.org/1999/xlink" xml:space="preserve" xmlns:serif="http://www.serif.com/" style="fill-rule:evenodd;clip-rule:evenodd;stroke-linecap:round;stroke-linejoin:round;stroke-miterlimit:10;"><g><path d="M56.25,313.506c2.11,0.212 4.222,0.603 6.332,0.606c35.246,0.037 70.491,0.051 105.737,-0.026c2.322,-0.007 36.931,0.162 39.255,-0.26" style="fill:none;fill-rule:nonzero;stroke:#9e445f;stroke-width:3.56px;"/><path d="M294.316,193.234c1.69,0.422 3.42,0.722 5.059,1.287c5.325,1.837 14.519,-0.443 18.408,-4.413c1.473,-1.506 1.068,-2.199 0.082,-3.908c-3.073,-5.296 -5.495,-10.964 -8.433,-16.347c-0.748,-1.375 -1.648,-2.105 -0.613,-3.877c3.397,-5.821 3.327,-12.651 5.08,-18.967c0.506,-1.816 3.487,-8.725 0.702,-9.542c-2.099,-0.615 -3.901,-1.168 -5.707,0.082c-5.108,3.525 -10.099,7.217 -15.231,10.71c-2.415,1.646 -5.044,2.984 -7.576,4.462c-0.846,-2.322 -1.749,-4.623 -2.52,-6.968c-1.315,-3.996 -2.457,-8.046 -3.84,-12.016c-1.18,-3.38 -3.921,-4.01 -6.229,-1.215c-1.653,2.005 -2.819,4.495 -3.833,6.922c-2.45,5.854 -4.597,11.834 -7.064,17.683c-0.685,1.632 -1.802,3.292 -3.163,4.385c-2.399,1.928 -5.306,0.639 -6.933,-2.45c-5.313,-10.109 -9.081,-20.979 -15.741,-30.442c-7.896,-11.214 -17.979,-18.972 -31.044,-23.506c-14.724,-5.111 -28.029,-1.793 -39.767,6.693c-9.374,6.779 -16.729,15.929 -18.575,28.246c-0.616,4.112 -1.972,7.781 0.447,12.162c1.987,3.59 1.847,8.33 2.798,12.524c0.441,1.944 1.235,3.806 1.867,5.706" style="fill:none;fill-rule:nonzero;stroke:#9e445f;stroke-width:3.56px;"/><path d="M204.409,180.572c12.107,12.134 22.551,25.661 32.932,39.243c3.742,4.895 5.409,8.376 9.74,12.708c2.98,2.98 3.607,15.489 3.607,23.38c-0,10.762 -0.059,21.522 -0.059,32.286" style="fill:none;fill-rule:nonzero;stroke:#9e445f;stroke-width:3.56px;"/><path d="M135.82,276.148c9.707,0.051 14.561,-0.152 24.269,0.058c10.131,0.219 20.317,0.273 30.376,1.361c10.967,1.189 21.886,2.42 32.939,2.46c4.856,0.016 9.707,0.776 14.563,1.198" style="fill:none;fill-rule:nonzero;stroke:#9e445f;stroke-width:3.56px;"/><path d="M294.316,189.435c-3.795,10.661 -4.474,21.669 -4.592,32.916c-0.119,11.402 -1.716,22.781 -2.304,34.19c-0.368,7.155 0.054,14.347 -0.147,21.516c-0.056,2.037 1.789,5.306 -2.452,5.702c-3.045,0.287 -5.812,-2.215 -6.346,-5.698c-0.13,-0.855 -0.755,-1.779 -0.566,-2.52c1.79,-7.01 -1.042,-13.54 -1.914,-20.275c-0.625,-4.828 -1.056,-9.696 -1.245,-14.557c-0.117,-3.056 -0.641,-5.825 -2.595,-8.229" style="fill:none;fill-rule:nonzero;stroke:#9e445f;stroke-width:3.56px;"/><path d="M143.068,177.505c-8.163,6.249 -15.818,14.226 -18.655,20.968c-3.359,7.975 -8.768,15.207 -9.493,24.497c-0.643,8.246 -2.427,16.139 -1.368,24.742c1.762,14.33 6.315,27.239 14.983,38.496c7.49,9.731 16.575,17.867 27.71,23.591c5.497,2.825 11.514,2.112 17.139,3.713c0.641,0.185 1.268,0.42 1.9,0.63" style="fill:none;fill-rule:nonzero;stroke:#9e445f;stroke-width:3.56px;"/><path d="M207.574,313.826c10.752,-0.177 20.17,-4.354 29.09,-9.873c1.328,-0.823 2.144,-2.471 3.203,-3.737" style="fill:none;fill-rule:nonzero;stroke:#9e445f;stroke-width:3.56px;"/><path d="M237.967,298.317c-2.11,-0.212 -4.222,-0.604 -6.334,-0.606c-28.491,-0.04 -56.981,-0.038 -85.474,-0c-1.478,0.002 -2.954,0.394 -4.432,0.606" style="fill:none;fill-rule:nonzero;stroke:#9e445f;stroke-width:3.56px;"/><path d="M177.816,164.114c-1.898,11.815 -3.788,23.635 -5.7,35.45c-1.674,10.341 -3.814,20.632 -4.926,31.034c-0.893,8.367 -0.56,16.864 -0.772,25.306" style="fill:none;fill-rule:nonzero;stroke:#9e445f;stroke-width:3.56px;"/><path d="M122.1,97.013c-3.343,1.14 -6.463,2.198 -5.782,6.975c0.585,4.119 3.46,8.693 6.371,10.199c3.404,1.763 5.684,-0.468 7.554,-2.082c7.922,-6.842 14.554,-14.54 17.305,-25.189c2.31,-8.943 -2.902,-22.245 -14.048,-25.365c-5.567,-1.557 -10.724,-0.303 -15.837,1.898c-20.536,8.836 -31.924,25.127 -36.517,46.269c-1.667,7.67 -0.462,15.934 2.469,23.322c3.392,8.551 7.817,16.527 14.946,22.968c6.928,6.257 14.885,8.432 23.508,7.267c6.516,-0.879 13.305,-2.362 18.39,-7.393c1.909,-1.888 3.8,-3.795 5.7,-5.695" style="fill:none;fill-rule:nonzero;stroke:#9e445f;stroke-width:3.56px;"/><path d="M260.901,275.9c4.484,-9 5.646,-14.504 6.35,-17.425c1.713,-7.134 2.121,-14.284 2.553,-21.55c0.366,-6.162 -0.042,-11.93 -2.042,-17.751c-7.332,-21.319 -20.462,-38.007 -40.031,-49.178c-4.136,-2.362 -9.325,-3.05 -13.894,-5.094c-4.057,-1.816 -8.729,-2.131 -13.181,-2.935c-6.444,-1.163 -12.753,-1.196 -19.021,-0.264c-6.204,0.924 -12.482,2.25 -18.327,4.458c-7.236,2.734 -14.02,6.674 -20.24,11.344c-1.35,1.014 -2.513,3.287 -2.494,4.965c0.24,18.15 0.557,36.303 1.249,54.438c0.233,6.143 1.593,12.244 2.434,18.361" style="fill:none;fill-rule:nonzero;stroke:#9e445f;stroke-width:3.56px;"/><path d="M196.177,204.628c5.269,2.033 7.994,6.976 11.223,10.904c9.563,11.628 18.338,23.902 27.367,35.967" style="fill:none;fill-rule:nonzero;stroke:#9e445f;stroke-width:3.56px;"/><path d="M262.124,222.99c-0.426,12.442 -0.585,24.896 -0.669,37.345c-0.016,2.107 1.003,4.203 1.159,6.334c0.345,4.649 -1.01,8.882 -3.756,12.654c-2.299,3.157 -4.548,6.269 -7.257,9.181c-2.518,2.709 -7.28,9.871 -14.937,15.449" style="fill:none;fill-rule:nonzero;stroke:#9e445f;stroke-width:3.56px;"/><path d="M216.978,166.104c1.577,1.578 3.448,3.815 4.553,4.944c12.672,12.951 24.374,26.565 34.207,41.782" style="fill:none;fill-rule:nonzero;stroke:#9e445f;stroke-width:3.56px;"/><path d="M122.603,202.393c0.632,8.229 1.233,16.461 1.909,24.686c0.562,6.828 1.07,13.641 2.063,20.508" style="fill:none;fill-rule:nonzero;stroke:#9e445f;stroke-width:3.56px;"/><path d="M189.846,226.151c8.441,11.183 16.857,22.387 25.376,33.514c0.694,0.909 2.035,1.795 3.121,1.856c6.745,0.37 15.295,0.501 22.048,0.713" style="fill:none;fill-rule:nonzero;stroke:#9e445f;stroke-width:3.56px;"/><path d="M116.401,255.904c5.833,-2.362 11.806,-0.846 17.727,-0.615c2.537,0.1 5.061,0.494 7.598,0.599c11.185,0.457 22.382,0.68 33.554,1.333c10.146,0.595 20.273,1.551 30.391,2.532c3.168,0.308 6.489,0.701 12.672,1.768" style="fill:none;fill-rule:nonzero;stroke:#9e445f;stroke-width:3.56px;"/><path d="M207.574,164.747c-1.478,5.698 -2.779,11.447 -4.474,17.079c-2.366,7.859 -4.963,15.648 -7.567,23.43c-4.598,13.733 -9.265,27.439 -13.925,41.149c-1.224,3.602 -2.527,7.176 -3.793,10.766" style="fill:none;fill-rule:nonzero;stroke:#9e445f;stroke-width:3.56px;"/><path d="M241.764,247.674c-0.373,4.676 -1.214,18.58 -1.31,20.888c-0.429,10.13 -2.002,20.208 -1.221,30.388" style="fill:none;fill-rule:nonzero;stroke:#9e445f;stroke-width:3.56px;"/></g></svg>