<?xml version="1.0" encoding="UTF-8" standalone="no"?><!DOCTYPE svg PUBLIC "-//W3C//DTD SVG 1.1//EN" "http://www.w3.org/Graphics/SVG/1.1/DTD/svg11.dtd"><svg width="100%" height="100%" viewBox="0 0 375 375" version="1.1" xmlns="http://www.w3.org/2000/svg" xmlns:xlink="http://www.w3.org/1999/xlink" xml:space="preserve" xmlns:serif="http://www.serif.com/" style="fill-rule:evenodd;clip-rule:evenodd;stroke-linecap:round;stroke-linejoin:round;stroke-miterlimit:10;"><g><path d="M311.058,137.591c-12.603,-0.513 -23.567,4.392 -34.332,10.148c-8.293,4.434 -15.521,10.393 -22.077,16.851c-6.588,6.493 -12.632,13.758 -16.442,22.481c-0.724,1.658 -0.949,2.597 0.429,4.25c7.138,8.556 16.394,14.404 25.62,20.235c10.072,6.363 21.054,10.841 32.42,14.414c6.368,2.002 12.856,2.505 19.485,2.353c2.548,-0.058 2.698,-1.79 2.723,-3.298c0.149,-8.747 -2.362,-16.756 -7.877,-23.552c-4.888,-6.02 -11.022,-10.41 -18.966,-11.574c-2.444,-0.359 -4.941,-0.4 -7.415,-0.478c-2.212,-0.07 -4.625,0.45 -5.117,-2.79c-0.387,-2.565 0.183,-3.329 3.725,-4.63c6.025,-2.214 11.769,-4.878 16.238,-9.708c6.223,-6.722 10.287,-14.392 11.717,-23.579c0.563,-3.619 1.131,-7.072 0.333,-10.66" style="fill:none;fill-rule:nonzero;stroke:#9e445f;stroke-width:3.56px;"/><path d="M125.1,198.193c0.155,-3.083 0.266,-6.17 0.476,-9.25c0.263,-3.86 0.899,-7.716 0.851,-11.566c-0.084,-6.942 -0.177,-13.924 -0.993,-20.803c-0.557,-4.707 -2.449,-9.244 -3.537,-13.905c-0.573,-2.457 -2.205,-2.97 -4.212,-2.733c-6.597,0.782 -12.528,3.402 -18.086,6.913c-14.002,8.848 -25.346,20.37 -34.298,34.242c-3.269,5.065 -6.073,10.389 -7.923,16.171c-0.485,1.513 -0.752,2.742 0.447,4.199c10.606,12.884 23.127,23.286 38.525,30.041c5.706,2.505 9.145,1.903 13.451,-2.311c6.827,-6.68 10.075,-15.277 12.97,-24.062c0.395,-1.206 0.834,-2.454 0.897,-3.699c0.129,-2.577 1.703,-2.811 3.752,-2.795c7.42,0.054 14.84,0.02 22.259,0.02" style="fill:none;fill-rule:nonzero;stroke:#9e445f;stroke-width:3.56px;"/><path d="M159.417,135.278c-3.877,8.739 -6.416,17.803 -8,27.275c-2.226,13.283 -2.095,26.487 -0.865,39.808c0.938,10.149 3.372,19.851 7.514,29.123c1.291,2.888 3.051,5.569 4.596,8.345" style="fill:none;fill-rule:nonzero;stroke:#9e445f;stroke-width:3.56px;"/><path d="M185.386,195.881c-7.11,0.617 -14.218,1.262 -21.333,1.84c-4.478,0.363 -8.965,0.627 -13.447,0.934" style="fill:none;fill-rule:nonzero;stroke:#9e445f;stroke-width:3.56px;"/><path d="M195.124,167.198c-5.041,6.899 -7.076,14.82 -8.426,23.117c-1.368,8.387 -1.383,16.742 0.221,24.968c0.962,4.921 2.405,10.05 6.815,13.443" style="fill:none;fill-rule:nonzero;stroke:#9e445f;stroke-width:3.56px;"/><path d="M212.746,193.567c-8.81,0.771 -17.622,1.542 -26.432,2.313" style="fill:none;fill-rule:nonzero;stroke:#9e445f;stroke-width:3.56px;"/><path d="M220.166,170.9c-3.621,5.972 -5.471,12.47 -5.512,19.429c-0.009,1.535 -0.686,2.526 -1.322,3.764c-0.469,0.914 0.051,2.439 0.365,3.631c1.37,5.195 0.179,11.247 5.079,15.274" style="fill:none;fill-rule:nonzero;stroke:#9e445f;stroke-width:3.56px;"/><path d="M236.398,190.329c-1.856,0.462 -3.7,1.258 -5.569,1.325c-5.266,0.186 -10.405,2.437 -15.763,0.987" style="fill:none;fill-rule:nonzero;stroke:#9e445f;stroke-width:3.56px;"/><path d="M80.146,191.889c0.309,1.234 0.324,2.658 0.981,3.668c1.983,3.058 6.192,3.571 9.177,0.917c3.939,-3.499 6.202,-7.896 5.599,-13.382c-0.301,-2.751 -1.661,-5.075 -4.208,-5.901c-2.027,-0.656 -4.248,-0.155 -6.025,1.697c-3.395,3.547 -7.173,7.472 -5.524,13.001" style="fill:none;fill-rule:nonzero;stroke:#9e445f;stroke-width:3.56px;"/></g></svg>