<?xml version="1.0" encoding="UTF-8" standalone="no"?><!DOCTYPE svg PUBLIC "-//W3C//DTD SVG 1.1//EN" "http://www.w3.org/Graphics/SVG/1.1/DTD/svg11.dtd"><svg width="100%" height="100%" viewBox="0 0 375 376" version="1.1" xmlns="http://www.w3.org/2000/svg" xmlns:xlink="http://www.w3.org/1999/xlink" xml:space="preserve" xmlns:serif="http://www.serif.com/" style="fill-rule:evenodd;clip-rule:evenodd;stroke-linecap:round;stroke-linejoin:round;stroke-miterlimit:10;"><g><path d="M279.61,183.463c5.152,-0.734 10.306,-1.452 15.456,-2.206c4.861,-0.713 9.72,-1.444 14.573,-2.206c2.51,-0.393 5.042,-0.741 7.479,-1.42c0.501,-0.14 3.257,-0.594 0.947,-2.573c-2.362,-2.024 -4.449,-4.364 -6.659,-6.567c-8.683,-8.659 -17.449,-17.243 -26.001,-26.032c-2.208,-2.271 -4.612,-3.169 -7.561,-3.015c-7.51,0.395 -15.016,0.856 -22.523,1.316c-1.183,0.073 -2.352,0.37 -3.533,0.417c-8.243,0.319 -16.506,0.361 -24.726,0.965c-7.386,0.543 -14.717,1.771 -22.09,2.541c-4.397,0.46 -8.839,0.523 -13.243,0.936c-5.162,0.482 -10.305,1.176 -15.46,1.727c-3.234,0.344 -6.474,0.633 -9.716,0.884c-7.946,0.609 -15.91,1.054 -23.844,1.805c-7.522,0.709 -15.011,1.8 -22.53,2.574c-4.399,0.455 -8.837,0.524 -13.242,0.935c-5.163,0.484 -10.306,1.164 -15.461,1.725c-0.874,0.094 -1.782,0.125 -2.645,-0.01c-2.146,-0.333 -3.66,0.608 -4.857,2.227c-5.749,7.772 -11.491,15.553 -17.224,23.337c-2.37,3.217 -4.757,6.427 -7.041,9.706c-0.627,0.898 -0.911,2.035 -1.353,3.062" style="fill:none;fill-rule:nonzero;stroke:#9e445f;stroke-width:3.56px;"/><path d="M237.214,145.154c-4.121,4.55 -8.371,8.993 -12.334,13.677c-4.992,5.905 -9.731,12.023 -14.614,18.02c-1.711,2.1 -3.625,4.04 -5.264,6.192c-1.829,2.405 -4.375,2.928 -7.093,3.048c-7.653,0.335 -15.319,0.437 -22.961,0.934c-11.199,0.73 -22.377,1.748 -33.567,2.591c-4.853,0.366 -9.714,0.642 -14.574,0.883c-6.77,0.334 -13.549,0.493 -20.313,0.919c-7.367,0.463 -14.713,1.347 -22.086,1.68c-8.379,0.377 -16.778,0.33 -25.168,0.53c-0.596,0.014 -1.177,0.55 -1.767,0.843" style="fill:none;fill-rule:nonzero;stroke:#9e445f;stroke-width:3.56px;"/><path d="M280.935,140.75c-0.44,5.139 -1.002,10.267 -1.297,15.414c-0.409,7.186 -0.693,14.381 -0.887,21.576c-0.133,4.986 0.074,9.983 -0.045,14.969c-0.219,9.102 -0.604,18.202 -0.83,27.304c-0.041,1.651 -0.585,2.187 -2.24,2.235c-7.215,0.212 -14.436,0.412 -21.638,0.881c-8.989,0.586 -17.965,1.399 -26.94,2.182c-3.982,0.347 -7.943,0.979 -11.928,1.277c-5.439,0.406 -10.895,0.555 -16.337,0.926c-5.304,0.362 -10.602,0.845 -15.9,1.309c-4.711,0.414 -9.414,0.965 -14.132,1.297c-9.27,0.653 -18.554,1.116 -27.821,1.801c-10.751,0.793 -21.493,1.738 -32.239,2.622c-7.065,0.582 -14.141,1.098 -21.193,1.8c-2.591,0.259 -3.369,-0.68 -3.116,-3.124c0.648,-6.305 1.199,-12.621 1.782,-18.933c0.028,-0.29 -0.011,-0.588 0.007,-0.88c0.291,-5.137 0.643,-10.272 0.848,-15.412c0.065,-1.607 -0.263,-3.228 -0.408,-4.843" style="fill:none;fill-rule:nonzero;stroke:#9e445f;stroke-width:3.56px;"/><path d="M238.539,142.072c-0.296,0.88 -0.934,1.806 -0.825,2.633c0.515,3.865 0.232,7.6 -0.366,11.478c-0.825,5.349 -0.638,10.847 -1.038,16.27c-0.5,6.758 -1.157,13.505 -1.743,20.257c-0.013,0.146 0.006,0.295 -0.003,0.44c-0.589,8.955 -1.204,17.906 -1.736,26.864c-0.077,1.308 0.264,2.64 0.412,3.961" style="fill:none;fill-rule:nonzero;stroke:#9e445f;stroke-width:3.56px;"/></g></svg>