<?xml version="1.0" encoding="UTF-8" standalone="no"?><!DOCTYPE svg PUBLIC "-//W3C//DTD SVG 1.1//EN" "http://www.w3.org/Graphics/SVG/1.1/DTD/svg11.dtd"><svg width="100%" height="100%" viewBox="0 0 375 375" version="1.1" xmlns="http://www.w3.org/2000/svg" xmlns:xlink="http://www.w3.org/1999/xlink" xml:space="preserve" xmlns:serif="http://www.serif.com/" style="fill-rule:evenodd;clip-rule:evenodd;stroke-linecap:round;stroke-linejoin:round;stroke-miterlimit:10;"><g><path d="M114.231,218.371c-8.639,-11.507 -19.906,-12.627 -32.888,-8.891c-6.473,1.866 -9.658,4.923 -10.182,11.966c-1.643,22.261 8.565,32.591 26.599,41.229c7.072,3.391 15.215,4.657 23.522,3.559c12.959,-1.714 19.489,-10.568 23.939,-21.256c6.947,-16.684 10.066,-33.909 4.061,-51.669c-2.496,-7.371 -4.398,-15.106 -8.038,-21.888c-5.237,-9.748 -12.783,-10.203 -20.962,-3.335c-9.094,7.632 -13.27,18.055 -12.9,30.11c0.128,4.055 -0.112,8.117 -0.184,12.18" style="fill:none;fill-rule:nonzero;stroke:#9e445f;stroke-width:3.56px;"/><path d="M192.589,282.464c-5.086,-8.369 -6.593,-19.3 -2.258,-28.079c4.353,-8.784 15.205,-14.362 24.484,-11.19c9.274,3.156 14.315,15.883 8.526,23.794c4.699,-3.956 9.763,-7.773 15.69,-9.352c5.945,-1.584 12.971,-0.46 16.974,4.208c5.494,6.392 3.236,16.5 -1.631,23.363c-16.183,22.852 -47.585,20.632 -61.785,-2.744Z" style="fill:none;fill-rule:nonzero;stroke:#9e445f;stroke-width:3.56px;"/><path d="M172.989,156.9c-10.149,-16.702 -13.158,-38.517 -4.505,-56.038c8.687,-17.53 30.344,-28.661 48.862,-22.33c18.508,6.297 28.568,31.696 17.015,47.485c9.377,-7.895 19.483,-15.513 31.313,-18.665c11.864,-3.161 25.886,-0.917 33.874,8.399c10.964,12.756 6.459,32.929 -3.255,46.625c-32.296,45.605 -94.965,41.176 -123.304,-5.476Z" style="fill:none;fill-rule:nonzero;stroke:#9e445f;stroke-width:3.56px;"/></g></svg>