<?xml version="1.0" encoding="UTF-8" standalone="no"?><!DOCTYPE svg PUBLIC "-//W3C//DTD SVG 1.1//EN" "http://www.w3.org/Graphics/SVG/1.1/DTD/svg11.dtd"><svg width="100%" height="100%" viewBox="0 0 375 376" version="1.1" xmlns="http://www.w3.org/2000/svg" xmlns:xlink="http://www.w3.org/1999/xlink" xml:space="preserve" xmlns:serif="http://www.serif.com/" style="fill-rule:evenodd;clip-rule:evenodd;stroke-linejoin:round;stroke-miterlimit:2;"><path d="M148.33,178.965c-0.493,-1.594 -0.743,-3.253 -0.743,-4.922c-0,-9.194 7.464,-16.659 16.659,-16.659c9.194,-0 16.659,7.465 16.659,16.659c-0,1.669 -0.251,3.328 -0.744,4.922c-0.001,0.006 0.002,0.013 0.009,0.015c0.006,0.002 0.013,-0.002 0.015,-0.009c0.37,-1.627 0.982,-3.189 1.817,-4.634c4.597,-7.963 14.794,-10.695 22.756,-6.098c7.963,4.597 10.695,14.794 6.098,22.757c-0.834,1.445 -1.881,2.757 -3.105,3.891c-0.005,0.004 -0.005,0.012 -0,0.017c0.004,0.005 0.012,0.004 0.017,-0c1.134,-1.224 2.446,-2.271 3.891,-3.105c7.962,-4.597 18.159,-1.865 22.756,6.097c4.598,7.963 1.865,18.16 -6.097,22.757c-1.445,0.834 -3.008,1.447 -4.635,1.817c-0.006,0.002 -0.01,0.008 -0.008,0.015c0.001,0.006 0.008,0.01 0.015,0.008c1.594,-0.493 3.253,-0.743 4.922,-0.743c9.194,-0 16.659,7.464 16.659,16.659c-0,9.194 -7.465,16.659 -16.659,16.659c-1.669,-0 -3.328,-0.251 -4.922,-0.744c-0.007,-0.001 -0.014,0.002 -0.015,0.009c-0.002,0.006 0.002,0.013 0.008,0.015c1.627,0.37 3.19,0.982 4.635,1.817c7.962,4.597 10.695,14.794 6.097,22.756c-4.597,7.963 -14.794,10.695 -22.756,6.098c-1.445,-0.834 -2.757,-1.881 -3.891,-3.105c-0.005,-0.005 -0.013,-0.005 -0.017,-0c-0.005,0.004 -0.005,0.012 -0,0.017c1.224,1.134 2.271,2.446 3.105,3.891c4.597,7.962 1.865,18.159 -6.098,22.756c-7.962,4.598 -18.159,1.865 -22.756,-6.097c-0.835,-1.445 -1.447,-3.008 -1.817,-4.635c-0.002,-0.006 -0.009,-0.01 -0.015,-0.008c-0.007,0.001 -0.01,0.008 -0.009,0.015c0.493,1.594 0.744,3.253 0.744,4.922c-0,9.194 -7.465,16.659 -16.659,16.659c-9.195,-0 -16.659,-7.465 -16.659,-16.659c-0,-1.669 0.25,-3.328 0.743,-4.922c0.002,-0.007 -0.002,-0.014 -0.008,-0.015c-0.007,-0.002 -0.013,0.002 -0.015,0.008c-0.37,1.627 -0.983,3.19 -1.817,4.635c-4.597,7.962 -14.794,10.695 -22.757,6.097c-7.962,-4.597 -10.694,-14.794 -6.097,-22.756c0.834,-1.445 1.881,-2.757 3.105,-3.891c0.004,-0.005 0.005,-0.013 -0,-0.017c-0.005,-0.005 -0.013,-0.005 -0.017,-0c-1.134,1.224 -2.446,2.271 -3.891,3.105c-7.963,4.597 -18.16,1.865 -22.757,-6.098c-4.597,-7.962 -1.865,-18.159 6.098,-22.756c1.445,-0.835 3.007,-1.447 4.634,-1.817c0.007,-0.002 0.011,-0.009 0.009,-0.015c-0.002,-0.007 -0.009,-0.01 -0.015,-0.009c-1.594,0.493 -3.253,0.744 -4.922,0.744c-9.194,-0 -16.659,-7.465 -16.659,-16.659c-0,-9.195 7.465,-16.659 16.659,-16.659c1.669,-0 3.328,0.25 4.922,0.743c0.006,0.002 0.013,-0.002 0.015,-0.008c0.002,-0.007 -0.002,-0.013 -0.009,-0.015c-1.627,-0.37 -3.189,-0.983 -4.634,-1.817c-7.963,-4.597 -10.695,-14.794 -6.098,-22.757c4.597,-7.962 14.794,-10.694 22.757,-6.097c1.445,0.834 2.757,1.881 3.891,3.105c0.004,0.004 0.012,0.005 0.017,-0c0.005,-0.005 0.004,-0.013 -0,-0.017c-1.224,-1.134 -2.271,-2.446 -3.105,-3.891c-4.597,-7.963 -1.865,-18.16 6.097,-22.757c7.963,-4.597 18.16,-1.865 22.757,6.098c0.834,1.445 1.447,3.007 1.817,4.634c0.002,0.007 0.008,0.011 0.015,0.009c0.006,-0.002 0.01,-0.009 0.008,-0.015Zm-44.312,71.912l1.281,-0.079l1.292,0.445l1.031,0.897l0.633,1.271l0.088,1.418l-0.444,1.293l-0.898,1.031l-1.148,0.572l-0.123,0.061l-0.132,0.033c-1.28,0.291 -2.508,0.772 -3.644,1.428c-6.261,3.615 -8.41,11.633 -4.795,17.894c3.615,6.262 11.633,8.41 17.894,4.795c1.136,-0.656 2.168,-1.479 3.059,-2.441l0.095,-0.098l0.114,-0.077l1.07,-0.708l1.341,-0.262l1.342,0.262l1.184,0.785l0.785,1.184l0.261,1.341l-0.261,1.342l-0.709,1.069l-0.076,0.115l-0.098,0.094c-0.962,0.892 -1.785,1.923 -2.441,3.06c-3.615,6.261 -1.467,14.279 4.794,17.894c6.261,3.614 14.279,1.466 17.894,-4.795c0.656,-1.136 1.138,-2.365 1.429,-3.644l0.033,-0.132l0.061,-0.124l0.572,-1.148l1.031,-0.897l1.292,-0.444l1.418,0.087l1.272,0.633l0.897,1.031l0.444,1.293l-0.078,1.28l-0.009,0.138l-0.038,0.131c-0.387,1.253 -0.584,2.558 -0.584,3.87c-0,7.229 5.869,13.099 13.099,13.099c7.23,-0 13.099,-5.87 13.099,-13.099c0,-1.312 -0.197,-2.617 -0.585,-3.87l-0.037,-0.131l-0.009,-0.138l-0.079,-1.28l0.445,-1.293l0.897,-1.031l1.271,-0.633l1.418,-0.087l1.293,0.444l1.031,0.897l0.572,1.148l0.061,0.124l0.033,0.132c0.291,1.279 0.772,2.508 1.428,3.644c3.615,6.261 11.633,8.409 17.894,4.795c6.262,-3.615 8.41,-11.633 4.795,-17.894c-0.656,-1.137 -1.479,-2.168 -2.441,-3.06l-0.098,-0.094l-0.077,-0.115l-0.708,-1.069l-0.262,-1.342l0.262,-1.341l0.785,-1.184l1.184,-0.785l1.341,-0.262l1.342,0.262l1.069,0.708l0.115,0.077l0.094,0.098c0.892,0.962 1.923,1.785 3.06,2.441c6.261,3.615 14.279,1.467 17.894,-4.795c3.614,-6.261 1.466,-14.279 -4.795,-17.894c-1.136,-0.656 -2.365,-1.137 -3.644,-1.428l-0.132,-0.033l-0.124,-0.061l-1.148,-0.572l-0.897,-1.031l-0.444,-1.293l0.087,-1.418l0.633,-1.271l1.031,-0.897l1.293,-0.445l1.28,0.079l0.138,0.009l0.131,0.037c1.253,0.388 2.558,0.585 3.87,0.585c7.229,0 13.099,-5.869 13.099,-13.099c-0,-7.23 -5.87,-13.1 -13.099,-13.1c-1.312,0 -2.617,0.198 -3.87,0.585l-0.131,0.038l-0.138,0.009l-1.28,0.078l-1.293,-0.444l-1.031,-0.897l-0.633,-1.272l-0.087,-1.418l0.444,-1.292l0.897,-1.031l1.148,-0.572l0.124,-0.061l0.132,-0.033c1.279,-0.291 2.508,-0.773 3.644,-1.429c6.261,-3.615 8.409,-11.633 4.795,-17.894c-3.615,-6.261 -11.633,-8.409 -17.894,-4.794c-1.137,0.656 -2.168,1.479 -3.06,2.441l-0.094,0.098l-0.115,0.076l-1.069,0.709l-1.342,0.261l-1.341,-0.261l-1.184,-0.785l-0.785,-1.184l-0.262,-1.342l0.262,-1.341l0.708,-1.07l0.077,-0.114l0.098,-0.095c0.962,-0.891 1.785,-1.923 2.441,-3.059c3.615,-6.261 1.467,-14.279 -4.795,-17.894c-6.261,-3.615 -14.279,-1.466 -17.894,4.795c-0.656,1.136 -1.137,2.364 -1.428,3.644l-0.033,0.132l-0.061,0.123l-0.572,1.148l-1.031,0.898l-1.293,0.444l-1.418,-0.088l-1.271,-0.633l-0.897,-1.031l-0.445,-1.292l0.079,-1.281l0.009,-0.137l0.037,-0.131c0.388,-1.253 0.585,-2.558 0.585,-3.87c0,-7.23 -5.869,-13.099 -13.099,-13.099c-7.23,-0 -13.099,5.869 -13.099,13.099c-0,1.312 0.197,2.617 0.584,3.87l0.038,0.131l0.009,0.137l0.078,1.281l-0.444,1.292l-0.897,1.031l-1.272,0.633l-1.418,0.088l-1.292,-0.444l-1.031,-0.898l-0.572,-1.148l-0.061,-0.123l-0.033,-0.132c-0.291,-1.28 -0.773,-2.508 -1.429,-3.644c-3.615,-6.261 -11.633,-8.41 -17.894,-4.795c-6.261,3.615 -8.409,11.633 -4.794,17.894c0.656,1.136 1.479,2.168 2.441,3.059l0.098,0.095l0.076,0.114l0.709,1.07l0.261,1.341l-0.261,1.342l-0.785,1.184l-1.184,0.785l-1.342,0.261l-1.341,-0.261l-1.07,-0.709l-0.114,-0.076l-0.095,-0.098c-0.891,-0.962 -1.923,-1.785 -3.059,-2.441c-6.261,-3.615 -14.279,-1.467 -17.894,4.794c-3.615,6.261 -1.466,14.279 4.795,17.894c1.136,0.656 2.364,1.138 3.644,1.429l0.132,0.033l0.123,0.061l1.148,0.572l0.898,1.031l0.444,1.292l-0.088,1.418l-0.633,1.272l-1.031,0.897l-1.292,0.444l-1.281,-0.078l-0.137,-0.009l-0.131,-0.038c-1.253,-0.387 -2.558,-0.585 -3.87,-0.585c-7.23,0 -13.099,5.87 -13.099,13.1c-0,7.23 5.869,13.099 13.099,13.099c1.312,0 2.617,-0.197 3.87,-0.585l0.131,-0.037l0.137,-0.009Z" style="fill:#9e445f;"/><path d="M235.904,69.08c-0.291,-0.938 -0.438,-1.915 -0.438,-2.897c-0,-5.412 4.393,-9.805 9.805,-9.805c5.411,0 9.805,4.393 9.805,9.805c-0,0.982 -0.148,1.959 -0.438,2.897c-0.001,0.004 0.001,0.008 0.005,0.009c0.004,0.001 0.008,-0.002 0.009,-0.006c0.217,-0.957 0.578,-1.877 1.069,-2.727c2.706,-4.687 8.707,-6.295 13.394,-3.589c4.686,2.706 6.294,8.707 3.588,13.394c-0.491,0.85 -1.107,1.622 -1.827,2.29c-0.003,0.002 -0.003,0.007 -0,0.01c0.003,0.002 0.007,0.002 0.01,-0c0.667,-0.721 1.439,-1.337 2.29,-1.828c4.686,-2.706 10.688,-1.098 13.393,3.589c2.706,4.686 1.098,10.688 -3.588,13.394c-0.851,0.491 -1.77,0.851 -2.728,1.069c-0.004,0.001 -0.006,0.005 -0.005,0.009c0.001,0.003 0.005,0.006 0.009,0.005c0.938,-0.29 1.915,-0.438 2.897,-0.438c5.411,-0 9.804,4.393 9.804,9.805c0,5.411 -4.393,9.805 -9.804,9.805c-0.982,-0 -1.959,-0.148 -2.897,-0.438c-0.004,-0.001 -0.008,0.001 -0.009,0.005c-0.001,0.004 0.001,0.008 0.005,0.009c0.958,0.217 1.877,0.578 2.728,1.069c4.686,2.706 6.294,8.707 3.588,13.394c-2.705,4.686 -8.707,6.294 -13.393,3.588c-0.851,-0.491 -1.623,-1.107 -2.29,-1.827c-0.003,-0.003 -0.007,-0.003 -0.01,-0c-0.003,0.003 -0.003,0.007 -0,0.01c0.72,0.667 1.336,1.439 1.827,2.29c2.706,4.686 1.098,10.688 -3.588,13.394c-4.687,2.705 -10.688,1.097 -13.394,-3.589c-0.491,-0.851 -0.852,-1.77 -1.069,-2.728c-0.001,-0.004 -0.005,-0.006 -0.009,-0.005c-0.004,0.001 -0.006,0.005 -0.005,0.009c0.29,0.938 0.438,1.915 0.438,2.897c-0,5.411 -4.394,9.804 -9.805,9.804c-5.412,0 -9.805,-4.393 -9.805,-9.804c-0,-0.982 0.147,-1.959 0.438,-2.897c0.001,-0.004 -0.002,-0.008 -0.005,-0.009c-0.004,-0.001 -0.008,0.001 -0.009,0.005c-0.218,0.958 -0.578,1.877 -1.069,2.728c-2.706,4.686 -8.708,6.294 -13.394,3.589c-4.687,-2.706 -6.295,-8.708 -3.589,-13.394c0.491,-0.851 1.107,-1.623 1.828,-2.29c0.002,-0.003 0.002,-0.007 -0,-0.01c-0.003,-0.003 -0.008,-0.003 -0.011,-0c-0.667,0.72 -1.439,1.336 -2.289,1.827c-4.687,2.706 -10.688,1.098 -13.394,-3.588c-2.706,-4.687 -1.098,-10.688 3.589,-13.394c0.85,-0.491 1.77,-0.852 2.727,-1.069c0.004,-0.001 0.007,-0.005 0.006,-0.009c-0.001,-0.004 -0.006,-0.006 -0.009,-0.005c-0.939,0.29 -1.915,0.438 -2.897,0.438c-5.412,-0 -9.805,-4.394 -9.805,-9.805c0,-5.412 4.393,-9.805 9.805,-9.805c0.982,-0 1.958,0.148 2.897,0.438c0.003,0.001 0.008,-0.002 0.009,-0.005c0.001,-0.004 -0.002,-0.008 -0.006,-0.009c-0.957,-0.218 -1.877,-0.578 -2.727,-1.069c-4.687,-2.706 -6.295,-8.708 -3.589,-13.394c2.706,-4.687 8.707,-6.295 13.394,-3.589c0.85,0.491 1.622,1.107 2.289,1.828c0.003,0.002 0.008,0.002 0.011,-0c0.002,-0.003 0.002,-0.008 -0,-0.01c-0.721,-0.668 -1.337,-1.44 -1.828,-2.29c-2.706,-4.687 -1.098,-10.688 3.589,-13.394c4.686,-2.706 10.688,-1.098 13.394,3.589c0.491,0.85 0.851,1.77 1.069,2.727c0.001,0.004 0.005,0.007 0.009,0.006c0.003,-0.001 0.006,-0.005 0.005,-0.009Zm-26.465,29.062c-0.001,-0 -0.002,-0 -0.002,-0l-0.074,-0.005l-0.13,-0.038c-0.076,-0.023 -0.151,-0.045 -0.228,-0.065c-0.527,-0.142 -1.071,-0.213 -1.617,-0.213c-3.447,-0 -6.245,2.798 -6.245,6.245c-0,3.446 2.798,6.245 6.245,6.245c0.546,-0 1.09,-0.072 1.617,-0.213c0.077,-0.021 0.152,-0.043 0.228,-0.066l0.13,-0.038l0.074,-0.004c0,-0 0.001,-0 0.002,-0l1.34,-0.083l1.291,0.444l1.03,0.896l0.632,1.27l0.087,1.416l-0.443,1.29l-0.896,1.03l-1.202,0.599c-0.001,-0 -0.002,0 -0.003,0l-0.065,0.033l-0.132,0.033c-0.077,0.017 -0.154,0.036 -0.23,0.057c-0.527,0.141 -1.034,0.351 -1.507,0.624c-2.985,1.723 -4.01,5.546 -2.286,8.531c1.723,2.985 5.546,4.009 8.531,2.286c0.473,-0.274 0.908,-0.608 1.294,-0.994c0.056,-0.056 0.11,-0.112 0.164,-0.17l0.094,-0.098l0.061,-0.041c0.001,-0 0.002,-0.001 0.002,-0.001l1.12,-0.742l1.34,-0.261l1.339,0.261l1.183,0.784l0.783,1.182l0.262,1.34l-0.262,1.339l-0.741,1.12c-0.001,0.001 -0.001,0.001 -0.002,0.002l-0.04,0.061l-0.098,0.094c-0.058,0.054 -0.115,0.109 -0.171,0.164c-0.386,0.386 -0.72,0.821 -0.993,1.295c-1.723,2.985 -0.699,6.807 2.286,8.531c2.985,1.723 6.807,0.699 8.531,-2.286c0.273,-0.473 0.483,-0.98 0.624,-1.508c0.02,-0.076 0.039,-0.152 0.057,-0.229l0.032,-0.132l0.033,-0.066c0,-0.001 0.001,-0.001 0.001,-0.002l0.599,-1.202l1.029,-0.896l1.291,-0.444l1.416,0.087l1.27,0.633l0.896,1.029l0.443,1.291l-0.082,1.341c-0,0 -0,0.001 -0,0.002l-0.005,0.073l-0.038,0.131c-0.023,0.075 -0.045,0.151 -0.065,0.227c-0.142,0.527 -0.213,1.071 -0.213,1.618c-0,3.446 2.798,6.245 6.245,6.245c3.446,-0 6.245,-2.799 6.245,-6.245c-0,-0.547 -0.072,-1.091 -0.213,-1.618c-0.021,-0.076 -0.043,-0.152 -0.066,-0.227l-0.038,-0.131l-0.004,-0.073c-0,-0.001 -0,-0.002 -0.001,-0.002l-0.082,-1.341l0.444,-1.291l0.896,-1.029l1.27,-0.633l1.415,-0.087l1.291,0.444l1.03,0.896l0.599,1.202c-0,0.001 0,0.001 0,0.002l0.033,0.066l0.033,0.132c0.017,0.077 0.036,0.153 0.057,0.229c0.141,0.528 0.351,1.035 0.624,1.508c1.723,2.985 5.546,4.009 8.531,2.286c2.985,-1.724 4.009,-5.546 2.286,-8.531c-0.274,-0.474 -0.608,-0.909 -0.994,-1.295c-0.056,-0.055 -0.112,-0.11 -0.17,-0.164l-0.098,-0.094l-0.041,-0.061c-0,-0.001 -0.001,-0.001 -0.001,-0.002l-0.742,-1.12l-0.261,-1.339l0.261,-1.34l0.784,-1.182l1.182,-0.784l1.34,-0.261l1.339,0.261l1.12,0.742c0.001,0 0.001,0.001 0.002,0.001l0.061,0.041l0.094,0.098c0.054,0.058 0.109,0.114 0.164,0.17c0.386,0.386 0.821,0.72 1.295,0.994c2.985,1.723 6.807,0.699 8.531,-2.286c1.723,-2.985 0.699,-6.808 -2.286,-8.531c-0.474,-0.273 -0.98,-0.483 -1.508,-0.624c-0.076,-0.021 -0.152,-0.04 -0.229,-0.057l-0.132,-0.033l-0.066,-0.033c-0.001,0 -0.001,-0 -0.002,-0l-1.202,-0.599l-0.896,-1.03l-0.444,-1.29l0.087,-1.416l0.633,-1.27l1.029,-0.896l1.291,-0.444l1.341,0.083c0,-0 0.001,-0 0.002,-0l0.073,0.004l0.131,0.038c0.075,0.023 0.151,0.045 0.227,0.066c0.527,0.141 1.071,0.213 1.618,0.213c3.446,-0 6.245,-2.799 6.245,-6.245c-0,-3.447 -2.799,-6.245 -6.245,-6.245c-0.547,-0 -1.091,0.071 -1.618,0.213c-0.076,0.02 -0.152,0.042 -0.227,0.065l-0.131,0.038l-0.073,0.005c-0.001,-0 -0.002,-0 -0.002,0l-1.341,0.082l-1.291,-0.443l-1.029,-0.896l-0.633,-1.27l-0.087,-1.416l0.444,-1.291l0.896,-1.029l1.202,-0.599c0.001,-0 0.001,-0.001 0.002,-0.001l0.066,-0.033l0.132,-0.032c0.077,-0.018 0.153,-0.037 0.229,-0.057c0.528,-0.141 1.034,-0.351 1.508,-0.624c2.985,-1.724 4.009,-5.546 2.286,-8.531c-1.724,-2.985 -5.546,-4.009 -8.531,-2.286c-0.474,0.273 -0.909,0.607 -1.295,0.993c-0.055,0.056 -0.11,0.113 -0.164,0.171l-0.094,0.098l-0.061,0.04c-0.001,0.001 -0.001,0.001 -0.002,0.002l-1.12,0.741l-1.339,0.262l-1.34,-0.262l-1.182,-0.783l-0.784,-1.183l-0.261,-1.339l0.261,-1.34l0.742,-1.12c0,-0 0.001,-0.001 0.001,-0.002l0.041,-0.061l0.098,-0.094c0.058,-0.053 0.114,-0.108 0.17,-0.164c0.386,-0.386 0.72,-0.821 0.994,-1.294c1.723,-2.985 0.699,-6.808 -2.286,-8.531c-2.985,-1.723 -6.808,-0.699 -8.531,2.286c-0.273,0.473 -0.483,0.98 -0.624,1.507c-0.021,0.076 -0.04,0.153 -0.057,0.23l-0.033,0.132l-0.033,0.065c0,0.001 -0,0.002 -0,0.003l-0.599,1.202l-1.03,0.896l-1.291,0.443l-1.415,-0.087l-1.27,-0.632l-0.896,-1.03l-0.444,-1.291l0.082,-1.34c0.001,-0.001 0.001,-0.002 0.001,-0.002l0.004,-0.074l0.038,-0.13c0.023,-0.076 0.045,-0.151 0.066,-0.228c0.141,-0.527 0.213,-1.071 0.213,-1.617c-0,-3.447 -2.799,-6.245 -6.245,-6.245c-3.447,-0 -6.245,2.798 -6.245,6.245c-0,0.546 0.071,1.09 0.213,1.617c0.02,0.077 0.042,0.152 0.065,0.228l0.038,0.13l0.005,0.074c-0,0 -0,0.001 -0,0.002l0.082,1.34l-0.443,1.291l-0.896,1.03l-1.27,0.632l-1.416,0.087l-1.291,-0.443l-1.029,-0.896l-0.599,-1.202c-0,-0.001 -0.001,-0.002 -0.001,-0.003l-0.033,-0.065l-0.032,-0.132c-0.018,-0.077 -0.037,-0.154 -0.057,-0.23c-0.141,-0.527 -0.351,-1.034 -0.624,-1.507c-1.724,-2.985 -5.546,-4.009 -8.531,-2.286c-2.985,1.723 -4.009,5.546 -2.286,8.531c0.273,0.473 0.607,0.908 0.993,1.294c0.056,0.056 0.113,0.111 0.171,0.164l0.098,0.094l0.04,0.061c0.001,0.001 0.001,0.002 0.002,0.002l0.741,1.12l0.262,1.34l-0.262,1.339l-0.783,1.183l-1.183,0.783l-1.339,0.262l-1.34,-0.262l-1.12,-0.741c-0,-0.001 -0.001,-0.001 -0.002,-0.002l-0.061,-0.04l-0.094,-0.098c-0.054,-0.058 -0.108,-0.115 -0.164,-0.171c-0.386,-0.386 -0.821,-0.72 -1.294,-0.993c-2.985,-1.723 -6.808,-0.699 -8.531,2.286c-1.724,2.985 -0.699,6.807 2.286,8.531c0.473,0.273 0.98,0.483 1.507,0.624c0.076,0.02 0.153,0.039 0.23,0.057l0.132,0.032l0.065,0.033c0.001,0 0.002,0.001 0.003,0.001l1.202,0.599l0.896,1.029l0.443,1.291l-0.087,1.416l-0.632,1.27l-1.03,0.896l-1.291,0.443l-1.34,-0.082Z" style="fill:#9e445f;"/></svg>