<?xml version="1.0" encoding="UTF-8" standalone="no"?><!DOCTYPE svg PUBLIC "-//W3C//DTD SVG 1.1//EN" "http://www.w3.org/Graphics/SVG/1.1/DTD/svg11.dtd"><svg width="100%" height="100%" viewBox="0 0 266 53" version="1.1" xmlns="http://www.w3.org/2000/svg" xmlns:xlink="http://www.w3.org/1999/xlink" xml:space="preserve" xmlns:serif="http://www.serif.com/" style="fill-rule:evenodd;clip-rule:evenodd;stroke-linejoin:round;stroke-miterlimit:2;"><path d="M0.646,0c-0.198,0 -0.384,0.09 -0.507,0.245c-0.122,0.155 -0.167,0.357 -0.122,0.549c0.942,3.991 5.146,21.796 5.904,25.007c0.069,0.291 0.329,0.497 0.628,0.497c2.658,0 14.884,0 17.542,0c0.299,0 0.56,-0.206 0.628,-0.497c0.759,-3.211 4.962,-21.016 5.904,-25.007c0.045,-0.192 0,-0.394 -0.122,-0.549c-0.122,-0.155 -0.309,-0.245 -0.506,-0.245c-4.37,0 -24.979,0 -29.349,0Zm14.674,31.423c-2.707,-0 -5.027,0.983 -6.961,2.949c-1.934,1.965 -2.901,4.27 -2.901,6.913c0,2.707 0.967,5.043 2.901,7.009c1.934,1.966 4.254,2.949 6.961,2.949c2.707,0 5.028,-0.983 6.962,-2.949c1.933,-1.966 2.9,-4.302 2.9,-7.009c0,-2.643 -0.967,-4.948 -2.9,-6.913c-1.934,-1.966 -4.255,-2.949 -6.962,-2.949Zm13.331,19.82c-0.195,0 -0.38,-0.088 -0.502,-0.239c-0.123,-0.152 -0.17,-0.35 -0.13,-0.541c0.765,-3.597 3.976,-18.697 5.38,-25.303c0.387,-1.82 0.663,-3.663 0.826,-5.517c0.234,-3.512 1.2,-6.61 2.834,-9.298c1.998,-3.287 4.786,-5.833 8.363,-7.638c3.578,-1.805 7.784,-2.707 12.618,-2.707c2.514,0 4.834,0.242 6.961,0.725c2.127,0.484 4.029,1.128 5.705,1.934c1.622,0.78 3.002,1.665 4.141,2.657c0.073,0.063 0.167,0.098 0.263,0.098c0.071,0 0.14,0 0.14,0c1.224,-1.031 2.659,-1.949 4.302,-2.755c1.644,-0.806 3.529,-1.45 5.656,-1.934c2.127,-0.483 4.448,-0.725 6.962,-0.725c4.898,0 9.153,0.902 12.762,2.707c3.61,1.805 6.414,4.351 8.412,7.638c1.634,2.688 2.599,5.786 2.897,9.293c0.163,1.851 0.439,3.691 0.825,5.509c1.342,6.619 4.553,21.719 5.318,25.316c0.04,0.191 -0.007,0.389 -0.13,0.541c-0.123,0.151 -0.307,0.239 -0.502,0.239c-3.794,0 -19.983,0 -23.426,0c-0.356,0 -0.645,-0.289 -0.645,-0.645c-0,-4.185 -0,-27.297 -0,-27.297c-0,-1.225 -0.258,-2.336 -0.774,-3.336c-0.515,-0.999 -1.257,-1.82 -2.224,-2.465c-0.966,-0.645 -2.159,-0.967 -3.577,-0.967c-1.418,0 -2.626,0.322 -3.626,0.967c-0.999,0.645 -1.756,1.466 -2.272,2.465c-0.515,1 -0.773,2.111 -0.773,3.336l-0,27.297c-0,0.356 -0.289,0.645 -0.646,0.645c-2.854,0 -14.322,0 -17.175,0c-0.357,0 -0.646,-0.289 -0.646,-0.645l-0,-27.297c-0,-1.225 -0.274,-2.336 -0.822,-3.336c-0.548,-0.999 -1.337,-1.82 -2.369,-2.465c-1.031,-0.645 -2.256,-0.967 -3.674,-0.967c-1.353,0 -2.53,0.322 -3.529,0.967c-0.999,0.645 -1.756,1.466 -2.272,2.465c-0.515,1 -0.773,2.111 -0.773,3.336c-0,0 -0,23.112 -0,27.297c-0,0.356 -0.289,0.645 -0.646,0.645c-3.425,0 -19.458,0 -23.232,0Zm91.757,-51.243c-0.197,0 -0.384,0.09 -0.506,0.245c-0.123,0.155 -0.168,0.357 -0.122,0.549c0.942,3.991 5.145,21.796 5.903,25.007c0.069,0.291 0.329,0.497 0.629,0.497c2.658,0 14.884,0 17.541,0c0.3,0 0.56,-0.206 0.629,-0.497c0.758,-3.211 4.961,-21.016 5.904,-25.007c0.045,-0.192 -0,-0.394 -0.123,-0.549c-0.122,-0.155 -0.308,-0.245 -0.506,-0.245c-4.37,0 -24.979,0 -29.349,0Zm14.675,31.423c-2.708,-0 -5.028,0.983 -6.962,2.949c-1.933,1.965 -2.9,4.27 -2.9,6.913c-0,2.707 0.967,5.043 2.9,7.009c1.934,1.966 4.254,2.949 6.962,2.949c2.707,0 5.027,-0.983 6.961,-2.949c1.934,-1.966 2.901,-4.302 2.901,-7.009c-0,-2.643 -0.967,-4.948 -2.901,-6.913c-1.934,-1.966 -4.254,-2.949 -6.961,-2.949Zm38.48,21.077c-4.189,0 -7.96,-1.064 -11.312,-3.191c-3.352,-2.127 -5.994,-5.076 -7.928,-8.846c-1.934,-3.771 -2.901,-8.17 -2.901,-13.198c0,-5.35 1.193,-10.071 3.578,-14.164c2.385,-4.093 5.688,-7.3 9.91,-9.62c4.222,-2.321 9.137,-3.481 14.744,-3.481c5.479,0 10.249,1.112 14.31,3.336c4.061,2.223 7.235,5.317 9.523,9.281c1.836,3.18 2.935,6.764 3.298,10.752c0.227,2.393 0.633,4.765 1.215,7.096c1.447,6.045 4.17,16.944 4.928,19.976c0.048,0.193 0.005,0.397 -0.118,0.554c-0.122,0.157 -0.31,0.248 -0.508,0.248c-3.736,0 -18.999,0 -22.333,0c-0.357,0 -0.646,-0.289 -0.646,-0.645c-0,-1.547 -0,-5.415 -0,-6.508c-0,-0.077 -0.031,-0.152 -0.085,-0.206c-0.055,-0.055 -0.129,-0.086 -0.207,-0.086c-0.036,0 -0.072,0 -0.106,0c-0.111,0.001 -0.212,0.064 -0.261,0.163c-0.829,1.673 -1.914,3.15 -3.257,4.43c-1.386,1.321 -3.045,2.336 -4.979,3.045c-1.934,0.709 -4.222,1.064 -6.865,1.064Zm5.705,-16.243c1.74,-0 3.271,-0.419 4.592,-1.257c1.322,-0.838 2.353,-2.014 3.094,-3.529c0.741,-1.515 1.112,-3.239 1.112,-5.173c0,-1.869 -0.371,-3.513 -1.112,-4.931c-0.741,-1.418 -1.772,-2.546 -3.094,-3.384c-1.321,-0.838 -2.852,-1.256 -4.592,-1.256c-1.676,-0 -3.191,0.418 -4.544,1.256c-1.354,0.838 -2.401,1.966 -3.143,3.384c-0.741,1.418 -1.112,3.062 -1.112,4.931c0,1.934 0.371,3.658 1.112,5.173c0.742,1.515 1.789,2.691 3.143,3.529c1.353,0.838 2.868,1.257 4.544,1.257Zm60.927,16.243c-5.221,0 -9.798,-0.983 -13.73,-2.949c-3.932,-1.966 -6.993,-4.641 -9.185,-8.025c-2.191,-3.384 -3.287,-7.235 -3.287,-11.554l-0,-28.166c-0,-0.171 0.068,-0.336 0.189,-0.457c0.121,-0.121 0.285,-0.189 0.456,-0.189c3.423,0 19.432,0 23.224,0c0.196,0 0.381,0.089 0.504,0.242c0.122,0.153 0.169,0.354 0.126,0.545c-0.98,4.362 -5.709,25.425 -6.017,26.795c-0.011,0.049 -0.016,0.098 -0.015,0.148c0.013,1.133 0.303,2.235 0.87,3.306c0.58,1.096 1.434,1.982 2.562,2.659c1.128,0.677 2.433,1.015 3.916,1.015c1.482,0 2.755,-0.338 3.819,-1.015c1.063,-0.677 1.885,-1.563 2.465,-2.659c0.567,-1.071 0.857,-2.173 0.87,-3.306c0.001,-0.05 -0.005,-0.099 -0.016,-0.148c-0.307,-1.37 -5.036,-22.433 -6.015,-26.795c-0.043,-0.191 0.003,-0.392 0.125,-0.545c0.123,-0.153 0.308,-0.242 0.504,-0.242c3.802,0 19.889,0 23.32,0c0.357,0 0.646,0.289 0.646,0.646l0,28.166c0,4.319 -1.015,8.17 -3.046,11.554c-2.03,3.384 -4.947,6.059 -8.75,8.025c-3.803,1.966 -8.314,2.949 -13.535,2.949Z" style="fill:#9e445f;fill-rule:nonzero;"/></svg>