<?xml version="1.0" encoding="UTF-8" standalone="no"?><!DOCTYPE svg PUBLIC "-//W3C//DTD SVG 1.1//EN" "http://www.w3.org/Graphics/SVG/1.1/DTD/svg11.dtd"><svg width="100%" height="100%" viewBox="0 0 288 100" version="1.1" xmlns="http://www.w3.org/2000/svg" xmlns:xlink="http://www.w3.org/1999/xlink" xml:space="preserve" xmlns:serif="http://www.serif.com/" style="fill-rule:evenodd;clip-rule:evenodd;stroke-linejoin:round;stroke-miterlimit:2;"><path d="M174.319,38.979c-3.111,0 -5.912,-0.789 -8.401,-2.368c-2.489,-1.58 -4.451,-3.769 -5.887,-6.569c-1.436,-2.799 -2.154,-6.066 -2.154,-9.799c-0,-3.972 0.885,-7.477 2.656,-10.516c1.771,-3.039 4.224,-5.42 7.36,-7.143c3.135,-1.723 6.785,-2.584 10.949,-2.584c4.069,0 7.611,0.826 10.627,2.477c3.015,1.651 5.373,3.948 7.072,6.891c1.363,2.361 2.18,5.022 2.449,7.983c0.168,1.776 0.47,3.537 0.903,5.268c1.074,4.489 3.096,12.58 3.659,14.832c0.036,0.143 0.004,0.295 -0.087,0.411c-0.091,0.116 -0.231,0.184 -0.378,0.184c-2.774,0 -14.109,0 -16.585,0c-0.265,0 -0.48,-0.214 -0.48,-0.479c0,-1.148 0,-4.02 0,-4.832c0,-0.057 -0.022,-0.112 -0.063,-0.153c-0.041,-0.04 -0.096,-0.063 -0.153,-0.063c-0.027,-0 -0.054,-0 -0.079,-0c-0.083,-0 -0.158,0.047 -0.194,0.121c-0.616,1.242 -1.422,2.338 -2.418,3.289c-1.03,0.981 -2.262,1.734 -3.698,2.261c-1.436,0.526 -3.136,0.789 -5.098,0.789Zm49.482,0c-3.877,0 -7.276,-0.729 -10.196,-2.189c-2.92,-1.46 -5.193,-3.446 -6.821,-5.958c-1.627,-2.513 -2.441,-5.372 -2.441,-8.578l-0,-20.913c-0,-0.127 0.05,-0.249 0.14,-0.339c0.09,-0.09 0.212,-0.141 0.339,-0.141c2.542,0 14.431,0 17.246,0c0.146,0 0.284,0.067 0.375,0.18c0.091,0.114 0.125,0.263 0.093,0.405c-0.727,3.238 -4.239,18.877 -4.468,19.894c-0.008,0.036 -0.012,0.073 -0.011,0.11c0.01,0.841 0.225,1.659 0.646,2.455c0.431,0.813 1.065,1.471 1.903,1.974c0.837,0.502 1.807,0.753 2.908,0.753c1.101,0 2.046,-0.251 2.836,-0.753c0.79,-0.503 1.4,-1.161 1.831,-1.974c0.421,-0.796 0.636,-1.614 0.646,-2.455c-0,-0.037 -0.004,-0.074 -0.012,-0.11c-0.228,-1.017 -3.74,-16.656 -4.468,-19.894c-0.031,-0.142 0.003,-0.291 0.094,-0.405c0.091,-0.113 0.229,-0.18 0.374,-0.18c2.823,0 14.77,0 17.318,0c0.265,0 0.48,0.215 0.48,0.48l-0,20.913c-0,3.206 -0.754,6.065 -2.262,8.578c-1.508,2.512 -3.674,4.498 -6.498,5.958c-2.824,1.46 -6.175,2.189 -10.052,2.189Zm-157.098,-0.933c-0.144,0 -0.281,-0.065 -0.372,-0.177c-0.091,-0.113 -0.127,-0.26 -0.097,-0.402c0.569,-2.671 2.953,-13.882 3.996,-18.786c0.287,-1.352 0.492,-2.72 0.613,-4.096c0.174,-2.608 0.891,-4.908 2.105,-6.904c1.484,-2.441 3.554,-4.331 6.211,-5.671c2.656,-1.34 5.779,-2.01 9.37,-2.01c1.866,0 3.59,0.179 5.169,0.538c1.58,0.359 2.992,0.838 4.236,1.436c1.205,0.579 2.23,1.237 3.076,1.973c0.054,0.047 0.124,0.073 0.195,0.073c0.053,-0 0.104,-0 0.104,-0c0.909,-0.766 1.975,-1.448 3.195,-2.046c1.221,-0.598 2.621,-1.077 4.2,-1.436c1.58,-0.359 3.303,-0.538 5.17,-0.538c3.638,0 6.797,0.67 9.478,2.01c2.68,1.34 4.763,3.23 6.246,5.671c1.214,1.996 1.931,4.296 2.152,6.899c0.121,1.375 0.326,2.741 0.613,4.091c0.996,4.914 3.381,16.125 3.949,18.796c0.03,0.142 -0.006,0.289 -0.097,0.402c-0.091,0.112 -0.228,0.177 -0.372,0.177c-2.818,0 -14.84,0 -17.397,0c-0.265,0 -0.479,-0.214 -0.479,-0.479c-0,-3.107 -0,-20.267 -0,-20.267c-0,-0.909 -0.192,-1.735 -0.575,-2.476c-0.383,-0.742 -0.933,-1.352 -1.651,-1.831c-0.718,-0.478 -1.604,-0.718 -2.657,-0.718c-1.053,0 -1.95,0.24 -2.692,0.718c-0.742,0.479 -1.305,1.089 -1.688,1.831c-0.382,0.741 -0.574,1.567 -0.574,2.476l0,20.267c0,0.265 -0.215,0.479 -0.479,0.479c-2.12,0 -10.636,0 -12.755,0c-0.265,0 -0.48,-0.214 -0.48,-0.479l0,-20.267c0,-0.909 -0.203,-1.735 -0.61,-2.476c-0.407,-0.742 -0.993,-1.352 -1.759,-1.831c-0.766,-0.478 -1.676,-0.718 -2.729,-0.718c-1.005,0 -1.878,0.24 -2.62,0.718c-0.742,0.479 -1.305,1.089 -1.688,1.831c-0.383,0.741 -0.574,1.567 -0.574,2.476c-0,0 -0,17.16 -0,20.267c-0,0.265 -0.215,0.479 -0.48,0.479c-2.543,0 -14.45,0 -17.253,0Zm-9.899,-14.716c-2.01,0 -3.734,0.73 -5.17,2.19c-1.436,1.459 -2.154,3.17 -2.154,5.132c0,2.01 0.718,3.745 2.154,5.205c1.436,1.459 3.16,2.189 5.17,2.189c2.01,0 3.734,-0.73 5.17,-2.189c1.436,-1.46 2.154,-3.195 2.154,-5.205c-0,-1.962 -0.718,-3.673 -2.154,-5.132c-1.436,-1.46 -3.16,-2.19 -5.17,-2.19Zm88.938,0c-2.01,0 -3.733,0.73 -5.169,2.19c-1.436,1.459 -2.154,3.17 -2.154,5.132c-0,2.01 0.718,3.745 2.154,5.205c1.436,1.459 3.159,2.189 5.169,2.189c2.011,0 3.734,-0.73 5.17,-2.189c1.436,-1.46 2.154,-3.195 2.154,-5.205c-0,-1.962 -0.718,-3.673 -2.154,-5.132c-1.436,-1.46 -3.159,-2.19 -5.17,-2.19Zm32.813,3.59c1.293,-0 2.429,-0.312 3.411,-0.934c0.981,-0.622 1.747,-1.495 2.297,-2.62c0.551,-1.124 0.826,-2.405 0.826,-3.84c0,-1.388 -0.275,-2.609 -0.826,-3.661c-0.55,-1.053 -1.316,-1.891 -2.297,-2.513c-0.982,-0.622 -2.118,-0.933 -3.411,-0.933c-1.244,-0 -2.369,0.311 -3.374,0.933c-1.006,0.622 -1.784,1.46 -2.334,2.513c-0.55,1.052 -0.826,2.273 -0.826,3.661c0,1.435 0.276,2.716 0.826,3.84c0.55,1.125 1.328,1.998 2.334,2.62c1.005,0.622 2.13,0.934 3.374,0.934Zm-132.649,-26.92c-0.146,0 -0.285,0.067 -0.376,0.182c-0.091,0.115 -0.124,0.265 -0.09,0.407c0.699,2.963 3.821,16.183 4.384,18.567c0.051,0.217 0.244,0.37 0.466,0.37c1.974,-0 11.054,-0 13.027,-0c0.223,-0 0.416,-0.153 0.467,-0.37c0.563,-2.384 3.685,-15.604 4.384,-18.567c0.034,-0.142 0.001,-0.292 -0.09,-0.407c-0.091,-0.115 -0.23,-0.182 -0.376,-0.182c-3.246,0 -18.55,0 -21.796,0Zm88.939,0c-0.147,0 -0.285,0.067 -0.376,0.182c-0.091,0.115 -0.125,0.265 -0.091,0.407c0.7,2.963 3.821,16.183 4.384,18.567c0.051,0.217 0.245,0.37 0.467,0.37c1.974,-0 11.053,-0 13.027,-0c0.222,-0 0.415,-0.153 0.466,-0.37c0.563,-2.384 3.685,-15.604 4.385,-18.567c0.033,-0.142 -0,-0.292 -0.091,-0.407c-0.091,-0.115 -0.229,-0.182 -0.376,-0.182c-3.245,0 -18.55,0 -21.795,0Z" style="fill:#9e445f;fill-rule:nonzero;"/><path d="M280.474,99.75l0,-1.415l4.48,-0c0.442,-0 0.785,-0.132 1.03,-0.394c0.245,-0.263 0.368,-0.609 0.368,-1.039l-0,-2.508l-0.036,-0c-0.227,0.346 -0.502,0.656 -0.825,0.931c-0.322,0.275 -0.692,0.493 -1.11,0.654c-0.419,0.161 -0.89,0.242 -1.416,0.242c-0.86,-0 -1.619,-0.2 -2.276,-0.6c-0.657,-0.4 -1.17,-0.956 -1.541,-1.666c-0.37,-0.711 -0.555,-1.526 -0.555,-2.446c-0,-0.895 0.185,-1.702 0.555,-2.418c0.371,-0.717 0.905,-1.284 1.604,-1.702c0.699,-0.418 1.544,-0.627 2.536,-0.627c0.955,0 1.785,0.203 2.49,0.609c0.705,0.406 1.251,0.97 1.64,1.693c0.388,0.723 0.582,1.568 0.582,2.535l0,5.41c0,0.836 -0.245,1.502 -0.735,1.998c-0.489,0.495 -1.158,0.743 -2.006,0.743l-4.785,-0Zm-87.405,-0l0,-3.493c-0.669,-0.096 -1.263,-0.32 -1.783,-0.672c-0.519,-0.352 -0.929,-0.812 -1.227,-1.38c-0.299,-0.567 -0.448,-1.215 -0.448,-1.943l-0,-5.285l1.666,-0l0,5.267c0,0.549 0.12,1.024 0.359,1.424c0.239,0.4 0.558,0.708 0.958,0.923c0.4,0.215 0.828,0.322 1.281,0.322c0.466,0 0.899,-0.107 1.3,-0.322c0.4,-0.215 0.722,-0.523 0.967,-0.923c0.245,-0.4 0.367,-0.875 0.367,-1.424l0,-5.267l1.649,-0l-0,5.285c-0,0.728 -0.146,1.373 -0.439,1.935c-0.293,0.561 -0.699,1.018 -1.219,1.37c-0.519,0.352 -1.113,0.582 -1.782,0.69l-0,3.493l-1.649,-0Zm-145.872,-3.422c-0.932,0 -1.756,-0.212 -2.473,-0.636c-0.717,-0.424 -1.284,-0.997 -1.702,-1.719c-0.418,-0.723 -0.627,-1.532 -0.627,-2.428c-0,-0.896 0.209,-1.705 0.627,-2.427c0.418,-0.723 0.985,-1.296 1.702,-1.72c0.717,-0.424 1.541,-0.636 2.473,-0.636c0.931,0 1.759,0.212 2.481,0.636c0.723,0.424 1.29,0.994 1.703,1.711c0.412,0.716 0.618,1.529 0.618,2.436c-0,0.896 -0.206,1.705 -0.618,2.428c-0.413,0.722 -0.98,1.295 -1.703,1.719c-0.722,0.424 -1.55,0.636 -2.481,0.636Zm78.768,0c-0.931,0 -1.756,-0.212 -2.472,-0.636c-0.717,-0.424 -1.285,-0.997 -1.703,-1.719c-0.418,-0.723 -0.627,-1.532 -0.627,-2.428c0,-0.896 0.209,-1.705 0.627,-2.427c0.418,-0.723 0.986,-1.296 1.703,-1.72c0.716,-0.424 1.541,-0.636 2.472,-0.636c0.932,0 1.759,0.212 2.482,0.636c0.723,0.424 1.29,0.994 1.702,1.711c0.412,0.716 0.618,1.529 0.618,2.436c0,0.896 -0.206,1.705 -0.618,2.428c-0.412,0.722 -0.979,1.295 -1.702,1.719c-0.723,0.424 -1.55,0.636 -2.482,0.636Zm51.981,0c-0.932,0 -1.756,-0.212 -2.473,-0.636c-0.716,-0.424 -1.284,-0.997 -1.702,-1.719c-0.418,-0.723 -0.627,-1.532 -0.627,-2.428c0,-0.896 0.209,-1.705 0.627,-2.427c0.418,-0.723 0.986,-1.296 1.702,-1.72c0.717,-0.424 1.541,-0.636 2.473,-0.636c0.932,0 1.759,0.212 2.482,0.636c0.723,0.424 1.29,0.994 1.702,1.711c0.412,0.716 0.618,1.529 0.618,2.436c0,0.896 -0.206,1.705 -0.618,2.428c-0.412,0.722 -0.979,1.295 -1.702,1.719c-0.723,0.424 -1.55,0.636 -2.482,0.636Zm40.585,0c-0.884,0 -1.649,-0.212 -2.294,-0.636c-0.645,-0.424 -1.14,-1 -1.487,-1.728c-0.346,-0.729 -0.519,-1.535 -0.519,-2.419c-0,-0.896 0.191,-1.705 0.573,-2.427c0.382,-0.723 0.932,-1.296 1.648,-1.72c0.717,-0.424 1.577,-0.636 2.581,-0.636c0.967,0 1.797,0.209 2.49,0.627c0.693,0.418 1.228,0.985 1.604,1.702c0.376,0.716 0.564,1.517 0.564,2.4l0,4.622l-1.666,0l0,-1.863l-0.036,0c-0.179,0.347 -0.421,0.678 -0.726,0.995c-0.304,0.316 -0.683,0.576 -1.137,0.779c-0.454,0.203 -0.986,0.304 -1.595,0.304Zm-154.67,0c-0.884,0 -1.649,-0.212 -2.294,-0.636c-0.645,-0.424 -1.141,-1 -1.487,-1.728c-0.347,-0.729 -0.52,-1.535 -0.52,-2.419c0,-0.896 0.191,-1.705 0.574,-2.427c0.382,-0.723 0.931,-1.296 1.648,-1.72c0.717,-0.424 1.577,-0.636 2.58,-0.636c0.968,0 1.798,0.209 2.491,0.627c0.693,0.418 1.227,0.985 1.604,1.702c0.376,0.716 0.564,1.517 0.564,2.4l0,4.622l-1.666,0l-0,-1.863l-0.036,0c-0.179,0.347 -0.421,0.678 -0.726,0.995c-0.304,0.316 -0.684,0.576 -1.138,0.779c-0.454,0.203 -0.985,0.304 -1.594,0.304Zm25.175,-0.215l-0,-9.136l1.666,-0l0,9.136l-1.666,0Zm-17.399,0l0,-5.499c0,-0.705 0.161,-1.35 0.484,-1.935c0.322,-0.585 0.788,-1.051 1.398,-1.397c0.609,-0.347 1.343,-0.52 2.204,-0.52c0.418,0 0.836,0.057 1.254,0.17c0.418,0.114 0.806,0.305 1.164,0.573c0.359,0.269 0.646,0.63 0.861,1.084l0.017,0c0.239,-0.454 0.538,-0.815 0.896,-1.084c0.359,-0.268 0.747,-0.459 1.165,-0.573c0.418,-0.113 0.842,-0.17 1.272,-0.17c0.848,0 1.577,0.173 2.186,0.52c0.61,0.346 1.075,0.812 1.398,1.397c0.322,0.585 0.484,1.23 0.484,1.935l-0,5.499l-1.649,0l0,-5.499c0,-0.454 -0.107,-0.866 -0.322,-1.236c-0.215,-0.371 -0.505,-0.663 -0.869,-0.878c-0.365,-0.215 -0.78,-0.323 -1.246,-0.323c-0.454,0 -0.872,0.111 -1.254,0.332c-0.382,0.221 -0.684,0.513 -0.905,0.877c-0.221,0.365 -0.331,0.774 -0.331,1.228l-0,5.499l-1.649,0l0,-5.499c0,-0.454 -0.11,-0.863 -0.331,-1.228c-0.221,-0.364 -0.52,-0.656 -0.896,-0.877c-0.376,-0.221 -0.798,-0.332 -1.263,-0.332c-0.454,0 -0.863,0.108 -1.228,0.323c-0.364,0.215 -0.654,0.507 -0.869,0.878c-0.215,0.37 -0.322,0.782 -0.322,1.236l-0,5.499l-1.649,0Zm-17.578,0l0,-6.538c0,-0.813 0.23,-1.449 0.69,-1.908c0.46,-0.46 1.096,-0.69 1.909,-0.69l1.881,-0l-0,1.415l-1.577,0c-0.394,0 -0.702,0.114 -0.923,0.341c-0.221,0.227 -0.331,0.543 -0.331,0.949l-0,6.431l-1.649,0Zm-40.387,0l-0,-1.415l4.372,0c0.286,0 0.534,-0.063 0.743,-0.188c0.209,-0.125 0.368,-0.29 0.475,-0.493c0.108,-0.203 0.161,-0.418 0.161,-0.645c0,-0.215 -0.047,-0.415 -0.143,-0.6c-0.096,-0.185 -0.242,-0.334 -0.439,-0.448c-0.197,-0.113 -0.433,-0.17 -0.708,-0.17l-1.845,0c-0.586,0 -1.096,-0.098 -1.532,-0.295c-0.436,-0.197 -0.777,-0.487 -1.022,-0.869c-0.245,-0.382 -0.367,-0.848 -0.367,-1.398c0,-0.465 0.113,-0.895 0.34,-1.289c0.227,-0.394 0.544,-0.714 0.95,-0.959c0.406,-0.245 0.872,-0.367 1.398,-0.367l4.211,-0l-0,1.415l-4.05,0c-0.37,0 -0.663,0.114 -0.878,0.341c-0.215,0.227 -0.323,0.495 -0.323,0.806c0,0.298 0.111,0.558 0.332,0.779c0.221,0.221 0.535,0.331 0.941,0.331l1.756,0c0.657,0 1.209,0.105 1.657,0.314c0.448,0.209 0.789,0.511 1.021,0.905c0.233,0.394 0.35,0.877 0.35,1.451c-0,0.489 -0.12,0.946 -0.359,1.37c-0.238,0.424 -0.57,0.767 -0.994,1.03c-0.424,0.263 -0.917,0.394 -1.478,0.394l-4.569,0Zm19.656,0l-0,-1.415l4.372,0c0.287,0 0.535,-0.063 0.744,-0.188c0.209,-0.125 0.367,-0.29 0.474,-0.493c0.108,-0.203 0.162,-0.418 0.162,-0.645c-0,-0.215 -0.048,-0.415 -0.144,-0.6c-0.095,-0.185 -0.242,-0.334 -0.439,-0.448c-0.197,-0.113 -0.433,-0.17 -0.707,-0.17l-1.846,0c-0.585,0 -1.096,-0.098 -1.532,-0.295c-0.436,-0.197 -0.776,-0.487 -1.021,-0.869c-0.245,-0.382 -0.368,-0.848 -0.368,-1.398c0,-0.465 0.114,-0.895 0.341,-1.289c0.227,-0.394 0.543,-0.714 0.949,-0.959c0.407,-0.245 0.872,-0.367 1.398,-0.367l4.211,-0l-0,1.415l-4.05,0c-0.37,0 -0.663,0.114 -0.878,0.341c-0.215,0.227 -0.322,0.495 -0.322,0.806c-0,0.298 0.11,0.558 0.331,0.779c0.221,0.221 0.535,0.331 0.941,0.331l1.756,0c0.657,0 1.209,0.105 1.657,0.314c0.448,0.209 0.789,0.511 1.022,0.905c0.233,0.394 0.349,0.877 0.349,1.451c0,0.489 -0.119,0.946 -0.358,1.37c-0.239,0.424 -0.571,0.767 -0.995,1.03c-0.424,0.263 -0.916,0.394 -1.478,0.394l-4.569,0Zm83.499,-9.136l3.136,-0l-0,1.415l-3.136,0l-0,5.016c-0,0.394 0.11,0.708 0.331,0.941c0.221,0.233 0.529,0.349 0.923,0.349l1.846,0l-0,1.415l-2.15,0c-0.813,0 -1.449,-0.233 -1.909,-0.698c-0.46,-0.466 -0.69,-1.099 -0.69,-1.899l0,-5.124l1.649,0l-0,-1.415Zm141.733,-0l3.136,-0l0,1.415l-3.136,0l0,5.016c0,0.394 0.111,0.708 0.332,0.941c0.221,0.233 0.528,0.349 0.923,0.349l1.845,0l0,1.415l-2.15,0c-0.812,0 -1.448,-0.233 -1.908,-0.698c-0.46,-0.466 -0.69,-1.099 -0.69,-1.899l-0,-5.124l1.648,0l0,-1.415Zm-7.292,-0l3.135,-0l0,1.415l-3.135,0l-0,5.016c-0,0.394 0.11,0.708 0.331,0.941c0.221,0.233 0.529,0.349 0.923,0.349l1.845,0l0,1.415l-2.15,0c-0.812,0 -1.448,-0.233 -1.908,-0.698c-0.46,-0.466 -0.69,-1.099 -0.69,-1.899l0,-5.124l1.649,0l-0,-1.415Zm-40.101,9.136c-0.956,0 -1.828,-0.164 -2.617,-0.492c-0.788,-0.329 -1.466,-0.78 -2.033,-1.353c-0.568,-0.573 -1.004,-1.239 -1.308,-1.997c-0.305,-0.759 -0.457,-1.568 -0.457,-2.428c-0,-0.86 0.152,-1.669 0.457,-2.427c0.304,-0.758 0.74,-1.424 1.308,-1.998c0.567,-0.573 1.245,-1.024 2.033,-1.352c0.789,-0.329 1.661,-0.493 2.617,-0.493l1.612,0l0,1.523l-1.559,-0c-0.681,-0 -1.308,0.119 -1.881,0.358c-0.573,0.239 -1.072,0.574 -1.496,1.003c-0.424,0.43 -0.756,0.932 -0.995,1.505c-0.239,0.574 -0.358,1.201 -0.358,1.881c-0,0.669 0.119,1.293 0.358,1.872c0.239,0.58 0.571,1.084 0.995,1.514c0.424,0.43 0.923,0.764 1.496,1.003c0.573,0.239 1.2,0.359 1.881,0.359l1.559,-0l0,1.522l-1.612,0Zm17.309,-9.136l3.135,-0l0,1.415l-3.135,0l-0,5.016c-0,0.394 0.11,0.708 0.331,0.941c0.221,0.233 0.529,0.349 0.923,0.349l1.845,0l0,1.415l-2.15,0c-0.812,0 -1.448,-0.233 -1.908,-0.698c-0.46,-0.466 -0.69,-1.099 -0.69,-1.899l0,-5.124l1.649,0l-0,-1.415Zm-228.476,9.136l4.265,-11.339c0.191,-0.49 0.453,-0.848 0.788,-1.075c0.334,-0.227 0.723,-0.341 1.165,-0.341c0.442,0 0.833,0.111 1.173,0.332c0.341,0.221 0.601,0.576 0.78,1.066l4.282,11.357l-1.881,0l-1.093,-3.027l-6.558,-0l-1.111,3.027l-1.81,0Zm267.949,0l0,-5.284c0,-0.813 0.183,-1.523 0.547,-2.132c0.364,-0.609 0.869,-1.084 1.514,-1.424c0.645,-0.341 1.38,-0.511 2.204,-0.511c0.836,0 1.574,0.17 2.213,0.511c0.639,0.34 1.141,0.815 1.505,1.424c0.364,0.609 0.547,1.319 0.547,2.132l-0,5.284l-1.649,0l0,-5.266c0,-0.55 -0.122,-1.025 -0.367,-1.425c-0.245,-0.4 -0.568,-0.707 -0.968,-0.922c-0.4,-0.215 -0.827,-0.323 -1.281,-0.323c-0.454,0 -0.881,0.108 -1.281,0.323c-0.4,0.215 -0.723,0.522 -0.968,0.922c-0.245,0.4 -0.367,0.875 -0.367,1.425l-0,5.266l-1.649,0Zm-105.448,0l-0,-5.284c-0,-0.813 0.182,-1.523 0.546,-2.132c0.364,-0.609 0.869,-1.084 1.514,-1.424c0.645,-0.341 1.38,-0.511 2.204,-0.511c0.836,0 1.574,0.17 2.213,0.511c0.639,0.34 1.141,0.815 1.505,1.424c0.365,0.609 0.547,1.319 0.547,2.132l-0,5.284l-1.649,0l0,-5.266c0,-0.55 -0.122,-1.025 -0.367,-1.425c-0.245,-0.4 -0.568,-0.707 -0.968,-0.922c-0.4,-0.215 -0.827,-0.323 -1.281,-0.323c-0.454,0 -0.881,0.108 -1.281,0.323c-0.4,0.215 -0.723,0.522 -0.968,0.922c-0.244,0.4 -0.367,0.875 -0.367,1.425l0,5.266l-1.648,0Zm-58.987,0l-0,-5.284c-0,-0.813 0.182,-1.523 0.546,-2.132c0.365,-0.609 0.869,-1.084 1.514,-1.424c0.645,-0.341 1.38,-0.511 2.204,-0.511c0.836,0 1.574,0.17 2.213,0.511c0.639,0.34 1.141,0.815 1.505,1.424c0.365,0.609 0.547,1.319 0.547,2.132l-0,5.284l-1.649,0l0,-5.266c0,-0.55 -0.122,-1.025 -0.367,-1.425c-0.245,-0.4 -0.567,-0.707 -0.968,-0.922c-0.4,-0.215 -0.827,-0.323 -1.281,-0.323c-0.454,0 -0.881,0.108 -1.281,0.323c-0.4,0.215 -0.723,0.522 -0.967,0.922c-0.245,0.4 -0.368,0.875 -0.368,1.425l0,5.266l-1.648,0Zm-75.633,0c-1.004,0 -1.894,-0.188 -2.67,-0.564c-0.776,-0.376 -1.383,-0.908 -1.819,-1.594c-0.436,-0.687 -0.654,-1.49 -0.654,-2.41c0,-0.907 0.185,-1.723 0.556,-2.445c0.37,-0.723 0.884,-1.293 1.541,-1.711c0.657,-0.418 1.421,-0.627 2.293,-0.627c0.944,0 1.729,0.203 2.356,0.609c0.628,0.406 1.096,0.953 1.407,1.639c0.311,0.687 0.466,1.454 0.466,2.302c-0,0.132 -0.003,0.269 -0.009,0.412c-0.006,0.144 -0.021,0.269 -0.045,0.377l-6.809,-0c0.06,0.561 0.245,1.036 0.556,1.424c0.31,0.388 0.707,0.68 1.191,0.878c0.484,0.197 1.019,0.295 1.604,0.295l2.383,0l0,1.415l-2.347,0Zm205.719,0l0,-1.522l5.429,-0c0.419,-0 0.777,-0.099 1.076,-0.296c0.298,-0.197 0.531,-0.451 0.698,-0.761c0.168,-0.311 0.251,-0.639 0.251,-0.986c0,-0.358 -0.08,-0.689 -0.242,-0.994c-0.161,-0.304 -0.388,-0.549 -0.681,-0.734c-0.292,-0.185 -0.648,-0.278 -1.066,-0.278l-2.365,-0c-0.705,-0 -1.326,-0.146 -1.863,-0.439c-0.538,-0.293 -0.959,-0.699 -1.264,-1.218c-0.304,-0.52 -0.457,-1.108 -0.457,-1.765c0,-0.669 0.147,-1.272 0.439,-1.809c0.293,-0.537 0.705,-0.961 1.237,-1.272c0.531,-0.311 1.144,-0.466 1.836,-0.466l5.322,0l0,1.523l-5.16,-0c-0.395,-0 -0.741,0.093 -1.04,0.278c-0.298,0.185 -0.525,0.424 -0.681,0.716c-0.155,0.293 -0.232,0.606 -0.232,0.941c-0,0.322 0.074,0.63 0.224,0.922c0.149,0.293 0.37,0.529 0.663,0.708c0.292,0.179 0.63,0.269 1.012,0.269l2.419,-0c0.752,-0 1.397,0.149 1.935,0.448c0.538,0.298 0.95,0.704 1.236,1.218c0.287,0.513 0.43,1.098 0.43,1.755c0,0.729 -0.146,1.377 -0.439,1.944c-0.292,0.567 -0.707,1.012 -1.245,1.335c-0.537,0.322 -1.153,0.483 -1.845,0.483l-5.627,0Zm-135.659,0c-1.003,0 -1.893,-0.188 -2.67,-0.564c-0.776,-0.376 -1.382,-0.908 -1.818,-1.594c-0.436,-0.687 -0.654,-1.49 -0.654,-2.41c-0,-0.907 0.185,-1.723 0.555,-2.445c0.37,-0.723 0.884,-1.293 1.541,-1.711c0.657,-0.418 1.422,-0.627 2.294,-0.627c0.943,0 1.729,0.203 2.356,0.609c0.627,0.406 1.096,0.953 1.406,1.639c0.311,0.687 0.466,1.454 0.466,2.302c0,0.132 -0.003,0.269 -0.009,0.412c-0.006,0.144 -0.021,0.269 -0.044,0.377l-6.809,-0c0.059,0.561 0.244,1.036 0.555,1.424c0.311,0.388 0.708,0.68 1.192,0.878c0.483,0.197 1.018,0.295 1.603,0.295l2.383,0l0,1.415l-2.347,0Zm60.295,0l0,-9.136l1.666,-0l0,9.136l-1.666,0Zm-9.837,0c-1.003,0 -1.893,-0.188 -2.67,-0.564c-0.776,-0.376 -1.383,-0.908 -1.819,-1.594c-0.436,-0.687 -0.654,-1.49 -0.654,-2.41c0,-0.907 0.186,-1.723 0.556,-2.445c0.37,-0.723 0.884,-1.293 1.541,-1.711c0.657,-0.418 1.421,-0.627 2.293,-0.627c0.944,0 1.729,0.203 2.357,0.609c0.627,0.406 1.096,0.953 1.406,1.639c0.311,0.687 0.466,1.454 0.466,2.302c0,0.132 -0.003,0.269 -0.009,0.412c-0.006,0.144 -0.021,0.269 -0.045,0.377l-6.809,-0c0.06,0.561 0.245,1.036 0.556,1.424c0.31,0.388 0.708,0.68 1.191,0.878c0.484,0.197 1.019,0.295 1.604,0.295l2.383,0l0,1.415l-2.347,0Zm5.573,0l-0,-13.077l1.648,-0l-0,13.077l-1.648,0Zm-15.804,0l-0,-7.721l-1.595,0l-0,-1.415l1.595,-0l-0,-1.344c-0,-0.812 0.23,-1.448 0.689,-1.907c0.46,-0.46 1.096,-0.69 1.909,-0.69l2.257,-0l0,1.415l-1.935,0c-0.406,0 -0.716,0.114 -0.931,0.34c-0.215,0.227 -0.323,0.544 -0.323,0.95l0,1.236l2.831,-0l0,1.415l-2.831,0l0,7.721l-1.666,0Zm125.517,0l-0,-9.136l1.666,-0l0,9.136l-1.666,0Zm-18.85,0l-0,-9.136l1.666,-0l0,9.136l-1.666,0Zm-25.874,-1.2c0.597,0 1.126,-0.146 1.586,-0.439c0.46,-0.292 0.818,-0.698 1.075,-1.218c0.257,-0.52 0.385,-1.102 0.385,-1.747c0,-0.633 -0.122,-1.2 -0.367,-1.702c-0.245,-0.501 -0.595,-0.898 -1.048,-1.191c-0.454,-0.292 -0.986,-0.439 -1.595,-0.439c-0.645,0 -1.198,0.15 -1.658,0.448c-0.46,0.299 -0.812,0.702 -1.057,1.209c-0.245,0.508 -0.367,1.084 -0.367,1.729c-0,0.621 0.119,1.185 0.358,1.693c0.239,0.508 0.586,0.911 1.04,1.209c0.453,0.299 1.003,0.448 1.648,0.448Zm-41.015,0c0.633,0 1.183,-0.149 1.649,-0.448c0.465,-0.298 0.83,-0.701 1.093,-1.209c0.262,-0.508 0.394,-1.078 0.394,-1.711c-0,-0.633 -0.132,-1.203 -0.394,-1.711c-0.263,-0.507 -0.628,-0.91 -1.093,-1.209c-0.466,-0.298 -1.016,-0.448 -1.649,-0.448c-0.621,0 -1.168,0.15 -1.639,0.448c-0.472,0.299 -0.84,0.702 -1.102,1.209c-0.263,0.508 -0.395,1.078 -0.395,1.711c0,0.633 0.132,1.203 0.395,1.711c0.262,0.508 0.63,0.911 1.102,1.209c0.471,0.299 1.018,0.448 1.639,0.448Zm-113.655,0c0.597,0 1.126,-0.146 1.585,-0.439c0.46,-0.292 0.819,-0.698 1.076,-1.218c0.256,-0.52 0.385,-1.102 0.385,-1.747c-0,-0.633 -0.123,-1.2 -0.368,-1.702c-0.244,-0.501 -0.594,-0.898 -1.048,-1.191c-0.454,-0.292 -0.985,-0.439 -1.594,-0.439c-0.646,0 -1.198,0.15 -1.658,0.448c-0.46,0.299 -0.812,0.702 -1.057,1.209c-0.245,0.508 -0.367,1.084 -0.367,1.729c-0,0.621 0.119,1.185 0.358,1.693c0.239,0.508 0.585,0.911 1.039,1.209c0.454,0.299 1.004,0.448 1.649,0.448Zm61.674,0c0.633,0 1.183,-0.149 1.649,-0.448c0.466,-0.298 0.83,-0.701 1.093,-1.209c0.263,-0.508 0.394,-1.078 0.394,-1.711c-0,-0.633 -0.131,-1.203 -0.394,-1.711c-0.263,-0.507 -0.627,-0.91 -1.093,-1.209c-0.466,-0.298 -1.016,-0.448 -1.649,-0.448c-0.621,0 -1.167,0.15 -1.639,0.448c-0.472,0.299 -0.839,0.702 -1.102,1.209c-0.263,0.508 -0.394,1.078 -0.394,1.711c-0,0.633 0.131,1.203 0.394,1.711c0.263,0.508 0.63,0.911 1.102,1.209c0.472,0.299 1.018,0.448 1.639,0.448Zm-78.768,0c0.633,0 1.182,-0.149 1.648,-0.448c0.466,-0.298 0.83,-0.701 1.093,-1.209c0.263,-0.508 0.394,-1.078 0.394,-1.711c0,-0.633 -0.131,-1.203 -0.394,-1.711c-0.263,-0.507 -0.627,-0.91 -1.093,-1.209c-0.466,-0.298 -1.015,-0.448 -1.648,-0.448c-0.622,0 -1.168,0.15 -1.64,0.448c-0.472,0.299 -0.839,0.702 -1.102,1.209c-0.263,0.508 -0.394,1.078 -0.394,1.711c-0,0.633 0.131,1.203 0.394,1.711c0.263,0.508 0.63,0.911 1.102,1.209c0.472,0.299 1.018,0.448 1.64,0.448Zm236.073,-0.107c0.609,-0 1.143,-0.144 1.603,-0.43c0.46,-0.287 0.819,-0.678 1.075,-1.174c0.257,-0.495 0.386,-1.054 0.386,-1.675c-0,-0.633 -0.126,-1.2 -0.377,-1.702c-0.251,-0.501 -0.603,-0.898 -1.057,-1.191c-0.454,-0.293 -0.997,-0.439 -1.63,-0.439c-0.622,0 -1.156,0.146 -1.604,0.439c-0.448,0.293 -0.794,0.693 -1.039,1.2c-0.245,0.508 -0.368,1.078 -0.368,1.711c0,0.597 0.123,1.144 0.368,1.639c0.245,0.496 0.591,0.89 1.039,1.183c0.448,0.292 0.982,0.439 1.604,0.439Zm-279.812,-3.243l5.501,0l-2.24,-6.216c-0.059,-0.155 -0.125,-0.275 -0.197,-0.359c-0.071,-0.083 -0.173,-0.125 -0.304,-0.125c-0.12,0 -0.215,0.042 -0.287,0.125c-0.072,0.084 -0.131,0.204 -0.179,0.359l-2.294,6.216Zm141.536,-0.627l5.215,0c-0,-0.227 -0.024,-0.469 -0.072,-0.725c-0.048,-0.257 -0.131,-0.508 -0.251,-0.753c-0.119,-0.245 -0.278,-0.466 -0.475,-0.663c-0.197,-0.197 -0.442,-0.355 -0.734,-0.474c-0.293,-0.12 -0.636,-0.18 -1.031,-0.18c-0.418,0 -0.785,0.081 -1.102,0.242c-0.316,0.162 -0.588,0.376 -0.815,0.645c-0.227,0.269 -0.4,0.57 -0.52,0.905c-0.119,0.334 -0.191,0.669 -0.215,1.003Zm-50.457,0l5.214,0c-0,-0.227 -0.024,-0.469 -0.072,-0.725c-0.048,-0.257 -0.131,-0.508 -0.251,-0.753c-0.119,-0.245 -0.277,-0.466 -0.474,-0.663c-0.198,-0.197 -0.442,-0.355 -0.735,-0.474c-0.293,-0.12 -0.636,-0.18 -1.03,-0.18c-0.419,0 -0.786,0.081 -1.102,0.242c-0.317,0.162 -0.589,0.376 -0.816,0.645c-0.227,0.269 -0.4,0.57 -0.519,0.905c-0.12,0.334 -0.191,0.669 -0.215,1.003Zm-70.061,0l5.215,0c-0,-0.227 -0.024,-0.469 -0.072,-0.725c-0.048,-0.257 -0.132,-0.508 -0.251,-0.753c-0.119,-0.245 -0.278,-0.466 -0.475,-0.663c-0.197,-0.197 -0.442,-0.355 -0.734,-0.474c-0.293,-0.12 -0.637,-0.18 -1.031,-0.18c-0.418,0 -0.785,0.081 -1.102,0.242c-0.316,0.162 -0.588,0.376 -0.815,0.645c-0.227,0.269 -0.4,0.57 -0.52,0.905c-0.119,0.334 -0.191,0.669 -0.215,1.003Zm204,-2.544l-3.226,0l0,-1.415l1.577,-0l0,-2.293l1.649,-0l-0,3.708Zm22.792,0l-3.226,0l0,-1.415l1.577,-0l0,-2.293l1.649,-0l-0,3.708Zm7.292,0l-3.225,0l0,-1.415l1.577,-0l-0,-2.293l1.648,-0l0,3.708Zm-141.733,0l-3.225,0l-0,-1.415l1.576,-0l0,-2.293l1.649,-0l-0,3.708Zm-26.949,-2.866c-0.299,-0 -0.559,-0.111 -0.78,-0.332c-0.221,-0.22 -0.331,-0.48 -0.331,-0.779c0,-0.298 0.11,-0.558 0.331,-0.779c0.221,-0.221 0.481,-0.331 0.78,-0.331c0.299,-0 0.558,0.11 0.779,0.331c0.221,0.221 0.332,0.481 0.332,0.779c-0,0.299 -0.111,0.559 -0.332,0.779c-0.221,0.221 -0.48,0.332 -0.779,0.332Zm69.2,-0c-0.298,-0 -0.558,-0.111 -0.779,-0.332c-0.221,-0.22 -0.332,-0.48 -0.332,-0.779c0,-0.298 0.111,-0.558 0.332,-0.779c0.221,-0.221 0.481,-0.331 0.779,-0.331c0.299,-0 0.559,0.11 0.78,0.331c0.221,0.221 0.331,0.481 0.331,0.779c0,0.299 -0.11,0.559 -0.331,0.779c-0.221,0.221 -0.481,0.332 -0.78,0.332Zm86.599,-0c-0.299,-0 -0.558,-0.111 -0.779,-0.332c-0.221,-0.22 -0.332,-0.48 -0.332,-0.779c0,-0.298 0.111,-0.558 0.332,-0.779c0.221,-0.221 0.48,-0.331 0.779,-0.331c0.299,-0 0.559,0.11 0.78,0.331c0.221,0.221 0.331,0.481 0.331,0.779c0,0.299 -0.11,0.559 -0.331,0.779c-0.221,0.221 -0.481,0.332 -0.78,0.332Zm18.85,-0c-0.299,-0 -0.558,-0.111 -0.779,-0.332c-0.221,-0.22 -0.332,-0.48 -0.332,-0.779c0,-0.298 0.111,-0.558 0.332,-0.779c0.221,-0.221 0.48,-0.331 0.779,-0.331c0.299,-0 0.559,0.11 0.78,0.331c0.221,0.221 0.331,0.481 0.331,0.779c0,0.299 -0.11,0.559 -0.331,0.779c-0.221,0.221 -0.481,0.332 -0.78,0.332Zm-136.819,-10.668c-1.436,0 -2.735,-0.239 -3.897,-0.718c-1.162,-0.478 -2.162,-1.144 -3,-1.999c-0.837,-0.854 -1.482,-1.845 -1.935,-2.973c-0.453,-1.128 -0.68,-2.341 -0.68,-3.64c0,-1.299 0.227,-2.512 0.68,-3.64c0.453,-1.128 1.094,-2.115 1.923,-2.961c0.829,-0.846 1.828,-1.504 2.999,-1.973c1.171,-0.47 2.474,-0.705 3.91,-0.705c1.419,-0 2.714,0.235 3.884,0.705c1.171,0.469 2.171,1.127 3,1.973c0.829,0.846 1.474,1.837 1.936,2.974c0.461,1.136 0.692,2.345 0.692,3.627c0,1.299 -0.231,2.512 -0.692,3.64c-0.462,1.128 -1.107,2.119 -1.936,2.973c-0.829,0.855 -1.829,1.521 -3,1.999c-1.17,0.479 -2.465,0.718 -3.884,0.718Zm-102.579,0c-1.436,0 -2.735,-0.239 -3.897,-0.718c-1.163,-0.478 -2.163,-1.144 -3,-1.999c-0.838,-0.854 -1.483,-1.845 -1.936,-2.973c-0.453,-1.128 -0.679,-2.341 -0.679,-3.64c-0,-1.299 0.226,-2.512 0.679,-3.64c0.453,-1.128 1.094,-2.115 1.923,-2.961c0.829,-0.846 1.829,-1.504 3,-1.973c1.171,-0.47 2.474,-0.705 3.91,-0.705c1.418,-0 2.713,0.235 3.884,0.705c1.171,0.469 2.171,1.127 3,1.973c0.828,0.846 1.474,1.837 1.935,2.974c0.462,1.136 0.692,2.345 0.692,3.627c0,1.299 -0.23,2.512 -0.692,3.64c-0.461,1.128 -1.107,2.119 -1.935,2.973c-0.829,0.855 -1.829,1.521 -3,1.999c-1.171,0.479 -2.466,0.718 -3.884,0.718Zm24.433,-0.025c-1.077,-0 -2.042,-0.235 -2.897,-0.705c-0.855,-0.47 -1.53,-1.124 -2.026,-1.961c-0.495,-0.838 -0.743,-1.786 -0.743,-2.846l-0,-7.843c-0,-0.274 -0.068,-0.521 -0.205,-0.744c-0.137,-0.222 -0.316,-0.401 -0.539,-0.538c-0.222,-0.137 -0.47,-0.205 -0.743,-0.205c-0.274,0 -0.521,0.068 -0.744,0.205c-0.222,0.137 -0.397,0.316 -0.525,0.538c-0.128,0.223 -0.192,0.47 -0.192,0.744l-0,13.047l-4.205,-0l-0,-12.74c-0,-1.076 0.243,-2.025 0.731,-2.845c0.487,-0.82 1.162,-1.47 2.025,-1.948c0.863,-0.479 1.833,-0.718 2.91,-0.718c1.094,0 2.068,0.239 2.923,0.718c0.854,0.478 1.529,1.128 2.025,1.948c0.496,0.82 0.744,1.769 0.744,2.845l-0,7.844c-0,0.273 0.068,0.526 0.205,0.756c0.137,0.231 0.312,0.41 0.525,0.539c0.214,0.128 0.449,0.192 0.705,0.192c0.274,-0 0.526,-0.064 0.757,-0.192c0.231,-0.129 0.414,-0.308 0.551,-0.539c0.137,-0.23 0.205,-0.483 0.205,-0.756l0,-13.047l4.179,-0l0,12.739c0,1.06 -0.248,2.008 -0.743,2.846c-0.496,0.837 -1.171,1.491 -2.026,1.961c-0.854,0.47 -1.82,0.705 -2.897,0.705Zm212.312,-0c-1.076,-0 -2.042,-0.235 -2.897,-0.705c-0.854,-0.47 -1.53,-1.124 -2.025,-1.961c-0.496,-0.838 -0.744,-1.786 -0.744,-2.846l0,-7.843c0,-0.274 -0.068,-0.521 -0.205,-0.744c-0.137,-0.222 -0.316,-0.401 -0.538,-0.538c-0.222,-0.137 -0.47,-0.205 -0.744,-0.205c-0.273,0 -0.521,0.068 -0.743,0.205c-0.222,0.137 -0.398,0.316 -0.526,0.538c-0.128,0.223 -0.192,0.47 -0.192,0.744l-0,13.047l-4.205,-0l0,-12.74c0,-1.076 0.244,-2.025 0.731,-2.845c0.487,-0.82 1.162,-1.47 2.025,-1.948c0.863,-0.479 1.833,-0.718 2.91,-0.718c1.094,0 2.068,0.239 2.923,0.718c0.855,0.478 1.53,1.128 2.025,1.948c0.496,0.82 0.744,1.769 0.744,2.845l-0,7.844c-0,0.273 0.068,0.526 0.205,0.756c0.137,0.231 0.312,0.41 0.526,0.539c0.213,0.128 0.448,0.192 0.705,0.192c0.273,-0 0.525,-0.064 0.756,-0.192c0.231,-0.129 0.415,-0.308 0.551,-0.539c0.137,-0.23 0.205,-0.483 0.205,-0.756l0,-13.047l4.179,-0l0,12.739c0,1.06 -0.247,2.008 -0.743,2.846c-0.496,0.837 -1.171,1.491 -2.025,1.961c-0.855,0.47 -1.821,0.705 -2.898,0.705Zm-179.931,-0c-1.487,-0 -2.807,-0.299 -3.961,-0.898c-1.153,-0.598 -2.055,-1.452 -2.705,-2.563c-0.649,-1.111 -0.974,-2.435 -0.974,-3.973l0,-10.817l4.256,-0l0,11.048c0,0.666 0.137,1.269 0.41,1.807c0.274,0.538 0.667,0.965 1.18,1.281c0.513,0.317 1.111,0.475 1.794,0.475c0.701,-0 1.304,-0.158 1.808,-0.475c0.504,-0.316 0.893,-0.743 1.167,-1.281c0.273,-0.538 0.41,-1.141 0.41,-1.807l-0,-11.048l4.256,-0l-0,10.817c-0,1.538 -0.329,2.862 -0.987,3.973c-0.658,1.111 -1.56,1.965 -2.705,2.563c-1.145,0.599 -2.461,0.898 -3.949,0.898Zm132.039,-0.308c-1.009,-0 -1.923,-0.235 -2.744,-0.705c-0.82,-0.47 -1.474,-1.102 -1.961,-1.897c-0.487,-0.794 -0.731,-1.696 -0.731,-2.704c0,-0.752 0.167,-1.457 0.5,-2.115c0.334,-0.658 0.782,-1.226 1.346,-1.704c-0.547,-0.462 -0.978,-1.009 -1.294,-1.641c-0.317,-0.632 -0.475,-1.299 -0.475,-1.999c0,-0.991 0.24,-1.876 0.718,-2.653c0.479,-0.778 1.12,-1.393 1.923,-1.846c0.803,-0.453 1.692,-0.679 2.666,-0.679l7.564,-0l-0,3.588l-6.897,0c-0.325,0 -0.624,0.077 -0.897,0.231c-0.274,0.154 -0.492,0.359 -0.654,0.615c-0.162,0.257 -0.244,0.556 -0.244,0.898c0,0.324 0.082,0.619 0.244,0.884c0.162,0.265 0.38,0.47 0.654,0.615c0.273,0.145 0.572,0.218 0.897,0.218l6.025,-0l0,3.589l-5.897,-0c-0.359,-0 -0.683,0.085 -0.974,0.256c-0.291,0.171 -0.521,0.393 -0.692,0.666c-0.171,0.274 -0.257,0.59 -0.257,0.949c0,0.342 0.086,0.653 0.257,0.935c0.171,0.282 0.401,0.5 0.692,0.654c0.291,0.154 0.615,0.231 0.974,0.231l6.769,-0l-0,3.614l-7.512,-0Zm-57.354,-0l0,-3.589l3.103,0l-0,-10.766l-3.103,0l0,-3.588l10.487,-0l-0,3.588l-3.103,0l0,10.766l3.103,0l-0,3.589l-10.487,-0Zm-145.395,-0c-1.47,-0 -2.795,-0.226 -3.974,-0.679c-1.18,-0.453 -2.18,-1.09 -3,-1.91c-0.821,-0.82 -1.453,-1.773 -1.897,-2.858c-0.445,-1.085 -0.667,-2.26 -0.667,-3.525c0,-1.264 0.222,-2.439 0.667,-3.524c0.444,-1.085 1.081,-2.038 1.91,-2.858c0.829,-0.82 1.829,-1.457 2.999,-1.91c1.171,-0.453 2.492,-0.679 3.962,-0.679l2.768,-0l0,3.588l-2.666,0c-0.803,0 -1.534,0.137 -2.192,0.411c-0.658,0.273 -1.222,0.653 -1.692,1.14c-0.47,0.487 -0.829,1.055 -1.077,1.705c-0.248,0.649 -0.372,1.358 -0.372,2.127c0,0.769 0.124,1.479 0.372,2.128c0.248,0.649 0.607,1.218 1.077,1.705c0.47,0.487 1.034,0.867 1.692,1.14c0.658,0.274 1.389,0.41 2.192,0.41l2.666,0l0,3.589l-2.768,-0Zm102.989,-0c-1.094,-0 -2.055,-0.244 -2.884,-0.731c-0.829,-0.487 -1.478,-1.14 -1.949,-1.96c-0.47,-0.821 -0.705,-1.735 -0.705,-2.743l0,-8.921l-4.871,0l0,-3.588l14.024,-0l0,3.588l-4.845,0l-0,9.305c-0,0.393 0.136,0.735 0.41,1.026c0.273,0.29 0.615,0.435 1.025,0.435l1.411,0l-0,3.589l-1.616,-0Zm-55.917,-0l-0,-3.589l7.666,0c0.342,0 0.649,-0.085 0.923,-0.256c0.273,-0.171 0.491,-0.393 0.653,-0.666c0.163,-0.274 0.244,-0.573 0.244,-0.898c0,-0.341 -0.081,-0.649 -0.244,-0.922c-0.162,-0.274 -0.38,-0.496 -0.653,-0.667c-0.274,-0.171 -0.581,-0.256 -0.923,-0.256l-2.769,-0c-1.043,-0 -1.992,-0.205 -2.846,-0.615c-0.855,-0.411 -1.534,-1.013 -2.038,-1.808c-0.505,-0.794 -0.757,-1.747 -0.757,-2.858c0,-1.093 0.24,-2.042 0.718,-2.845c0.479,-0.803 1.128,-1.431 1.949,-1.884c0.82,-0.453 1.726,-0.679 2.717,-0.679l7.923,-0l-0,3.588l-7.436,0c-0.307,0 -0.589,0.077 -0.846,0.231c-0.256,0.154 -0.453,0.359 -0.589,0.615c-0.137,0.257 -0.205,0.539 -0.205,0.846c-0,0.308 0.068,0.586 0.205,0.833c0.136,0.248 0.333,0.449 0.589,0.603c0.257,0.153 0.539,0.23 0.846,0.23l2.898,0c1.145,0 2.14,0.218 2.987,0.654c0.846,0.436 1.504,1.042 1.974,1.82c0.47,0.778 0.705,1.687 0.705,2.73c-0,1.23 -0.244,2.277 -0.731,3.14c-0.487,0.863 -1.141,1.521 -1.961,1.974c-0.821,0.453 -1.727,0.679 -2.718,0.679l-8.281,-0Zm136.371,-0l-0,-12.637c-0,-0.991 0.243,-1.888 0.731,-2.692c0.487,-0.803 1.145,-1.439 1.974,-1.909c0.829,-0.47 1.756,-0.705 2.782,-0.705l6.691,-0l0,3.588l-6.153,0c-0.479,0 -0.885,0.171 -1.218,0.513c-0.333,0.342 -0.5,0.761 -0.5,1.256l0,2.589l6.999,0l0,3.563l-6.999,0l0,6.434l-4.307,-0Zm41.355,-0l-0,-3.589l3.102,0l0,-10.766l-3.102,0l-0,-3.588l10.486,-0l-0,3.588l-3.102,0l-0,10.766l3.102,0l-0,3.589l-10.486,-0Zm-96.529,-0l-0,-17.943l8.204,-0c1.214,-0 2.32,0.265 3.32,0.794c1,0.53 1.795,1.265 2.385,2.205c0.589,0.94 0.884,2.025 0.884,3.255c0,1.145 -0.273,2.175 -0.82,3.089c-0.547,0.914 -1.265,1.653 -2.154,2.217l1.436,2.435c0.085,0.12 0.184,0.214 0.295,0.282c0.111,0.069 0.26,0.103 0.448,0.103l1.59,-0l0,3.563l-2.512,-0c-0.77,-0 -1.47,-0.184 -2.103,-0.551c-0.632,-0.368 -1.128,-0.85 -1.487,-1.448l-1.923,-3.41l-3.256,0l0,5.409l-4.307,-0Zm129.449,-0l5.82,-15.867c0.29,-0.786 0.769,-1.38 1.435,-1.781c0.667,-0.402 1.419,-0.603 2.256,-0.603c0.838,0 1.59,0.192 2.257,0.577c0.666,0.384 1.145,0.978 1.435,1.781l5.846,15.893l-4.641,-0l-1.128,-3.46l-7.614,-0l-1.18,3.46l-4.486,-0Zm-39.561,-0c-1.111,-0 -2.085,-0.248 -2.922,-0.743c-0.838,-0.496 -1.487,-1.154 -1.949,-1.974c-0.461,-0.82 -0.692,-1.726 -0.692,-2.717l-0,-12.509l4.307,-0l0,12.816c0,0.41 0.145,0.769 0.436,1.077c0.291,0.308 0.649,0.461 1.077,0.461l4.743,0l-0,3.589l-5,-0Zm-131.448,-0c-1.111,-0 -2.085,-0.248 -2.923,-0.743c-0.837,-0.496 -1.487,-1.154 -1.948,-1.974c-0.462,-0.82 -0.693,-1.726 -0.693,-2.717l0,-12.509l4.308,-0l-0,12.816c-0,0.41 0.145,0.769 0.435,1.077c0.291,0.308 0.65,0.461 1.077,0.461l4.743,0l0,3.589l-4.999,-0Zm70.326,-0l5.82,-15.867c0.291,-0.786 0.769,-1.38 1.436,-1.781c0.667,-0.402 1.419,-0.603 2.256,-0.603c0.838,0 1.59,0.192 2.256,0.577c0.667,0.384 1.146,0.978 1.436,1.781l5.846,15.893l-4.641,-0l-1.128,-3.46l-7.615,-0l-1.179,3.46l-4.487,-0Zm-143.139,-3.332c0.752,-0 1.448,-0.141 2.089,-0.423c0.641,-0.282 1.192,-0.68 1.654,-1.192c0.461,-0.513 0.82,-1.115 1.077,-1.807c0.256,-0.692 0.384,-1.44 0.384,-2.243c0,-0.803 -0.128,-1.547 -0.384,-2.23c-0.257,-0.684 -0.616,-1.282 -1.077,-1.795c-0.462,-0.512 -1.013,-0.91 -1.654,-1.192c-0.641,-0.282 -1.337,-0.423 -2.089,-0.423c-0.77,0 -1.47,0.141 -2.103,0.423c-0.632,0.282 -1.183,0.68 -1.653,1.192c-0.47,0.513 -0.829,1.115 -1.077,1.808c-0.248,0.692 -0.372,1.431 -0.372,2.217c-0,0.803 0.124,1.551 0.372,2.243c0.248,0.692 0.607,1.294 1.077,1.807c0.47,0.512 1.021,0.91 1.653,1.192c0.633,0.282 1.333,0.423 2.103,0.423Zm102.579,-0c0.752,-0 1.449,-0.141 2.09,-0.423c0.641,-0.282 1.192,-0.68 1.653,-1.192c0.462,-0.513 0.821,-1.115 1.077,-1.807c0.257,-0.692 0.385,-1.44 0.385,-2.243c-0,-0.803 -0.128,-1.547 -0.385,-2.23c-0.256,-0.684 -0.615,-1.282 -1.077,-1.795c-0.461,-0.512 -1.012,-0.91 -1.653,-1.192c-0.641,-0.282 -1.338,-0.423 -2.09,-0.423c-0.769,0 -1.47,0.141 -2.102,0.423c-0.633,0.282 -1.184,0.68 -1.654,1.192c-0.47,0.513 -0.829,1.115 -1.077,1.808c-0.248,0.692 -0.371,1.431 -0.371,2.217c-0,0.803 0.123,1.551 0.371,2.243c0.248,0.692 0.607,1.294 1.077,1.807c0.47,0.512 1.021,0.91 1.654,1.192c0.632,0.282 1.333,0.423 2.102,0.423Zm47.329,-3.691l5.41,-0l-2.282,-7.152c-0.034,-0.103 -0.081,-0.175 -0.141,-0.218c-0.06,-0.043 -0.133,-0.064 -0.218,-0.064c-0.086,-0 -0.158,0.026 -0.218,0.077c-0.06,0.051 -0.098,0.119 -0.116,0.205l-2.435,7.152Zm100.682,-0l5.41,-0l-2.282,-7.152c-0.034,-0.103 -0.081,-0.175 -0.141,-0.218c-0.06,-0.043 -0.132,-0.064 -0.218,-0.064c-0.085,-0 -0.158,0.026 -0.218,0.077c-0.06,0.051 -0.098,0.119 -0.115,0.205l-2.436,7.152Zm-131.91,-1.949l3.41,0c0.496,0 0.957,-0.106 1.385,-0.32c0.427,-0.214 0.764,-0.521 1.012,-0.923c0.248,-0.401 0.372,-0.884 0.372,-1.448c0,-0.564 -0.128,-1.047 -0.385,-1.448c-0.256,-0.402 -0.594,-0.71 -1.012,-0.923c-0.419,-0.214 -0.876,-0.321 -1.372,-0.321l-3.41,0l0,5.383Zm16.101,-10.689l2.231,-3.255l3.538,0l-2.231,3.255l-3.538,0Z" style="fill:#142100;fill-rule:nonzero;"/></svg>