<?xml version="1.0" encoding="UTF-8" standalone="no"?><!DOCTYPE svg PUBLIC "-//W3C//DTD SVG 1.1//EN" "http://www.w3.org/Graphics/SVG/1.1/DTD/svg11.dtd"><svg width="100%" height="100%" viewBox="0 0 50 50" version="1.1" xmlns="http://www.w3.org/2000/svg" xmlns:xlink="http://www.w3.org/1999/xlink" xml:space="preserve" xmlns:serif="http://www.serif.com/" style="fill-rule:evenodd;clip-rule:evenodd;stroke-linejoin:round;stroke-miterlimit:2;"><path d="M45.969,4.134c-2.623,-2.707 -6.353,-4.134 -10.585,-4.134l-20.768,0c-8.769,0 -14.616,5.867 -14.616,14.64l0,20.645c0,4.328 1.411,8.07 4.232,10.782c2.724,2.625 6.353,3.94 10.485,3.94l20.566,-0c4.333,-0 7.962,-1.397 10.585,-3.94c2.721,-2.6 4.132,-6.342 4.132,-10.67l-0,-20.757c-0,-4.247 -1.411,-7.88 -4.031,-10.506Zm-0.405,31.263c-0,3.126 -1.109,5.643 -2.922,7.346c-1.816,1.733 -4.336,2.625 -7.359,2.625l-20.566,0c-3.023,0 -5.543,-0.892 -7.359,-2.625c-1.813,-1.815 -2.721,-4.332 -2.721,-7.458l0,-20.645c0,-3.048 0.908,-5.561 2.721,-7.376c1.716,-1.703 4.336,-2.626 7.359,-2.626l20.767,0c3.023,0 5.543,0.923 7.359,2.738c1.712,1.815 2.721,4.328 2.721,7.264l-0,20.757Zm-20.564,-23.383c-7.057,0 -12.904,5.726 -12.904,12.903c0,7.152 5.747,12.907 12.904,12.907c7.157,0 12.904,-5.867 12.904,-12.907c-0,-7.065 -5.847,-12.903 -12.904,-12.903Zm-0,21.176c-4.537,-0 -8.266,-3.746 -8.266,-8.273c-0,-4.552 3.729,-8.268 8.266,-8.268c4.537,-0 8.266,3.716 8.266,8.268c0,4.527 -3.729,8.273 -8.266,8.273Zm13.407,-24.417c1.614,-0 2.925,1.311 2.925,2.931c-0,1.621 -1.311,2.936 -2.925,2.936c-1.612,-0 -2.923,-1.315 -2.923,-2.936c0,-1.62 1.311,-2.931 2.923,-2.931Z" style="fill:#eb7a97;fill-rule:nonzero;"/></svg>