<?xml version="1.0" encoding="UTF-8" standalone="no"?><!DOCTYPE svg PUBLIC "-//W3C//DTD SVG 1.1//EN" "http://www.w3.org/Graphics/SVG/1.1/DTD/svg11.dtd"><svg width="100%" height="100%" viewBox="0 0 50 50" version="1.1" xmlns="http://www.w3.org/2000/svg" xmlns:xlink="http://www.w3.org/1999/xlink" xml:space="preserve" xmlns:serif="http://www.serif.com/" style="fill-rule:evenodd;clip-rule:evenodd;stroke-linejoin:round;stroke-miterlimit:2;"><path d="M2.189,18.381c-2.845,-3.627 -2.533,-8.808 0.727,-12.068c1.854,-1.876 3.824,-3.845 5.284,-5.306c0.598,-0.598 1.41,-0.934 2.256,-0.934c0.846,-0 1.658,0.336 2.256,0.934c1.634,1.634 3.864,3.864 5.674,5.674c0.727,0.727 1.059,1.761 0.892,2.776c-0.168,1.015 -0.815,1.887 -1.738,2.342c-0.057,0.028 -0.115,0.057 -0.172,0.085c-1.351,0.666 -2.33,1.904 -2.667,3.371c-0.336,1.467 0.006,3.008 0.931,4.196c3.977,4.885 8.902,9.781 14.881,14.677c1.179,0.965 2.733,1.34 4.222,1.017c1.489,-0.322 2.749,-1.306 3.422,-2.672c0.016,-0.007 0.022,-0.018 0.027,-0.03c0.455,-0.923 1.327,-1.569 2.342,-1.737c1.015,-0.168 2.049,0.164 2.777,0.892c1.809,1.809 4.039,4.039 5.673,5.673c0.598,0.599 0.935,1.41 0.935,2.256c-0,0.847 -0.337,1.658 -0.935,2.257c-1.465,1.465 -3.443,3.443 -5.314,5.313c-3.259,3.26 -8.438,3.578 -12.072,0.742c-10.94,-8.681 -20.719,-18.522 -29.401,-29.458Z" style="fill:#eb7a97;"/></svg>