<?xml version="1.0" encoding="UTF-8" standalone="no"?><!DOCTYPE svg PUBLIC "-//W3C//DTD SVG 1.1//EN" "http://www.w3.org/Graphics/SVG/1.1/DTD/svg11.dtd"><svg width="100%" height="100%" viewBox="0 0 50 50" version="1.1" xmlns="http://www.w3.org/2000/svg" xmlns:xlink="http://www.w3.org/1999/xlink" xml:space="preserve" xmlns:serif="http://www.serif.com/" style="fill-rule:evenodd;clip-rule:evenodd;stroke-linejoin:round;stroke-miterlimit:10;"><path d="M36.161,29.863c-0.603,-0.301 -3.587,-1.771 -4.139,-1.982c-0.558,-0.18 -0.96,-0.3 -1.366,0.301c-0.405,0.6 -1.566,1.951 -1.921,2.401c-0.351,0.39 -0.705,0.45 -1.311,0.15c-0.607,-0.3 -2.558,-0.931 -4.872,-3.002c-1.807,-1.65 -3.022,-3.631 -3.377,-4.202c-0.351,-0.63 -0.036,-0.93 0.271,-1.26c0.273,-0.271 0.603,-0.691 0.906,-1.051c0.303,-0.36 0.405,-0.63 0.603,-1.02c0.205,-0.391 0.102,-0.781 -0.045,-1.051c-0.153,-0.3 -1.365,-3.302 -1.87,-4.502c-0.492,-1.171 -0.99,-1.021 -1.365,-1.051l-1.162,0c-0.405,0 -1.059,0.15 -1.618,0.72c-0.552,0.631 -2.119,2.102 -2.119,5.073c0,3.002 2.17,5.883 2.473,6.273c0.307,0.391 4.278,6.514 10.359,9.155c1.444,0.63 2.575,0.991 3.452,1.291c1.452,0.42 2.776,0.39 3.821,0.24c1.164,-0.21 3.583,-1.471 4.091,-2.882c0.501,-1.44 0.501,-2.671 0.354,-2.881c-0.15,-0.27 -0.558,-0.45 -1.165,-0.72m-11.057,15.097l-0.009,0c-3.62,0 -7.165,-0.99 -10.266,-2.821l-0.732,-0.42l-7.636,1.981l2.038,-7.444l-0.477,-0.721c-2.02,-3.241 -3.083,-6.963 -3.083,-10.775c0.003,-11.106 9.05,-20.141 20.174,-20.141c5.384,0 10.448,2.102 14.251,5.914c3.809,3.841 5.904,8.884 5.901,14.287c-0.003,11.106 -9.05,20.14 -20.161,20.14m17.159,-37.309c-4.577,-4.592 -10.67,-7.114 -17.159,-7.114c-13.372,0 -24.256,10.866 -24.262,24.223c-0,4.292 1.114,8.464 3.239,12.156l-3.443,12.547l12.862,-3.332c3.544,1.891 7.53,2.911 11.592,2.911l0.012,0c13.368,0 24.255,-10.865 24.258,-24.222c0.003,-6.483 -2.518,-12.607 -7.099,-17.169" style="fill:#fff;stroke:#fff;stroke-width:1px;"/></svg>