<?xml version="1.0" encoding="UTF-8" standalone="no"?><!DOCTYPE svg PUBLIC "-//W3C//DTD SVG 1.1//EN" "http://www.w3.org/Graphics/SVG/1.1/DTD/svg11.dtd"><svg width="100%" height="100%" viewBox="0 0 376 963" version="1.1" xmlns="http://www.w3.org/2000/svg" xmlns:xlink="http://www.w3.org/1999/xlink" xml:space="preserve" xmlns:serif="http://www.serif.com/" style="fill-rule:evenodd;clip-rule:evenodd;stroke-linecap:round;stroke-linejoin:round;stroke-miterlimit:10;"><rect x="0" y="0" width="375.941" height="962.934" style="fill:none;"/><g><g><g><g><path d="M84.629,892.886c-5.29,1.18 -8.231,4.665 -10.226,9.569c-0.875,2.151 -1.486,3.775 0.126,5.616c1.836,2.098 3.78,0.606 5.538,-0.038c4.234,-1.559 7.649,-7.623 7.707,-12.109c0.033,-2.299 -1.53,-2.249 -2.641,-3.038" style="fill:none;fill-rule:nonzero;stroke:#9e445f;stroke-opacity:0.1;stroke-width:1.57px;"/><path d="M39.873,905.653c-5.289,1.181 -8.23,4.667 -10.225,9.57c-0.876,2.151 -1.488,3.774 0.124,5.616c1.838,2.098 3.781,0.607 5.538,-0.04c4.236,-1.558 7.648,-7.622 7.71,-12.107c0.031,-2.298 -1.531,-2.25 -2.643,-3.039" style="fill:none;fill-rule:nonzero;stroke:#9e445f;stroke-opacity:0.1;stroke-width:1.57px;"/><path d="M127.384,924.216c-0.419,-3.035 1.492,-5.149 3.062,-7.304c1.688,-2.309 3.574,-4.492 5.542,-6.57c1.495,-1.58 1.103,-2.443 -0.498,-3.617c-1.514,-1.115 -2.571,-2.866 -4.1,-3.954c-4.705,-3.354 -7.582,-8.581 -12.534,-11.743c-4.619,-2.951 -7.003,-7.977 -9.573,-12.598c-6.223,-11.194 -12.051,-22.613 -18.319,-33.783c-1.04,-1.853 -1.495,-5.337 -4.386,-4.844c-1.122,0.192 -1.776,3.416 -2.56,5.293c-4.221,10.106 -8.391,20.23 -12.66,30.314c-0.345,0.812 -1.187,1.591 -1.991,2.006c-7.031,3.6 -14.173,6.987 -21.13,10.719c-2.555,1.368 -4.33,1.622 -6.637,-0.526c-9.9,-9.211 -21.026,-16.826 -32.239,-24.307c-2.902,-1.936 -3.667,-1.411 -4.069,2.009c-0.888,7.599 -2.138,15.156 -2.937,22.762c-0.598,5.701 -0.737,11.454 -1.05,17.185c-0.072,1.343 0.116,2.711 -0.032,4.041c-0.532,4.752 -0.699,4.834 -5.523,5.065c-10.09,0.485 -20.177,1.005 -30.263,1.51" style="fill:none;fill-rule:nonzero;stroke:#9e445f;stroke-opacity:0.1;stroke-width:1.57px;"/><path d="M162.186,935.087c-6.547,-1.305 -12.977,-2.928 -19.196,-5.49c-4.559,-1.88 -9.484,-2.862 -14.054,-4.718c-2.515,-1.021 -3.725,0.159 -5.073,1.623c-5.361,5.813 -9.911,12.244 -13.565,19.235c-2.37,4.535 -6.164,6.676 -10.605,8.668c-7.145,3.205 -14.864,3.859 -22.239,5.964c-7.419,2.118 -15.027,3.242 -22.699,3.43c-4.02,0.097 -8.188,-0.454 -12.079,-1.499c-9.655,-2.594 -19.181,-5.665 -28.78,-8.478c-1.285,-0.376 -2.682,-0.366 -4.026,-0.534" style="fill:none;fill-rule:nonzero;stroke:#9e445f;stroke-opacity:0.1;stroke-width:1.57px;"/><path d="M174.29,899.696c-5.38,1.011 -10.728,2.244 -16.147,2.979c-7.145,0.969 -14.29,1.831 -21.177,4.099" style="fill:none;fill-rule:nonzero;stroke:#9e445f;stroke-opacity:0.1;stroke-width:1.57px;"/><path d="M-0.723,914.863c1.213,3.207 -0.012,6.134 -0.999,9.103c-1.666,5.01 -2.169,10.343 -4.457,15.209c-0.76,1.62 -1.731,2.627 -3.113,3.501c-10.294,6.511 -21.121,12.188 -30.77,19.712" style="fill:none;fill-rule:nonzero;stroke:#9e445f;stroke-opacity:0.1;stroke-width:1.57px;"/><path d="M-6.774,942.671c3.447,2.615 6.93,5.134 11.078,6.623c1.459,0.524 2.687,1.67 4.058,2.466c1.711,0.997 1.135,2.313 0.483,3.541c-1.974,3.732 -4.141,7.364 -6.008,11.146c-2.8,5.675 -5.407,11.446 -8.099,17.175" style="fill:none;fill-rule:nonzero;stroke:#9e445f;stroke-opacity:0.1;stroke-width:1.57px;"/><path d="M74.911,934.485c1.838,2.582 2.027,5.596 0.504,8.088c-2.845,4.663 -5.683,4.799 -10.591,0.508" style="fill:none;fill-rule:nonzero;stroke:#9e445f;stroke-opacity:0.1;stroke-width:1.57px;"/><path d="M51.205,941.058c0.339,1.855 0.186,4.027 1.132,5.48c1.223,1.881 2.875,3.938 5.95,2.653c3.383,-1.414 6.452,-4.767 5.965,-7.617c-0.551,-3.251 -1.614,-6.414 -2.453,-9.617" style="fill:none;fill-rule:nonzero;stroke:#9e445f;stroke-opacity:0.1;stroke-width:1.57px;"/><path d="M154.115,868.856c-0.671,0.168 -1.633,0.108 -1.974,0.54c-5.694,7.204 -13.46,11.857 -20.67,17.224c-2.833,2.108 -5.096,4.987 -7.617,7.514" style="fill:none;fill-rule:nonzero;stroke:#9e445f;stroke-opacity:0.1;stroke-width:1.57px;"/><path d="M55.559,930.429c-1.896,-1.042 -3.391,-2.973 -3.53,-5.137c-0.138,-2.168 1.321,-4.44 3.445,-4.859c2.122,-0.422 4.491,1.461 4.257,3.62c0.461,-1.279 1.009,-2.573 1.967,-3.532c0.963,-0.963 2.43,-1.525 3.71,-1.073c1.756,0.618 2.44,2.807 2.267,4.663c-0.571,6.178 -6.82,9.23 -12.116,6.318Z" style="fill:none;fill-rule:nonzero;stroke:#9e445f;stroke-opacity:0.1;stroke-width:1.57px;"/></g><g><path d="M332.534,674.255c-6.118,-8.178 -14.098,-8.974 -23.292,-6.319c-4.584,1.327 -6.841,3.498 -7.211,8.505c-1.164,15.82 6.066,23.162 18.838,29.301c5.008,2.41 10.776,3.31 16.658,2.529c9.178,-1.218 13.804,-7.511 16.955,-15.106c4.92,-11.858 7.129,-24.099 2.876,-36.722c-1.768,-5.238 -3.115,-10.736 -5.693,-15.555c-3.709,-6.927 -9.053,-7.251 -14.845,-2.37c-6.441,5.423 -9.398,12.831 -9.136,21.399c0.09,2.882 -0.08,5.769 -0.131,8.657" style="fill:none;fill-rule:nonzero;stroke:#9e445f;stroke-opacity:0.1;stroke-width:1.57px;"/></g><g><path d="M60.927,256.125c6.53,-2.797 13.069,-5.574 19.59,-8.396c6.154,-2.665 12.299,-5.354 18.425,-8.08c3.169,-1.41 6.384,-2.767 9.356,-4.528c0.61,-0.363 4.082,-1.941 0.34,-3.74c-3.829,-1.839 -7.406,-4.193 -11.095,-6.324c-14.501,-8.373 -29.085,-16.62 -43.458,-25.212c-3.712,-2.221 -7.198,-2.558 -11.029,-1.309c-9.758,3.184 -19.486,6.453 -29.218,9.722c-1.532,0.515 -2.968,1.323 -4.509,1.803c-10.75,3.342 -21.623,6.327 -32.244,10.039c-9.54,3.334 -18.769,7.556 -28.212,11.187c-5.633,2.166 -11.465,3.824 -17.123,5.931c-6.632,2.466 -13.165,5.206 -19.764,7.761c-4.141,1.602 -8.307,3.132 -12.492,4.612c-10.257,3.622 -20.594,7.032 -30.786,10.836c-9.662,3.604 -19.147,7.699 -28.781,11.388c-5.637,2.161 -11.462,3.824 -17.121,5.928c-6.633,2.47 -13.17,5.193 -19.766,7.76c-1.118,0.435 -2.304,0.797 -3.489,0.925c-2.946,0.32 -4.609,2.1 -5.614,4.666c-4.833,12.315 -9.652,24.639 -14.458,36.966c-1.988,5.094 -3.999,10.185 -5.852,15.329c-0.509,1.411 -0.483,3.015 -0.702,4.53" style="fill:none;fill-rule:nonzero;stroke:#9e445f;stroke-opacity:0.1;stroke-width:1.57px;"/><path d="M47.591,199.168c1.234,6.952 2.304,13.933 3.734,20.844c1.998,9.647 4.164,19.263 6.45,28.848c1.585,6.641 3.621,13.176 5.225,19.811c2.926,12.115 5.631,24.286 8.548,36.403c0.529,2.198 0.002,3.099 -2.163,3.75c-9.433,2.836 -18.879,5.659 -28.205,8.832c-11.638,3.961 -23.179,8.215 -34.732,12.432c-5.125,1.87 -10.121,4.109 -15.267,5.915c-7.025,2.464 -14.162,4.595 -21.204,7.013c-6.862,2.359 -13.673,4.874 -20.49,7.366c-6.063,2.218 -12.066,4.612 -18.166,6.723c-11.986,4.148 -24.058,8.05 -36.028,12.24c-13.888,4.858 -27.71,9.915 -41.56,14.892c-9.107,3.273 -18.248,6.462 -27.293,9.889c-3.324,1.261 -4.681,0.294 -5.21,-3.027c-1.372,-8.567 -2.877,-17.116 -4.337,-25.668c-0.066,-0.396 -0.222,-0.774 -0.302,-1.167c-1.431,-6.897 -2.78,-13.813 -4.325,-20.684c-0.482,-2.147 -1.486,-4.175 -2.248,-6.259" style="fill:none;fill-rule:nonzero;stroke:#9e445f;stroke-opacity:0.1;stroke-width:1.57px;"/><path d="M-7.815,215.939c-0.078,1.269 -0.592,2.72 -0.157,3.775c2.044,4.929 2.99,9.968 3.572,15.308c0.801,7.368 2.988,14.572 4.377,21.885c1.727,9.115 3.244,18.269 4.855,27.406c0.034,0.198 0.113,0.389 0.152,0.583c2.387,12.051 4.735,24.107 7.199,36.142c0.359,1.756 1.279,3.398 1.941,5.092" style="fill:none;fill-rule:nonzero;stroke:#9e445f;stroke-opacity:0.1;stroke-width:1.57px;"/></g><g><path d="M325.613,844.547c1.526,-2.366 3.017,-4.756 4.583,-7.096c1.962,-2.932 4.218,-5.689 5.931,-8.756c3.093,-5.526 6.195,-11.089 8.682,-16.9c1.702,-3.977 2.275,-8.427 3.538,-12.609c0.666,-2.204 -0.386,-3.355 -2.075,-4.085c-5.554,-2.392 -11.419,-3.028 -17.395,-2.789c-15.057,0.604 -29.236,4.535 -42.599,11.418c-4.88,2.511 -9.511,5.441 -13.599,9.168c-1.07,0.975 -1.839,1.824 -1.557,3.523c2.495,15.029 7.629,28.968 16.688,41.338c3.356,4.586 6.339,5.68 11.649,4.313c8.417,-2.165 14.887,-7.48 21.163,-13.105c0.861,-0.771 1.775,-1.559 2.39,-2.514c1.274,-1.979 2.621,-1.444 4.228,-0.497c5.821,3.43 11.683,6.79 17.528,10.177" style="fill:none;fill-rule:nonzero;stroke:#9e445f;stroke-opacity:0.1;stroke-width:1.57px;"/><path d="M381.27,810.469c-7.029,5.139 -13.153,11.147 -18.71,17.913c-7.796,9.487 -13.699,19.986 -18.789,31.079c-3.878,8.452 -6.374,17.234 -7.328,26.456c-0.297,2.872 -0.129,5.796 -0.175,8.696" style="fill:none;fill-rule:nonzero;stroke:#9e445f;stroke-opacity:0.1;stroke-width:1.57px;"/><path d="M374.163,870.239c-5.881,-2.758 -11.776,-5.493 -17.644,-8.283c-3.694,-1.758 -7.35,-3.597 -11.02,-5.401" style="fill:none;fill-rule:nonzero;stroke:#9e445f;stroke-opacity:0.1;stroke-width:1.57px;"/><path d="M394.883,852.006c-7.109,3.153 -12.316,8.487 -17.154,14.431c-4.893,6.007 -8.706,12.605 -11.183,19.842c-1.481,4.33 -2.677,9.043 -0.746,13.739" style="fill:none;fill-rule:nonzero;stroke:#9e445f;stroke-opacity:0.1;stroke-width:1.57px;"/><path d="M396.773,880.898c-7.292,-3.412 -14.585,-6.824 -21.878,-10.237" style="fill:none;fill-rule:nonzero;stroke:#9e445f;stroke-opacity:0.1;stroke-width:1.57px;"/><path d="M293.062,819.043c-0.318,1.116 -0.954,2.249 -0.895,3.348c0.171,3.322 3.254,5.65 6.813,4.914c4.696,-0.969 8.478,-3.411 10.499,-8.025c1.014,-2.312 0.999,-4.772 -0.632,-6.586c-1.299,-1.445 -3.276,-2.062 -5.519,-1.409c-4.288,1.255 -9.05,2.633 -10.266,7.758" style="fill:none;fill-rule:nonzero;stroke:#9e445f;stroke-opacity:0.1;stroke-width:1.57px;"/></g><g><path d="M419.09,339.453c-12.218,-5.558 -24.982,-5.099 -37.889,-3.719c-9.945,1.063 -19.448,4.061 -28.487,7.822c-9.086,3.783 -17.943,8.547 -25.181,15.648c-1.377,1.349 -1.974,2.188 -1.275,4.375c3.62,11.323 10.407,20.815 17.173,30.279c7.387,10.328 16.423,19.157 26.199,27.244c5.477,4.533 11.67,7.629 18.265,10.134c2.534,0.964 3.374,-0.69 4.001,-2.17c3.638,-8.593 4.362,-17.519 1.639,-26.451c-2.414,-7.912 -6.707,-14.711 -14.072,-19.046c-2.266,-1.334 -4.71,-2.374 -7.118,-3.443c-2.153,-0.956 -4.739,-1.408 -3.929,-4.81c0.643,-2.692 1.509,-3.219 5.52,-3.087c6.822,0.224 13.547,-0.109 19.879,-3.096c8.818,-4.156 15.885,-10.113 20.963,-18.626c2,-3.354 3.939,-6.543 4.584,-10.411" style="fill:none;fill-rule:nonzero;stroke:#9e445f;stroke-opacity:0.1;stroke-width:1.57px;"/><path d="M211.612,324.89c1.383,-2.988 2.726,-5.997 4.162,-8.959c1.8,-3.712 3.966,-7.271 5.456,-11.099c2.689,-6.899 5.384,-13.841 7.327,-20.972c1.33,-4.879 1.277,-10.124 2.066,-15.17c0.416,-2.66 -0.988,-3.822 -3.061,-4.391c-6.814,-1.869 -13.706,-1.654 -20.586,-0.408c-17.333,3.141 -33.115,9.992 -47.476,20.126c-5.244,3.7 -10.133,7.843 -14.265,12.82c-1.081,1.302 -1.836,2.41 -1.236,4.332c5.31,16.993 13.498,32.296 25.978,45.146c4.624,4.765 8.253,5.546 14.18,3.104c9.396,-3.872 16.029,-11.073 22.389,-18.603c0.872,-1.034 1.802,-2.093 2.362,-3.299c1.156,-2.496 2.801,-2.097 4.813,-1.261c7.292,3.026 14.619,5.966 21.931,8.937" style="fill:none;fill-rule:nonzero;stroke:#9e445f;stroke-opacity:0.1;stroke-width:1.57px;"/><path d="M270.552,276.411c-7.308,7.09 -13.43,15.038 -18.773,23.772c-7.497,12.247 -12.639,25.358 -16.746,39.026c-3.127,10.414 -4.602,20.985 -4.221,31.815c0.12,3.373 0.784,6.73 1.198,10.095" style="fill:none;fill-rule:nonzero;stroke:#9e445f;stroke-opacity:0.1;stroke-width:1.57px;"/><path d="M271.953,346.756c-7.253,-2.238 -14.517,-4.449 -21.76,-6.727c-4.559,-1.435 -9.087,-2.971 -13.627,-4.463" style="fill:none;fill-rule:nonzero;stroke:#9e445f;stroke-opacity:0.1;stroke-width:1.57px;"/><path d="M293.003,322.288c-7.723,4.804 -12.891,11.823 -17.535,19.489c-4.696,7.747 -8.047,16.004 -9.75,24.782c-1.016,5.254 -1.642,10.904 1.35,16.027" style="fill:none;fill-rule:nonzero;stroke:#9e445f;stroke-opacity:0.1;stroke-width:1.57px;"/><path d="M299.844,355.429c-8.991,-2.768 -17.984,-5.536 -26.975,-8.303" style="fill:none;fill-rule:nonzero;stroke:#9e445f;stroke-opacity:0.1;stroke-width:1.57px;"/><path d="M316.207,335.982c-5.953,4.457 -10.371,10.141 -13.19,17.009c-0.622,1.514 -1.684,2.223 -2.805,3.193c-0.827,0.716 -0.924,2.433 -1.091,3.737c-0.723,5.687 -4.314,11.196 -1.091,17.142" style="fill:none;fill-rule:nonzero;stroke:#9e445f;stroke-opacity:0.1;stroke-width:1.57px;"/><path d="M324.448,361.702c-2.014,-0.287 -4.149,-0.237 -6.017,-0.921c-5.265,-1.926 -11.229,-1.757 -15.931,-5.339" style="fill:none;fill-rule:nonzero;stroke:#9e445f;stroke-opacity:0.1;stroke-width:1.57px;"/><path d="M169.821,300.644c-0.189,1.345 -0.742,2.759 -0.498,4.021c0.734,3.819 4.678,6.012 8.678,4.584c5.28,-1.883 9.266,-5.325 10.862,-10.993c0.802,-2.841 0.389,-5.685 -1.791,-7.521c-1.736,-1.462 -4.125,-1.856 -6.616,-0.736c-4.763,2.148 -10.053,4.516 -10.635,10.645" style="fill:none;fill-rule:nonzero;stroke:#9e445f;stroke-opacity:0.1;stroke-width:1.57px;"/></g><g><path d="M-57.26,462.998c-4.72,-4.409 -8.906,-9.675 -14.279,-13.039c-9.565,-5.993 -18.923,-12.713 -30.19,-15.417c-3.364,-0.808 -6.853,-1.202 -10.309,-1.495c-5.166,-0.44 -5.146,-0.034 -6.468,5.209c-1.402,5.562 -0.09,10.875 0.937,16.12c3.45,17.646 11.616,33.397 21.422,48.125c9.556,14.351 21.369,26.782 35.765,36.636c8.749,5.99 18,10.684 28.342,12.789c4.293,0.875 8.737,0.495 13.28,-0.44c12.575,-2.589 22.654,-9.4 32.22,-17.36c5.419,-4.508 11.466,-8.476 16.075,-13.708c8.661,-9.833 12.321,-22.145 14.1,-34.893c1.578,-11.281 1.55,-22.61 -0.337,-33.935c-0.391,-2.333 -0.964,-4.939 1.284,-7.583c10.398,-12.214 20.403,-24.762 30.549,-37.192" style="fill:none;fill-rule:nonzero;stroke:#9e445f;stroke-opacity:0.1;stroke-width:1.57px;"/><path d="M43.373,444.457l-1.769,-6.624c-2.239,-8.388 -4.066,-16.914 -6.819,-25.13c-3.768,-11.244 -8.397,-22.138 -14.683,-32.326c-1.591,-2.575 -3.107,-4.7 -5.738,-4.611c-3.003,0.103 -4.769,2.392 -5.627,5.566c-2.038,7.527 -4.615,14.908 -6.66,22.434c-2.82,10.37 -5.392,20.806 -7.936,31.246c-0.312,1.277 0.205,2.753 0.339,4.135" style="fill:none;fill-rule:nonzero;stroke:#9e445f;stroke-opacity:0.1;stroke-width:1.57px;"/><path d="M82.919,446.601c-0.483,0.841 -0.772,2.147 -1.483,2.449c-9.96,4.215 -19.976,8.295 -29.985,12.396c-1.912,0.785 -3.847,1.512 -5.77,2.265" style="fill:none;fill-rule:nonzero;stroke:#9e445f;stroke-opacity:0.1;stroke-width:1.57px;"/><path d="M45.295,480.851c9.007,1.228 18.252,0.9 26.836,4.8c5.931,2.694 12.114,4.838 18.186,7.23" style="fill:none;fill-rule:nonzero;stroke:#9e445f;stroke-opacity:0.1;stroke-width:1.57px;"/><path d="M11.15,458.011c-6.527,3.414 -9.164,9.026 -10.064,16.164c-0.395,3.131 -0.63,5.478 2.13,7.323c3.147,2.106 5.174,-0.537 7.253,-2.005c5.013,-3.537 7.366,-12.699 5.875,-18.606c-0.767,-3.026 -2.798,-2.415 -4.531,-3.054" style="fill:none;fill-rule:nonzero;stroke:#9e445f;stroke-opacity:0.1;stroke-width:1.57px;"/></g><g><path d="M16.319,721.329c1.558,7.65 3.5,15.233 3.356,23.141c-0.073,4.135 0.227,8.277 0.139,12.413c-0.048,2.297 -1.851,3.855 -3.214,5.461c-4.167,4.911 -8.924,9.117 -14.235,12.852c-9.211,6.478 -19.375,9.791 -30.441,10.825c-7.355,0.689 -14.646,0.076 -21.559,-2.36c-12.893,-4.542 -22.948,-12.758 -29.164,-25.117c-1.967,-3.912 -3.089,-8.263 -4.446,-12.463c-0.35,-1.085 -0.302,-2.39 -0.105,-3.536c0.24,-1.407 -0.184,-2.274 -1.405,-2.842c-1.294,-0.601 -2.284,-0.135 -3.067,0.939c-6.369,8.738 -15.698,12.562 -25.598,15.337c-7.231,2.027 -14.745,2.612 -22.146,2.36c-5.529,-0.189 -11.204,-0.474 -16.649,-2.139c-4.772,-1.458 -9.676,-2.483 -14.432,-3.979c-2.506,-0.788 -4.731,-2.535 -7.253,-3.191c-2.48,-0.646 -1.833,-2.065 -1.19,-3.239c1.981,-3.625 3.936,-7.315 6.363,-10.638c6.161,-8.432 13.939,-15.175 23.009,-20.277c7.052,-3.968 14.582,-6.709 22.858,-6.598c4.159,0.057 6.2,-3.434 5.358,-7.023c-0.788,-3.358 -2.478,-5.959 -6.18,-7.046c-3.874,-1.139 -7.115,-3.741 -9.827,-6.547c-9.824,-10.173 -16.904,-22.118 -21.115,-35.644c-1.184,-3.805 -1.596,-7.873 -2.108,-11.854c-0.129,-1.001 0.41,-2.574 1.181,-3.123c4.499,-3.197 9.487,-4.563 15.122,-4.206c4.766,0.306 9.285,1.589 13.596,3.193c5.369,1.998 10.326,5.034 15.04,8.437c8.629,6.224 15.966,13.661 22.245,22.243c5.311,7.261 9.249,15.162 12.006,23.708c0.403,1.25 0.58,2.343 0.493,3.668c-0.08,1.206 -0.054,3.225 1.427,3.426c1.118,0.152 2.968,-0.751 3.553,-1.741c3.864,-6.554 9.099,-11.736 15.302,-15.971c8.746,-5.966 18.239,-8.539 28.913,-6.776c11.881,1.96 20.945,8.401 28.469,17.293c7.556,8.929 12.454,19.308 15.464,30.597" style="fill:none;fill-rule:nonzero;stroke:#9e445f;stroke-opacity:0.1;stroke-width:1.57px;"/><g><ellipse cx="30.446" cy="688.174" rx="6.647" ry="6.67" style="fill:none;stroke:#9e445f;stroke-opacity:0.1;stroke-width:1.57px;stroke-miterlimit:1.5;"/><ellipse cx="48.355" cy="669.16" rx="5.052" ry="5.07" style="fill:none;stroke:#9e445f;stroke-opacity:0.1;stroke-width:1.57px;stroke-miterlimit:1.5;"/><ellipse cx="26.341" cy="651.086" rx="4.104" ry="4.118" style="fill:none;stroke:#9e445f;stroke-opacity:0.1;stroke-width:1.57px;stroke-miterlimit:1.5;"/></g><path d="M-2.698,738.461c-0.454,0.82 -0.737,1.83 -1.393,2.423c-1.987,1.797 -5.068,1.359 -6.681,-1.097c-2.13,-3.241 -2.897,-6.8 -1.428,-10.591c0.736,-1.898 2.143,-3.294 4.105,-3.394c1.562,-0.081 3.042,0.698 3.948,2.356c1.735,3.171 3.669,6.682 1.449,10.303" style="fill:none;fill-rule:nonzero;stroke:#9e445f;stroke-opacity:0.1;stroke-width:1.57px;"/></g><g><path d="M222.81,573.741c-5.672,-1.647 -10.514,-0.212 -15.15,3.407c-4.595,3.583 -7.323,8.021 -8.626,13.64c-1.175,5.059 0.297,9.302 3.8,12.659c3.522,3.371 8.049,2.674 12.098,1.17c6.41,-2.384 10.477,-7.459 13.211,-13.545c2.541,-5.646 0.764,-11.818 -4.555,-17.122" style="fill:none;fill-rule:nonzero;stroke:#9e445f;stroke-opacity:0.1;stroke-width:1.57px;"/><path d="M165.821,559.254c2.04,-1.404 4.287,-2.587 6.09,-4.253c6.226,-5.757 6.624,-14.965 4.492,-21.715c-1.429,-4.528 -4.262,-8.429 -8.691,-10.777c-3.852,-2.042 -7.671,-1.365 -11.018,0.849c-11.424,7.562 -9.714,25.187 -1.993,32.413c2.881,2.697 6.629,3.924 10.731,3.378" style="fill:none;fill-rule:nonzero;stroke:#9e445f;stroke-opacity:0.1;stroke-width:1.57px;"/><path d="M207.845,534.558c-4.177,-0.024 -8.179,0.442 -11.69,3.119c-7.404,5.646 -10.63,15.865 -7.653,24.284c2.555,7.222 11.673,10.017 18.368,5.79c7.335,-4.632 10.548,-11.561 10.443,-20.188c-0.067,-5.255 -2.112,-9.191 -6.947,-11.508c-0.759,-0.363 -1.425,-0.924 -2.131,-1.392" style="fill:none;fill-rule:nonzero;stroke:#9e445f;stroke-opacity:0.1;stroke-width:1.57px;"/><path d="M128.625,540.881c-4.749,0.608 -8.183,2.702 -10.82,7.085c-2.632,4.373 -2.52,8.81 -2.02,13.282c0.619,5.53 3.282,10.334 7.389,14.14c6.513,6.037 16.756,4.896 20.589,-2.846c2.785,-5.629 3.356,-12.07 0.757,-18.116c-1.262,-2.933 -3.511,-5.43 -5.231,-8.175c-2.397,-3.829 -6.51,-4.184 -10.276,-5.265" style="fill:none;fill-rule:nonzero;stroke:#9e445f;stroke-opacity:0.1;stroke-width:1.57px;"/><path d="M172.319,567.699c-7.168,0.007 -12.445,3.716 -16.918,8.863c-0.986,1.138 -1.894,2.538 -2.289,3.971c-1.755,6.337 -6.303,10.028 -11.82,12.683c-3.867,1.863 -7.95,3.115 -12.23,3.962c-7.084,1.402 -11.44,6.19 -13.078,13.132c-1.518,6.437 0.291,12.04 5.642,16.142c4.391,3.365 9.369,4.099 14.687,2.721c1.339,-0.348 2.686,-0.658 4.021,-1.018c6.189,-1.668 12.099,0.015 17.787,2.031c2.107,0.746 3.667,3.221 5.305,5.06c0.867,0.975 1.385,2.267 2.023,3.437c4.142,7.574 12.266,9.47 19.754,6.835c4.502,-1.585 8.6,-4.438 11.303,-8.935c4.212,-7.016 5.761,-14.254 2.393,-21.923c-1.406,-3.198 -3.322,-6.269 -5.498,-9.003c-4.744,-5.958 -5.914,-12.933 -6.204,-20.159c-0.252,-6.349 -2.3,-11.763 -7.65,-15.336c-1.941,-1.296 -4.541,-1.602 -6.84,-2.359" style="fill:none;fill-rule:nonzero;stroke:#9e445f;stroke-opacity:0.1;stroke-width:1.57px;"/></g><g><path d="M10.426,87.639c1.126,-2.454 3.483,-2.831 5.535,-2.407c2.779,0.575 5.543,1.666 8.031,3.045c1.55,0.855 2.62,2.621 3.828,4.042c7.641,8.993 19.381,10.759 29.738,5.409c8.329,-4.301 14.032,-10.518 17.887,-18.903c3.2,-6.951 3.028,-14.154 0.915,-21.015c-1.193,-3.885 -4.446,-7.28 -7.235,-10.491c-10.651,-12.269 -23.931,-18.932 -40.435,-18.018c-9.358,0.518 -18.259,3.233 -26.392,7.687c-7.798,4.276 -15.609,8.855 -22.466,14.466c-15.185,12.426 -26.186,27.691 -27.636,48.162c-0.958,13.507 9.507,29.779 22.482,32.124c8.963,1.623 17.212,1.596 24.819,-3.42c11.072,-7.304 14.827,-18.857 10.249,-29.743c-1.421,-3.372 -2.593,-6.871 0.459,-10.106" style="fill:none;fill-rule:nonzero;stroke:#9e445f;stroke-opacity:0.1;stroke-width:1.57px;"/><path d="M-20.082,9.043c2.374,3.311 4.29,7.11 7.202,9.841c8.377,7.861 19.084,4.64 22.056,-6.436c2.695,-10.038 0.193,-18.914 -7.299,-25.928c-5.676,-5.31 -13.261,-6.268 -18.532,-1.96c-4.368,3.568 -4.925,8.714 -5.316,13.707c-0.262,3.365 -0.239,6.99 2.112,9.945" style="fill:none;fill-rule:nonzero;stroke:#9e445f;stroke-opacity:0.1;stroke-width:1.57px;"/><path d="M40.062,-21.585c-6.61,7.95 -9.093,17.01 -6.738,27.116c0.944,4.049 2.829,7.726 6.491,10.295c4.173,2.927 10.01,3.283 13.307,-0.068c10.26,-10.433 11.786,-25.74 3.258,-36.957c-2.53,-3.328 -8.223,-4.61 -12.107,-2.803c-1.277,0.596 -2.459,1.402 -3.686,2.113" style="fill:none;fill-rule:nonzero;stroke:#9e445f;stroke-opacity:0.1;stroke-width:1.57px;"/></g><g><path d="M269.133,89.847c0.472,7.839 0.551,15.713 2.742,23.36c1.145,3.998 1.928,8.102 3.086,12.097c0.642,2.219 2.799,3.261 4.54,4.466c5.322,3.683 11.035,6.527 17.163,8.769c10.63,3.886 21.365,4.451 32.386,2.565c7.325,-1.254 14.25,-3.753 20.334,-7.927c11.349,-7.78 18.987,-18.39 21.819,-32.022c0.897,-4.315 0.858,-8.835 1.086,-13.269c0.059,-1.147 -0.326,-2.402 -0.814,-3.464c-0.599,-1.304 -0.411,-2.258 0.628,-3.129c1.101,-0.921 2.183,-0.728 3.223,0.111c8.454,6.827 18.511,8.104 28.85,8.215c7.55,0.08 15.003,-1.314 22.128,-3.493c5.324,-1.629 10.764,-3.388 15.622,-6.427c4.258,-2.665 8.757,-4.941 12.99,-7.638c2.23,-1.42 3.939,-3.698 6.219,-4.994c2.242,-1.276 1.244,-2.486 0.315,-3.459c-2.865,-3.005 -5.721,-6.078 -8.941,-8.672c-8.173,-6.583 -17.48,-11.103 -27.617,-13.69c-7.881,-2.014 -15.908,-2.71 -23.919,-0.44c-4.027,1.141 -6.915,-1.717 -7.028,-5.423c-0.106,-3.47 0.862,-6.438 4.175,-8.462c3.469,-2.118 5.943,-5.492 7.849,-8.927c6.907,-12.451 10.687,-25.906 11.269,-40.147c0.164,-4.007 -0.492,-8.067 -1.027,-12.068c-0.134,-1.007 -1.066,-2.394 -1.957,-2.725c-5.201,-1.932 -10.402,-1.956 -15.784,-0.137c-4.551,1.542 -8.609,3.969 -12.381,6.654c-4.698,3.344 -8.726,7.589 -12.425,12.126c-6.768,8.302 -11.968,17.444 -15.841,27.423c-3.278,8.442 -5.054,17.147 -5.515,26.171c-0.068,1.32 0.044,2.428 0.473,3.693c0.39,1.15 0.889,3.119 -0.498,3.7c-1.047,0.441 -3.079,0.047 -3.904,-0.762c-5.454,-5.359 -11.884,-9.027 -19.011,-11.519c-10.046,-3.513 -19.935,-3.532 -29.849,0.969c-11.035,5.008 -18.171,13.633 -23.175,24.239c-5.023,10.649 -7.09,22.013 -7.086,33.768" style="fill:none;fill-rule:nonzero;stroke:#9e445f;stroke-opacity:0.1;stroke-width:1.57px;"/><g><path d="M245.076,54.843c-3.564,0.959 -5.684,4.64 -4.728,8.217c0.955,3.578 4.624,5.704 8.189,4.745c3.565,-0.958 5.683,-4.641 4.728,-8.218c-0.956,-3.577 -4.625,-5.702 -8.189,-4.744Z" style="fill:none;stroke:#9e445f;stroke-opacity:0.1;stroke-width:1.57px;stroke-miterlimit:1.5;"/><path d="M223.157,42.603c-2.71,0.728 -4.32,3.527 -3.594,6.245c0.726,2.719 3.515,4.335 6.225,3.608c2.709,-0.729 4.32,-3.528 3.593,-6.247c-0.725,-2.719 -3.515,-4.335 -6.224,-3.606Z" style="fill:none;stroke:#9e445f;stroke-opacity:0.1;stroke-width:1.57px;stroke-miterlimit:1.5;"/><path d="M240.103,20.216c-2.2,0.592 -3.508,2.865 -2.918,5.074c0.589,2.208 2.854,3.521 5.056,2.929c2.2,-0.592 3.508,-2.865 2.918,-5.074c-0.589,-2.208 -2.855,-3.52 -5.056,-2.929Z" style="fill:none;stroke:#9e445f;stroke-opacity:0.1;stroke-width:1.57px;stroke-miterlimit:1.5;"/></g><path d="M292.055,101.523c0.653,0.679 1.19,1.586 1.98,1.99c2.398,1.228 5.278,-0.003 6.207,-2.81c1.228,-3.706 1.051,-7.365 -1.36,-10.662c-1.208,-1.653 -2.936,-2.641 -4.869,-2.227c-1.537,0.33 -2.773,1.474 -3.224,3.32c-0.863,3.535 -1.831,7.452 1.266,10.389" style="fill:none;fill-rule:nonzero;stroke:#9e445f;stroke-opacity:0.1;stroke-width:1.57px;"/></g><path d="M372.433,191.395c-0.396,-1.287 -0.598,-2.625 -0.598,-3.971c0,-7.418 6.002,-13.441 13.394,-13.441c7.392,0 13.394,6.023 13.394,13.441c-0,1.346 -0.203,2.684 -0.598,3.971c-0.002,0.005 0.001,0.01 0.006,0.011c0.005,0.001 0.011,-0.002 0.012,-0.007c0.298,-1.312 0.79,-2.572 1.461,-3.738c3.696,-6.424 11.894,-8.628 18.296,-4.919c6.402,3.707 8.598,11.935 4.902,18.359c-0.671,1.166 -1.512,2.224 -2.496,3.138c-0.004,0.005 -0.005,0.011 -0,0.014c0.004,0.004 0.01,0.004 0.013,0c0.913,-0.987 1.966,-1.832 3.128,-2.505c6.402,-3.708 14.6,-1.504 18.296,4.92c3.696,6.424 1.499,14.651 -4.903,18.36c-1.16,0.673 -2.417,1.167 -3.725,1.465c-0.006,0.002 -0.009,0.007 -0.007,0.012c0.001,0.005 0.007,0.008 0.012,0.007c1.281,-0.397 2.616,-0.599 3.957,-0.599c7.392,-0 13.393,6.022 13.393,13.44c0,7.418 -6.001,13.44 -13.393,13.44c-1.341,0 -2.676,-0.202 -3.957,-0.6c-0.005,-0.002 -0.011,0.001 -0.012,0.007c-0.002,0.005 0.001,0.01 0.007,0.012c1.308,0.298 2.565,0.793 3.725,1.465c6.402,3.709 8.599,11.937 4.903,18.361c-3.696,6.423 -11.894,8.628 -18.296,4.919c-1.162,-0.674 -2.215,-1.518 -3.128,-2.505c-0.003,-0.004 -0.009,-0.005 -0.013,-0c-0.005,0.004 -0.004,0.01 -0,0.013c0.984,0.916 1.825,1.974 2.496,3.14c3.696,6.424 1.5,14.65 -4.902,18.359c-6.402,3.709 -14.6,1.505 -18.296,-4.919c-0.671,-1.166 -1.163,-2.426 -1.461,-3.739c-0.001,-0.006 -0.007,-0.009 -0.012,-0.008c-0.005,0.002 -0.008,0.008 -0.006,0.013c0.395,1.285 0.598,2.625 0.598,3.971c-0,7.418 -6.002,13.44 -13.394,13.44c-7.392,0 -13.394,-6.022 -13.394,-13.44c0,-1.346 0.202,-2.686 0.598,-3.971c0.002,-0.005 -0.001,-0.011 -0.006,-0.013c-0.005,-0.001 -0.011,0.002 -0.013,0.008c-0.296,1.313 -0.789,2.573 -1.46,3.739c-3.696,6.424 -11.894,8.628 -18.296,4.919c-6.402,-3.709 -8.599,-11.935 -4.902,-18.359c0.671,-1.166 1.512,-2.224 2.497,-3.14c0.003,-0.003 0.003,-0.009 -0,-0.013c-0.005,-0.005 -0.011,-0.004 -0.014,-0c-0.912,0.987 -1.967,1.831 -3.128,2.505c-6.402,3.709 -14.6,1.504 -18.297,-4.919c-3.695,-6.424 -1.499,-14.652 4.903,-18.361c1.162,-0.672 2.418,-1.167 3.725,-1.465c0.006,-0.002 0.009,-0.007 0.008,-0.012c-0.001,-0.006 -0.006,-0.009 -0.012,-0.007c-1.282,0.398 -2.616,0.6 -3.957,0.6c-7.392,0 -13.393,-6.022 -13.393,-13.44c-0,-7.418 6.001,-13.44 13.393,-13.44c1.341,-0 2.675,0.202 3.957,0.599c0.006,0.001 0.011,-0.002 0.012,-0.007c0.001,-0.005 -0.002,-0.01 -0.008,-0.012c-1.307,-0.298 -2.563,-0.792 -3.725,-1.465c-6.402,-3.709 -8.598,-11.936 -4.903,-18.36c3.697,-6.424 11.895,-8.628 18.297,-4.92c1.161,0.673 2.216,1.518 3.128,2.505c0.003,0.004 0.009,0.004 0.014,0c0.003,-0.003 0.003,-0.009 -0,-0.014c-0.985,-0.914 -1.826,-1.972 -2.497,-3.138c-3.697,-6.424 -1.5,-14.652 4.902,-18.359c6.402,-3.709 14.6,-1.505 18.296,4.919c0.671,1.166 1.164,2.426 1.46,3.738c0.002,0.005 0.008,0.008 0.013,0.007c0.005,-0.001 0.008,-0.006 0.006,-0.011Zm-35.895,59.421l0.003,-0.001c0.143,-0.038 0.288,-0.08 0.431,-0.124l0.057,-0.017l0.631,-0.039l0.574,0.198l0.456,0.399l0.279,0.562l0.039,0.626l-0.196,0.571l-0.396,0.458l-0.565,0.282l-0.058,0.014c-0.146,0.034 -0.291,0.069 -0.435,0.108l-0.005,0.001c-0.996,0.269 -1.953,0.666 -2.848,1.184c-5.653,3.276 -7.591,10.542 -4.327,16.215c3.262,5.668 10.495,7.615 16.144,4.343c0.895,-0.518 1.717,-1.152 2.447,-1.885l0.002,-0.002c0.106,-0.106 0.21,-0.214 0.311,-0.324l0.042,-0.044l0.526,-0.349l0.595,-0.117l0.597,0.117l0.524,0.349l0.347,0.524l0.115,0.594l-0.115,0.592l-0.347,0.525l-0.043,0.042c-0.11,0.101 -0.217,0.205 -0.323,0.312l-0.003,0.002c-0.73,0.733 -1.361,1.558 -1.878,2.457c-3.263,5.673 -1.326,12.939 4.328,16.214c5.649,3.273 12.882,1.326 16.143,-4.342c0.517,-0.899 0.915,-1.862 1.182,-2.862l0,-0.003c0.039,-0.145 0.076,-0.292 0.108,-0.437l0.015,-0.059l0.28,-0.563l0.456,-0.399l0.574,-0.197l0.63,0.039l0.564,0.282l0.397,0.457l0.195,0.572l-0.037,0.626l-0.017,0.057c-0.044,0.144 -0.086,0.288 -0.125,0.433l-0.001,0.004c-0.267,1.001 -0.403,2.033 -0.403,3.071c0,6.548 5.296,11.867 11.821,11.867c6.525,0 11.821,-5.319 11.821,-11.867c-0,-1.038 -0.137,-2.07 -0.403,-3.071l-0.001,-0.004c-0.039,-0.145 -0.081,-0.289 -0.125,-0.433l-0.017,-0.057l-0.037,-0.626l0.195,-0.572l0.396,-0.457l0.565,-0.282l0.631,-0.039l0.573,0.197l0.456,0.399l0.28,0.563l0.014,0.059c0.033,0.145 0.069,0.292 0.108,0.437l0.001,0.003c0.267,1 0.665,1.963 1.182,2.862c3.261,5.668 10.494,7.615 16.143,4.342c5.654,-3.275 7.591,-10.541 4.328,-16.214c-0.517,-0.899 -1.148,-1.724 -1.878,-2.457l-0.003,-0.002c-0.106,-0.107 -0.213,-0.211 -0.323,-0.312l-0.043,-0.042l-0.347,-0.525l-0.116,-0.592l0.116,-0.594l0.347,-0.524l0.524,-0.349l0.597,-0.117l0.596,0.117l0.525,0.349l0.041,0.044c0.103,0.11 0.206,0.218 0.311,0.324l0.003,0.002c0.729,0.733 1.552,1.367 2.447,1.885c5.649,3.272 12.882,1.325 16.143,-4.343c3.265,-5.673 1.327,-12.939 -4.326,-16.215c-0.895,-0.518 -1.853,-0.915 -2.849,-1.184l-0.003,-0.001c-0.145,-0.039 -0.29,-0.074 -0.436,-0.108l-0.058,-0.014l-0.564,-0.282l-0.398,-0.458l-0.195,-0.571l0.038,-0.626l0.28,-0.562l0.456,-0.399l0.574,-0.198l0.631,0.039l0.057,0.017c0.143,0.044 0.287,0.086 0.431,0.124l0.004,0.001c0.996,0.268 2.023,0.404 3.056,0.404c6.526,0 11.821,-5.32 11.821,-11.867c-0,-6.549 -5.295,-11.868 -11.821,-11.868c-1.033,0 -2.06,0.136 -3.056,0.404l-0.004,0c-0.144,0.04 -0.288,0.081 -0.431,0.126l-0.057,0.017l-0.631,0.039l-0.574,-0.199l-0.456,-0.398l-0.28,-0.563l-0.038,-0.626l0.195,-0.572l0.398,-0.457l0.564,-0.282l0.058,-0.014c0.146,-0.033 0.291,-0.07 0.436,-0.109l0.003,-0.001c0.996,-0.267 1.954,-0.666 2.849,-1.184c5.653,-3.274 7.591,-10.54 4.326,-16.214c-3.261,-5.668 -10.494,-7.616 -16.143,-4.343c-0.895,0.519 -1.718,1.152 -2.447,1.884l-0.003,0.003c-0.105,0.105 -0.208,0.215 -0.311,0.325l-0.041,0.043l-0.525,0.349l-0.596,0.116l-0.597,-0.116l-0.524,-0.349l-0.347,-0.525l-0.116,-0.592l0.116,-0.593l0.347,-0.524l0.043,-0.042c0.11,-0.103 0.217,-0.207 0.323,-0.312l0.003,-0.004c0.73,-0.732 1.361,-1.558 1.878,-2.455c3.263,-5.674 1.326,-12.939 -4.328,-16.215c-5.649,-3.273 -12.882,-1.326 -16.143,4.343c-0.517,0.899 -0.915,1.86 -1.182,2.861l-0.001,0.004c-0.039,0.145 -0.075,0.29 -0.108,0.437l-0.014,0.059l-0.28,0.562l-0.456,0.398l-0.573,0.199l-0.631,-0.039l-0.565,-0.282l-0.396,-0.457l-0.195,-0.572l0.037,-0.626l0.017,-0.058c0.044,-0.143 0.086,-0.288 0.125,-0.433l0.001,-0.004c0.266,-1 0.403,-2.033 0.403,-3.07c-0,-6.549 -5.296,-11.868 -11.821,-11.868c-6.525,0 -11.821,5.319 -11.821,11.868c0,1.037 0.136,2.07 0.403,3.07l0.001,0.004c0.039,0.145 0.081,0.29 0.125,0.433l0.017,0.058l0.037,0.626l-0.195,0.572l-0.397,0.457l-0.564,0.282l-0.63,0.039l-0.574,-0.199l-0.456,-0.398l-0.28,-0.562l-0.015,-0.059c-0.032,-0.147 -0.069,-0.292 -0.108,-0.437l0,-0.004c-0.267,-1.001 -0.665,-1.962 -1.182,-2.861c-3.261,-5.669 -10.494,-7.616 -16.143,-4.343c-5.654,3.276 -7.591,10.541 -4.328,16.215c0.517,0.897 1.148,1.723 1.878,2.455l0.003,0.004c0.106,0.105 0.213,0.209 0.323,0.312l0.043,0.042l0.347,0.524l0.115,0.593l-0.115,0.592l-0.347,0.525l-0.524,0.349l-0.597,0.116l-0.595,-0.116l-0.526,-0.349l-0.042,-0.043c-0.101,-0.11 -0.205,-0.22 -0.311,-0.325l-0.002,-0.003c-0.73,-0.732 -1.552,-1.365 -2.447,-1.884c-5.649,-3.273 -12.882,-1.325 -16.144,4.343c-3.264,5.674 -1.326,12.94 4.327,16.214c0.895,0.518 1.852,0.917 2.848,1.184l0.005,0.001c0.144,0.039 0.289,0.076 0.435,0.109l0.058,0.014l0.565,0.282l0.396,0.457l0.196,0.572l-0.039,0.626l-0.279,0.563l-0.456,0.398l-0.574,0.199l-0.631,-0.039l-0.057,-0.017c-0.143,-0.045 -0.288,-0.086 -0.431,-0.126l-0.003,0c-0.997,-0.268 -2.024,-0.404 -3.057,-0.404c-6.526,0 -11.82,5.319 -11.82,11.868c-0,6.547 5.294,11.867 11.82,11.867c1.033,0 2.06,-0.136 3.057,-0.404Z" style="fill:#9e445f;fill-opacity:0.1;"/><path d="M143.054,708.938c-0.337,-1.095 -0.509,-2.234 -0.509,-3.38c0,-6.313 5.108,-11.439 11.399,-11.439c6.291,0 11.398,5.126 11.398,11.439c0,1.146 -0.171,2.285 -0.508,3.38c-0.001,0.004 0.001,0.009 0.005,0.01c0.005,0.001 0.01,-0.002 0.011,-0.006c0.253,-1.117 0.672,-2.19 1.243,-3.182c3.145,-5.467 10.123,-7.343 15.571,-4.187c5.448,3.156 7.318,10.158 4.172,15.626c-0.571,0.992 -1.287,1.892 -2.125,2.671c-0.003,0.004 -0.003,0.009 0,0.012c0.003,0.003 0.009,0.003 0.012,0c0.776,-0.841 1.673,-1.559 2.662,-2.132c5.449,-3.157 12.425,-1.281 15.571,4.186c3.146,5.468 1.277,12.47 -4.172,15.626c-0.989,0.573 -2.058,0.993 -3.171,1.248c-0.004,0.001 -0.008,0.005 -0.005,0.009c0.001,0.006 0.005,0.008 0.009,0.007c1.092,-0.339 2.226,-0.511 3.368,-0.511c6.291,-0 11.399,5.126 11.399,11.438c-0,6.314 -5.108,11.439 -11.399,11.439c-1.142,-0 -2.276,-0.172 -3.368,-0.511c-0.004,-0.001 -0.008,0.002 -0.009,0.006c-0.003,0.005 0.001,0.01 0.005,0.011c1.113,0.254 2.182,0.674 3.171,1.247c5.449,3.157 7.318,10.158 4.172,15.625c-3.146,5.468 -10.122,7.344 -15.571,4.188c-0.989,-0.573 -1.886,-1.292 -2.662,-2.132c-0.003,-0.003 -0.009,-0.004 -0.012,-0c-0.003,0.003 -0.003,0.008 0,0.011c0.838,0.778 1.554,1.679 2.125,2.671c3.146,5.468 1.276,12.469 -4.172,15.626c-5.448,3.156 -12.426,1.28 -15.571,-4.186c-0.571,-0.993 -0.99,-2.066 -1.243,-3.183c-0.001,-0.004 -0.006,-0.007 -0.011,-0.006c-0.004,0.001 -0.006,0.006 -0.005,0.01c0.337,1.095 0.508,2.234 0.508,3.38c0,6.313 -5.107,11.438 -11.398,11.438c-6.291,0 -11.399,-5.125 -11.399,-11.438c0,-1.146 0.172,-2.285 0.509,-3.38c0.001,-0.004 -0.001,-0.009 -0.005,-0.01c-0.006,-0.001 -0.01,0.002 -0.011,0.006c-0.254,1.117 -0.672,2.19 -1.244,3.183c-3.144,5.466 -10.122,7.342 -15.57,4.186c-5.448,-3.157 -7.318,-10.158 -4.172,-15.626c0.57,-0.992 1.287,-1.893 2.124,-2.671c0.004,-0.003 0.004,-0.008 0,-0.011c-0.003,-0.004 -0.008,-0.003 -0.011,-0c-0.776,0.84 -1.674,1.559 -2.663,2.132c-5.448,3.156 -12.425,1.28 -15.571,-4.188c-3.146,-5.467 -1.276,-12.468 4.173,-15.625c0.989,-0.573 2.057,-0.993 3.171,-1.247c0.004,-0.001 0.007,-0.006 0.005,-0.011c-0.001,-0.004 -0.005,-0.007 -0.009,-0.006c-1.091,0.339 -2.227,0.511 -3.369,0.511c-6.29,-0 -11.398,-5.125 -11.398,-11.439c-0,-6.312 5.108,-11.438 11.398,-11.438c1.142,-0 2.278,0.172 3.369,0.511c0.004,0.001 0.008,-0.001 0.009,-0.007c0.002,-0.004 -0.001,-0.008 -0.005,-0.009c-1.114,-0.255 -2.182,-0.675 -3.171,-1.248c-5.449,-3.156 -7.319,-10.158 -4.173,-15.626c3.146,-5.467 10.123,-7.343 15.571,-4.186c0.989,0.573 1.887,1.291 2.663,2.132c0.003,0.003 0.008,0.003 0.011,0c0.004,-0.003 0.004,-0.008 0,-0.012c-0.837,-0.779 -1.554,-1.679 -2.124,-2.671c-3.146,-5.468 -1.276,-12.47 4.172,-15.626c5.448,-3.156 12.426,-1.28 15.57,4.187c0.572,0.992 0.99,2.065 1.244,3.182c0.001,0.004 0.005,0.007 0.011,0.006c0.004,-0.001 0.006,-0.006 0.005,-0.01Zm-30.611,50.345l0.002,0c0.121,-0.032 0.24,-0.067 0.359,-0.103l0.058,-0.017l0.63,-0.039l0.573,0.197l0.457,0.399l0.279,0.562l0.037,0.626l-0.195,0.57l-0.396,0.457l-0.564,0.281l-0.059,0.015c-0.122,0.028 -0.243,0.059 -0.365,0.091c-0.827,0.223 -1.623,0.554 -2.367,0.984c-4.7,2.723 -6.31,8.763 -3.598,13.48c2.711,4.713 8.724,6.331 13.42,3.61c0.743,-0.431 1.427,-0.957 2.034,-1.566l0.002,-0.001c0.087,-0.089 0.174,-0.178 0.258,-0.271l0.042,-0.043l0.524,-0.349l0.596,-0.116l0.596,0.116l0.524,0.349l0.347,0.525l0.114,0.591l-0.114,0.592l-0.347,0.525l-0.043,0.042c-0.091,0.084 -0.18,0.171 -0.268,0.259l-0.004,0.002c-0.606,0.609 -1.13,1.296 -1.56,2.042c-2.714,4.716 -1.103,10.757 3.597,13.48c4.696,2.721 10.708,1.102 13.419,-3.61c0.43,-0.747 0.76,-1.546 0.983,-2.379l-0,-0.003c0.032,-0.121 0.063,-0.241 0.09,-0.363l0.015,-0.059l0.279,-0.562l0.456,-0.398l0.573,-0.197l0.629,0.038l0.565,0.281l0.396,0.458l0.195,0.57l-0.039,0.626l-0.015,0.058c-0.037,0.119 -0.072,0.239 -0.104,0.359l-0.001,0.004c-0.223,0.832 -0.335,1.69 -0.335,2.553c0,5.443 4.401,9.865 9.826,9.865c5.424,0 9.825,-4.422 9.825,-9.865c0,-0.863 -0.112,-1.721 -0.334,-2.553l-0.001,-0.004c-0.033,-0.12 -0.066,-0.24 -0.104,-0.359l-0.016,-0.058l-0.038,-0.626l0.195,-0.57l0.396,-0.458l0.564,-0.281l0.63,-0.038l0.573,0.197l0.456,0.398l0.279,0.562l0.015,0.059c0.027,0.122 0.057,0.242 0.09,0.363l-0,0.003c0.222,0.833 0.553,1.632 0.982,2.379c2.711,4.712 8.724,6.331 13.42,3.61c4.7,-2.723 6.31,-8.764 3.597,-13.48c-0.429,-0.746 -0.955,-1.433 -1.561,-2.042c-0.089,-0.089 -0.179,-0.176 -0.271,-0.261l-0.043,-0.042l-0.346,-0.525l-0.116,-0.592l0.116,-0.591l0.346,-0.525l0.524,-0.349l0.596,-0.116l0.595,0.116l0.524,0.349l0.042,0.043c0.084,0.093 0.171,0.182 0.259,0.271l0.001,0.001c0.608,0.609 1.291,1.135 2.035,1.566c4.696,2.721 10.708,1.103 13.419,-3.61c2.714,-4.717 1.102,-10.757 -3.598,-13.48c-0.743,-0.43 -1.539,-0.761 -2.366,-0.984c-0.122,-0.032 -0.244,-0.063 -0.365,-0.091l-0.059,-0.015l-0.564,-0.281l-0.397,-0.457l-0.195,-0.57l0.038,-0.626l0.279,-0.562l0.456,-0.399l0.574,-0.197l0.63,0.039l0.058,0.017c0.118,0.036 0.238,0.071 0.358,0.103l0.002,0c0.829,0.224 1.682,0.336 2.541,0.336c5.425,-0 9.826,-4.422 9.826,-9.866c-0,-5.443 -4.401,-9.865 -9.826,-9.865c-0.859,-0 -1.712,0.113 -2.541,0.335l-0.002,0.002c-0.12,0.031 -0.24,0.066 -0.358,0.103l-0.058,0.017l-0.63,0.039l-0.574,-0.198l-0.456,-0.398l-0.279,-0.563l-0.038,-0.625l0.195,-0.571l0.397,-0.456l0.564,-0.283l0.059,-0.014c0.121,-0.027 0.243,-0.058 0.365,-0.09c0.827,-0.224 1.623,-0.554 2.366,-0.985c4.7,-2.723 6.312,-8.763 3.598,-13.48c-2.711,-4.712 -8.723,-6.331 -13.419,-3.611c-0.744,0.431 -1.427,0.959 -2.035,1.567l-0.001,0.002c-0.088,0.088 -0.175,0.178 -0.259,0.27l-0.042,0.044l-0.524,0.348l-0.595,0.116l-0.596,-0.116l-0.524,-0.348l-0.346,-0.525l-0.116,-0.592l0.116,-0.592l0.346,-0.524l0.043,-0.042c0.091,-0.085 0.18,-0.172 0.268,-0.26l0.003,-0.002c0.606,-0.609 1.132,-1.295 1.561,-2.042c2.713,-4.716 1.103,-10.757 -3.597,-13.48c-4.696,-2.72 -10.709,-1.102 -13.42,3.611c-0.429,0.746 -0.76,1.546 -0.982,2.378l-0,0.003c-0.033,0.121 -0.063,0.241 -0.09,0.364l-0.015,0.058l-0.279,0.562l-0.456,0.398l-0.573,0.198l-0.63,-0.038l-0.564,-0.283l-0.396,-0.457l-0.195,-0.57l0.038,-0.626l0.016,-0.058c0.038,-0.119 0.071,-0.239 0.104,-0.36l0.001,-0.003c0.222,-0.832 0.334,-1.69 0.334,-2.553c0,-5.444 -4.401,-9.866 -9.825,-9.866c-5.425,0 -9.826,4.422 -9.826,9.866c0,0.863 0.112,1.721 0.335,2.553l0.001,0.003c0.032,0.121 0.067,0.241 0.104,0.36l0.015,0.058l0.039,0.626l-0.195,0.57l-0.396,0.457l-0.565,0.283l-0.629,0.038l-0.573,-0.198l-0.456,-0.398l-0.279,-0.562l-0.015,-0.058c-0.027,-0.123 -0.058,-0.243 -0.09,-0.364l-0,-0.003c-0.223,-0.832 -0.553,-1.632 -0.983,-2.378c-2.711,-4.713 -8.723,-6.331 -13.419,-3.611c-4.7,2.723 -6.311,8.764 -3.597,13.48c0.43,0.747 0.954,1.433 1.56,2.042c0.09,0.089 0.18,0.176 0.272,0.262l0.043,0.042l0.347,0.524l0.114,0.592l-0.114,0.592l-0.347,0.525l-0.524,0.348l-0.596,0.116l-0.596,-0.116l-0.524,-0.348l-0.042,-0.044c-0.084,-0.092 -0.171,-0.182 -0.258,-0.27l-0.002,-0.002c-0.607,-0.608 -1.291,-1.136 -2.034,-1.567c-4.696,-2.72 -10.709,-1.101 -13.42,3.611c-2.712,4.717 -1.102,10.757 3.598,13.48c0.744,0.431 1.54,0.761 2.367,0.985l0.004,0.001c0.12,0.031 0.24,0.062 0.361,0.089l0.059,0.014l0.564,0.283l0.396,0.456l0.195,0.571l-0.037,0.625l-0.279,0.563l-0.457,0.398l-0.573,0.198l-0.63,-0.039l-0.058,-0.017c-0.119,-0.037 -0.238,-0.072 -0.359,-0.103l-0.002,-0.002c-0.828,-0.222 -1.682,-0.335 -2.541,-0.335c-5.424,-0 -9.825,4.422 -9.825,9.865c-0,5.444 4.401,9.866 9.825,9.866c0.859,-0 1.713,-0.112 2.541,-0.336Z" style="fill:#9e445f;fill-opacity:0.1;"/><path d="M295.867,467.587c-0.187,-0.607 -0.282,-1.238 -0.282,-1.875c0,-3.502 2.834,-6.345 6.324,-6.345c3.49,-0 6.324,2.843 6.324,6.345c-0,0.637 -0.096,1.268 -0.282,1.875c-0.001,0.003 0.001,0.005 0.003,0.006c0.002,0.001 0.005,-0.001 0.005,-0.003c0.141,-0.62 0.374,-1.215 0.69,-1.766c1.745,-3.032 5.617,-4.074 8.639,-2.322c3.023,1.751 4.06,5.635 2.315,8.669c-0.317,0.55 -0.714,1.049 -1.178,1.481c-0.003,0.002 -0.003,0.006 -0,0.008c0.001,0.001 0.004,0.001 0.006,-0c0.43,-0.467 0.928,-0.865 1.476,-1.183c3.023,-1.751 6.894,-0.711 8.639,2.323c1.746,3.032 0.708,6.917 -2.314,8.669c-0.549,0.317 -1.142,0.55 -1.76,0.692c-0.002,-0 -0.004,0.003 -0.003,0.005c0.001,0.002 0.003,0.004 0.006,0.003c0.605,-0.188 1.234,-0.283 1.868,-0.283c3.491,-0 6.324,2.844 6.324,6.346c0,3.503 -2.833,6.347 -6.324,6.347c-0.634,-0 -1.263,-0.096 -1.868,-0.285c-0.003,0 -0.005,0.001 -0.006,0.005c-0.001,0.002 0.001,0.004 0.003,0.005c0.618,0.14 1.211,0.374 1.76,0.692c3.022,1.751 4.06,5.635 2.314,8.669c-1.745,3.033 -5.616,4.074 -8.639,2.323c-0.548,-0.318 -1.046,-0.717 -1.476,-1.183c-0.002,-0.002 -0.005,-0.002 -0.006,-0c-0.003,0.002 -0.003,0.005 -0,0.006c0.464,0.432 0.861,0.932 1.178,1.483c1.745,3.032 0.708,6.918 -2.315,8.669c-3.022,1.751 -6.894,0.71 -8.639,-2.324c-0.316,-0.549 -0.549,-1.145 -0.69,-1.765c0,-0.002 -0.003,-0.004 -0.005,-0.003c-0.002,0 -0.004,0.003 -0.003,0.005c0.186,0.608 0.282,1.24 0.282,1.875c-0,3.503 -2.834,6.347 -6.324,6.347c-3.49,-0 -6.324,-2.844 -6.324,-6.347c0,-0.635 0.095,-1.267 0.282,-1.875c0.001,-0.002 -0.001,-0.005 -0.003,-0.005c-0.002,-0.001 -0.005,0.001 -0.006,0.003c-0.141,0.62 -0.372,1.216 -0.689,1.765c-1.745,3.034 -5.616,4.075 -8.639,2.324c-3.023,-1.751 -4.06,-5.637 -2.315,-8.669c0.317,-0.551 0.714,-1.051 1.179,-1.483c0.002,-0.001 0.002,-0.004 -0,-0.006c-0.001,-0.002 -0.004,-0.002 -0.007,-0c-0.429,0.466 -0.928,0.865 -1.476,1.183c-3.023,1.751 -6.894,0.71 -8.639,-2.323c-1.746,-3.034 -0.709,-6.918 2.315,-8.669c0.548,-0.318 1.142,-0.552 1.759,-0.692c0.002,-0.001 0.003,-0.003 0.003,-0.005c-0.001,-0.004 -0.003,-0.005 -0.006,-0.005c-0.605,0.189 -1.234,0.285 -1.867,0.285c-3.491,-0 -6.325,-2.844 -6.325,-6.347c0,-3.502 2.834,-6.346 6.325,-6.346c0.633,-0 1.262,0.095 1.867,0.283c0.003,0.001 0.005,-0.001 0.006,-0.003c0,-0.002 -0.001,-0.005 -0.003,-0.005c-0.617,-0.142 -1.211,-0.375 -1.759,-0.692c-3.024,-1.752 -4.061,-5.637 -2.315,-8.669c1.745,-3.034 5.616,-4.074 8.639,-2.323c0.548,0.318 1.047,0.716 1.476,1.183c0.003,0.001 0.006,0.001 0.007,-0c0.002,-0.002 0.002,-0.006 -0,-0.008c-0.465,-0.432 -0.862,-0.931 -1.179,-1.481c-1.745,-3.034 -0.708,-6.918 2.315,-8.669c3.023,-1.752 6.894,-0.71 8.639,2.322c0.317,0.551 0.548,1.146 0.689,1.766c0.001,0.002 0.004,0.004 0.006,0.003c0.002,-0.001 0.004,-0.003 0.003,-0.006Zm-16.304,18.14l-0.628,-0.038l-0.057,-0.017c-0.058,-0.018 -0.116,-0.035 -0.173,-0.051c-0.401,-0.108 -0.814,-0.162 -1.229,-0.162c-2.624,-0 -4.752,2.14 -4.752,4.773c0,2.633 2.128,4.774 4.752,4.774c0.415,-0 0.828,-0.056 1.229,-0.163c0.057,-0.016 0.115,-0.032 0.173,-0.05l0.057,-0.017l0.628,-0.039l0.573,0.197l0.455,0.398l0.278,0.561l0.039,0.624l-0.196,0.569l-0.395,0.456l-0.563,0.28l-0.059,0.015c-0.057,0.014 -0.116,0.028 -0.174,0.044l-0.002,-0c-0.4,0.108 -0.784,0.267 -1.144,0.476c-2.274,1.318 -3.053,4.241 -1.739,6.524c1.309,2.277 4.216,3.061 6.486,1.746c0.36,-0.209 0.69,-0.464 0.984,-0.759c0.043,-0.042 0.085,-0.086 0.126,-0.13l0.042,-0.044l0.523,-0.347l0.594,-0.116l0.594,0.116l0.523,0.347l0.345,0.524l0.116,0.59l-0.116,0.59l-0.345,0.524l-0.043,0.042c-0.044,0.04 -0.088,0.082 -0.13,0.124l-0.002,0.002c-0.292,0.295 -0.546,0.626 -0.755,0.988c-1.313,2.282 -0.533,5.206 1.741,6.524c2.269,1.315 5.176,0.531 6.487,-1.747c0.207,-0.362 0.368,-0.749 0.475,-1.153c0.016,-0.057 0.03,-0.116 0.044,-0.176l0.014,-0.058l0.278,-0.561l0.456,-0.397l0.571,-0.197l0.628,0.039l0.563,0.281l0.396,0.456l0.195,0.569l-0.039,0.624l-0.017,0.058c-0.018,0.058 -0.033,0.115 -0.049,0.174c-0.108,0.404 -0.163,0.819 -0.163,1.237c0,2.633 2.127,4.774 4.751,4.774c2.623,-0 4.751,-2.141 4.751,-4.774c-0,-0.418 -0.055,-0.833 -0.163,-1.237c-0.015,-0.059 -0.032,-0.116 -0.05,-0.174l-0.016,-0.058l-0.038,-0.624l0.195,-0.569l0.395,-0.456l0.563,-0.281l0.628,-0.039l0.572,0.197l0.455,0.397l0.279,0.561l0.013,0.058c0.014,0.06 0.029,0.119 0.044,0.176c0.107,0.404 0.268,0.791 0.475,1.153c1.311,2.278 4.218,3.062 6.487,1.747c2.275,-1.318 3.054,-4.242 1.74,-6.524c-0.208,-0.362 -0.461,-0.693 -0.755,-0.988l-0.001,-0.002c-0.042,-0.042 -0.086,-0.084 -0.13,-0.124l-0.043,-0.042l-0.345,-0.524l-0.116,-0.59l0.116,-0.59l0.345,-0.524l0.523,-0.347l0.595,-0.116l0.593,0.116l0.523,0.347l0.042,0.044c0.041,0.044 0.083,0.088 0.126,0.13c0.293,0.295 0.624,0.55 0.984,0.759c2.27,1.315 5.176,0.531 6.487,-1.746c1.313,-2.283 0.534,-5.206 -1.74,-6.524c-0.36,-0.209 -0.743,-0.368 -1.144,-0.476l-0.002,-0c-0.058,-0.016 -0.117,-0.03 -0.174,-0.044l-0.059,-0.015l-0.563,-0.28l-0.395,-0.456l-0.195,-0.569l0.038,-0.624l0.278,-0.561l0.455,-0.398l0.573,-0.197l0.628,0.039l0.058,0.017c0.057,0.018 0.115,0.034 0.173,0.05c0.4,0.107 0.813,0.163 1.229,0.163c2.623,-0 4.751,-2.141 4.751,-4.774c0,-2.633 -2.128,-4.773 -4.751,-4.773c-0.416,-0 -0.829,0.054 -1.229,0.162c-0.058,0.016 -0.116,0.033 -0.173,0.051l-0.058,0.017l-0.628,0.038l-0.573,-0.197l-0.455,-0.397l-0.278,-0.561l-0.038,-0.624l0.195,-0.57l0.395,-0.456l0.563,-0.281l0.059,-0.014c0.057,-0.013 0.116,-0.028 0.174,-0.043l0.002,-0.002c0.401,-0.106 0.784,-0.267 1.144,-0.475c2.274,-1.318 3.053,-4.241 1.74,-6.523c-1.311,-2.278 -4.217,-3.062 -6.487,-1.746c-0.36,0.208 -0.691,0.462 -0.984,0.757c-0.043,0.043 -0.085,0.087 -0.126,0.131l-0.042,0.043l-0.523,0.348l-0.593,0.117l-0.595,-0.117l-0.523,-0.348l-0.345,-0.522l-0.116,-0.59l0.116,-0.592l0.345,-0.522l0.043,-0.042c0.044,-0.041 0.088,-0.083 0.13,-0.126l0.001,-0.001c0.294,-0.295 0.547,-0.627 0.755,-0.988c1.314,-2.283 0.535,-5.205 -1.74,-6.523c-2.269,-1.315 -5.176,-0.532 -6.487,1.746c-0.207,0.361 -0.368,0.749 -0.475,1.152c-0.015,0.059 -0.03,0.118 -0.044,0.176l-0.013,0.059l-0.279,0.561l-0.455,0.396l-0.572,0.199l-0.628,-0.04l-0.563,-0.28l-0.395,-0.456l-0.195,-0.57l0.038,-0.624l0.016,-0.057c0.018,-0.058 0.035,-0.117 0.05,-0.174c0.108,-0.404 0.163,-0.82 0.163,-1.239c-0,-2.632 -2.128,-4.772 -4.751,-4.772c-2.624,-0 -4.751,2.14 -4.751,4.772c0,0.419 0.055,0.835 0.163,1.239c0.016,0.057 0.031,0.116 0.049,0.174l0.017,0.057l0.039,0.624l-0.195,0.57l-0.396,0.456l-0.563,0.28l-0.628,0.04l-0.571,-0.199l-0.456,-0.396l-0.278,-0.561l-0.014,-0.059c-0.014,-0.058 -0.028,-0.117 -0.044,-0.176c-0.107,-0.403 -0.268,-0.791 -0.475,-1.152c-1.311,-2.278 -4.218,-3.061 -6.487,-1.746c-2.274,1.318 -3.054,4.24 -1.741,6.523c0.209,0.361 0.463,0.693 0.755,0.988l0.002,0.001c0.042,0.043 0.086,0.085 0.13,0.126l0.043,0.042l0.345,0.522l0.116,0.592l-0.116,0.59l-0.345,0.522l-0.523,0.348l-0.594,0.117l-0.594,-0.117l-0.523,-0.348l-0.042,-0.043c-0.041,-0.044 -0.083,-0.088 -0.126,-0.131c-0.294,-0.295 -0.624,-0.549 -0.984,-0.757c-2.27,-1.316 -5.177,-0.532 -6.486,1.746c-1.314,2.282 -0.535,5.205 1.739,6.523c0.36,0.208 0.744,0.369 1.144,0.475l0.002,0.002c0.058,0.015 0.117,0.03 0.174,0.043l0.059,0.014l0.563,0.281l0.395,0.456l0.196,0.57l-0.039,0.624l-0.278,0.561l-0.455,0.397l-0.573,0.197Z" style="fill:#9e445f;fill-opacity:0.1;"/><path d="M172.987,460.559c-6.738,-1.65 -12.967,-6.386 -15.193,-12.977c-2.219,-6.601 0.423,-14.858 6.658,-17.926c6.225,-3.076 15.123,0.788 16.186,7.672c0.372,-4.349 0.996,-8.812 3.174,-12.585c2.184,-3.783 6.265,-6.749 10.608,-6.414c5.952,0.451 9.883,6.665 10.883,12.559c3.339,19.617 -13.498,34.282 -32.316,29.671Z" style="fill:none;fill-rule:nonzero;stroke:#9e445f;stroke-opacity:0.1;stroke-width:1.57px;"/><path d="M174.919,170.452c-0.226,-0.734 -0.341,-1.499 -0.341,-2.267c-0,-4.232 3.425,-7.668 7.642,-7.668c4.218,-0 7.641,3.436 7.641,7.668c0,0.768 -0.114,1.533 -0.34,2.267c-0.001,0.002 0.001,0.005 0.004,0.006c0.003,0.001 0.006,-0.001 0.006,-0.004c0.17,-0.749 0.451,-1.468 0.834,-2.133c2.109,-3.666 6.787,-4.924 10.439,-2.807c3.653,2.116 4.906,6.81 2.798,10.475c-0.383,0.665 -0.863,1.269 -1.424,1.791c-0.002,0.003 -0.004,0.007 -0,0.009c0.002,0.002 0.005,0.002 0.007,-0c0.52,-0.564 1.122,-1.046 1.785,-1.43c3.652,-2.117 8.33,-0.858 10.439,2.807c2.109,3.666 0.856,8.359 -2.797,10.476c-0.663,0.384 -1.38,0.665 -2.126,0.836c-0.003,0.001 -0.005,0.005 -0.004,0.007c0,0.003 0.004,0.005 0.007,0.004c0.732,-0.227 1.492,-0.342 2.257,-0.342c4.219,-0 7.643,3.436 7.643,7.669c-0,4.232 -3.424,7.668 -7.643,7.668c-0.765,0 -1.525,-0.115 -2.257,-0.342c-0.003,-0.001 -0.007,0.001 -0.007,0.003c-0.001,0.004 0.001,0.007 0.004,0.008c0.746,0.17 1.463,0.452 2.126,0.836c3.653,2.117 4.906,6.81 2.797,10.476c-2.109,3.665 -6.787,4.923 -10.439,2.807c-0.663,-0.384 -1.265,-0.866 -1.785,-1.43c-0.002,-0.002 -0.005,-0.002 -0.007,0c-0.004,0.002 -0.002,0.007 -0,0.009c0.561,0.522 1.041,1.125 1.424,1.791c2.108,3.665 0.855,8.359 -2.798,10.476c-3.652,2.116 -8.33,0.857 -10.439,-2.808c-0.383,-0.664 -0.664,-1.384 -0.834,-2.133c0,-0.003 -0.003,-0.005 -0.006,-0.004c-0.003,0 -0.005,0.003 -0.004,0.007c0.226,0.734 0.34,1.497 0.34,2.266c0,4.232 -3.423,7.668 -7.641,7.668c-4.217,0 -7.642,-3.436 -7.642,-7.668c-0,-0.769 0.115,-1.532 0.341,-2.266c0.001,-0.004 -0.002,-0.007 -0.004,-0.007c-0.003,-0.001 -0.006,0.001 -0.007,0.004c-0.17,0.749 -0.451,1.469 -0.834,2.133c-2.108,3.665 -6.786,4.924 -10.439,2.808c-3.652,-2.117 -4.905,-6.811 -2.796,-10.476c0.382,-0.666 0.863,-1.269 1.424,-1.791c0.002,-0.002 0.002,-0.007 -0,-0.009c-0.003,-0.002 -0.006,-0.002 -0.009,0c-0.52,0.564 -1.121,1.046 -1.785,1.43c-3.652,2.116 -8.33,0.858 -10.439,-2.807c-2.108,-3.666 -0.855,-8.359 2.798,-10.476c0.663,-0.384 1.379,-0.666 2.126,-0.836c0.003,-0.001 0.005,-0.004 0.004,-0.008c-0.001,-0.002 -0.004,-0.004 -0.008,-0.003c-0.73,0.227 -1.492,0.342 -2.257,0.342c-4.218,0 -7.643,-3.436 -7.643,-7.668c0,-4.233 3.425,-7.669 7.643,-7.669c0.765,-0 1.527,0.115 2.257,0.342c0.004,0.001 0.007,-0.001 0.008,-0.004c0.001,-0.002 -0.001,-0.006 -0.004,-0.007c-0.747,-0.171 -1.463,-0.452 -2.126,-0.836c-3.653,-2.117 -4.906,-6.81 -2.798,-10.476c2.109,-3.665 6.787,-4.924 10.439,-2.807c0.664,0.384 1.265,0.866 1.785,1.43c0.003,0.002 0.006,0.002 0.009,-0c0.002,-0.002 0.002,-0.006 -0,-0.009c-0.561,-0.522 -1.042,-1.126 -1.424,-1.791c-2.109,-3.665 -0.856,-8.359 2.796,-10.475c3.653,-2.117 8.331,-0.859 10.439,2.807c0.383,0.665 0.664,1.384 0.834,2.133c0.001,0.003 0.004,0.005 0.007,0.004c0.002,-0.001 0.005,-0.004 0.004,-0.006Zm-20.673,33.257l0.033,-0.01c0.07,-0.018 0.138,-0.038 0.206,-0.059l0.058,-0.017l0.06,-0.004l0.568,-0.035l0.572,0.197l0.456,0.398l0.278,0.561l0.039,0.625l-0.195,0.569l-0.396,0.456l-0.562,0.281l-0.059,0.015c-0.069,0.016 -0.139,0.033 -0.207,0.051l-0.035,0.01c-0.506,0.137 -0.991,0.341 -1.445,0.603c-2.905,1.683 -3.9,5.416 -2.223,8.33c1.674,2.911 5.387,3.911 8.287,2.23c0.454,-0.262 0.871,-0.583 1.242,-0.952c0.01,-0.01 0.02,-0.021 0.031,-0.03c0.049,-0.05 0.097,-0.101 0.145,-0.152l0.042,-0.044l0.05,-0.034l0.473,-0.313l0.594,-0.117l0.595,0.117l0.524,0.347l0.345,0.523l0.116,0.591l-0.116,0.592l-0.311,0.472l-0.034,0.051l-0.044,0.041c-0.05,0.048 -0.1,0.097 -0.15,0.145c-0.01,0.011 -0.022,0.022 -0.032,0.032c-0.368,0.374 -0.688,0.792 -0.949,1.247c-1.677,2.914 -0.683,6.647 2.222,8.33c2.9,1.68 6.614,0.68 8.287,-2.23c0.262,-0.455 0.464,-0.941 0.601,-1.447c0.004,-0.016 0.008,-0.033 0.013,-0.048c0.017,-0.067 0.034,-0.135 0.049,-0.202l0.015,-0.058l0.027,-0.054l0.251,-0.507l0.456,-0.398l0.572,-0.197l0.628,0.039l0.563,0.281l0.396,0.456l0.195,0.57l-0.035,0.564l-0.003,0.06l-0.017,0.058c-0.02,0.066 -0.04,0.132 -0.057,0.198c-0.005,0.017 -0.009,0.034 -0.014,0.051c-0.133,0.506 -0.2,1.028 -0.2,1.554c-0,3.363 2.718,6.095 6.069,6.095c3.352,0 6.069,-2.732 6.069,-6.095c-0,-0.526 -0.068,-1.048 -0.201,-1.554c-0.004,-0.017 -0.008,-0.034 -0.012,-0.051c-0.019,-0.066 -0.038,-0.132 -0.058,-0.198l-0.017,-0.058l-0.004,-0.06l-0.035,-0.564l0.197,-0.57l0.395,-0.456l0.562,-0.281l0.629,-0.039l0.573,0.197l0.455,0.398l0.251,0.507l0.028,0.054l0.013,0.058c0.016,0.067 0.033,0.135 0.05,0.202c0.004,0.015 0.008,0.032 0.013,0.048c0.138,0.506 0.339,0.992 0.6,1.447c1.675,2.91 5.388,3.91 8.287,2.23c2.905,-1.683 3.9,-5.416 2.223,-8.33c-0.262,-0.455 -0.58,-0.873 -0.949,-1.247c-0.011,-0.01 -0.022,-0.021 -0.032,-0.032c-0.049,-0.048 -0.1,-0.097 -0.151,-0.145l-0.043,-0.041l-0.034,-0.051l-0.312,-0.472l-0.114,-0.592l0.114,-0.591l0.346,-0.523l0.523,-0.347l0.595,-0.117l0.594,0.117l0.473,0.313l0.052,0.034l0.041,0.044c0.048,0.051 0.096,0.102 0.145,0.152c0.01,0.009 0.02,0.02 0.031,0.03c0.371,0.369 0.788,0.69 1.241,0.952c2.901,1.681 6.614,0.681 8.288,-2.23c1.676,-2.914 0.682,-6.647 -2.222,-8.33c-0.454,-0.262 -0.94,-0.466 -1.445,-0.603l-0.037,-0.01c-0.068,-0.018 -0.136,-0.035 -0.206,-0.051l-0.058,-0.015l-0.055,-0.027l-0.509,-0.254l-0.395,-0.456l-0.195,-0.569l0.038,-0.625l0.279,-0.561l0.455,-0.398l0.572,-0.197l0.568,0.035l0.062,0.004l0.057,0.017c0.068,0.021 0.137,0.041 0.205,0.059l0.034,0.01c0.507,0.134 1.028,0.202 1.552,0.202c3.352,0 6.07,-2.732 6.07,-6.095c-0,-3.363 -2.718,-6.096 -6.07,-6.096c-0.524,-0 -1.045,0.068 -1.552,0.202l-0.034,0.01c-0.068,0.019 -0.137,0.039 -0.205,0.059l-0.057,0.017l-0.062,0.003l-0.568,0.036l-0.572,-0.197l-0.455,-0.398l-0.279,-0.562l-0.038,-0.624l0.195,-0.57l0.395,-0.456l0.509,-0.254l0.055,-0.027l0.058,-0.015c0.07,-0.016 0.138,-0.032 0.206,-0.05l0.037,-0.01c0.505,-0.137 0.991,-0.34 1.445,-0.604c2.904,-1.682 3.898,-5.415 2.222,-8.33c-1.674,-2.91 -5.387,-3.91 -8.288,-2.23c-0.453,0.263 -0.87,0.583 -1.241,0.953c-0.011,0.01 -0.021,0.02 -0.031,0.03c-0.049,0.05 -0.097,0.101 -0.145,0.152l-0.041,0.043l-0.052,0.035l-0.473,0.313l-0.594,0.117l-0.595,-0.117l-0.523,-0.348l-0.346,-0.523l-0.114,-0.59l0.114,-0.592l0.312,-0.472l0.034,-0.051l0.043,-0.042c0.051,-0.047 0.102,-0.095 0.151,-0.145c0.01,-0.01 0.021,-0.021 0.032,-0.032c0.369,-0.372 0.687,-0.791 0.949,-1.246c1.677,-2.914 0.682,-6.647 -2.223,-8.33c-2.899,-1.68 -6.612,-0.68 -8.287,2.23c-0.261,0.454 -0.462,0.941 -0.6,1.446c-0.005,0.017 -0.009,0.033 -0.013,0.049c-0.017,0.068 -0.034,0.135 -0.05,0.202l-0.013,0.057l-0.028,0.055l-0.251,0.508l-0.455,0.396l-0.573,0.198l-0.629,-0.039l-0.562,-0.281l-0.395,-0.456l-0.197,-0.57l0.035,-0.563l0.004,-0.061l0.017,-0.058c0.02,-0.066 0.039,-0.132 0.058,-0.198c0.004,-0.017 0.008,-0.034 0.012,-0.05c0.133,-0.507 0.201,-1.03 0.201,-1.555c-0,-3.362 -2.717,-6.095 -6.069,-6.095c-3.351,-0 -6.069,2.733 -6.069,6.095c-0,0.525 0.067,1.048 0.2,1.555c0.005,0.016 0.009,0.033 0.014,0.05c0.017,0.066 0.037,0.132 0.057,0.198l0.017,0.058l0.003,0.061l0.035,0.563l-0.195,0.57l-0.396,0.456l-0.563,0.281l-0.628,0.039l-0.572,-0.198l-0.456,-0.396l-0.251,-0.508l-0.027,-0.055l-0.015,-0.057c-0.015,-0.067 -0.032,-0.134 -0.049,-0.202c-0.005,-0.016 -0.009,-0.032 -0.013,-0.049c-0.137,-0.505 -0.339,-0.992 -0.601,-1.446c-1.673,-2.91 -5.387,-3.91 -8.287,-2.23c-2.905,1.683 -3.899,5.416 -2.222,8.33c0.261,0.455 0.581,0.874 0.949,1.246c0.01,0.011 0.022,0.022 0.032,0.032c0.05,0.05 0.1,0.098 0.15,0.145l0.044,0.042l0.034,0.051l0.311,0.472l0.116,0.592l-0.116,0.59l-0.345,0.523l-0.524,0.348l-0.595,0.117l-0.594,-0.117l-0.473,-0.313l-0.05,-0.035l-0.042,-0.043c-0.048,-0.051 -0.096,-0.102 -0.145,-0.152c-0.011,-0.01 -0.021,-0.02 -0.031,-0.03c-0.371,-0.37 -0.788,-0.69 -1.242,-0.953c-2.9,-1.68 -6.613,-0.68 -8.287,2.23c-1.677,2.915 -0.682,6.648 2.223,8.33c0.454,0.264 0.939,0.467 1.445,0.604l0.035,0.01c0.068,0.018 0.138,0.034 0.207,0.05l0.059,0.015l0.562,0.281l0.396,0.456l0.195,0.57l-0.039,0.624l-0.278,0.562l-0.456,0.398l-0.572,0.197l-0.568,-0.036l-0.06,-0.003l-0.058,-0.017c-0.068,-0.02 -0.136,-0.04 -0.206,-0.059l-0.033,-0.01c-0.507,-0.134 -1.029,-0.202 -1.553,-0.202c-3.352,-0 -6.07,2.733 -6.07,6.096c0,3.363 2.718,6.095 6.07,6.095c0.524,0 1.046,-0.068 1.553,-0.202Z" style="fill:#9e445f;fill-opacity:0.1;"/></g></g></g></svg>