<?xml version="1.0" encoding="UTF-8" standalone="no"?><!DOCTYPE svg PUBLIC "-//W3C//DTD SVG 1.1//EN" "http://www.w3.org/Graphics/SVG/1.1/DTD/svg11.dtd"><svg width="100%" height="100%" viewBox="0 0 75 15" version="1.1" xmlns="http://www.w3.org/2000/svg" xmlns:xlink="http://www.w3.org/1999/xlink" xml:space="preserve" xmlns:serif="http://www.serif.com/" style="fill-rule:evenodd;clip-rule:evenodd;stroke-linejoin:round;stroke-miterlimit:2;"><path d="M0.781,0.204c-0.055,0.001 -0.107,0.025 -0.141,0.069c-0.034,0.043 -0.046,0.099 -0.034,0.152c0.262,1.11 1.43,6.058 1.641,6.95c0.019,0.081 0.092,0.138 0.175,0.139c0.738,-0 4.136,-0.001 4.875,-0.001c0.083,0 0.156,-0.057 0.175,-0.138c0.21,-0.892 1.378,-5.841 1.64,-6.95c0.013,-0.053 0,-0.109 -0.034,-0.153c-0.034,-0.043 -0.086,-0.068 -0.14,-0.068c-1.215,0.001 -6.942,0 -8.157,0Zm4.079,8.733c-0.753,0.001 -1.398,0.274 -1.936,0.82c-0.537,0.547 -0.805,1.187 -0.806,1.922c0.001,0.752 0.269,1.401 0.807,1.948c0.537,0.546 1.181,0.819 1.934,0.819c0.752,0 1.398,-0.273 1.935,-0.819c0.537,-0.547 0.806,-1.196 0.806,-1.949c-0,-0.734 -0.269,-1.374 -0.806,-1.921c-0.538,-0.547 -1.182,-0.819 -1.934,-0.82Zm3.704,5.509c-0.054,0 -0.105,-0.025 -0.139,-0.067c-0.034,-0.041 -0.048,-0.097 -0.036,-0.15c0.212,-0.999 1.105,-5.196 1.495,-7.032c0.107,-0.506 0.184,-1.017 0.229,-1.534c0.066,-0.975 0.334,-1.836 0.788,-2.584c0.555,-0.913 1.33,-1.62 2.325,-2.122c0.994,-0.502 2.162,-0.752 3.506,-0.753c0.699,0 1.344,0.068 1.935,0.202c0.591,0.134 1.12,0.313 1.586,0.537c0.45,0.217 0.834,0.464 1.15,0.739c0.02,0.018 0.047,0.027 0.073,0.028c0.02,-0 0.039,-0.001 0.039,-0.001c0.341,-0.286 0.74,-0.542 1.196,-0.766c0.457,-0.224 0.981,-0.403 1.572,-0.537c0.592,-0.135 1.236,-0.201 1.935,-0.202c1.361,0.001 2.544,0.251 3.547,0.753c1.003,0.502 1.782,1.209 2.337,2.122c0.455,0.748 0.723,1.609 0.806,2.583c0.045,0.515 0.122,1.026 0.23,1.531c0.372,1.84 1.265,6.037 1.477,7.037c0.011,0.052 -0.002,0.108 -0.036,0.149c-0.034,0.043 -0.085,0.067 -0.139,0.067c-1.055,0 -5.554,0.001 -6.511,0c-0.1,0 -0.179,-0.08 -0.18,-0.179c0.001,-1.163 0,-7.587 0,-7.587c0,-0.34 -0.071,-0.649 -0.215,-0.927c-0.143,-0.277 -0.349,-0.506 -0.618,-0.684c-0.268,-0.18 -0.599,-0.27 -0.994,-0.27c-0.394,0 -0.73,0.09 -1.007,0.269c-0.278,0.179 -0.489,0.408 -0.632,0.685c-0.144,0.278 -0.215,0.587 -0.215,0.927c-0,0 -0,6.424 0,7.587c-0,0.099 -0.08,0.179 -0.179,0.179c-0.793,0.001 -3.981,0 -4.774,-0c-0.099,-0 -0.179,-0.08 -0.179,-0.179c0,-1.163 -0,-7.586 -0,-7.586c-0.001,-0.341 -0.077,-0.65 -0.229,-0.927c-0.152,-0.279 -0.371,-0.507 -0.658,-0.686c-0.286,-0.179 -0.627,-0.269 -1.021,-0.268c-0.376,-0.001 -0.703,0.089 -0.981,0.268c-0.278,0.179 -0.488,0.408 -0.632,0.685c-0.143,0.278 -0.215,0.587 -0.215,0.927c0,0 0,6.424 0.001,7.587c-0,0.099 -0.081,0.18 -0.18,0.179c-0.952,0 -5.408,0 -6.457,-0Zm25.502,-14.242c-0.055,0.001 -0.107,0.025 -0.14,0.068c-0.035,0.044 -0.047,0.1 -0.035,0.153c0.262,1.109 1.43,6.058 1.641,6.95c0.019,0.081 0.092,0.138 0.175,0.138c0.739,0 4.137,0 4.875,0.001c0.084,-0.001 0.156,-0.058 0.175,-0.139c0.21,-0.892 1.378,-5.841 1.641,-6.95c0.012,-0.054 -0.001,-0.11 -0.035,-0.153c-0.034,-0.043 -0.085,-0.067 -0.14,-0.067c-1.215,-0 -6.942,-0.001 -8.157,-0.001Zm4.078,8.733c-0.752,0 -1.397,0.274 -1.934,0.82c-0.538,0.547 -0.806,1.187 -0.806,1.921c-0.001,0.753 0.268,1.402 0.805,1.949c0.538,0.546 1.183,0.819 1.936,0.819c0.752,0 1.397,-0.273 1.934,-0.819c0.538,-0.546 0.806,-1.196 0.806,-1.949c0,-0.734 -0.268,-1.375 -0.806,-1.921c-0.537,-0.546 -1.182,-0.819 -1.935,-0.82Zm10.695,5.859c-1.164,-0 -2.212,-0.296 -3.144,-0.887c-0.931,-0.591 -1.666,-1.411 -2.203,-2.459c-0.537,-1.048 -0.806,-2.271 -0.806,-3.667c-0,-1.487 0.331,-2.8 0.994,-3.938c0.662,-1.137 1.581,-2.029 2.754,-2.673c1.173,-0.645 2.54,-0.967 4.098,-0.967c1.523,-0.001 2.849,0.308 3.977,0.927c1.129,0.618 2.011,1.478 2.647,2.579c0.51,0.884 0.816,1.88 0.917,2.988c0.063,0.665 0.175,1.324 0.338,1.972c0.401,1.68 1.158,4.709 1.369,5.552c0.013,0.054 0.001,0.111 -0.033,0.154c-0.034,0.044 -0.086,0.069 -0.141,0.069c-1.039,0 -5.281,0 -6.207,0.001c-0.1,-0.001 -0.18,-0.081 -0.18,-0.18c0.001,-0.43 0.001,-1.505 -0,-1.809c0,-0.021 -0.009,-0.042 -0.023,-0.057c-0.016,-0.015 -0.037,-0.024 -0.058,-0.024c-0.01,0 -0.02,-0 -0.029,0c-0.031,-0 -0.059,0.017 -0.073,0.045c-0.23,0.465 -0.532,0.876 -0.905,1.231c-0.385,0.368 -0.847,0.65 -1.384,0.847c-0.537,0.197 -1.173,0.296 -1.908,0.296Zm1.586,-4.515c0.483,-0 0.909,-0.117 1.276,-0.349c0.367,-0.233 0.654,-0.56 0.86,-0.981c0.206,-0.421 0.309,-0.9 0.309,-1.438c-0,-0.519 -0.103,-0.976 -0.309,-1.37c-0.206,-0.394 -0.493,-0.708 -0.86,-0.94c-0.367,-0.234 -0.793,-0.35 -1.276,-0.35c-0.467,0 -0.887,0.117 -1.263,0.349c-0.376,0.233 -0.667,0.547 -0.874,0.941c-0.206,0.394 -0.308,0.851 -0.309,1.37c0.001,0.538 0.104,1.017 0.309,1.438c0.206,0.421 0.498,0.748 0.874,0.981c0.375,0.233 0.797,0.349 1.263,0.349Zm16.933,4.515c-1.451,-0.001 -2.723,-0.273 -3.816,-0.82c-1.093,-0.546 -1.943,-1.29 -2.553,-2.23c-0.609,-0.941 -0.913,-2.011 -0.913,-3.211c-0,-0 -0,-6.645 -0,-7.828c-0,-0.048 0.018,-0.094 0.052,-0.128c0.034,-0.033 0.079,-0.052 0.127,-0.052c0.951,0 5.4,0 6.454,-0c0.055,0 0.106,0.025 0.141,0.067c0.034,0.043 0.047,0.099 0.034,0.152c-0.272,1.212 -1.586,7.066 -1.672,7.447c-0.002,0.013 -0.004,0.027 -0.004,0.041c0.004,0.315 0.085,0.621 0.242,0.919c0.162,0.304 0.399,0.55 0.712,0.738c0.314,0.189 0.676,0.282 1.088,0.283c0.413,-0 0.767,-0.095 1.062,-0.282c0.295,-0.189 0.524,-0.435 0.685,-0.74c0.158,-0.297 0.238,-0.604 0.242,-0.918c0,-0.014 -0.001,-0.028 -0.005,-0.042c-0.085,-0.38 -1.4,-6.234 -1.672,-7.446c-0.011,-0.053 0.001,-0.109 0.035,-0.152c0.034,-0.042 0.086,-0.067 0.14,-0.067c1.057,-0 5.528,0 6.482,-0c0.099,0 0.179,0.08 0.179,0.179c0,1.184 0,7.829 0,7.829c0,1.2 -0.282,2.27 -0.846,3.211c-0.564,0.94 -1.375,1.684 -2.432,2.23c-1.057,0.546 -2.311,0.819 -3.762,0.82Z" style="fill:#f6f5f1;fill-rule:nonzero;"/></svg>