<?xml version="1.0" encoding="UTF-8" standalone="no"?><!DOCTYPE svg PUBLIC "-//W3C//DTD SVG 1.1//EN" "http://www.w3.org/Graphics/SVG/1.1/DTD/svg11.dtd"><svg width="100%" height="100%" viewBox="0 0 345 301" version="1.1" xmlns="http://www.w3.org/2000/svg" xmlns:xlink="http://www.w3.org/1999/xlink" xml:space="preserve" xmlns:serif="http://www.serif.com/" style="fill-rule:evenodd;clip-rule:evenodd;stroke-linecap:round;stroke-linejoin:round;stroke-miterlimit:10;"><rect x="0" y="0" width="345" height="300.625" style="fill:none;"/><clipPath id="_clip1"><rect x="0" y="0" width="345" height="300.625"/></clipPath><g clip-path="url(#_clip1)"><g><g><path d="M264.805,47.421c-5.137,-6.842 -11.837,-7.508 -19.557,-5.287c-3.849,1.11 -5.743,2.927 -6.055,7.116c-0.977,13.237 5.093,19.38 15.817,24.516c4.205,2.017 9.048,2.77 13.987,2.117c7.706,-1.02 11.59,-6.285 14.236,-12.64c4.131,-9.921 5.986,-20.164 2.414,-30.725c-1.484,-4.383 -2.615,-8.983 -4.779,-13.015c-3.114,-5.797 -7.602,-6.068 -12.465,-1.983c-5.408,4.538 -7.891,10.736 -7.671,17.904c0.076,2.411 -0.067,4.827 -0.11,7.243" style="fill:none;fill-rule:nonzero;stroke:#ffd2ec;stroke-width:1.5px;"/><path d="M317.855,86.891c-3.024,-4.976 -3.921,-11.477 -1.343,-16.697c2.589,-5.223 9.042,-8.54 14.559,-6.654c5.515,1.877 8.513,9.445 5.07,14.149c2.794,-2.352 5.806,-4.622 9.331,-5.561c3.535,-0.942 7.713,-0.274 10.093,2.502c3.267,3.801 1.924,9.812 -0.97,13.893c-9.623,13.589 -28.296,12.269 -36.74,-1.632Z" style="fill:none;fill-rule:nonzero;stroke:#ffd2ec;stroke-width:1.5px;"/><path d="M302.622,8.658c-6.035,-9.931 -7.824,-22.904 -2.678,-33.323c5.165,-10.424 18.044,-17.043 29.055,-13.278c11.006,3.744 16.988,18.848 10.118,28.237c5.576,-4.695 11.586,-9.225 18.62,-11.099c7.055,-1.88 15.393,-0.545 20.143,4.994c6.52,7.585 3.841,19.582 -1.935,27.726c-19.205,27.118 -56.471,24.484 -73.323,-3.257Z" style="fill:none;fill-rule:nonzero;stroke:#ffd2ec;stroke-width:1.5px;"/></g><g><path d="M0.276,341.096c2.272,11.121 5.106,22.144 4.897,33.641c-0.108,6.012 0.33,12.033 0.201,18.045c-0.068,3.339 -2.7,5.604 -4.689,7.939c-6.077,7.139 -13.017,13.254 -20.764,18.683c-13.437,9.417 -28.265,14.235 -44.409,15.738c-10.73,1 -21.366,0.109 -31.45,-3.433c-18.809,-6.601 -33.478,-18.546 -42.544,-36.512c-2.87,-5.688 -4.507,-12.012 -6.486,-18.118c-0.511,-1.577 -0.441,-3.474 -0.154,-5.14c0.35,-2.046 -0.269,-3.307 -2.05,-4.132c-1.887,-0.872 -3.331,-0.197 -4.474,1.365c-9.291,12.703 -22.901,18.262 -37.343,22.297c-10.548,2.945 -21.509,3.797 -32.306,3.43c-8.067,-0.275 -16.345,-0.69 -24.287,-3.109c-6.962,-2.121 -14.116,-3.61 -21.056,-5.785c-3.654,-1.146 -6.9,-3.685 -10.579,-4.639c-3.618,-0.939 -2.674,-3.002 -1.736,-4.709c2.89,-5.27 5.741,-10.633 9.282,-15.464c8.988,-12.257 20.334,-22.061 33.567,-29.477c10.287,-5.768 21.271,-9.754 33.345,-9.591c6.067,0.081 9.044,-4.994 7.815,-10.21c-1.149,-4.883 -3.615,-8.664 -9.014,-10.245c-5.652,-1.656 -10.38,-5.437 -14.335,-9.516c-14.333,-14.789 -24.661,-32.153 -30.804,-51.817c-1.728,-5.531 -2.328,-11.445 -3.075,-17.232c-0.188,-1.455 0.598,-3.742 1.723,-4.539c6.562,-4.649 13.84,-6.635 22.061,-6.115c6.952,0.443 13.543,2.31 19.832,4.641c7.834,2.905 15.064,7.319 21.942,12.264c12.586,9.05 23.29,19.86 32.45,32.337c7.749,10.555 13.493,22.041 17.515,34.464c0.589,1.818 0.846,3.406 0.719,5.333c-0.116,1.752 -0.079,4.688 2.082,4.98c1.631,0.221 4.33,-1.091 5.183,-2.53c5.637,-9.529 13.272,-17.063 22.323,-23.217c12.759,-8.676 26.607,-12.414 42.178,-9.852c17.332,2.85 30.555,12.212 41.532,25.139c11.021,12.981 18.166,28.069 22.558,44.48" style="fill:none;fill-rule:nonzero;stroke:#ffd2ec;stroke-width:1.5px;"/><g><circle cx="26.243" cy="281.778" r="9.697" style="fill:none;stroke:#ffd2ec;stroke-width:1.5px;stroke-miterlimit:1.5;"/><circle cx="50.253" cy="258.375" r="7.371" style="fill:none;stroke:#ffd2ec;stroke-width:1.5px;stroke-miterlimit:1.5;"/><circle cx="22.532" cy="236.333" r="5.987" style="fill:none;stroke:#ffd2ec;stroke-width:1.5px;stroke-miterlimit:1.5;"/></g></g><g><path d="M9.378,58.898c4.801,-2.646 7.041,-6.764 7.717,-12.174c0.672,-5.359 -0.441,-10.053 -3.261,-14.585c-2.538,-4.079 -6.279,-5.889 -10.774,-5.784c-4.517,0.106 -7.033,3.534 -8.706,7.175c-2.65,5.767 -1.999,11.756 0.187,17.532c2.027,5.361 7.23,8.232 14.191,8.21" style="fill:none;fill-rule:nonzero;stroke:#ffd2ec;stroke-width:1.5px;"/><path d="M56.263,30.966c-0.421,2.258 -1.123,4.507 -1.216,6.779c-0.321,7.853 5.441,14.138 11.255,17.154c3.901,2.023 8.311,2.715 12.754,1.344c3.865,-1.194 5.929,-4.143 6.677,-7.788c2.553,-12.445 -10.099,-22.852 -19.892,-22.51c-3.655,0.127 -6.919,1.786 -9.254,4.834" style="fill:none;fill-rule:nonzero;stroke:#ffd2ec;stroke-width:1.5px;"/><path d="M44.831,74.705c2.759,-2.726 5.08,-5.658 5.633,-9.714c1.168,-8.553 -3.4,-17.355 -10.86,-20.908c-6.4,-3.046 -14.215,1.11 -15.845,8.27c-1.785,7.845 0.639,14.487 6.352,20.06c3.48,3.394 7.398,4.626 12.086,2.967c0.736,-0.261 1.54,-0.331 2.311,-0.488" style="fill:none;fill-rule:nonzero;stroke:#ffd2ec;stroke-width:1.5px;"/><path d="M92.696,18.568c2.719,-3.514 3.604,-7.138 2.468,-11.736c-1.133,-4.588 -4.109,-7.417 -7.362,-10.013c-4.023,-3.212 -8.914,-4.606 -14.1,-4.4c-8.223,0.326 -14.201,7.796 -11.652,15.376c1.853,5.51 5.692,10.099 11.353,12.347c2.746,1.091 5.856,1.247 8.781,1.914c4.078,0.931 7.01,-1.536 10.189,-3.302" style="fill:none;fill-rule:nonzero;stroke:#ffd2ec;stroke-width:1.5px;"/><path d="M46.474,29.707c4.7,-4.709 5.737,-10.6 5.306,-16.902c-0.095,-1.392 -0.416,-2.904 -1.094,-4.1c-2.993,-5.297 -2.423,-10.697 -0.538,-16.055c1.32,-3.757 3.181,-7.256 5.437,-10.619c3.733,-5.567 3.46,-11.558 -0.006,-17.174c-3.214,-5.208 -8.066,-7.685 -14.262,-6.856c-5.083,0.681 -8.831,3.468 -11.421,7.861c-0.651,1.106 -1.333,2.193 -1.973,3.304c-2.971,5.154 -7.952,7.932 -13.003,10.348c-1.872,0.895 -4.514,0.3 -6.793,0.171c-1.207,-0.068 -2.392,-0.573 -3.576,-0.919c-7.673,-2.235 -14.246,1.857 -17.438,8.497c-1.918,3.991 -2.742,8.547 -1.574,13.262c1.824,7.355 5.542,13.106 12.77,15.912c3.013,1.169 6.281,1.919 9.498,2.279c7.011,0.784 12.34,4.578 17.257,9.115c4.319,3.987 9.204,6.185 15.054,5.01c2.122,-0.426 4.029,-1.933 6.033,-2.947" style="fill:none;fill-rule:nonzero;stroke:#ffd2ec;stroke-width:1.5px;"/></g><path d="M308.053,245.174c-0.339,-1.095 -0.511,-2.235 -0.511,-3.381c-0,-6.318 5.129,-11.447 11.446,-11.447c6.317,0 11.446,5.129 11.446,11.447c0,1.146 -0.172,2.286 -0.511,3.381c-0.001,0.005 0.002,0.01 0.006,0.011c0.005,0.001 0.009,-0.002 0.01,-0.006c0.255,-1.118 0.676,-2.192 1.249,-3.185c3.158,-5.471 10.165,-7.348 15.636,-4.189c5.471,3.159 7.348,10.165 4.189,15.636c-0.573,0.993 -1.292,1.894 -2.133,2.673c-0.003,0.003 -0.003,0.009 -0,0.012c0.003,0.003 0.008,0.003 0.012,-0c0.779,-0.841 1.68,-1.56 2.673,-2.134c5.471,-3.158 12.477,-1.281 15.636,4.19c3.159,5.471 1.281,12.477 -4.19,15.636c-0.993,0.573 -2.066,0.994 -3.184,1.248c-0.004,0.001 -0.007,0.006 -0.006,0.011c0.001,0.004 0.006,0.007 0.01,0.005c1.096,-0.338 2.236,-0.511 3.382,-0.511c6.317,0 11.446,5.129 11.446,11.447c0,6.317 -5.129,11.446 -11.446,11.446c-1.146,-0 -2.286,-0.172 -3.382,-0.511c-0.004,-0.001 -0.009,0.001 -0.01,0.006c-0.001,0.004 0.002,0.009 0.006,0.01c1.118,0.254 2.191,0.675 3.184,1.248c5.471,3.159 7.349,10.165 4.19,15.636c-3.159,5.471 -10.165,7.349 -15.636,4.19c-0.993,-0.573 -1.894,-1.292 -2.673,-2.133c-0.004,-0.004 -0.009,-0.004 -0.012,-0c-0.003,0.003 -0.003,0.008 -0,0.011c0.841,0.78 1.56,1.681 2.133,2.674c3.159,5.471 1.282,12.477 -4.189,15.636c-5.471,3.158 -12.478,1.281 -15.636,-4.19c-0.573,-0.993 -0.994,-2.066 -1.249,-3.184c-0.001,-0.005 -0.005,-0.008 -0.01,-0.006c-0.004,0.001 -0.007,0.006 -0.006,0.01c0.339,1.095 0.511,2.235 0.511,3.382c0,6.317 -5.129,11.446 -11.446,11.446c-6.317,0 -11.446,-5.129 -11.446,-11.446c-0,-1.147 0.172,-2.287 0.511,-3.382c0.001,-0.004 -0.002,-0.009 -0.006,-0.01c-0.005,-0.002 -0.009,0.001 -0.01,0.006c-0.255,1.118 -0.676,2.191 -1.249,3.184c-3.158,5.471 -10.165,7.348 -15.636,4.19c-5.471,-3.159 -7.348,-10.165 -4.189,-15.636c0.573,-0.993 1.292,-1.894 2.133,-2.674c0.003,-0.003 0.003,-0.008 0,-0.011c-0.003,-0.004 -0.008,-0.004 -0.012,-0c-0.779,0.841 -1.68,1.56 -2.673,2.133c-5.471,3.159 -12.477,1.281 -15.636,-4.19c-3.159,-5.471 -1.281,-12.477 4.19,-15.636c0.993,-0.573 2.066,-0.994 3.184,-1.248c0.004,-0.001 0.007,-0.006 0.006,-0.01c-0.001,-0.005 -0.006,-0.007 -0.01,-0.006c-1.096,0.339 -2.236,0.511 -3.382,0.511c-6.318,-0 -11.446,-5.129 -11.446,-11.446c-0,-6.318 5.128,-11.447 11.446,-11.447c1.146,0 2.286,0.173 3.382,0.511c0.004,0.002 0.009,-0.001 0.01,-0.005c0.001,-0.005 -0.002,-0.01 -0.006,-0.011c-1.118,-0.254 -2.191,-0.675 -3.184,-1.248c-5.471,-3.159 -7.349,-10.165 -4.19,-15.636c3.159,-5.471 10.165,-7.348 15.636,-4.19c0.993,0.574 1.894,1.293 2.673,2.134c0.004,0.003 0.009,0.003 0.012,-0c0.003,-0.003 0.003,-0.009 0,-0.012c-0.841,-0.779 -1.56,-1.68 -2.133,-2.673c-3.159,-5.471 -1.282,-12.477 4.189,-15.636c5.471,-3.159 12.478,-1.282 15.636,4.189c0.573,0.993 0.994,2.067 1.249,3.185c0.001,0.004 0.005,0.007 0.01,0.006c0.004,-0.001 0.007,-0.006 0.006,-0.011Zm-30.717,50.451l0.003,-0c0.121,-0.033 0.242,-0.068 0.362,-0.105l0.056,-0.016l0.598,-0.037l0.546,0.188l0.435,0.379l0.268,0.537l0.037,0.598l-0.188,0.546l-0.379,0.436l-0.537,0.267l-0.055,0.014c-0.123,0.028 -0.245,0.058 -0.367,0.09l-0.003,0.001c-0.838,0.225 -1.644,0.559 -2.397,0.993c-4.754,2.745 -6.386,8.833 -3.641,13.587c2.745,4.754 8.833,6.386 13.587,3.641c0.753,-0.435 1.445,-0.966 2.059,-1.58l0.002,-0.002c0.089,-0.089 0.176,-0.179 0.262,-0.272l0.04,-0.041l0.5,-0.332l0.566,-0.11l0.567,0.11l0.5,0.332l0.331,0.5l0.111,0.566l-0.111,0.567l-0.331,0.5l-0.042,0.04c-0.092,0.085 -0.183,0.173 -0.272,0.262l-0.002,0.002c-0.614,0.614 -1.145,1.306 -1.579,2.059c-2.745,4.754 -1.114,10.842 3.64,13.587c4.754,2.744 10.842,1.113 13.587,-3.641c0.435,-0.753 0.769,-1.559 0.993,-2.397l0.001,-0.003c0.033,-0.122 0.063,-0.244 0.091,-0.367l0.014,-0.056l0.267,-0.537l0.435,-0.379l0.546,-0.187l0.599,0.037l0.537,0.267l0.379,0.436l0.188,0.545l-0.037,0.599l-0.016,0.055c-0.038,0.121 -0.072,0.242 -0.105,0.363l-0.001,0.003c-0.224,0.839 -0.338,1.704 -0.338,2.573c-0,5.489 4.456,9.946 9.946,9.946c5.489,0 9.946,-4.457 9.946,-9.946c0,-0.869 -0.114,-1.734 -0.338,-2.573l-0.001,-0.003c-0.033,-0.121 -0.068,-0.242 -0.105,-0.363l-0.016,-0.055l-0.037,-0.599l0.188,-0.545l0.379,-0.436l0.537,-0.267l0.599,-0.037l0.545,0.187l0.436,0.379l0.267,0.537l0.014,0.056c0.028,0.123 0.058,0.245 0.091,0.367l0.001,0.003c0.224,0.838 0.558,1.644 0.993,2.397c2.745,4.754 8.833,6.385 13.587,3.641c4.754,-2.745 6.385,-8.833 3.64,-13.587c-0.434,-0.753 -0.965,-1.445 -1.579,-2.059l-0.002,-0.002c-0.089,-0.089 -0.18,-0.177 -0.272,-0.262l-0.042,-0.04l-0.331,-0.5l-0.111,-0.567l0.111,-0.566l0.331,-0.5l0.5,-0.332l0.567,-0.11l0.566,0.11l0.5,0.332l0.04,0.041c0.086,0.093 0.173,0.183 0.262,0.272l0.002,0.002c0.614,0.614 1.306,1.145 2.059,1.58c4.754,2.745 10.842,1.113 13.587,-3.641c2.745,-4.754 1.113,-10.842 -3.641,-13.587c-0.753,-0.434 -1.559,-0.768 -2.397,-0.993l-0.003,-0.001c-0.122,-0.032 -0.244,-0.062 -0.367,-0.09l-0.055,-0.014l-0.537,-0.267l-0.379,-0.436l-0.188,-0.546l0.037,-0.598l0.267,-0.537l0.436,-0.379l0.546,-0.188l0.598,0.037l0.056,0.016c0.12,0.037 0.241,0.072 0.362,0.105l0.003,0c0.839,0.225 1.704,0.339 2.573,0.339c5.49,-0 9.946,-4.457 9.946,-9.946c0,-5.49 -4.456,-9.947 -9.946,-9.947c-0.869,0 -1.734,0.114 -2.573,0.339l-0.003,0.001c-0.121,0.032 -0.242,0.067 -0.362,0.104l-0.056,0.016l-0.598,0.037l-0.546,-0.187l-0.436,-0.379l-0.267,-0.537l-0.037,-0.599l0.188,-0.546l0.379,-0.435l0.537,-0.268l0.055,-0.013c0.123,-0.028 0.245,-0.059 0.367,-0.091l0.003,-0.001c0.838,-0.225 1.644,-0.558 2.397,-0.993c4.754,-2.745 6.386,-8.833 3.641,-13.587c-2.745,-4.754 -8.833,-6.385 -13.587,-3.641c-0.753,0.435 -1.445,0.966 -2.059,1.58l-0.002,0.002c-0.089,0.089 -0.176,0.18 -0.262,0.272l-0.04,0.042l-0.5,0.331l-0.566,0.11l-0.567,-0.11l-0.5,-0.331l-0.331,-0.501l-0.111,-0.566l0.111,-0.566l0.331,-0.501l0.042,-0.039c0.092,-0.086 0.183,-0.173 0.272,-0.262l0.002,-0.002c0.614,-0.614 1.145,-1.306 1.579,-2.059c2.745,-4.754 1.114,-10.842 -3.64,-13.587c-4.754,-2.745 -10.842,-1.114 -13.587,3.64c-0.435,0.753 -0.769,1.559 -0.993,2.398l-0.001,0.003c-0.033,0.121 -0.063,0.243 -0.091,0.366l-0.014,0.056l-0.267,0.537l-0.436,0.379l-0.545,0.188l-0.599,-0.037l-0.537,-0.268l-0.379,-0.435l-0.188,-0.546l0.037,-0.599l0.016,-0.055c0.037,-0.12 0.072,-0.241 0.105,-0.363l0.001,-0.003c0.224,-0.838 0.338,-1.703 0.338,-2.572c0,-5.49 -4.457,-9.947 -9.946,-9.947c-5.49,0 -9.946,4.457 -9.946,9.947c-0,0.869 0.114,1.734 0.338,2.572l0.001,0.003c0.033,0.122 0.067,0.243 0.105,0.363l0.016,0.055l0.037,0.599l-0.188,0.546l-0.379,0.435l-0.537,0.268l-0.599,0.037l-0.546,-0.188l-0.435,-0.379l-0.267,-0.537l-0.014,-0.056c-0.028,-0.123 -0.058,-0.245 -0.091,-0.366l-0.001,-0.003c-0.224,-0.839 -0.558,-1.645 -0.993,-2.398c-2.745,-4.754 -8.833,-6.385 -13.587,-3.64c-4.754,2.745 -6.385,8.833 -3.64,13.587c0.434,0.753 0.965,1.445 1.579,2.059l0.002,0.002c0.089,0.089 0.18,0.176 0.272,0.262l0.042,0.039l0.331,0.501l0.111,0.566l-0.111,0.566l-0.331,0.501l-0.5,0.331l-0.567,0.11l-0.566,-0.11l-0.5,-0.331l-0.04,-0.042c-0.086,-0.092 -0.173,-0.183 -0.262,-0.272l-0.002,-0.002c-0.614,-0.614 -1.306,-1.145 -2.059,-1.58c-4.754,-2.744 -10.842,-1.113 -13.587,3.641c-2.745,4.754 -1.113,10.842 3.641,13.587c0.753,0.435 1.559,0.768 2.397,0.993l0.003,0.001c0.122,0.032 0.244,0.063 0.367,0.091l0.055,0.013l0.537,0.268l0.379,0.435l0.188,0.546l-0.037,0.599l-0.268,0.537l-0.435,0.379l-0.546,0.187l-0.598,-0.037l-0.056,-0.016c-0.12,-0.037 -0.241,-0.072 -0.362,-0.104l-0.003,-0.001c-0.839,-0.225 -1.704,-0.339 -2.573,-0.339c-5.49,0 -9.946,4.457 -9.946,9.947c-0,5.489 4.456,9.946 9.946,9.946c0.869,-0 1.734,-0.114 2.573,-0.339Z" style="fill:#ffd2ec;"/></g></g></svg>