<?xml version="1.0" encoding="UTF-8" standalone="no"?><!DOCTYPE svg PUBLIC "-//W3C//DTD SVG 1.1//EN" "http://www.w3.org/Graphics/SVG/1.1/DTD/svg11.dtd"><svg width="100%" height="100%" viewBox="0 0 376 963" version="1.1" xmlns="http://www.w3.org/2000/svg" xmlns:xlink="http://www.w3.org/1999/xlink" xml:space="preserve" xmlns:serif="http://www.serif.com/" style="fill-rule:evenodd;clip-rule:evenodd;stroke-linecap:round;stroke-linejoin:round;stroke-miterlimit:10;"><rect x="0" y="0" width="375.941" height="962.934" style="fill:none;"/><g><g><g><g><path d="M89.113,860.606c-5.045,1.125 -7.85,4.449 -9.752,9.125c-0.835,2.051 -1.417,3.6 0.12,5.356c1.751,2 3.605,0.578 5.281,-0.037c4.038,-1.486 7.294,-7.269 7.35,-11.547c0.031,-2.192 -1.459,-2.145 -2.519,-2.897" style="fill:none;fill-rule:nonzero;stroke:#ffd2ec;stroke-width:1.5px;"/><path d="M46.432,872.781c-5.044,1.126 -7.848,4.45 -9.751,9.126c-0.835,2.051 -1.419,3.599 0.119,5.356c1.752,2 3.605,0.578 5.281,-0.039c4.039,-1.485 7.293,-7.268 7.352,-11.545c0.03,-2.192 -1.46,-2.146 -2.52,-2.898" style="fill:none;fill-rule:nonzero;stroke:#ffd2ec;stroke-width:1.5px;"/><path d="M129.885,890.483c-0.4,-2.894 1.423,-4.91 2.92,-6.965c1.61,-2.202 3.408,-4.284 5.285,-6.266c1.426,-1.506 1.052,-2.329 -0.475,-3.449c-1.444,-1.063 -2.452,-2.733 -3.91,-3.771c-4.487,-3.198 -7.23,-8.183 -11.953,-11.198c-4.404,-2.814 -6.678,-7.607 -9.129,-12.014c-5.934,-10.675 -11.492,-21.564 -17.469,-32.216c-0.992,-1.767 -1.426,-5.09 -4.183,-4.619c-1.07,0.183 -1.693,3.257 -2.441,5.047c-4.025,9.637 -8.002,19.292 -12.073,28.908c-0.329,0.775 -1.132,1.518 -1.899,1.913c-6.705,3.433 -13.515,6.663 -20.15,10.222c-2.436,1.305 -4.129,1.547 -6.329,-0.501c-9.441,-8.784 -20.051,-16.046 -30.744,-23.18c-2.767,-1.846 -3.497,-1.346 -3.88,1.916c-0.847,7.246 -2.039,14.453 -2.801,21.706c-0.57,5.437 -0.703,10.923 -1.001,16.388c-0.069,1.281 0.11,2.585 -0.031,3.854c-0.507,4.531 -0.666,4.61 -5.267,4.83c-9.622,0.462 -19.241,0.958 -28.859,1.44" style="fill:none;fill-rule:nonzero;stroke:#ffd2ec;stroke-width:1.5px;"/><path d="M163.073,900.85c-6.243,-1.245 -12.375,-2.792 -18.306,-5.236c-4.347,-1.792 -9.044,-2.729 -13.402,-4.499c-2.398,-0.973 -3.552,0.152 -4.838,1.548c-5.112,5.543 -9.451,11.676 -12.936,18.343c-2.26,4.325 -5.878,6.366 -10.113,8.266c-6.814,3.056 -14.175,3.68 -21.208,5.687c-7.075,2.02 -14.33,3.092 -21.646,3.271c-3.834,0.093 -7.808,-0.433 -11.519,-1.429c-9.207,-2.474 -18.291,-5.402 -27.445,-8.085c-1.226,-0.359 -2.558,-0.349 -3.839,-0.509" style="fill:none;fill-rule:nonzero;stroke:#ffd2ec;stroke-width:1.5px;"/><path d="M174.616,867.1c-5.131,0.964 -10.231,2.14 -15.399,2.841c-6.813,0.924 -13.627,1.746 -20.194,3.909" style="fill:none;fill-rule:nonzero;stroke:#ffd2ec;stroke-width:1.5px;"/><path d="M7.719,881.564c1.157,3.058 -0.012,5.849 -0.953,8.681c-1.589,4.777 -2.068,9.863 -4.25,14.503c-0.725,1.545 -1.651,2.505 -2.969,3.339c-9.816,6.209 -20.141,11.623 -29.343,18.798" style="fill:none;fill-rule:nonzero;stroke:#ffd2ec;stroke-width:1.5px;"/><path d="M1.948,908.082c3.288,2.494 6.609,4.896 10.565,6.316c1.391,0.5 2.562,1.593 3.869,2.352c1.632,0.95 1.083,2.205 0.461,3.376c-1.882,3.559 -3.949,7.023 -5.729,10.63c-2.67,5.411 -5.157,10.915 -7.724,16.378" style="fill:none;fill-rule:nonzero;stroke:#ffd2ec;stroke-width:1.5px;"/><path d="M79.845,900.276c1.753,2.462 1.933,5.336 0.481,7.713c-2.713,4.446 -5.42,4.576 -10.1,0.484" style="fill:none;fill-rule:nonzero;stroke:#ffd2ec;stroke-width:1.5px;"/><path d="M57.239,906.544c0.323,1.769 0.177,3.84 1.079,5.226c1.166,1.794 2.742,3.755 5.674,2.53c3.226,-1.349 6.153,-4.546 5.689,-7.264c-0.526,-3.1 -1.54,-6.117 -2.34,-9.171" style="fill:none;fill-rule:nonzero;stroke:#ffd2ec;stroke-width:1.5px;"/><path d="M155.376,837.69c-0.64,0.16 -1.557,0.103 -1.882,0.515c-5.43,6.87 -12.836,11.307 -19.712,16.425c-2.701,2.011 -4.859,4.756 -7.263,7.166" style="fill:none;fill-rule:nonzero;stroke:#ffd2ec;stroke-width:1.5px;"/><path d="M61.391,896.408c-1.808,-0.994 -3.234,-2.835 -3.367,-4.899c-0.131,-2.067 1.26,-4.234 3.286,-4.634c2.023,-0.402 4.282,1.394 4.059,3.453c0.44,-1.22 0.962,-2.454 1.876,-3.369c0.918,-0.918 2.317,-1.454 3.538,-1.023c1.675,0.589 2.327,2.677 2.162,4.447c-0.545,5.891 -6.504,8.802 -11.554,6.025Z" style="fill:none;fill-rule:nonzero;stroke:#ffd2ec;stroke-width:1.5px;"/></g><g><path d="M325.521,652.114c-5.834,-7.799 -13.444,-8.558 -22.212,-6.026c-4.371,1.265 -6.523,3.336 -6.876,8.11c-1.11,15.087 5.784,22.088 17.964,27.943c4.776,2.298 10.276,3.156 15.886,2.411c8.752,-1.161 13.163,-7.162 16.168,-14.405c4.692,-11.308 6.799,-22.982 2.743,-35.019c-1.686,-4.995 -2.971,-10.238 -5.429,-14.834c-3.537,-6.606 -8.633,-6.915 -14.157,-2.26c-6.142,5.172 -8.962,12.236 -8.712,20.407c0.086,2.748 -0.076,5.501 -0.125,8.255" style="fill:none;fill-rule:nonzero;stroke:#ffd2ec;stroke-width:1.5px;"/><path d="M376.589,604.422c-6.855,-11.319 -8.887,-26.104 -3.043,-37.979c5.867,-11.881 20.494,-19.425 33,-15.134c12.5,4.268 19.295,21.482 11.492,32.183c6.333,-5.351 13.159,-10.514 21.148,-12.65c8.013,-2.142 17.483,-0.622 22.878,5.692c7.405,8.645 4.362,22.318 -2.198,31.6c-21.813,30.908 -64.138,27.906 -83.277,-3.712Z" style="fill:none;fill-rule:nonzero;stroke:#ffd2ec;stroke-width:1.5px;"/></g><g><path d="M66.51,253.374c6.227,-2.667 12.463,-5.315 18.681,-8.006c5.869,-2.542 11.729,-5.106 17.571,-7.706c3.022,-1.344 6.088,-2.638 8.922,-4.318c0.582,-0.346 3.893,-1.851 0.324,-3.566c-3.651,-1.754 -7.062,-3.999 -10.58,-6.031c-13.829,-7.985 -27.736,-15.849 -41.443,-24.043c-3.54,-2.118 -6.864,-2.439 -10.517,-1.248c-9.306,3.036 -18.583,6.154 -27.863,9.271c-1.461,0.491 -2.831,1.262 -4.3,1.72c-10.252,3.187 -20.621,6.033 -30.749,9.573c-9.098,3.179 -17.899,7.206 -26.904,10.668c-5.372,2.066 -10.933,3.647 -16.329,5.656c-6.324,2.352 -12.554,4.965 -18.847,7.401c-3.949,1.528 -7.922,2.987 -11.913,4.398c-9.781,3.454 -19.639,6.706 -29.358,10.334c-9.214,3.437 -18.259,7.342 -27.446,10.86c-5.376,2.061 -10.931,3.646 -16.327,5.653c-6.326,2.355 -12.56,4.952 -18.85,7.4c-1.066,0.415 -2.197,0.76 -3.327,0.882c-2.809,0.305 -4.395,2.003 -5.354,4.45c-4.609,11.744 -9.204,23.496 -13.787,35.251c-1.896,4.858 -3.814,9.713 -5.581,14.619c-0.485,1.345 -0.46,2.875 -0.669,4.319" style="fill:none;fill-rule:nonzero;stroke:#ffd2ec;stroke-width:1.5px;"/><path d="M0.329,219.386c-3.647,7.132 -7.492,14.171 -10.894,21.417c-4.286,9.134 -8.181,18.451 -12.299,27.664c-1.442,3.227 -3.194,6.32 -4.529,9.588c-1.49,3.651 -4.513,5.171 -7.888,6.241c-9.506,3.008 -19.106,5.728 -28.542,8.937c-13.828,4.704 -27.533,9.766 -41.312,14.61c-5.976,2.101 -11.991,4.092 -18.019,6.038c-8.395,2.709 -16.861,5.201 -25.217,8.023c-9.103,3.074 -18.038,6.671 -27.191,9.582c-10.404,3.307 -20.975,6.086 -31.451,9.173c-0.744,0.219 -1.294,1.092 -1.937,1.66" style="fill:none;fill-rule:nonzero;stroke:#ffd2ec;stroke-width:1.5px;"/><path d="M53.792,199.059c1.177,6.629 2.197,13.287 3.561,19.877c1.905,9.2 3.971,18.37 6.151,27.51c1.511,6.333 3.453,12.565 4.983,18.893c2.79,11.553 5.37,23.159 8.151,34.714c0.505,2.096 0.002,2.956 -2.062,3.576c-8.996,2.705 -18.004,5.397 -26.897,8.423c-11.099,3.777 -22.105,7.834 -33.122,11.855c-4.887,1.784 -9.651,3.919 -14.559,5.641c-6.699,2.35 -13.505,4.382 -20.22,6.688c-6.544,2.249 -13.039,4.648 -19.54,7.024c-5.782,2.115 -11.507,4.398 -17.324,6.411c-11.43,3.956 -22.942,7.677 -34.357,11.673c-13.244,4.633 -26.425,9.455 -39.633,14.201c-8.684,3.121 -17.401,6.163 -26.027,9.431c-3.17,1.202 -4.464,0.28 -4.968,-2.887c-1.309,-8.17 -2.744,-16.322 -4.136,-24.478c-0.063,-0.377 -0.212,-0.738 -0.288,-1.113c-1.365,-6.577 -2.651,-13.172 -4.125,-19.724c-0.459,-2.048 -1.417,-3.982 -2.143,-5.969" style="fill:none;fill-rule:nonzero;stroke:#ffd2ec;stroke-width:1.5px;"/><path d="M0.956,215.052c-0.075,1.21 -0.565,2.594 -0.15,3.6c1.949,4.7 2.851,9.506 3.406,14.598c0.764,7.026 2.85,13.896 4.174,20.87c1.647,8.692 3.094,17.422 4.63,26.135c0.033,0.189 0.108,0.371 0.145,0.556c2.276,11.492 4.516,22.989 6.865,34.466c0.343,1.675 1.22,3.24 1.851,4.856" style="fill:none;fill-rule:nonzero;stroke:#ffd2ec;stroke-width:1.5px;"/></g><g><path d="M318.921,814.509c1.455,-2.257 2.877,-4.536 4.371,-6.767c1.871,-2.796 4.022,-5.426 5.656,-8.35c2.949,-5.27 5.907,-10.575 8.279,-16.117c1.623,-3.792 2.169,-8.036 3.374,-12.024c0.635,-2.102 -0.368,-3.199 -1.979,-3.895c-5.296,-2.281 -10.889,-2.888 -16.588,-2.66c-14.359,0.576 -27.88,4.325 -40.624,10.888c-4.653,2.395 -9.07,5.189 -12.968,8.743c-1.02,0.93 -1.754,1.74 -1.485,3.36c2.379,14.332 7.275,27.625 15.914,39.421c3.201,4.373 6.045,5.416 11.109,4.113c8.027,-2.065 14.197,-7.133 20.182,-12.497c0.821,-0.736 1.692,-1.487 2.279,-2.398c1.215,-1.887 2.499,-1.377 4.032,-0.474c5.551,3.271 11.141,6.475 16.715,9.705" style="fill:none;fill-rule:nonzero;stroke:#ffd2ec;stroke-width:1.5px;"/><path d="M371.997,782.011c-6.703,4.901 -12.543,10.63 -17.842,17.082c-7.435,9.047 -13.064,19.059 -17.918,29.638c-3.698,8.06 -6.078,16.435 -6.988,25.229c-0.283,2.739 -0.123,5.527 -0.167,8.293" style="fill:none;fill-rule:nonzero;stroke:#ffd2ec;stroke-width:1.5px;"/><path d="M365.22,839.009c-5.609,-2.63 -11.23,-5.238 -16.826,-7.899c-3.523,-1.676 -7.009,-3.43 -10.509,-5.15" style="fill:none;fill-rule:nonzero;stroke:#ffd2ec;stroke-width:1.5px;"/><path d="M384.979,821.622c-6.78,3.006 -11.745,8.093 -16.359,13.761c-4.666,5.729 -8.302,12.021 -10.664,18.922c-1.412,4.129 -2.553,8.624 -0.712,13.102" style="fill:none;fill-rule:nonzero;stroke:#ffd2ec;stroke-width:1.5px;"/><path d="M386.781,849.174c-6.954,-3.254 -13.909,-6.508 -20.863,-9.762" style="fill:none;fill-rule:nonzero;stroke:#ffd2ec;stroke-width:1.5px;"/><path d="M287.88,790.187c-0.304,1.065 -0.91,2.145 -0.854,3.193c0.163,3.168 3.103,5.388 6.497,4.686c4.478,-0.924 8.085,-3.253 10.012,-7.653c0.967,-2.204 0.953,-4.55 -0.602,-6.28c-1.239,-1.378 -3.124,-1.967 -5.263,-1.344c-4.09,1.197 -8.631,2.511 -9.79,7.398" style="fill:none;fill-rule:nonzero;stroke:#ffd2ec;stroke-width:1.5px;"/></g><g><path d="M408.063,332.838c-11.651,-5.3 -23.823,-4.862 -36.132,-3.546c-9.484,1.013 -18.546,3.872 -27.166,7.459c-8.664,3.607 -17.111,8.15 -24.013,14.922c-1.313,1.287 -1.882,2.087 -1.216,4.172c3.452,10.798 9.925,19.85 16.377,28.875c7.044,9.849 15.661,18.269 24.984,25.981c5.223,4.322 11.129,7.275 17.418,9.664c2.416,0.919 3.217,-0.658 3.815,-2.07c3.47,-8.194 4.16,-16.706 1.563,-25.224c-2.302,-7.545 -6.396,-14.029 -13.419,-18.163c-2.161,-1.272 -4.492,-2.264 -6.788,-3.283c-2.053,-0.912 -4.519,-1.343 -3.747,-4.587c0.613,-2.567 1.439,-3.07 5.264,-2.944c6.506,0.214 12.919,-0.104 18.957,-2.952c8.409,-3.964 15.149,-9.644 19.991,-17.763c1.907,-3.198 3.756,-6.239 4.372,-9.928" style="fill:none;fill-rule:nonzero;stroke:#ffd2ec;stroke-width:1.5px;"/><path d="M210.207,318.95c1.319,-2.849 2.599,-5.718 3.969,-8.543c1.716,-3.54 3.782,-6.934 5.203,-10.584c2.564,-6.579 5.134,-13.2 6.987,-20c1.268,-4.653 1.218,-9.654 1.97,-14.466c0.397,-2.537 -0.942,-3.645 -2.919,-4.188c-6.498,-1.782 -13.07,-1.577 -19.631,-0.389c-16.529,2.996 -31.579,9.529 -45.274,19.193c-5.001,3.528 -9.664,7.479 -13.604,12.225c-1.031,1.242 -1.751,2.299 -1.179,4.131c5.064,16.205 12.872,30.799 24.774,43.053c4.409,4.544 7.87,5.289 13.522,2.96c8.96,-3.693 15.286,-10.56 21.351,-17.74c0.831,-0.986 1.718,-1.996 2.252,-3.146c1.103,-2.381 2.671,-2 4.59,-1.203c6.954,2.886 13.941,5.689 20.914,8.523" style="fill:none;fill-rule:nonzero;stroke:#ffd2ec;stroke-width:1.5px;"/><path d="M266.414,272.72c-6.97,6.761 -12.808,14.34 -17.903,22.669c-7.149,11.679 -12.053,24.182 -15.969,37.216c-2.982,9.931 -4.389,20.012 -4.026,30.34c0.115,3.217 0.748,6.418 1.143,9.627" style="fill:none;fill-rule:nonzero;stroke:#ffd2ec;stroke-width:1.5px;"/><path d="M267.75,339.802c-6.917,-2.134 -13.844,-4.242 -20.751,-6.415c-4.348,-1.368 -8.666,-2.833 -12.995,-4.256" style="fill:none;fill-rule:nonzero;stroke:#ffd2ec;stroke-width:1.5px;"/><path d="M287.823,316.469c-7.364,4.581 -12.293,11.275 -16.721,18.585c-4.479,7.388 -7.674,15.262 -9.298,23.633c-0.969,5.01 -1.566,10.398 1.287,15.284" style="fill:none;fill-rule:nonzero;stroke:#ffd2ec;stroke-width:1.5px;"/><path d="M294.347,348.073c-8.574,-2.639 -17.15,-5.279 -25.724,-7.918" style="fill:none;fill-rule:nonzero;stroke:#ffd2ec;stroke-width:1.5px;"/><path d="M309.951,329.528c-5.677,4.25 -9.89,9.671 -12.578,16.22c-0.593,1.444 -1.606,2.12 -2.675,3.045c-0.789,0.683 -0.881,2.32 -1.04,3.564c-0.69,5.423 -4.114,10.677 -1.041,16.347" style="fill:none;fill-rule:nonzero;stroke:#ffd2ec;stroke-width:1.5px;"/><path d="M317.81,354.055c-1.92,-0.273 -3.956,-0.226 -5.738,-0.878c-5.021,-1.837 -10.708,-1.676 -15.192,-5.091" style="fill:none;fill-rule:nonzero;stroke:#ffd2ec;stroke-width:1.5px;"/><path d="M170.354,295.829c-0.18,1.282 -0.708,2.631 -0.475,3.834c0.7,3.642 4.461,5.734 8.276,4.372c5.035,-1.796 8.836,-5.078 10.358,-10.483c0.765,-2.71 0.371,-5.422 -1.708,-7.173c-1.656,-1.394 -3.934,-1.77 -6.309,-0.702c-4.542,2.049 -9.587,4.307 -10.142,10.152" style="fill:none;fill-rule:nonzero;stroke:#ffd2ec;stroke-width:1.5px;"/></g><g><path d="M-46.196,450.654c-4.501,-4.205 -8.493,-9.227 -13.617,-12.435c-9.122,-5.715 -18.046,-12.123 -28.79,-14.702c-3.208,-0.77 -6.535,-1.146 -9.831,-1.425c-4.926,-0.42 -4.907,-0.033 -6.168,4.967c-1.337,5.304 -0.086,10.371 0.893,15.373c3.29,16.827 11.078,31.848 20.429,45.893c9.113,13.685 20.378,25.54 34.106,34.937c8.344,5.712 17.166,10.188 27.028,12.196c4.094,0.834 8.332,0.472 12.664,-0.42c11.992,-2.469 21.604,-8.964 30.726,-16.555c5.168,-4.299 10.934,-8.083 15.33,-13.072c8.259,-9.377 11.749,-21.118 13.446,-33.275c1.505,-10.758 1.478,-21.561 -0.322,-32.361c-0.373,-2.225 -0.919,-4.71 1.225,-7.232c9.916,-11.647 19.457,-23.613 29.132,-35.467" style="fill:none;fill-rule:nonzero;stroke:#ffd2ec;stroke-width:1.5px;"/><path d="M49.77,432.973l-1.687,-6.317c-2.135,-7.999 -3.878,-16.13 -6.503,-23.965c-3.593,-10.722 -8.007,-21.111 -14.002,-30.827c-1.517,-2.455 -2.963,-4.482 -5.472,-4.397c-2.864,0.098 -4.548,2.281 -5.366,5.308c-1.943,7.178 -4.401,14.217 -6.351,21.394c-2.689,9.889 -5.142,19.841 -7.568,29.797c-0.298,1.217 0.195,2.625 0.323,3.943" style="fill:none;fill-rule:nonzero;stroke:#ffd2ec;stroke-width:1.5px;"/><path d="M1.837,425.554c-19.629,0.16 -35.022,9.517 -48.706,22.574" style="fill:none;fill-rule:nonzero;stroke:#ffd2ec;stroke-width:1.5px;"/><path d="M87.482,435.017c-0.461,0.802 -0.736,2.048 -1.414,2.336c-9.498,4.019 -19.05,7.91 -28.595,11.821c-1.823,0.748 -3.668,1.442 -5.502,2.16" style="fill:none;fill-rule:nonzero;stroke:#ffd2ec;stroke-width:1.5px;"/><path d="M51.603,467.679c8.589,1.171 17.405,0.858 25.591,4.577c5.656,2.569 11.552,4.614 17.343,6.895" style="fill:none;fill-rule:nonzero;stroke:#ffd2ec;stroke-width:1.5px;"/><path d="M19.041,445.898c-6.224,3.256 -8.739,8.607 -9.597,15.414c-0.377,2.986 -0.601,5.224 2.031,6.984c3.001,2.008 4.934,-0.512 6.917,-1.912c4.78,-3.373 7.024,-12.11 5.602,-17.743c-0.731,-2.886 -2.668,-2.303 -4.321,-2.913" style="fill:none;fill-rule:nonzero;stroke:#ffd2ec;stroke-width:1.5px;"/></g><g><path d="M23.97,697.005c1.486,7.295 3.338,14.526 3.201,22.068c-0.07,3.943 0.216,7.893 0.132,11.837c-0.045,2.19 -1.765,3.676 -3.065,5.208c-3.973,4.683 -8.51,8.694 -13.574,12.256c-8.784,6.177 -18.477,9.337 -29.03,10.323c-7.014,0.657 -13.967,0.072 -20.559,-2.251c-12.295,-4.331 -21.884,-12.166 -27.811,-23.952c-1.876,-3.731 -2.946,-7.88 -4.24,-11.885c-0.334,-1.035 -0.288,-2.279 -0.1,-3.372c0.228,-1.342 -0.176,-2.169 -1.34,-2.71c-1.234,-0.573 -2.178,-0.129 -2.925,0.895c-6.074,8.333 -14.97,11.98 -24.411,14.626c-6.896,1.933 -14.061,2.491 -21.119,2.25c-5.273,-0.18 -10.684,-0.452 -15.877,-2.039c-4.551,-1.391 -9.227,-2.368 -13.763,-3.795c-2.389,-0.751 -4.511,-2.417 -6.916,-3.043c-2.365,-0.616 -1.748,-1.969 -1.135,-3.089c1.889,-3.457 3.753,-6.975 6.068,-10.144c5.875,-8.041 13.292,-14.472 21.942,-19.337c6.725,-3.784 13.906,-6.398 21.798,-6.292c3.966,0.054 5.912,-3.275 5.109,-6.697c-0.751,-3.203 -2.363,-5.683 -5.893,-6.72c-3.694,-1.086 -6.785,-3.567 -9.371,-6.243c-9.369,-9.701 -16.12,-21.092 -20.136,-33.991c-1.129,-3.629 -1.522,-7.508 -2.01,-11.304c-0.123,-0.955 0.391,-2.455 1.126,-2.978c4.29,-3.049 9.047,-4.352 14.421,-4.011c4.545,0.291 8.854,1.515 12.965,3.045c5.12,1.905 9.847,4.8 14.343,8.045c8.228,5.936 15.225,13.028 21.213,21.212c5.065,6.924 8.82,14.459 11.449,22.608c0.385,1.192 0.553,2.235 0.47,3.498c-0.076,1.15 -0.051,3.076 1.361,3.267c1.066,0.145 2.831,-0.716 3.388,-1.66c3.685,-6.25 8.677,-11.192 14.593,-15.23c8.34,-5.69 17.393,-8.143 27.572,-6.462c11.33,1.869 19.974,8.011 27.149,16.491c7.205,8.515 11.876,18.413 14.747,29.178" style="fill:none;fill-rule:nonzero;stroke:#ffd2ec;stroke-width:1.5px;"/><g><ellipse cx="37.442" cy="665.387" rx="6.339" ry="6.361" style="fill:none;stroke:#ffd2ec;stroke-width:1.5px;stroke-miterlimit:1.5;"/><ellipse cx="54.521" cy="647.255" rx="4.818" ry="4.835" style="fill:none;stroke:#ffd2ec;stroke-width:1.5px;stroke-miterlimit:1.5;"/><ellipse cx="33.528" cy="630.019" rx="3.914" ry="3.927" style="fill:none;stroke:#ffd2ec;stroke-width:1.5px;stroke-miterlimit:1.5;"/></g><path d="M5.835,713.342c-0.433,0.782 -0.702,1.745 -1.328,2.311c-1.895,1.714 -4.833,1.296 -6.371,-1.046c-2.031,-3.091 -2.763,-6.485 -1.362,-10.1c0.702,-1.81 2.044,-3.141 3.915,-3.237c1.489,-0.077 2.901,0.666 3.765,2.247c1.654,3.024 3.498,6.372 1.381,9.825" style="fill:none;fill-rule:nonzero;stroke:#ffd2ec;stroke-width:1.5px;"/></g><g><path d="M220.886,556.261c-5.409,-1.571 -10.027,-0.202 -14.448,3.249c-4.382,3.417 -6.983,7.649 -8.226,13.008c-1.12,4.824 0.283,8.87 3.624,12.071c3.359,3.215 7.676,2.55 11.537,1.116c6.113,-2.273 9.991,-7.113 12.598,-12.917c2.423,-5.384 0.729,-11.27 -4.344,-16.328" style="fill:none;fill-rule:nonzero;stroke:#ffd2ec;stroke-width:1.5px;"/><path d="M166.539,542.446c1.946,-1.339 4.089,-2.467 5.808,-4.056c5.937,-5.49 6.317,-14.271 4.284,-20.708c-1.363,-4.318 -4.065,-8.038 -8.288,-10.277c-3.674,-1.947 -7.316,-1.302 -10.507,0.81c-10.895,7.211 -9.264,24.019 -1.901,30.909c2.747,2.572 6.322,3.742 10.233,3.222" style="fill:none;fill-rule:nonzero;stroke:#ffd2ec;stroke-width:1.5px;"/><path d="M206.615,518.895c-3.984,-0.023 -7.8,0.422 -11.148,2.975c-7.061,5.384 -10.137,15.129 -7.298,23.157c2.436,6.887 11.131,9.553 17.516,5.522c6.995,-4.417 10.059,-11.025 9.958,-19.252c-0.063,-5.011 -2.014,-8.765 -6.624,-10.974c-0.724,-0.346 -1.359,-0.881 -2.033,-1.328" style="fill:none;fill-rule:nonzero;stroke:#ffd2ec;stroke-width:1.5px;"/><path d="M131.068,524.925c-4.528,0.58 -7.803,2.577 -10.318,6.756c-2.51,4.171 -2.403,8.402 -1.926,12.666c0.59,5.274 3.13,9.855 7.046,13.485c6.211,5.757 15.979,4.669 19.634,-2.714c2.656,-5.368 3.201,-11.511 0.722,-17.276c-1.203,-2.797 -3.348,-5.178 -4.988,-7.796c-2.286,-3.652 -6.208,-3.99 -9.8,-5.021" style="fill:none;fill-rule:nonzero;stroke:#ffd2ec;stroke-width:1.5px;"/><path d="M172.736,550.499c-6.836,0.007 -11.868,3.544 -16.133,8.452c-0.941,1.085 -1.807,2.421 -2.183,3.787c-1.674,6.043 -6.011,9.563 -11.272,12.095c-3.688,1.777 -7.581,2.97 -11.663,3.778c-6.755,1.337 -10.909,5.903 -12.471,12.523c-1.448,6.139 0.277,11.482 5.38,15.394c4.187,3.209 8.934,3.909 14.006,2.594c1.277,-0.331 2.561,-0.627 3.834,-0.97c5.902,-1.591 11.538,0.014 16.962,1.936c2.01,0.712 3.497,3.072 5.059,4.826c0.827,0.93 1.321,2.162 1.93,3.277c3.95,7.223 11.697,9.031 18.838,6.518c4.293,-1.511 8.201,-4.232 10.778,-8.52c4.017,-6.691 5.494,-13.593 2.282,-20.907c-1.34,-3.049 -3.168,-5.978 -5.243,-8.585c-4.524,-5.682 -5.639,-12.333 -5.916,-19.224c-0.24,-6.055 -2.193,-11.218 -7.295,-14.625c-1.851,-1.236 -4.331,-1.528 -6.523,-2.25" style="fill:none;fill-rule:nonzero;stroke:#ffd2ec;stroke-width:1.5px;"/></g><g><path d="M18.351,92.702c1.074,-2.34 3.321,-2.7 5.278,-2.296c2.65,0.549 5.286,1.589 7.659,2.904c1.478,0.816 2.498,2.5 3.65,3.855c7.287,8.576 18.482,10.26 28.359,5.158c7.943,-4.102 13.381,-10.03 17.058,-18.026c3.051,-6.629 2.887,-13.498 0.872,-20.041c-1.138,-3.705 -4.24,-6.942 -6.899,-10.004c-10.157,-11.7 -22.822,-18.054 -38.56,-17.183c-8.924,0.494 -17.412,3.083 -25.168,7.331c-7.437,4.077 -14.885,8.444 -21.424,13.795c-14.481,11.85 -24.972,26.407 -26.355,45.928c-0.913,12.881 9.066,28.398 21.44,30.635c8.547,1.547 16.413,1.522 23.668,-3.262c10.558,-6.965 14.139,-17.982 9.773,-28.363c-1.355,-3.216 -2.472,-6.553 0.438,-9.638" style="fill:none;fill-rule:nonzero;stroke:#ffd2ec;stroke-width:1.5px;"/><path d="M-10.742,17.751c2.263,3.157 4.091,6.78 6.868,9.384c7.988,7.497 18.199,4.425 21.033,-6.137c2.57,-9.573 0.184,-18.037 -6.961,-24.726c-5.413,-5.064 -12.646,-5.977 -17.672,-1.869c-4.166,3.403 -4.697,8.31 -5.07,13.071c-0.25,3.209 -0.228,6.666 2.014,9.484" style="fill:none;fill-rule:nonzero;stroke:#ffd2ec;stroke-width:1.5px;"/><path d="M46.612,-11.457c-6.303,7.581 -8.671,16.221 -6.425,25.859c0.9,3.861 2.698,7.367 6.19,9.817c3.979,2.791 9.546,3.131 12.69,-0.065c9.784,-9.949 11.239,-24.546 3.107,-35.243c-2.413,-3.174 -7.842,-4.396 -11.546,-2.673c-1.218,0.568 -2.345,1.337 -3.515,2.015" style="fill:none;fill-rule:nonzero;stroke:#ffd2ec;stroke-width:1.5px;"/></g><g><path d="M265.06,94.807c0.45,7.476 0.526,14.985 2.615,22.277c1.092,3.813 1.839,7.726 2.943,11.536c0.612,2.116 2.669,3.11 4.33,4.259c5.075,3.512 10.523,6.224 16.367,8.362c10.137,3.706 20.374,4.245 30.884,2.446c6.985,-1.195 13.589,-3.579 19.391,-7.559c10.822,-7.419 18.106,-17.537 20.807,-30.537c0.855,-4.115 0.818,-8.425 1.036,-12.654c0.056,-1.093 -0.311,-2.29 -0.777,-3.303c-0.571,-1.244 -0.392,-2.153 0.599,-2.984c1.05,-0.878 2.082,-0.694 3.074,0.106c8.062,6.51 17.652,7.728 27.512,7.834c7.2,0.076 14.307,-1.253 21.102,-3.331c5.077,-1.553 10.264,-3.231 14.897,-6.129c4.061,-2.541 8.351,-4.712 12.388,-7.284c2.126,-1.354 3.756,-3.526 5.93,-4.762c2.138,-1.217 1.187,-2.371 0.301,-3.299c-2.732,-2.865 -5.456,-5.796 -8.527,-8.27c-7.794,-6.277 -16.669,-10.588 -26.336,-13.055c-7.515,-1.92 -15.17,-2.584 -22.81,-0.419c-3.84,1.088 -6.594,-1.638 -6.702,-5.172c-0.101,-3.309 0.822,-6.139 3.982,-8.069c3.308,-2.02 5.667,-5.238 7.485,-8.513c6.586,-11.874 10.191,-24.705 10.746,-38.286c0.156,-3.821 -0.469,-7.693 -0.979,-11.508c-0.128,-0.96 -1.017,-2.283 -1.867,-2.599c-4.959,-1.842 -9.919,-1.865 -15.052,-0.13c-4.34,1.47 -8.209,3.785 -11.806,6.345c-4.481,3.189 -8.322,7.237 -11.849,11.564c-6.454,7.917 -11.413,16.635 -15.107,26.151c-3.126,8.051 -4.819,16.352 -5.259,24.957c-0.065,1.259 0.042,2.316 0.451,3.522c0.372,1.097 0.848,2.975 -0.475,3.529c-0.998,0.42 -2.936,0.044 -3.723,-0.727c-5.201,-5.111 -11.333,-8.608 -18.129,-10.985c-9.58,-3.35 -19.011,-3.368 -28.465,0.924c-10.523,4.776 -17.328,13.001 -22.1,23.115c-4.79,10.155 -6.761,20.992 -6.757,32.202" style="fill:none;fill-rule:nonzero;stroke:#ffd2ec;stroke-width:1.5px;"/><g><path d="M242.119,61.427c-3.399,0.914 -5.42,4.425 -4.509,7.836c0.911,3.412 4.41,5.439 7.809,4.525c3.4,-0.914 5.42,-4.426 4.509,-7.837c-0.911,-3.411 -4.41,-5.438 -7.809,-4.524Z" style="fill:none;stroke:#ffd2ec;stroke-width:1.5px;stroke-miterlimit:1.5;"/><path d="M221.216,49.754c-2.584,0.695 -4.119,3.364 -3.427,5.956c0.692,2.593 3.352,4.134 5.936,3.44c2.584,-0.695 4.12,-3.364 3.427,-5.957c-0.692,-2.593 -3.352,-4.134 -5.936,-3.439Z" style="fill:none;stroke:#ffd2ec;stroke-width:1.5px;stroke-miterlimit:1.5;"/><path d="M237.377,28.406c-2.098,0.564 -3.346,2.732 -2.783,4.838c0.562,2.106 2.722,3.358 4.821,2.793c2.098,-0.564 3.346,-2.732 2.783,-4.838c-0.562,-2.106 -2.722,-3.357 -4.821,-2.793Z" style="fill:none;stroke:#ffd2ec;stroke-width:1.5px;stroke-miterlimit:1.5;"/></g><path d="M286.919,105.942c0.623,0.647 1.135,1.512 1.889,1.898c2.286,1.171 5.033,-0.003 5.919,-2.68c1.171,-3.534 1.002,-7.023 -1.297,-10.168c-1.152,-1.576 -2.8,-2.518 -4.643,-2.123c-1.466,0.314 -2.645,1.405 -3.075,3.166c-0.823,3.371 -1.746,7.106 1.207,9.907" style="fill:none;fill-rule:nonzero;stroke:#ffd2ec;stroke-width:1.5px;"/></g><path d="M363.57,191.646c-0.378,-1.227 -0.57,-2.503 -0.57,-3.787c0,-7.074 5.723,-12.817 12.772,-12.817c7.05,-0 12.773,5.743 12.773,12.817c0,1.284 -0.193,2.56 -0.57,3.787c-0.002,0.005 0.001,0.01 0.006,0.011c0.005,0.001 0.01,-0.002 0.011,-0.007c0.284,-1.251 0.754,-2.453 1.393,-3.565c3.525,-6.126 11.343,-8.228 17.448,-4.691c6.105,3.536 8.199,11.382 4.675,17.508c-0.64,1.112 -1.442,2.121 -2.381,2.993c-0.003,0.004 -0.004,0.01 0,0.013c0.004,0.004 0.01,0.004 0.013,-0c0.87,-0.941 1.875,-1.747 2.983,-2.389c6.105,-3.536 13.923,-1.434 17.447,4.692c3.525,6.126 1.43,13.971 -4.675,17.508c-1.107,0.642 -2.305,1.113 -3.553,1.398c-0.005,0.001 -0.008,0.006 -0.006,0.011c0.001,0.005 0.006,0.008 0.011,0.007c1.222,-0.379 2.495,-0.572 3.774,-0.572c7.049,-0 12.772,5.743 12.772,12.817c0,7.074 -5.723,12.817 -12.772,12.817c-1.279,-0 -2.552,-0.193 -3.774,-0.572c-0.005,-0.002 -0.01,0.001 -0.011,0.006c-0.002,0.005 0.001,0.01 0.006,0.012c1.248,0.284 2.446,0.756 3.553,1.397c6.105,3.537 8.2,11.383 4.675,17.509c-3.524,6.126 -11.342,8.228 -17.447,4.691c-1.108,-0.642 -2.113,-1.447 -2.983,-2.389c-0.003,-0.003 -0.009,-0.004 -0.013,-0c-0.004,0.004 -0.003,0.01 0,0.013c0.939,0.873 1.741,1.882 2.381,2.994c3.524,6.126 1.43,13.971 -4.675,17.508c-6.105,3.537 -13.923,1.435 -17.448,-4.691c-0.639,-1.112 -1.109,-2.314 -1.393,-3.566c-0.001,-0.005 -0.006,-0.008 -0.011,-0.007c-0.005,0.002 -0.008,0.007 -0.006,0.012c0.377,1.226 0.57,2.503 0.57,3.787c0,7.074 -5.723,12.817 -12.773,12.817c-7.049,-0 -12.772,-5.743 -12.772,-12.817c0,-1.284 0.192,-2.561 0.57,-3.787c0.002,-0.005 -0.001,-0.01 -0.006,-0.012c-0.005,-0.001 -0.01,0.002 -0.012,0.007c-0.283,1.252 -0.753,2.454 -1.393,3.566c-3.524,6.126 -11.342,8.228 -17.447,4.691c-6.105,-3.537 -8.2,-11.382 -4.675,-17.508c0.64,-1.112 1.442,-2.121 2.381,-2.994c0.003,-0.003 0.003,-0.009 0,-0.013c-0.004,-0.004 -0.01,-0.003 -0.013,-0c-0.87,0.942 -1.876,1.747 -2.983,2.389c-6.105,3.537 -13.923,1.435 -17.448,-4.691c-3.524,-6.126 -1.43,-13.972 4.675,-17.509c1.108,-0.641 2.306,-1.113 3.553,-1.397c0.005,-0.002 0.008,-0.007 0.007,-0.012c-0.001,-0.005 -0.006,-0.008 -0.011,-0.006c-1.223,0.379 -2.495,0.572 -3.774,0.572c-7.049,-0 -12.772,-5.743 -12.772,-12.817c0,-7.074 5.723,-12.817 12.772,-12.817c1.279,-0 2.551,0.193 3.774,0.572c0.005,0.001 0.01,-0.002 0.011,-0.007c0.001,-0.005 -0.002,-0.01 -0.007,-0.011c-1.247,-0.285 -2.445,-0.756 -3.553,-1.398c-6.105,-3.537 -8.199,-11.382 -4.675,-17.508c3.525,-6.126 11.343,-8.228 17.448,-4.692c1.107,0.642 2.113,1.448 2.983,2.389c0.003,0.004 0.009,0.004 0.013,-0c0.003,-0.003 0.003,-0.009 0,-0.013c-0.939,-0.872 -1.741,-1.881 -2.381,-2.993c-3.525,-6.126 -1.43,-13.972 4.675,-17.508c6.105,-3.537 13.923,-1.435 17.447,4.691c0.64,1.112 1.11,2.314 1.393,3.565c0.002,0.005 0.007,0.008 0.012,0.007c0.005,-0.001 0.008,-0.006 0.006,-0.011Zm-34.231,56.666l0.003,-0.001c0.137,-0.037 0.275,-0.077 0.411,-0.119l0.055,-0.016l0.601,-0.037l0.548,0.189l0.435,0.38l0.266,0.536l0.037,0.597l-0.187,0.545l-0.378,0.436l-0.538,0.269l-0.056,0.014c-0.139,0.032 -0.277,0.066 -0.415,0.103l-0.004,0.001c-0.95,0.256 -1.863,0.635 -2.716,1.129c-5.391,3.124 -7.239,10.053 -4.127,15.463c3.111,5.405 10.009,7.262 15.396,4.141c0.853,-0.494 1.637,-1.098 2.333,-1.797l0.002,-0.002c0.101,-0.101 0.2,-0.204 0.297,-0.309l0.04,-0.042l0.501,-0.333l0.568,-0.111l0.569,0.111l0.5,0.333l0.331,0.5l0.109,0.566l-0.109,0.565l-0.331,0.5l-0.041,0.04c-0.105,0.097 -0.207,0.196 -0.308,0.298l-0.003,0.002c-0.696,0.699 -1.298,1.486 -1.791,2.343c-3.112,5.41 -1.264,12.339 4.127,15.462c5.387,3.121 12.285,1.264 15.395,-4.141c0.493,-0.857 0.872,-1.775 1.127,-2.729l0,-0.003c0.037,-0.138 0.072,-0.278 0.103,-0.417l0.014,-0.056l0.267,-0.537l0.435,-0.38l0.547,-0.188l0.601,0.037l0.538,0.269l0.379,0.436l0.186,0.545l-0.036,0.597l-0.016,0.055c-0.042,0.137 -0.082,0.274 -0.119,0.413l-0.001,0.003c-0.255,0.955 -0.384,1.939 -0.384,2.929c0,6.244 5.05,11.317 11.272,11.317c6.223,-0 11.273,-5.073 11.273,-11.317c0,-0.99 -0.13,-1.974 -0.384,-2.929l-0.001,-0.003c-0.037,-0.139 -0.077,-0.276 -0.119,-0.413l-0.016,-0.055l-0.036,-0.597l0.186,-0.545l0.378,-0.436l0.539,-0.269l0.601,-0.037l0.547,0.188l0.435,0.38l0.267,0.537l0.013,0.056c0.032,0.139 0.066,0.279 0.103,0.417l0.001,0.003c0.255,0.954 0.634,1.872 1.127,2.729c3.11,5.405 10.008,7.262 15.395,4.141c5.391,-3.123 7.239,-10.052 4.127,-15.462c-0.493,-0.857 -1.095,-1.644 -1.791,-2.343l-0.003,-0.002c-0.101,-0.102 -0.203,-0.201 -0.308,-0.298l-0.041,-0.04l-0.331,-0.5l-0.11,-0.565l0.11,-0.566l0.331,-0.5l0.5,-0.333l0.569,-0.111l0.568,0.111l0.501,0.333l0.039,0.042c0.098,0.105 0.197,0.208 0.297,0.309l0.003,0.002c0.695,0.699 1.48,1.303 2.333,1.797c5.387,3.121 12.285,1.264 15.395,-4.141c3.113,-5.41 1.265,-12.339 -4.126,-15.463c-0.853,-0.494 -1.767,-0.873 -2.717,-1.129l-0.003,-0.001c-0.138,-0.037 -0.276,-0.071 -0.415,-0.103l-0.056,-0.014l-0.538,-0.269l-0.379,-0.436l-0.186,-0.545l0.036,-0.597l0.267,-0.536l0.435,-0.38l0.547,-0.189l0.602,0.037l0.055,0.016c0.136,0.042 0.273,0.082 0.411,0.119l0.003,0.001c0.95,0.255 1.93,0.385 2.915,0.385c6.223,-0 11.272,-5.073 11.272,-11.317c0,-6.245 -5.049,-11.317 -11.272,-11.317c-0.985,-0 -1.965,0.129 -2.915,0.385l-0.003,-0c-0.138,0.038 -0.275,0.077 -0.411,0.12l-0.055,0.016l-0.602,0.037l-0.547,-0.189l-0.435,-0.38l-0.267,-0.537l-0.036,-0.597l0.186,-0.545l0.379,-0.436l0.538,-0.269l0.056,-0.013c0.139,-0.032 0.277,-0.067 0.415,-0.104l0.003,-0.001c0.95,-0.255 1.864,-0.635 2.717,-1.129c5.391,-3.123 7.239,-10.052 4.126,-15.462c-3.11,-5.406 -10.008,-7.263 -15.395,-4.142c-0.853,0.495 -1.638,1.099 -2.333,1.797l-0.003,0.002c-0.1,0.101 -0.199,0.205 -0.297,0.31l-0.039,0.041l-0.501,0.333l-0.568,0.111l-0.569,-0.111l-0.5,-0.333l-0.331,-0.5l-0.11,-0.565l0.11,-0.565l0.331,-0.5l0.041,-0.04c0.105,-0.098 0.207,-0.197 0.308,-0.298l0.003,-0.003c0.696,-0.698 1.298,-1.486 1.791,-2.342c3.112,-5.41 1.264,-12.339 -4.127,-15.463c-5.387,-3.121 -12.285,-1.264 -15.395,4.142c-0.493,0.857 -0.872,1.774 -1.127,2.728l-0.001,0.004c-0.037,0.138 -0.071,0.277 -0.103,0.417l-0.013,0.056l-0.267,0.536l-0.435,0.38l-0.547,0.189l-0.601,-0.037l-0.539,-0.269l-0.378,-0.436l-0.186,-0.545l0.036,-0.597l0.016,-0.055c0.042,-0.137 0.082,-0.275 0.119,-0.413l0.001,-0.004c0.254,-0.954 0.384,-1.939 0.384,-2.928c0,-6.245 -5.05,-11.317 -11.273,-11.317c-6.222,-0 -11.272,5.072 -11.272,11.317c0,0.989 0.129,1.974 0.384,2.928l0.001,0.004c0.037,0.138 0.077,0.276 0.119,0.413l0.016,0.055l0.036,0.597l-0.186,0.545l-0.379,0.436l-0.538,0.269l-0.601,0.037l-0.547,-0.189l-0.435,-0.38l-0.267,-0.536l-0.014,-0.056c-0.031,-0.14 -0.066,-0.279 -0.103,-0.417l0,-0.004c-0.255,-0.954 -0.634,-1.871 -1.127,-2.728c-3.11,-5.406 -10.008,-7.263 -15.395,-4.142c-5.391,3.124 -7.239,10.053 -4.127,15.463c0.493,0.856 1.095,1.644 1.791,2.342l0.003,0.003c0.101,0.101 0.203,0.2 0.308,0.298l0.041,0.04l0.331,0.5l0.109,0.565l-0.109,0.565l-0.331,0.5l-0.5,0.333l-0.569,0.111l-0.568,-0.111l-0.501,-0.333l-0.04,-0.041c-0.097,-0.105 -0.196,-0.209 -0.297,-0.31l-0.002,-0.002c-0.696,-0.698 -1.48,-1.302 -2.333,-1.797c-5.387,-3.121 -12.285,-1.264 -15.396,4.142c-3.112,5.41 -1.264,12.339 4.127,15.462c0.853,0.494 1.766,0.874 2.716,1.129l0.004,0.001c0.138,0.037 0.276,0.072 0.415,0.104l0.056,0.013l0.538,0.269l0.378,0.436l0.187,0.545l-0.037,0.597l-0.266,0.537l-0.435,0.38l-0.548,0.189l-0.601,-0.037l-0.055,-0.016c-0.136,-0.043 -0.274,-0.082 -0.411,-0.12l-0.003,-0c-0.95,-0.256 -1.93,-0.385 -2.915,-0.385c-6.223,-0 -11.272,5.072 -11.272,11.317c0,6.244 5.049,11.317 11.272,11.317c0.985,-0 1.965,-0.13 2.915,-0.385Z" style="fill:#ffd2ec;"/><path d="M144.828,685.188c-0.321,-1.044 -0.485,-2.13 -0.485,-3.223c0,-6.02 4.871,-10.908 10.87,-10.908c5.999,0 10.87,4.888 10.87,10.908c0,1.093 -0.163,2.179 -0.485,3.223c-0.001,0.004 0.001,0.009 0.005,0.01c0.005,0.001 0.009,-0.002 0.01,-0.006c0.242,-1.065 0.641,-2.088 1.186,-3.034c2.999,-5.214 9.653,-7.003 14.849,-3.993c5.195,3.01 6.978,9.687 3.978,14.901c-0.544,0.946 -1.227,1.805 -2.026,2.547c-0.003,0.004 -0.003,0.009 0,0.012c0.003,0.003 0.008,0.003 0.011,0c0.74,-0.802 1.596,-1.487 2.539,-2.033c5.196,-3.011 11.849,-1.222 14.849,3.992c3,5.214 1.217,11.891 -3.979,14.901c-0.943,0.546 -1.962,0.947 -3.024,1.19c-0.004,0.001 -0.007,0.005 -0.005,0.009c0.001,0.005 0.005,0.007 0.009,0.006c1.041,-0.323 2.123,-0.487 3.212,-0.487c5.999,0 10.87,4.888 10.87,10.908c0,6.021 -4.871,10.908 -10.87,10.908c-1.089,0 -2.171,-0.164 -3.212,-0.487c-0.004,-0.001 -0.008,0.002 -0.009,0.006c-0.002,0.004 0.001,0.009 0.005,0.01c1.062,0.242 2.081,0.643 3.024,1.189c5.196,3.011 6.979,9.687 3.979,14.901c-3,5.214 -9.653,7.003 -14.849,3.993c-0.943,-0.546 -1.799,-1.232 -2.539,-2.033c-0.003,-0.003 -0.008,-0.004 -0.011,0c-0.003,0.003 -0.003,0.008 0,0.011c0.799,0.742 1.482,1.601 2.026,2.547c3,5.214 1.217,11.891 -3.978,14.901c-5.196,3.01 -11.85,1.221 -14.849,-3.992c-0.545,-0.947 -0.944,-1.97 -1.186,-3.035c-0.001,-0.004 -0.005,-0.007 -0.01,-0.006c-0.004,0.001 -0.006,0.006 -0.005,0.01c0.322,1.044 0.485,2.13 0.485,3.223c0,6.02 -4.871,10.908 -10.87,10.908c-5.999,0 -10.87,-4.888 -10.87,-10.908c0,-1.093 0.164,-2.179 0.485,-3.223c0.001,-0.004 -0.001,-0.009 -0.005,-0.01c-0.005,-0.001 -0.009,0.002 -0.01,0.006c-0.242,1.065 -0.641,2.088 -1.186,3.035c-2.999,5.213 -9.653,7.002 -14.848,3.992c-5.196,-3.01 -6.979,-9.687 -3.979,-14.901c0.544,-0.946 1.227,-1.805 2.026,-2.547c0.003,-0.003 0.003,-0.008 0,-0.011c-0.003,-0.004 -0.008,-0.003 -0.011,0c-0.74,0.801 -1.596,1.487 -2.539,2.033c-5.196,3.01 -11.849,1.221 -14.849,-3.993c-3,-5.214 -1.217,-11.89 3.979,-14.901c0.943,-0.546 1.962,-0.947 3.024,-1.189c0.004,-0.001 0.007,-0.006 0.005,-0.01c-0.001,-0.004 -0.005,-0.007 -0.009,-0.006c-1.04,0.323 -2.123,0.487 -3.212,0.487c-5.999,0 -10.87,-4.887 -10.87,-10.908c0,-6.02 4.871,-10.908 10.87,-10.908c1.089,0 2.172,0.164 3.212,0.487c0.004,0.001 0.008,-0.001 0.009,-0.006c0.002,-0.004 -0.001,-0.008 -0.005,-0.009c-1.062,-0.243 -2.081,-0.644 -3.024,-1.19c-5.196,-3.01 -6.979,-9.687 -3.979,-14.901c3,-5.214 9.653,-7.003 14.849,-3.992c0.943,0.546 1.799,1.231 2.539,2.033c0.003,0.003 0.008,0.003 0.011,0c0.003,-0.003 0.003,-0.008 0,-0.012c-0.799,-0.742 -1.482,-1.601 -2.026,-2.547c-3,-5.214 -1.217,-11.891 3.979,-14.901c5.195,-3.01 11.849,-1.221 14.848,3.993c0.545,0.946 0.944,1.969 1.186,3.034c0.001,0.004 0.005,0.007 0.01,0.006c0.004,-0.001 0.006,-0.006 0.005,-0.01Zm-29.191,48.011l0.002,0c0.115,-0.031 0.229,-0.064 0.342,-0.099l0.055,-0.016l0.601,-0.037l0.547,0.188l0.435,0.38l0.266,0.536l0.036,0.597l-0.186,0.544l-0.378,0.436l-0.538,0.268l-0.056,0.014c-0.116,0.027 -0.232,0.056 -0.348,0.087c-0.789,0.212 -1.548,0.528 -2.257,0.938c-4.482,2.597 -6.018,8.357 -3.431,12.855c2.585,4.494 8.319,6.037 12.797,3.443c0.709,-0.411 1.361,-0.913 1.94,-1.494l0.002,-0.001c0.083,-0.085 0.166,-0.17 0.246,-0.258l0.04,-0.041l0.5,-0.333l0.568,-0.111l0.568,0.111l0.5,0.333l0.331,0.5l0.109,0.564l-0.109,0.565l-0.331,0.5l-0.041,0.04c-0.087,0.08 -0.172,0.163 -0.256,0.247l-0.003,0.002c-0.578,0.581 -1.078,1.236 -1.488,1.947c-2.588,4.498 -1.052,10.259 3.43,12.855c4.478,2.595 10.212,1.051 12.797,-3.442c0.41,-0.713 0.725,-1.475 0.937,-2.269l0,-0.003c0.031,-0.115 0.06,-0.23 0.086,-0.346l0.014,-0.056l0.266,-0.536l0.435,-0.38l0.547,-0.188l0.6,0.037l0.538,0.268l0.378,0.436l0.186,0.544l-0.037,0.597l-0.015,0.055c-0.035,0.114 -0.068,0.228 -0.099,0.343l-0.001,0.003c-0.212,0.794 -0.319,1.612 -0.319,2.435c0,5.191 4.197,9.408 9.37,9.408c5.173,0 9.37,-4.217 9.37,-9.408c0,-0.823 -0.107,-1.641 -0.319,-2.435l-0.001,-0.003c-0.031,-0.115 -0.063,-0.229 -0.099,-0.343l-0.015,-0.055l-0.037,-0.597l0.186,-0.544l0.378,-0.436l0.538,-0.268l0.601,-0.037l0.546,0.188l0.435,0.38l0.266,0.536l0.014,0.056c0.026,0.116 0.055,0.231 0.086,0.346l0,0.003c0.212,0.794 0.527,1.556 0.937,2.269c2.585,4.493 8.319,6.037 12.797,3.442c4.482,-2.596 6.018,-8.357 3.43,-12.855c-0.409,-0.711 -0.91,-1.366 -1.488,-1.947c-0.085,-0.085 -0.171,-0.168 -0.259,-0.249l-0.041,-0.04l-0.33,-0.5l-0.11,-0.565l0.11,-0.564l0.33,-0.5l0.5,-0.333l0.568,-0.111l0.568,0.111l0.5,0.333l0.04,0.041c0.08,0.088 0.163,0.173 0.247,0.258l0.001,0.001c0.579,0.581 1.231,1.083 1.94,1.494c4.478,2.594 10.212,1.051 12.797,-3.443c2.588,-4.498 1.051,-10.258 -3.431,-12.855c-0.709,-0.41 -1.468,-0.726 -2.257,-0.938c-0.116,-0.031 -0.232,-0.06 -0.348,-0.087l-0.056,-0.014l-0.538,-0.268l-0.378,-0.436l-0.186,-0.544l0.036,-0.597l0.266,-0.536l0.435,-0.38l0.547,-0.188l0.601,0.037l0.055,0.016c0.113,0.035 0.227,0.068 0.342,0.099l0.002,0c0.79,0.213 1.604,0.32 2.423,0.32c5.173,0 9.37,-4.217 9.37,-9.408c0,-5.191 -4.197,-9.408 -9.37,-9.408c-0.819,0 -1.633,0.108 -2.423,0.32l-0.002,0.001c-0.115,0.03 -0.229,0.063 -0.342,0.099l-0.055,0.016l-0.601,0.037l-0.547,-0.189l-0.435,-0.379l-0.266,-0.537l-0.036,-0.596l0.186,-0.545l0.378,-0.435l0.538,-0.269l0.056,-0.014c0.116,-0.026 0.232,-0.055 0.348,-0.086c0.789,-0.213 1.548,-0.528 2.257,-0.939c4.482,-2.597 6.019,-8.357 3.431,-12.855c-2.585,-4.493 -8.319,-6.037 -12.797,-3.443c-0.709,0.411 -1.361,0.914 -1.94,1.494l-0.001,0.002c-0.084,0.084 -0.167,0.17 -0.247,0.257l-0.04,0.042l-0.5,0.332l-0.568,0.111l-0.568,-0.111l-0.5,-0.332l-0.33,-0.5l-0.11,-0.565l0.11,-0.564l0.33,-0.5l0.041,-0.04c0.087,-0.081 0.172,-0.164 0.256,-0.248l0.003,-0.002c0.578,-0.581 1.079,-1.235 1.488,-1.947c2.588,-4.498 1.052,-10.258 -3.43,-12.855c-4.478,-2.594 -10.212,-1.051 -12.797,3.443c-0.41,0.712 -0.725,1.475 -0.937,2.268l0,0.003c-0.031,0.115 -0.06,0.23 -0.086,0.347l-0.014,0.055l-0.266,0.536l-0.435,0.38l-0.546,0.189l-0.601,-0.037l-0.538,-0.269l-0.378,-0.436l-0.186,-0.544l0.037,-0.597l0.015,-0.055c0.036,-0.114 0.068,-0.228 0.099,-0.343l0.001,-0.003c0.212,-0.794 0.319,-1.612 0.319,-2.435c0,-5.191 -4.197,-9.408 -9.37,-9.408c-5.173,0 -9.37,4.217 -9.37,9.408c0,0.823 0.107,1.641 0.319,2.435l0.001,0.003c0.031,0.115 0.064,0.229 0.099,0.343l0.015,0.055l0.037,0.597l-0.186,0.544l-0.378,0.436l-0.538,0.269l-0.6,0.037l-0.547,-0.189l-0.435,-0.38l-0.266,-0.536l-0.014,-0.055c-0.026,-0.117 -0.055,-0.232 -0.086,-0.347l0,-0.003c-0.212,-0.793 -0.527,-1.556 -0.937,-2.268c-2.585,-4.494 -8.319,-6.037 -12.797,-3.443c-4.482,2.597 -6.018,8.357 -3.43,12.855c0.41,0.712 0.91,1.366 1.488,1.947c0.085,0.085 0.171,0.168 0.259,0.25l0.041,0.04l0.331,0.5l0.109,0.564l-0.109,0.565l-0.331,0.5l-0.5,0.332l-0.568,0.111l-0.568,-0.111l-0.5,-0.332l-0.04,-0.042c-0.08,-0.087 -0.163,-0.173 -0.246,-0.257l-0.002,-0.002c-0.579,-0.58 -1.231,-1.083 -1.94,-1.494c-4.478,-2.594 -10.212,-1.05 -12.797,3.443c-2.587,4.498 -1.051,10.258 3.431,12.855c0.709,0.411 1.468,0.726 2.257,0.939l0.004,0.001c0.114,0.03 0.229,0.059 0.344,0.085l0.056,0.014l0.538,0.269l0.378,0.435l0.186,0.545l-0.036,0.596l-0.266,0.537l-0.435,0.379l-0.547,0.189l-0.601,-0.037l-0.055,-0.016c-0.113,-0.036 -0.227,-0.069 -0.342,-0.099l-0.002,-0.001c-0.79,-0.212 -1.604,-0.32 -2.423,-0.32c-5.173,0 -9.37,4.217 -9.37,9.408c0,5.191 4.197,9.408 9.37,9.408c0.819,0 1.633,-0.107 2.423,-0.32Z" style="fill:#ffd2ec;"/><path d="M290.555,455.03c-0.179,-0.579 -0.269,-1.181 -0.269,-1.788c0,-3.34 2.702,-6.051 6.03,-6.051c3.329,-0 6.031,2.711 6.031,6.051c0,0.607 -0.091,1.209 -0.269,1.788c-0.001,0.003 0.001,0.005 0.003,0.006c0.002,0.001 0.005,-0.001 0.005,-0.003c0.134,-0.591 0.356,-1.159 0.658,-1.684c1.664,-2.892 5.356,-3.885 8.238,-2.215c2.883,1.67 3.872,5.374 2.208,8.267c-0.302,0.525 -0.681,1.001 -1.124,1.413c-0.002,0.002 -0.002,0.005 0,0.007c0.001,0.001 0.004,0.001 0.006,-0c0.41,-0.445 0.885,-0.825 1.408,-1.128c2.883,-1.67 6.574,-0.678 8.238,2.215c1.665,2.892 0.675,6.597 -2.207,8.267c-0.523,0.303 -1.089,0.525 -1.678,0.66c-0.002,-0 -0.004,0.003 -0.003,0.005c0.001,0.002 0.003,0.004 0.006,0.003c0.577,-0.179 1.177,-0.27 1.781,-0.27c3.329,-0 6.031,2.712 6.031,6.052c0,3.34 -2.702,6.052 -6.031,6.052c-0.604,-0 -1.204,-0.091 -1.781,-0.271c-0.003,-0 -0.005,0.001 -0.006,0.004c-0.001,0.002 0.001,0.004 0.003,0.005c0.589,0.134 1.155,0.357 1.678,0.66c2.882,1.67 3.872,5.374 2.207,8.267c-1.664,2.892 -5.355,3.885 -8.238,2.215c-0.523,-0.303 -0.998,-0.683 -1.408,-1.128c-0.002,-0.002 -0.005,-0.002 -0.006,-0c-0.002,0.002 -0.002,0.005 0,0.006c0.443,0.412 0.822,0.889 1.124,1.414c1.664,2.892 0.675,6.597 -2.208,8.267c-2.882,1.67 -6.574,0.677 -8.238,-2.216c-0.302,-0.524 -0.524,-1.092 -0.658,-1.683c0,-0.002 -0.003,-0.004 -0.005,-0.003c-0.002,-0 -0.004,0.003 -0.003,0.005c0.178,0.579 0.269,1.182 0.269,1.788c0,3.34 -2.702,6.052 -6.031,6.052c-3.328,-0 -6.03,-2.712 -6.03,-6.052c0,-0.606 0.09,-1.209 0.269,-1.788c0.001,-0.002 -0.001,-0.005 -0.003,-0.005c-0.002,-0.001 -0.005,0.001 -0.006,0.003c-0.134,0.591 -0.355,1.159 -0.657,1.683c-1.664,2.893 -5.356,3.886 -8.238,2.216c-2.883,-1.67 -3.872,-5.375 -2.208,-8.267c0.302,-0.525 0.681,-1.002 1.124,-1.414c0.002,-0.001 0.002,-0.004 0,-0.006c-0.001,-0.002 -0.004,-0.002 -0.006,-0c-0.41,0.445 -0.885,0.825 -1.408,1.128c-2.883,1.67 -6.574,0.677 -8.238,-2.215c-1.665,-2.893 -0.676,-6.597 2.207,-8.267c0.523,-0.303 1.089,-0.526 1.678,-0.66c0.002,-0.001 0.003,-0.003 0.003,-0.005c-0.001,-0.003 -0.003,-0.004 -0.006,-0.004c-0.577,0.18 -1.177,0.271 -1.781,0.271c-3.329,-0 -6.031,-2.712 -6.031,-6.052c0,-3.34 2.702,-6.052 6.031,-6.052c0.604,-0 1.204,0.091 1.781,0.27c0.003,0.001 0.005,-0.001 0.006,-0.003c0,-0.002 -0.001,-0.005 -0.003,-0.005c-0.589,-0.135 -1.155,-0.357 -1.678,-0.66c-2.883,-1.67 -3.872,-5.375 -2.207,-8.267c1.664,-2.893 5.355,-3.885 8.238,-2.215c0.523,0.303 0.998,0.683 1.408,1.128c0.002,0.001 0.005,0.001 0.006,-0c0.002,-0.002 0.002,-0.005 0,-0.007c-0.443,-0.412 -0.822,-0.888 -1.124,-1.413c-1.664,-2.893 -0.675,-6.597 2.208,-8.267c2.882,-1.67 6.574,-0.677 8.238,2.215c0.302,0.525 0.523,1.093 0.657,1.684c0.001,0.002 0.004,0.004 0.006,0.003c0.002,-0.001 0.004,-0.003 0.003,-0.006Zm-15.548,17.299l-0.599,-0.037l-0.055,-0.016c-0.055,-0.017 -0.11,-0.033 -0.165,-0.048c-0.382,-0.103 -0.776,-0.155 -1.172,-0.155c-2.502,-0 -4.531,2.041 -4.531,4.552c0,2.511 2.029,4.552 4.531,4.552c0.396,-0 0.79,-0.053 1.172,-0.155c0.055,-0.015 0.11,-0.031 0.165,-0.048l0.055,-0.016l0.599,-0.037l0.546,0.188l0.434,0.379l0.265,0.535l0.037,0.595l-0.187,0.543l-0.376,0.435l-0.537,0.267l-0.056,0.014c-0.055,0.013 -0.111,0.027 -0.166,0.042l-0.002,-0c-0.382,0.103 -0.748,0.255 -1.091,0.454c-2.169,1.257 -2.912,4.044 -1.659,6.221c1.249,2.172 4.021,2.919 6.186,1.665c0.343,-0.199 0.658,-0.442 0.938,-0.723c0.041,-0.04 0.081,-0.082 0.12,-0.124l0.04,-0.042l0.499,-0.331l0.566,-0.111l0.567,0.111l0.499,0.331l0.329,0.499l0.11,0.563l-0.11,0.563l-0.329,0.499l-0.041,0.04c-0.042,0.039 -0.084,0.079 -0.124,0.119l-0.002,0.002c-0.279,0.281 -0.521,0.597 -0.72,0.942c-1.252,2.176 -0.509,4.964 1.66,6.221c2.164,1.254 4.936,0.507 6.186,-1.666c0.198,-0.345 0.351,-0.714 0.453,-1.099c0.015,-0.055 0.029,-0.111 0.042,-0.168l0.013,-0.055l0.266,-0.535l0.434,-0.379l0.545,-0.188l0.599,0.037l0.537,0.268l0.377,0.435l0.186,0.543l-0.037,0.595l-0.016,0.055c-0.017,0.055 -0.032,0.11 -0.047,0.166c-0.103,0.385 -0.155,0.781 -0.155,1.18c0,2.511 2.028,4.552 4.53,4.552c2.502,-0 4.531,-2.041 4.531,-4.552c0,-0.399 -0.052,-0.795 -0.155,-1.18c-0.015,-0.056 -0.031,-0.111 -0.048,-0.166l-0.015,-0.055l-0.037,-0.595l0.186,-0.543l0.377,-0.435l0.537,-0.268l0.599,-0.037l0.545,0.188l0.434,0.379l0.266,0.535l0.013,0.055c0.013,0.057 0.027,0.113 0.042,0.168c0.102,0.385 0.255,0.754 0.453,1.099c1.25,2.173 4.022,2.92 6.186,1.666c2.169,-1.257 2.912,-4.045 1.659,-6.221c-0.198,-0.345 -0.44,-0.661 -0.72,-0.942l-0.001,-0.002c-0.04,-0.04 -0.082,-0.08 -0.124,-0.119l-0.041,-0.04l-0.329,-0.499l-0.11,-0.563l0.11,-0.563l0.329,-0.499l0.499,-0.331l0.567,-0.111l0.566,0.111l0.499,0.331l0.04,0.042c0.039,0.042 0.079,0.084 0.12,0.124c0.279,0.281 0.595,0.524 0.938,0.723c2.165,1.254 4.936,0.507 6.186,-1.665c1.252,-2.177 0.51,-4.964 -1.659,-6.221c-0.343,-0.199 -0.709,-0.351 -1.091,-0.454l-0.002,-0c-0.055,-0.015 -0.111,-0.029 -0.166,-0.042l-0.056,-0.014l-0.537,-0.267l-0.377,-0.435l-0.186,-0.543l0.037,-0.595l0.265,-0.535l0.434,-0.379l0.546,-0.188l0.599,0.037l0.055,0.016c0.055,0.017 0.11,0.033 0.165,0.048c0.382,0.102 0.776,0.155 1.172,0.155c2.502,-0 4.531,-2.041 4.531,-4.552c0,-2.511 -2.029,-4.552 -4.531,-4.552c-0.396,-0 -0.79,0.052 -1.172,0.155c-0.055,0.015 -0.11,0.031 -0.165,0.048l-0.055,0.016l-0.599,0.037l-0.546,-0.188l-0.434,-0.379l-0.265,-0.535l-0.037,-0.595l0.186,-0.543l0.377,-0.435l0.537,-0.268l0.056,-0.014c0.055,-0.012 0.111,-0.026 0.166,-0.041l0.002,-0.001c0.382,-0.102 0.748,-0.255 1.091,-0.453c2.169,-1.257 2.911,-4.045 1.659,-6.221c-1.25,-2.172 -4.021,-2.92 -6.186,-1.665c-0.343,0.198 -0.659,0.441 -0.938,0.722c-0.041,0.041 -0.081,0.083 -0.12,0.125l-0.04,0.041l-0.499,0.332l-0.566,0.111l-0.567,-0.111l-0.499,-0.332l-0.329,-0.498l-0.11,-0.563l0.11,-0.564l0.329,-0.498l0.041,-0.04c0.042,-0.039 0.084,-0.079 0.124,-0.12l0.001,-0.001c0.28,-0.281 0.522,-0.598 0.72,-0.942c1.253,-2.177 0.51,-4.964 -1.659,-6.221c-2.164,-1.254 -4.936,-0.507 -6.186,1.665c-0.198,0.345 -0.351,0.715 -0.453,1.099c-0.015,0.056 -0.029,0.112 -0.042,0.168l-0.013,0.056l-0.266,0.535l-0.434,0.378l-0.545,0.189l-0.599,-0.038l-0.537,-0.267l-0.377,-0.435l-0.186,-0.543l0.037,-0.595l0.015,-0.055c0.017,-0.055 0.033,-0.111 0.048,-0.166c0.103,-0.385 0.155,-0.782 0.155,-1.181c0,-2.51 -2.029,-4.551 -4.531,-4.551c-2.502,-0 -4.53,2.041 -4.53,4.551c0,0.399 0.052,0.796 0.155,1.181c0.015,0.055 0.03,0.111 0.047,0.166l0.016,0.055l0.037,0.595l-0.186,0.543l-0.377,0.435l-0.537,0.267l-0.599,0.038l-0.545,-0.189l-0.434,-0.378l-0.266,-0.535l-0.013,-0.056c-0.013,-0.056 -0.027,-0.112 -0.042,-0.168c-0.102,-0.384 -0.255,-0.754 -0.453,-1.099c-1.25,-2.172 -4.022,-2.919 -6.186,-1.665c-2.169,1.257 -2.912,4.044 -1.66,6.221c0.199,0.344 0.441,0.661 0.72,0.942l0.002,0.001c0.04,0.041 0.082,0.081 0.124,0.12l0.041,0.04l0.329,0.498l0.11,0.564l-0.11,0.563l-0.329,0.498l-0.499,0.332l-0.567,0.111l-0.566,-0.111l-0.499,-0.332l-0.04,-0.041c-0.039,-0.042 -0.079,-0.084 -0.12,-0.125c-0.28,-0.281 -0.595,-0.524 -0.938,-0.722c-2.165,-1.255 -4.937,-0.507 -6.186,1.665c-1.253,2.176 -0.51,4.964 1.659,6.221c0.343,0.198 0.709,0.351 1.091,0.453l0.002,0.001c0.055,0.015 0.111,0.029 0.166,0.041l0.056,0.014l0.537,0.268l0.376,0.435l0.187,0.543l-0.037,0.595l-0.265,0.535l-0.434,0.379l-0.546,0.188Z" style="fill:#ffd2ec;"/><path d="M173.373,448.328c-6.425,-1.574 -12.366,-6.09 -14.488,-12.375c-2.116,-6.295 0.403,-14.169 6.349,-17.095c5.936,-2.933 14.422,0.751 15.435,7.316c0.355,-4.147 0.95,-8.403 3.027,-12.001c2.083,-3.608 5.975,-6.436 10.116,-6.117c5.676,0.43 9.425,6.356 10.378,11.977c3.185,18.707 -12.872,32.692 -30.817,28.295Z" style="fill:none;fill-rule:nonzero;stroke:#ffd2ec;stroke-width:1.5px;"/><path d="M175.215,171.674c-0.215,-0.7 -0.325,-1.429 -0.325,-2.161c0,-4.036 3.266,-7.313 7.288,-7.313c4.022,0 7.287,3.277 7.287,7.313c0,0.732 -0.109,1.461 -0.325,2.161c-0.001,0.002 0.001,0.005 0.004,0.006c0.003,0.001 0.006,-0.001 0.006,-0.004c0.162,-0.714 0.43,-1.4 0.795,-2.034c2.011,-3.496 6.472,-4.695 9.955,-2.677c3.484,2.018 4.679,6.495 2.668,9.99c-0.365,0.634 -0.823,1.21 -1.358,1.708c-0.002,0.002 -0.003,0.006 0,0.008c0.002,0.002 0.005,0.002 0.007,0c0.496,-0.538 1.07,-0.997 1.702,-1.364c3.483,-2.018 7.944,-0.818 9.955,2.677c2.011,3.496 0.816,7.972 -2.667,9.99c-0.632,0.367 -1.316,0.635 -2.028,0.798c-0.002,0.001 -0.004,0.004 -0.003,0.006c0,0.003 0.003,0.005 0.006,0.004c0.698,-0.216 1.423,-0.326 2.153,-0.326c4.023,0 7.288,3.277 7.288,7.313c0,4.036 -3.265,7.313 -7.288,7.313c-0.73,0 -1.455,-0.11 -2.153,-0.326c-0.003,-0.001 -0.006,0.001 -0.006,0.003c-0.001,0.003 0.001,0.006 0.003,0.007c0.712,0.162 1.396,0.431 2.028,0.797c3.483,2.019 4.678,6.495 2.667,9.991c-2.011,3.495 -6.472,4.694 -9.955,2.676c-0.632,-0.366 -1.206,-0.825 -1.702,-1.363c-0.002,-0.002 -0.005,-0.002 -0.007,0c-0.003,0.002 -0.002,0.006 0,0.008c0.535,0.498 0.993,1.073 1.358,1.708c2.011,3.495 0.816,7.972 -2.668,9.99c-3.483,2.018 -7.944,0.818 -9.955,-2.677c-0.365,-0.634 -0.633,-1.32 -0.795,-2.034c0,-0.003 -0.003,-0.005 -0.006,-0.004c-0.003,0 -0.005,0.003 -0.004,0.006c0.216,0.7 0.325,1.428 0.325,2.161c0,4.036 -3.265,7.313 -7.287,7.313c-4.022,0 -7.288,-3.277 -7.288,-7.313c0,-0.733 0.11,-1.461 0.325,-2.161c0.001,-0.003 -0.001,-0.006 -0.003,-0.006c-0.003,-0.001 -0.006,0.001 -0.007,0.004c-0.162,0.714 -0.43,1.4 -0.795,2.034c-2.011,3.495 -6.472,4.695 -9.955,2.677c-3.483,-2.018 -4.678,-6.495 -2.667,-9.99c0.365,-0.635 0.823,-1.21 1.358,-1.708c0.002,-0.002 0.002,-0.006 0,-0.008c-0.002,-0.002 -0.005,-0.002 -0.008,0c-0.496,0.538 -1.069,0.997 -1.702,1.363c-3.483,2.018 -7.944,0.819 -9.955,-2.676c-2.011,-3.496 -0.816,-7.972 2.668,-9.991c0.632,-0.366 1.315,-0.635 2.027,-0.797c0.003,-0.001 0.005,-0.004 0.004,-0.007c-0.001,-0.002 -0.004,-0.004 -0.007,-0.003c-0.697,0.216 -1.423,0.326 -2.153,0.326c-4.022,0 -7.288,-3.277 -7.288,-7.313c0,-4.036 3.266,-7.313 7.288,-7.313c0.73,0 1.456,0.11 2.153,0.326c0.003,0.001 0.006,-0.001 0.007,-0.004c0.001,-0.002 -0.001,-0.005 -0.004,-0.006c-0.712,-0.163 -1.395,-0.431 -2.027,-0.798c-3.484,-2.018 -4.679,-6.494 -2.668,-9.99c2.011,-3.495 6.472,-4.695 9.955,-2.677c0.633,0.367 1.206,0.826 1.702,1.364c0.003,0.002 0.006,0.002 0.008,0c0.002,-0.002 0.002,-0.006 0,-0.008c-0.535,-0.498 -0.993,-1.074 -1.358,-1.708c-2.011,-3.495 -0.816,-7.972 2.667,-9.99c3.483,-2.018 7.944,-0.819 9.955,2.677c0.365,0.634 0.633,1.32 0.795,2.034c0.001,0.003 0.004,0.005 0.007,0.004c0.002,-0.001 0.004,-0.004 0.003,-0.006Zm-19.714,31.715l0.032,-0.009c0.066,-0.018 0.131,-0.037 0.196,-0.057l0.055,-0.016l0.058,-0.004l0.541,-0.033l0.546,0.188l0.435,0.379l0.265,0.535l0.037,0.596l-0.186,0.543l-0.378,0.435l-0.536,0.268l-0.056,0.014c-0.066,0.015 -0.132,0.032 -0.197,0.049l-0.034,0.009c-0.482,0.131 -0.945,0.325 -1.378,0.575c-2.77,1.605 -3.719,5.165 -2.12,7.944c1.597,2.776 5.138,3.73 7.903,2.127c0.433,-0.25 0.831,-0.556 1.185,-0.908c0.009,-0.01 0.019,-0.02 0.029,-0.029c0.047,-0.048 0.093,-0.096 0.138,-0.145l0.04,-0.042l0.048,-0.032l0.451,-0.299l0.567,-0.111l0.567,0.111l0.5,0.331l0.329,0.499l0.11,0.564l-0.11,0.564l-0.297,0.45l-0.032,0.049l-0.042,0.039c-0.048,0.046 -0.096,0.092 -0.143,0.138c-0.01,0.011 -0.021,0.021 -0.031,0.031c-0.351,0.356 -0.656,0.755 -0.905,1.189c-1.599,2.779 -0.651,6.339 2.119,7.944c2.766,1.602 6.307,0.648 7.903,-2.127c0.25,-0.434 0.442,-0.897 0.573,-1.38c0.004,-0.015 0.008,-0.031 0.012,-0.046c0.017,-0.064 0.033,-0.128 0.047,-0.192l0.014,-0.056l0.026,-0.051l0.24,-0.484l0.434,-0.379l0.546,-0.188l0.599,0.037l0.537,0.268l0.377,0.435l0.186,0.544l-0.033,0.537l-0.003,0.058l-0.016,0.055c-0.019,0.063 -0.038,0.126 -0.055,0.189c-0.004,0.016 -0.008,0.032 -0.013,0.048c-0.127,0.483 -0.191,0.981 -0.191,1.482c0,3.207 2.592,5.813 5.788,5.813c3.196,-0 5.787,-2.606 5.787,-5.813c0,-0.501 -0.064,-0.999 -0.191,-1.482c-0.004,-0.016 -0.008,-0.032 -0.012,-0.048c-0.018,-0.063 -0.036,-0.126 -0.055,-0.189l-0.016,-0.055l-0.004,-0.058l-0.033,-0.537l0.187,-0.544l0.377,-0.435l0.536,-0.268l0.6,-0.037l0.546,0.188l0.434,0.379l0.24,0.484l0.026,0.051l0.013,0.056c0.015,0.064 0.031,0.128 0.047,0.192c0.004,0.015 0.008,0.031 0.013,0.046c0.131,0.483 0.323,0.946 0.572,1.38c1.597,2.775 5.138,3.729 7.903,2.127c2.77,-1.605 3.719,-5.165 2.12,-7.944c-0.25,-0.434 -0.554,-0.833 -0.905,-1.189c-0.011,-0.01 -0.021,-0.02 -0.031,-0.031c-0.047,-0.046 -0.095,-0.092 -0.144,-0.138l-0.041,-0.039l-0.032,-0.049l-0.298,-0.45l-0.109,-0.564l0.109,-0.564l0.33,-0.499l0.499,-0.331l0.567,-0.111l0.567,0.111l0.451,0.299l0.049,0.032l0.039,0.042c0.046,0.049 0.092,0.097 0.139,0.145c0.009,0.009 0.019,0.019 0.029,0.029c0.354,0.352 0.752,0.658 1.184,0.908c2.766,1.603 6.307,0.649 7.903,-2.127c1.599,-2.779 0.651,-6.339 -2.119,-7.944c-0.433,-0.25 -0.896,-0.444 -1.378,-0.575l-0.035,-0.009c-0.065,-0.017 -0.13,-0.034 -0.196,-0.049l-0.056,-0.014l-0.052,-0.026l-0.485,-0.242l-0.377,-0.435l-0.186,-0.543l0.036,-0.596l0.266,-0.535l0.434,-0.379l0.546,-0.188l0.541,0.033l0.059,0.004l0.055,0.016c0.065,0.02 0.13,0.039 0.195,0.057l0.033,0.009c0.483,0.128 0.98,0.193 1.48,0.193c3.196,-0 5.788,-2.606 5.788,-5.813c0,-3.207 -2.592,-5.813 -5.788,-5.813c-0.5,-0 -0.997,0.065 -1.48,0.193l-0.033,0.009c-0.065,0.018 -0.13,0.037 -0.195,0.057l-0.055,0.016l-0.059,0.003l-0.541,0.034l-0.546,-0.188l-0.434,-0.379l-0.266,-0.536l-0.036,-0.595l0.186,-0.544l0.377,-0.435l0.485,-0.242l0.052,-0.026l0.056,-0.014c0.066,-0.015 0.131,-0.031 0.196,-0.048l0.035,-0.009c0.482,-0.131 0.945,-0.325 1.378,-0.576c2.77,-1.604 3.718,-5.164 2.119,-7.944c-1.596,-2.775 -5.137,-3.729 -7.903,-2.127c-0.432,0.251 -0.83,0.556 -1.184,0.909c-0.01,0.01 -0.02,0.019 -0.029,0.029c-0.047,0.047 -0.093,0.096 -0.139,0.145l-0.039,0.041l-0.049,0.033l-0.451,0.299l-0.567,0.111l-0.567,-0.111l-0.499,-0.332l-0.33,-0.499l-0.109,-0.563l0.109,-0.564l0.298,-0.45l0.032,-0.049l0.041,-0.04c0.049,-0.045 0.097,-0.091 0.144,-0.138c0.01,-0.01 0.02,-0.02 0.031,-0.031c0.351,-0.355 0.655,-0.754 0.905,-1.188c1.599,-2.779 0.65,-6.339 -2.12,-7.944c-2.765,-1.602 -6.306,-0.648 -7.903,2.127c-0.249,0.433 -0.441,0.897 -0.572,1.379c-0.005,0.016 -0.009,0.031 -0.013,0.047c-0.016,0.064 -0.032,0.128 -0.047,0.192l-0.013,0.055l-0.026,0.052l-0.24,0.484l-0.434,0.378l-0.546,0.189l-0.6,-0.037l-0.536,-0.268l-0.377,-0.435l-0.187,-0.544l0.033,-0.537l0.004,-0.058l0.016,-0.055c0.019,-0.063 0.037,-0.126 0.055,-0.189c0.004,-0.016 0.008,-0.032 0.012,-0.048c0.127,-0.483 0.191,-0.982 0.191,-1.482c0,-3.207 -2.591,-5.813 -5.787,-5.813c-3.196,-0 -5.788,2.606 -5.788,5.813c0,0.5 0.064,0.999 0.191,1.482c0.005,0.016 0.009,0.032 0.013,0.048c0.017,0.063 0.036,0.126 0.055,0.189l0.016,0.055l0.003,0.058l0.033,0.537l-0.186,0.544l-0.377,0.435l-0.537,0.268l-0.599,0.037l-0.546,-0.189l-0.434,-0.378l-0.24,-0.484l-0.026,-0.052l-0.014,-0.055c-0.014,-0.064 -0.03,-0.128 -0.047,-0.192c-0.004,-0.016 -0.008,-0.031 -0.012,-0.047c-0.131,-0.482 -0.323,-0.946 -0.573,-1.379c-1.596,-2.775 -5.137,-3.729 -7.903,-2.127c-2.77,1.605 -3.718,5.165 -2.119,7.944c0.249,0.434 0.554,0.833 0.905,1.188c0.01,0.011 0.021,0.021 0.031,0.031c0.047,0.047 0.095,0.093 0.143,0.138l0.042,0.04l0.032,0.049l0.297,0.45l0.11,0.564l-0.11,0.563l-0.329,0.499l-0.5,0.332l-0.567,0.111l-0.567,-0.111l-0.451,-0.299l-0.048,-0.033l-0.04,-0.041c-0.045,-0.049 -0.091,-0.098 -0.138,-0.145c-0.01,-0.01 -0.02,-0.019 -0.029,-0.029c-0.354,-0.353 -0.752,-0.658 -1.185,-0.909c-2.765,-1.602 -6.306,-0.648 -7.903,2.127c-1.599,2.78 -0.65,6.34 2.12,7.944c0.433,0.251 0.896,0.445 1.378,0.576l0.034,0.009c0.065,0.017 0.131,0.033 0.197,0.048l0.056,0.014l0.536,0.268l0.378,0.435l0.186,0.544l-0.037,0.595l-0.265,0.536l-0.435,0.379l-0.546,0.188l-0.541,-0.034l-0.058,-0.003l-0.055,-0.016c-0.065,-0.02 -0.13,-0.039 -0.196,-0.057l-0.032,-0.009c-0.483,-0.128 -0.981,-0.193 -1.481,-0.193c-3.196,-0 -5.788,2.606 -5.788,5.813c0,3.207 2.592,5.813 5.788,5.813c0.5,-0 0.998,-0.065 1.481,-0.193Z" style="fill:#ffd2ec;"/></g></g></g></svg>