<?xml version="1.0" encoding="UTF-8" standalone="no"?><!DOCTYPE svg PUBLIC "-//W3C//DTD SVG 1.1//EN" "http://www.w3.org/Graphics/SVG/1.1/DTD/svg11.dtd"><svg width="100%" height="100%" viewBox="0 0 376 618" version="1.1" xmlns="http://www.w3.org/2000/svg" xmlns:xlink="http://www.w3.org/1999/xlink" xml:space="preserve" xmlns:serif="http://www.serif.com/" style="fill-rule:evenodd;clip-rule:evenodd;stroke-linecap:round;stroke-linejoin:round;stroke-miterlimit:1.5;"><rect x="0" y="-0" width="375.643" height="617.857" style="fill:none;"/><clipPath id="_clip1"><rect x="0" y="-0" width="375.643" height="617.857"/></clipPath><g clip-path="url(#_clip1)"><g><path d="M180.332,-48.881c-0,-7.229 5.869,-13.097 13.097,-13.097c7.229,-0 13.098,5.868 13.098,13.097c3.614,-6.26 11.631,-8.408 17.892,-4.794c6.26,3.614 8.408,11.631 4.794,17.892c6.26,-3.615 14.277,-1.467 17.891,4.794c3.615,6.26 1.467,14.277 -4.794,17.891c7.229,0 13.098,5.869 13.098,13.098c-0,7.229 -5.869,13.098 -13.098,13.098c6.261,3.614 8.409,11.631 4.794,17.891c-3.614,6.261 -11.631,8.409 -17.891,4.794c3.614,6.261 1.466,14.278 -4.794,17.892c-6.261,3.614 -14.278,1.466 -17.892,-4.794c0,7.229 -5.869,13.097 -13.098,13.097c-7.228,0 -13.097,-5.868 -13.097,-13.097c-3.615,6.26 -11.632,8.408 -17.892,4.794c-6.26,-3.614 -8.408,-11.631 -4.794,-17.892c-6.26,3.615 -14.277,1.467 -17.891,-4.794c-3.615,-6.26 -1.467,-14.277 4.794,-17.891c-7.229,-0 -13.098,-5.869 -13.098,-13.098c-0,-7.229 5.869,-13.098 13.098,-13.098c-6.261,-3.614 -8.409,-11.631 -4.794,-17.891c3.614,-6.261 11.631,-8.409 17.891,-4.794c-3.614,-6.261 -1.466,-14.278 4.794,-17.892c6.26,-3.614 14.277,-1.466 17.892,4.794Z" style="fill:none;stroke:#daec88;stroke-width:7.5px;"/><path d="M180.332,157.068c-0,-7.229 5.869,-13.098 13.097,-13.098c7.229,0 13.098,5.869 13.098,13.098c3.614,-6.26 11.631,-8.408 17.892,-4.794c6.26,3.614 8.408,11.631 4.794,17.892c6.26,-3.615 14.277,-1.467 17.891,4.794c3.615,6.26 1.467,14.277 -4.794,17.891c7.229,0 13.098,5.869 13.098,13.098c-0,7.229 -5.869,13.097 -13.098,13.097c6.261,3.615 8.409,11.632 4.794,17.892c-3.614,6.26 -11.631,8.409 -17.891,4.794c3.614,6.26 1.466,14.277 -4.794,17.892c-6.261,3.614 -14.278,1.466 -17.892,-4.794c0,7.228 -5.869,13.097 -13.098,13.097c-7.228,0 -13.097,-5.869 -13.097,-13.097c-3.615,6.26 -11.632,8.408 -17.892,4.794c-6.26,-3.615 -8.408,-11.632 -4.794,-17.892c-6.26,3.615 -14.277,1.466 -17.891,-4.794c-3.615,-6.26 -1.467,-14.277 4.794,-17.892c-7.229,0 -13.098,-5.868 -13.098,-13.097c-0,-7.229 5.869,-13.098 13.098,-13.098c-6.261,-3.614 -8.409,-11.631 -4.794,-17.891c3.614,-6.261 11.631,-8.409 17.891,-4.794c-3.614,-6.261 -1.466,-14.278 4.794,-17.892c6.26,-3.614 14.277,-1.466 17.892,4.794Z" style="fill:none;stroke:#daec88;stroke-width:7.5px;"/><path d="M180.332,363.017c-0,-7.229 5.869,-13.098 13.097,-13.098c7.229,0 13.098,5.869 13.098,13.098c3.614,-6.26 11.631,-8.409 17.892,-4.794c6.26,3.614 8.408,11.631 4.794,17.891c6.26,-3.614 14.277,-1.466 17.891,4.794c3.615,6.261 1.467,14.278 -4.794,17.892c7.229,0 13.098,5.869 13.098,13.098c-0,7.228 -5.869,13.097 -13.098,13.097c6.261,3.615 8.409,11.632 4.794,17.892c-3.614,6.26 -11.631,8.408 -17.891,4.794c3.614,6.26 1.466,14.277 -4.794,17.892c-6.261,3.614 -14.278,1.466 -17.892,-4.794c0,7.228 -5.869,13.097 -13.098,13.097c-7.228,0 -13.097,-5.869 -13.097,-13.097c-3.615,6.26 -11.632,8.408 -17.892,4.794c-6.26,-3.615 -8.408,-11.632 -4.794,-17.892c-6.26,3.614 -14.277,1.466 -17.891,-4.794c-3.615,-6.26 -1.467,-14.277 4.794,-17.892c-7.229,0 -13.098,-5.869 -13.098,-13.097c-0,-7.229 5.869,-13.098 13.098,-13.098c-6.261,-3.614 -8.409,-11.631 -4.794,-17.892c3.614,-6.26 11.631,-8.408 17.891,-4.794c-3.614,-6.26 -1.466,-14.277 4.794,-17.891c6.26,-3.615 14.277,-1.466 17.892,4.794Z" style="fill:none;stroke:#daec88;stroke-width:7.5px;"/></g><g><path d="M285.785,53.531c-0,-7.229 5.868,-13.098 13.097,-13.098c7.229,0 13.098,5.869 13.098,13.098c3.614,-6.26 11.631,-8.408 17.891,-4.794c6.261,3.614 8.409,11.631 4.794,17.892c6.261,-3.615 14.278,-1.467 17.892,4.794c3.614,6.26 1.466,14.277 -4.794,17.891c7.229,0 13.098,5.869 13.098,13.098c-0,7.229 -5.869,13.097 -13.098,13.097c6.26,3.615 8.408,11.632 4.794,17.892c-3.614,6.26 -11.631,8.409 -17.892,4.794c3.615,6.26 1.467,14.277 -4.794,17.892c-6.26,3.614 -14.277,1.466 -17.891,-4.794c-0,7.229 -5.869,13.097 -13.098,13.097c-7.229,0 -13.097,-5.868 -13.097,-13.097c-3.615,6.26 -11.632,8.408 -17.892,4.794c-6.26,-3.615 -8.409,-11.632 -4.794,-17.892c-6.26,3.615 -14.277,1.466 -17.892,-4.794c-3.614,-6.26 -1.466,-14.277 4.794,-17.892c-7.228,0 -13.097,-5.868 -13.097,-13.097c-0,-7.229 5.869,-13.098 13.097,-13.098c-6.26,-3.614 -8.408,-11.631 -4.794,-17.891c3.615,-6.261 11.632,-8.409 17.892,-4.794c-3.615,-6.261 -1.466,-14.278 4.794,-17.892c6.26,-3.614 14.277,-1.466 17.892,4.794Z" style="fill:#daec88;"/><path d="M285.785,259.483c-0,-7.228 5.868,-13.097 13.097,-13.097c7.229,-0 13.098,5.869 13.098,13.097c3.614,-6.26 11.631,-8.408 17.891,-4.794c6.261,3.615 8.409,11.632 4.794,17.892c6.261,-3.615 14.278,-1.466 17.892,4.794c3.614,6.26 1.466,14.277 -4.794,17.892c7.229,-0 13.098,5.868 13.098,13.097c-0,7.229 -5.869,13.098 -13.098,13.098c6.26,3.614 8.408,11.631 4.794,17.891c-3.614,6.261 -11.631,8.409 -17.892,4.794c3.615,6.261 1.467,14.278 -4.794,17.892c-6.26,3.614 -14.277,1.466 -17.891,-4.794c-0,7.229 -5.869,13.098 -13.098,13.098c-7.229,-0 -13.097,-5.869 -13.097,-13.098c-3.615,6.26 -11.632,8.408 -17.892,4.794c-6.26,-3.614 -8.409,-11.631 -4.794,-17.892c-6.26,3.615 -14.277,1.467 -17.892,-4.794c-3.614,-6.26 -1.466,-14.277 4.794,-17.891c-7.228,-0 -13.097,-5.869 -13.097,-13.098c-0,-7.229 5.869,-13.097 13.097,-13.097c-6.26,-3.615 -8.408,-11.632 -4.794,-17.892c3.615,-6.26 11.632,-8.409 17.892,-4.794c-3.615,-6.26 -1.466,-14.277 4.794,-17.892c6.26,-3.614 14.277,-1.466 17.892,4.794Z" style="fill:#daec88;"/></g><g><path d="M180.332,568.976c-0,-7.229 5.869,-13.098 13.097,-13.098c7.229,0 13.098,5.869 13.098,13.098c3.614,-6.26 11.631,-8.409 17.892,-4.794c6.26,3.614 8.408,11.631 4.794,17.891c6.26,-3.614 14.277,-1.466 17.891,4.794c3.615,6.261 1.467,14.278 -4.794,17.892c7.229,0 13.098,5.869 13.098,13.098c-0,7.228 -5.869,13.097 -13.098,13.097c6.261,3.615 8.409,11.632 4.794,17.892c-3.614,6.26 -11.631,8.408 -17.891,4.794c3.614,6.26 1.466,14.277 -4.794,17.892c-6.261,3.614 -14.278,1.466 -17.892,-4.794c0,7.228 -5.869,13.097 -13.098,13.097c-7.228,0 -13.097,-5.869 -13.097,-13.097c-3.615,6.26 -11.632,8.408 -17.892,4.794c-6.26,-3.615 -8.408,-11.632 -4.794,-17.892c-6.26,3.614 -14.277,1.466 -17.891,-4.794c-3.615,-6.26 -1.467,-14.277 4.794,-17.892c-7.229,0 -13.098,-5.869 -13.098,-13.097c-0,-7.229 5.869,-13.098 13.098,-13.098c-6.261,-3.614 -8.409,-11.631 -4.794,-17.892c3.614,-6.26 11.631,-8.408 17.891,-4.794c-3.614,-6.26 -1.466,-14.277 4.794,-17.891c6.26,-3.615 14.277,-1.466 17.892,4.794Z" style="fill:none;stroke:#daec88;stroke-width:7.5px;"/><path d="M180.332,363.025c-0,-7.229 5.869,-13.098 13.097,-13.098c7.229,0 13.098,5.869 13.098,13.098c3.614,-6.261 11.631,-8.409 17.892,-4.794c6.26,3.614 8.408,11.631 4.794,17.891c6.26,-3.614 14.277,-1.466 17.891,4.794c3.615,6.261 1.467,14.278 -4.794,17.892c7.229,-0 13.098,5.869 13.098,13.098c-0,7.228 -5.869,13.097 -13.098,13.097c6.261,3.615 8.409,11.632 4.794,17.892c-3.614,6.26 -11.631,8.408 -17.891,4.794c3.614,6.26 1.466,14.277 -4.794,17.891c-6.261,3.615 -14.278,1.467 -17.892,-4.794c0,7.229 -5.869,13.098 -13.098,13.098c-7.228,0 -13.097,-5.869 -13.097,-13.098c-3.615,6.261 -11.632,8.409 -17.892,4.794c-6.26,-3.614 -8.408,-11.631 -4.794,-17.891c-6.26,3.614 -14.277,1.466 -17.891,-4.794c-3.615,-6.26 -1.467,-14.277 4.794,-17.892c-7.229,0 -13.098,-5.869 -13.098,-13.097c-0,-7.229 5.869,-13.098 13.098,-13.098c-6.261,-3.614 -8.409,-11.631 -4.794,-17.892c3.614,-6.26 11.631,-8.408 17.891,-4.794c-3.614,-6.26 -1.466,-14.277 4.794,-17.891c6.26,-3.615 14.277,-1.467 17.892,4.794Z" style="fill:none;stroke:#daec88;stroke-width:7.5px;"/></g><g><path d="M285.785,259.483c-0,-7.228 5.868,-13.097 13.097,-13.097c7.229,-0 13.098,5.869 13.098,13.097c3.614,-6.26 11.631,-8.408 17.891,-4.794c6.261,3.615 8.409,11.632 4.794,17.892c6.261,-3.615 14.278,-1.466 17.892,4.794c3.614,6.26 1.466,14.277 -4.794,17.892c7.229,-0 13.098,5.868 13.098,13.097c-0,7.229 -5.869,13.098 -13.098,13.098c6.26,3.614 8.408,11.631 4.794,17.891c-3.614,6.261 -11.631,8.409 -17.892,4.794c3.615,6.261 1.467,14.278 -4.794,17.892c-6.26,3.614 -14.277,1.466 -17.891,-4.794c-0,7.229 -5.869,13.098 -13.098,13.098c-7.229,-0 -13.097,-5.869 -13.097,-13.098c-3.615,6.26 -11.632,8.408 -17.892,4.794c-6.26,-3.614 -8.409,-11.631 -4.794,-17.892c-6.26,3.615 -14.277,1.467 -17.892,-4.794c-3.614,-6.26 -1.466,-14.277 4.794,-17.891c-7.228,-0 -13.097,-5.869 -13.097,-13.098c-0,-7.229 5.869,-13.097 13.097,-13.097c-6.26,-3.615 -8.408,-11.632 -4.794,-17.892c3.615,-6.26 11.632,-8.409 17.892,-4.794c-3.615,-6.26 -1.466,-14.277 4.794,-17.892c6.26,-3.614 14.277,-1.466 17.892,4.794Z" style="fill:#daec88;"/><path d="M285.785,465.435c-0,-7.228 5.868,-13.097 13.097,-13.097c7.229,-0 13.098,5.869 13.098,13.097c3.614,-6.26 11.631,-8.408 17.891,-4.794c6.261,3.615 8.409,11.632 4.794,17.892c6.261,-3.614 14.278,-1.466 17.892,4.794c3.614,6.26 1.466,14.277 -4.794,17.892c7.229,-0 13.098,5.869 13.098,13.097c-0,7.229 -5.869,13.098 -13.098,13.098c6.26,3.614 8.408,11.631 4.794,17.892c-3.614,6.26 -11.631,8.408 -17.892,4.794c3.615,6.26 1.467,14.277 -4.794,17.891c-6.26,3.615 -14.277,1.467 -17.891,-4.794c-0,7.229 -5.869,13.098 -13.098,13.098c-7.229,-0 -13.097,-5.869 -13.097,-13.098c-3.615,6.261 -11.632,8.409 -17.892,4.794c-6.26,-3.614 -8.409,-11.631 -4.794,-17.891c-6.26,3.614 -14.277,1.466 -17.892,-4.794c-3.614,-6.261 -1.466,-14.278 4.794,-17.892c-7.228,-0 -13.097,-5.869 -13.097,-13.098c-0,-7.228 5.869,-13.097 13.097,-13.097c-6.26,-3.615 -8.408,-11.632 -4.794,-17.892c3.615,-6.26 11.632,-8.408 17.892,-4.794c-3.615,-6.26 -1.466,-14.277 4.794,-17.892c6.26,-3.614 14.277,-1.466 17.892,4.794Z" style="fill:#daec88;"/></g><g><path d="M63.664,259.483c-0,-7.228 5.869,-13.097 13.097,-13.097c7.229,-0 13.098,5.869 13.098,13.097c3.614,-6.26 11.631,-8.408 17.892,-4.794c6.26,3.615 8.408,11.632 4.794,17.892c6.26,-3.615 14.277,-1.466 17.891,4.794c3.615,6.26 1.467,14.277 -4.794,17.892c7.229,-0 13.098,5.868 13.098,13.097c-0,7.229 -5.869,13.098 -13.098,13.098c6.261,3.614 8.409,11.631 4.794,17.891c-3.614,6.261 -11.631,8.409 -17.891,4.794c3.614,6.261 1.466,14.278 -4.794,17.892c-6.261,3.614 -14.278,1.466 -17.892,-4.794c0,7.229 -5.869,13.098 -13.098,13.098c-7.228,-0 -13.097,-5.869 -13.097,-13.098c-3.614,6.26 -11.631,8.408 -17.892,4.794c-6.26,-3.614 -8.408,-11.631 -4.794,-17.892c-6.26,3.615 -14.277,1.467 -17.891,-4.794c-3.615,-6.26 -1.467,-14.277 4.794,-17.891c-7.229,-0 -13.098,-5.869 -13.098,-13.098c0,-7.229 5.869,-13.097 13.098,-13.097c-6.261,-3.615 -8.409,-11.632 -4.794,-17.892c3.614,-6.26 11.631,-8.409 17.891,-4.794c-3.614,-6.26 -1.466,-14.277 4.794,-17.892c6.261,-3.614 14.278,-1.466 17.892,4.794Z" style="fill:#daec88;"/><path d="M63.664,465.435c-0,-7.228 5.869,-13.097 13.097,-13.097c7.229,-0 13.098,5.869 13.098,13.097c3.614,-6.26 11.631,-8.408 17.892,-4.794c6.26,3.615 8.408,11.632 4.794,17.892c6.26,-3.614 14.277,-1.466 17.891,4.794c3.615,6.26 1.467,14.277 -4.794,17.892c7.229,-0 13.098,5.869 13.098,13.097c-0,7.229 -5.869,13.098 -13.098,13.098c6.261,3.614 8.409,11.631 4.794,17.892c-3.614,6.26 -11.631,8.408 -17.891,4.794c3.614,6.26 1.466,14.277 -4.794,17.891c-6.261,3.615 -14.278,1.467 -17.892,-4.794c0,7.229 -5.869,13.098 -13.098,13.098c-7.228,-0 -13.097,-5.869 -13.097,-13.098c-3.614,6.261 -11.631,8.409 -17.892,4.794c-6.26,-3.614 -8.408,-11.631 -4.794,-17.891c-6.26,3.614 -14.277,1.466 -17.891,-4.794c-3.615,-6.261 -1.467,-14.278 4.794,-17.892c-7.229,-0 -13.098,-5.869 -13.098,-13.098c0,-7.228 5.869,-13.097 13.098,-13.097c-6.261,-3.615 -8.409,-11.632 -4.794,-17.892c3.614,-6.26 11.631,-8.408 17.891,-4.794c-3.614,-6.26 -1.466,-14.277 4.794,-17.892c6.261,-3.614 14.278,-1.466 17.892,4.794Z" style="fill:#daec88;"/></g><g><path d="M63.664,53.531c-0,-7.229 5.869,-13.098 13.097,-13.098c7.229,0 13.098,5.869 13.098,13.098c3.614,-6.26 11.631,-8.408 17.892,-4.794c6.26,3.614 8.408,11.631 4.794,17.892c6.26,-3.615 14.277,-1.467 17.891,4.794c3.615,6.26 1.467,14.277 -4.794,17.891c7.229,0 13.098,5.869 13.098,13.098c-0,7.229 -5.869,13.097 -13.098,13.097c6.261,3.615 8.409,11.632 4.794,17.892c-3.614,6.26 -11.631,8.409 -17.891,4.794c3.614,6.26 1.466,14.277 -4.794,17.892c-6.261,3.614 -14.278,1.466 -17.892,-4.794c0,7.229 -5.869,13.097 -13.098,13.097c-7.228,0 -13.097,-5.868 -13.097,-13.097c-3.614,6.26 -11.631,8.408 -17.892,4.794c-6.26,-3.615 -8.408,-11.632 -4.794,-17.892c-6.26,3.615 -14.277,1.466 -17.891,-4.794c-3.615,-6.26 -1.467,-14.277 4.794,-17.892c-7.229,0 -13.098,-5.868 -13.098,-13.097c0,-7.229 5.869,-13.098 13.098,-13.098c-6.261,-3.614 -8.409,-11.631 -4.794,-17.891c3.614,-6.261 11.631,-8.409 17.891,-4.794c-3.614,-6.261 -1.466,-14.278 4.794,-17.892c6.261,-3.614 14.278,-1.466 17.892,4.794Z" style="fill:#daec88;"/><path d="M63.664,259.483c-0,-7.228 5.869,-13.097 13.097,-13.097c7.229,-0 13.098,5.869 13.098,13.097c3.614,-6.26 11.631,-8.408 17.892,-4.794c6.26,3.615 8.408,11.632 4.794,17.892c6.26,-3.615 14.277,-1.466 17.891,4.794c3.615,6.26 1.467,14.277 -4.794,17.892c7.229,-0 13.098,5.868 13.098,13.097c-0,7.229 -5.869,13.098 -13.098,13.098c6.261,3.614 8.409,11.631 4.794,17.891c-3.614,6.261 -11.631,8.409 -17.891,4.794c3.614,6.261 1.466,14.278 -4.794,17.892c-6.261,3.614 -14.278,1.466 -17.892,-4.794c0,7.229 -5.869,13.098 -13.098,13.098c-7.228,-0 -13.097,-5.869 -13.097,-13.098c-3.614,6.26 -11.631,8.408 -17.892,4.794c-6.26,-3.614 -8.408,-11.631 -4.794,-17.892c-6.26,3.615 -14.277,1.467 -17.891,-4.794c-3.615,-6.26 -1.467,-14.277 4.794,-17.891c-7.229,-0 -13.098,-5.869 -13.098,-13.098c0,-7.229 5.869,-13.097 13.098,-13.097c-6.261,-3.615 -8.409,-11.632 -4.794,-17.892c3.614,-6.26 11.631,-8.409 17.891,-4.794c-3.614,-6.26 -1.466,-14.277 4.794,-17.892c6.261,-3.614 14.278,-1.466 17.892,4.794Z" style="fill:#daec88;"/></g></g></svg>